<?xml version="1.0" encoding="UTF-8"?>
<!DOCTYPE svg PUBLIC "-//W3C//DTD SVG 1.1//EN" "http://www.w3.org/Graphics/SVG/1.1/DTD/svg11.dtd">
<!-- Creator: CorelDRAW 2019 (64-Bit) -->
<svg xmlns="http://www.w3.org/2000/svg" xml:space="preserve" width="300mm" height="180mm" version="1.1" style="shape-rendering:geometricPrecision; text-rendering:geometricPrecision; image-rendering:optimizeQuality; fill-rule:evenodd; clip-rule:evenodd"
viewBox="0 0 30000 18000"
 xmlns:xlink="http://www.w3.org/1999/xlink">
 <defs>
  <style type="text/css">
   <![CDATA[
    .str0 {stroke:#E6E7E8;stroke-width:20;stroke-miterlimit:22.9256}
    .str2 {stroke:#3E4095;stroke-width:20;stroke-miterlimit:22.9256}
    .str1 {stroke:#009933;stroke-width:20;stroke-miterlimit:22.9256}
    .fil3 {fill:none}
    .fil0 {fill:#FEFEFE}
    .fil7 {fill:#FFF212}
    .fil4 {fill:#ED3237}
    .fil5 {fill:#3E4095}
    .fil2 {fill:#001D7F}
    .fil6 {fill:#009933}
    .fil1 {fill:#F10B27}
   ]]>
  </style>
 </defs>
 <g id="Layer_x0020_1">
  <metadata id="CorelCorpID_0Corel-Layer"/>
  <rect class="fil0 str0" x="47.21" y="0.07" width="29899.69" height="17999.99"/>
  <polygon class="fil1" points="38.84,6786.39 1.83,10350 12748.5,10284.96 17192.13,7717.02 17266.77,71.23 13262.64,86.66 13176.24,6803.23 "/>
  <path class="fil2" d="M11758.75 0.08l-8579.29 0c149.59,149.97 6699.28,3743.41 7461.48,4177.17 164.53,93.66 345.76,196.19 525.58,290.55 213.57,112.07 373.25,224.46 596.45,310.23l-4.22 -4777.95z"/>
  <path class="fil2" d="M29901.52 63.63l-11285.17 -63.55 -0.38 6806.7c495.96,-201.12 11226.46,-6684.4 11285.55,-6743.15z"/>
  <path class="fil1" d="M-2.93 16139.78l0 1520.76 2665.63 -1483.97c898.09,-509.52 1783.23,-1008.27 2671.15,-1498.98 905.65,-500.52 1769.44,-997.18 2664.57,-1504.18 467.3,-264.68 893.72,-497.52 1335.74,-749.58l1014.05 -571.32c177.52,-97.21 214.9,-70.18 203.14,-297.61 -603.34,-39.43 -1278.63,-18.51 -1891.68,-29.95 -648.68,-12.1 -686.12,113.29 -1402.86,525.08l-7259.74 4089.75z"/>
  <path class="fil1" d="M1.83 1299.06c321.73,119.74 874.04,470.85 1207.19,651.92l3659.18 2008.69c827.88,447.14 1601.28,888.54 2429.02,1334.58 195.34,105.26 407.8,225.65 611.1,339.81 357.67,200.82 405.01,142.47 849.38,141.82 636.86,-0.93 1330.16,24.52 1959.56,-5.46 -115.63,-137.83 -455.27,-289.4 -630.76,-386.44 -207.89,-114.98 -419.97,-232.26 -642.58,-355.23 -816.57,-451.09 -8887.38,-4889.51 -9027.74,-5028.67l-414.35 0 0 1298.98z"/>
  <path class="fil2" d="M-2.93 14598.54c343.31,-135.51 5433.06,-3028.49 5454.59,-3054.4l-5454.59 22.33 0 3032.07z"/>
  <path class="fil2" d="M1.83 5726.94l5364.86 -0.15c-122.8,-142.99 -487.77,-307.44 -662.66,-404.82 -887.66,-494.29 -4111.53,-2337.69 -4702.2,-2609.39l0 3014.36z"/>
  <polygon class="fil3" points="29997.06,836.89 29901.52,18000.07 847.83,17998.46 "/>
  <polygon class="fil4" points="29901.52,893.15 19364.22,7096.97 19363.52,17999.48 29901.52,18000.07 "/>
  <polygon class="fil3" points="19364.22,7096.97 11376.82,11799.53 11376.42,17999.04 19363.52,17999.48 "/>
  <polygon class="fil5" points="11376.82,11799.53 847.83,17998.46 11376.42,17999.04 "/>
  <polygon class="fil6 str1" points="26016,41.75 -2.93,14386.87 1.83,18000.07 4015.5,17998.63 29981.74,3588.08 29946.91,0.08 "/>
  <polygon class="fil7" points="14299.11,6501.68 7104.31,16284.42 26018.34,5787.67 "/>
  <path class="fil5 str2" d="M20865.08 8647.58c-4171.23,-1251.09 -6920.51,509.32 -7612.83,4224.91l7612.83 -4224.91z"/>
 </g>
</svg>
