<?xml version="1.0" encoding="UTF-8"?>
<!DOCTYPE svg PUBLIC "-//W3C//DTD SVG 1.1//EN" "http://www.w3.org/Graphics/SVG/1.1/DTD/svg11.dtd">
<!-- Creator: CorelDRAW 2020 (64 Bit) -->
<svg xmlns="http://www.w3.org/2000/svg" xml:space="preserve" width="400mm" height="300mm" version="1.1" style="shape-rendering:geometricPrecision; text-rendering:geometricPrecision; image-rendering:optimizeQuality; fill-rule:evenodd; clip-rule:evenodd"
viewBox="0 0 40000 30000"
 xmlns:xlink="http://www.w3.org/1999/xlink"
 xmlns:xodm="http://www.corel.com/coreldraw/odm/2003">
 <defs>
  <style type="text/css">
   <![CDATA[
    .fil0 {fill:#E6E6E6;fill-opacity:0.501961}
   ]]>
  </style>
 </defs>
 <g id="Camada_x0020_1">
  <metadata id="CorelCorpID_0Corel-Layer"/>
  <path class="fil0" d="M18241.46 24519.19c-438.75,1021.18 -755.02,1227.52 -1093.96,1413.58 100.12,-573.64 224.96,-1447.88 238.49,-2097.05 -386.94,878.33 -726.28,1515.84 -1740.53,2326.87 312.45,-971.69 763.38,-2230.98 792.73,-3319.8 -508.82,1271.73 -814.2,2032.62 -2390.32,2816.37l-74.17 0c696.72,-1143.28 1338.86,-1975.82 1352.45,-3464.54 -423.84,695.64 -2173.84,2041.22 -2635.79,2041.22 -54.19,0 1185.91,-1188.79 1346.11,-2399.85 -286.32,214.66 -1681.1,738.2 -3092.82,884.9 865.77,-407.95 1626.34,-966.45 1986.23,-1741.56 -1508.5,661.4 -2322.96,1692.96 -4644.43,1805.53 -1553.6,75.35 -3080.79,-570.62 -3996.39,-1385.56 -188.95,-168.16 -366.05,-355.67 -513.12,-561.91 1716.04,317.16 2412.39,856.97 4607.4,506.15 1032.23,-164.98 3211.96,-830.14 3742.75,-1627.35 -2568.56,393.85 -4799.71,1528.41 -7744.66,368.37 -1768.34,-696.55 -3610.56,-2602.62 -3864.19,-4992.75 1170.28,1385.49 2211.25,2402.44 4395.7,3063.33 1797.32,543.72 4734.45,732.67 6433.88,55.66 -1806.52,-47.2 -3352.49,-61.61 -4741.15,-310.21 -1416.79,-253.63 -2670.58,-751.72 -3871.16,-1777.8 -1906.91,-1629.81 -2734.03,-4938.13 -1933.37,-8482.53 377.06,370.52 451.91,1300.39 602.91,1812.5 753.97,2557.39 2312.59,4581.82 4408.63,5826.2 1430.79,849.46 3043.91,1294.17 4704.62,1371.43l-612.19 -347.68c-4508.95,-1649.8 -7756.54,-4381.62 -6718.22,-10320.5 117.72,-673.31 400.99,-1754.9 766.71,-2660.05 182.5,-451.56 577.78,-1342.87 1035.84,-1555.94 -684.31,8608.28 3843.37,11780.36 6125.64,13272.29 952.02,294.37 1526.01,559.6 1895.62,844.02 567.27,436.49 654.57,919.36 890.89,1624.56 400.42,1195.06 1287.33,2092.31 2614.57,2351.33 2052.81,400.64 2360.02,-771.48 2360.89,-2623.65 0.99,-2002.16 -262.79,-3083.96 -2128.49,-2120.05 131.32,-742.96 329.64,-999.65 984.93,-1219 1174.21,-393.09 381.56,-206.84 1117.31,-960.23 1218.61,-174.25 2054.48,339.54 2712.61,-585.72l31.56 484.89c2.73,-22.69 18.86,68.56 36.67,98.37 711.61,-187.49 1235.57,-602.7 1387.23,-1350.11 307.26,2388.43 -1789.04,1924.28 -1984.43,3325.6 -85.99,616.85 -30.73,2103.58 -21.42,2795.59 13.05,968.67 86.86,1531.26 698.74,1933.43 1371.43,901.32 3151.05,-300.89 3712.61,-1033.97 1172.18,-1530.02 77.06,-2139.4 2238.43,-3052.31 4416.61,-1865.38 8147.63,-6852.57 7238.15,-13783.47 463.36,212.14 862.8,1124.05 1044.88,1579.58 378.15,946.16 667.83,2082.59 778,2759.06 830.37,5097.32 -1972.62,8628.55 -6293.78,10060.83l-959.07 411.04c-13.22,-24.43 -49.16,19.25 -60.13,31.64 -13.6,15.39 -27.5,32.12 -38.59,42.05 2546.43,-128.3 5123.09,-1401.34 6481.85,-2831.97 2437.97,-2566.96 2052.62,-3183.42 3087.41,-6333.95 1220.99,1809.46 304.87,6553.89 -1537.12,8407.67 -55.28,55.63 -111.77,109.01 -168.89,159.44 -2329.45,2056.63 -5019,2067.63 -8692.15,2157.39 1661.92,666.61 4665.65,476.77 6432.81,-55.34 2190.45,-659.62 3219.36,-1679.64 4396.36,-3063.86 -471.18,4454.38 -4792.8,5897.5 -8432.52,5340.49 -644.87,-98.66 -3222.28,-783.36 -3356.34,-720.16 1125.69,774.67 2299.48,1343.31 3799.27,1610.69 2227.61,397.12 2965.92,-164.32 4730.46,-484.34 -140.85,196.01 -308.27,374.39 -487.07,535.92 -885.09,799.51 -2362.39,1452.3 -3871.55,1417.04 -966.52,-22.61 -1860.65,-283.45 -2624.48,-613.33 -797.56,-344.4 -1416.81,-872.46 -2066.99,-1095.14 788.9,1597.15 2963.5,2143.41 4607.09,2500.05 -1088.59,1088.98 -3683.53,266.39 -4743.64,-636.22l-1074.54 -1111.73c255.86,1902.59 1335.43,2134.86 2374.95,2977.07 -848.67,-47.36 -1621.6,-431.14 -2218.34,-894.71 -789.07,-612.97 -832.54,-1143.95 -1444.59,-1721.95 13.88,1655.65 932.17,2570.54 1584.73,3418.49 -75.94,6.2 -154.35,17.79 -236.33,34.75 -15.16,3.14 -30.26,6.76 -45.3,10.87l-44.24 0c-1706.69,-821.24 -1358.61,-1831.61 -2371.31,-2816.37 33.67,1388.85 212.49,2166.23 472.46,2816.37 -514.03,-392.21 -994.39,-964.3 -1420.88,-1823.44 14,647.06 83.06,1248.05 181.98,1823.44 -501.33,-306.44 -667.33,-609.68 -1037.02,-1139.54 -1269.35,689.69 -1354.58,2899.06 -1502.83,3720.04 -344.77,-789.65 -1078.53,-3354.11 -1904.04,-3720.47z"/>
 </g>
</svg>
