<?xml version="1.0" encoding="UTF-8"?>
<!DOCTYPE svg PUBLIC "-//W3C//DTD SVG 1.1//EN" "http://www.w3.org/Graphics/SVG/1.1/DTD/svg11.dtd">
<!-- Creator: CorelDRAW 2020 (64 Bit) -->
<svg xmlns="http://www.w3.org/2000/svg" xml:space="preserve" width="300mm" height="300mm" version="1.1" style="shape-rendering:geometricPrecision; text-rendering:geometricPrecision; image-rendering:optimizeQuality; fill-rule:evenodd; clip-rule:evenodd"
viewBox="0 0 30000 30000"
 xmlns:xlink="http://www.w3.org/1999/xlink"
 xmlns:xodm="http://www.corel.com/coreldraw/odm/2003">
 <defs>
  <style type="text/css">
   <![CDATA[
    .fil0 {fill:#637BF7}
    .fil3 {fill:#68AA50}
    .fil1 {fill:#EC4D3B}
    .fil2 {fill:#FBC30F}
    .fil5 {fill:white}
    .fil4 {fill:gray;fill-rule:nonzero}
   ]]>
  </style>
 </defs>
 <g id="Camada_x0020_1">
  <metadata id="CorelCorpID_0Corel-Layer"/>
  <path class="fil0" d="M18764.87 15040.95c30.49,443.22 -227.97,747.44 -557.09,847.78 -201.92,61.55 -403.09,41.07 -577.31,-43.75 -113.28,-55.14 -218.75,-148.96 -292.04,-244.3 -15.18,-19.74 -20.03,-28.47 -37.39,-53.03 -3.05,-4.31 -6.77,-9.91 -9.77,-14.12l-31.92 -42.86 -487.46 208.09c201.98,570.32 1036.9,975.28 1744.31,655.55 196.65,-88.88 402.59,-240.93 507.36,-388.72 350.12,-493.89 289.85,-763.13 289.85,-1450.79 0,-589.07 0,-1178.14 0,-1767.21l-554.11 -7.63c-0.11,20.54 2.04,51.49 -2.8,70.64 -11.73,46.38 -3.91,20.08 -22.3,45.98 -111.75,-125.47 -454.79,-228.6 -669.39,-241.82 -1433.57,-88.32 -1946.33,1819.86 -766.23,2487.58 209.67,118.63 461.83,196.36 745.02,181.51 376.4,-19.74 455.91,-129.46 721.27,-242.9zm-840.78 -1881.84c-1063.62,99.26 -922.44,1654 118.66,1579.31 437.59,-31.39 729.19,-383.33 717.29,-851.49 -10.44,-410.34 -408.13,-767.74 -835.95,-727.82z"/>
  <path class="fil0" d="M10862.15 13031.66l-2031.56 0 0 576.39 1432.73 0c16.56,213.95 -294.18,598.63 -457.96,750.5 -688.44,638.35 -2032.54,429.64 -2403.71,-642.07 -234.94,-678.37 13.06,-1354.62 586.43,-1756.99 488.24,-342.61 1189.43,-337.74 1694.8,13.21 71.69,49.79 110.77,95.7 171.77,136.98l352.12 -393.3c-192.56,-276.68 -834.7,-523.06 -1252.74,-546.2 -1601.5,-88.65 -2684.2,1586.31 -1948.17,2986.49 204.78,389.55 499.41,686.96 902.76,888.29 1372.38,685.02 3079.82,-340.35 2953.53,-2013.3z"/>
  <path class="fil1" d="M12126.95 12634.26c-790.9,143.86 -1234.89,846.65 -1103.68,1558.37 121.43,658.63 764.07,1224.33 1565.66,1069.76 647.73,-124.9 1209.75,-755.17 1064.07,-1552.3 -117.45,-642.64 -739.3,-1218.94 -1526.05,-1075.83zm89.66 537.29c-1085.89,200.89 -742.51,1740.62 263.91,1556.99 1031.18,-188.14 734,-1741.59 -263.91,-1556.99z"/>
  <path class="fil2" d="M14947.78 12634.26c-417.33,73.82 -660.95,260.43 -844.56,493.28 -194.15,246.22 -334.64,646.96 -259.16,1066.5 117.43,652.84 765.57,1223.43 1565.67,1067.94 647.98,-125.92 1206.56,-752.75 1063.98,-1550.09 -115.61,-646.49 -738.96,-1216.83 -1525.93,-1077.63zm-581.87 1320.86c0,1031.39 1583.73,1037.06 1583.73,0 0,-1058.56 -1583.73,-1049.79 -1583.73,0z"/>
  <path class="fil1" d="M22748.46 14693.89c-70.62,-63.04 -362.49,-275.5 -458.94,-302.17 -70.95,174.85 -347.8,350.6 -642.22,348.85 -383.34,-2.28 -487.17,-186.22 -647.78,-329.37 24.86,-30.11 4.52,-11.31 38.19,-35.05l1877.34 -851.88c-384.39,-1264.71 -2323.29,-1196.23 -2578.84,172.42 -137.34,735.57 310.85,1271.66 784,1479.75 651.01,286.33 1438.03,-62.31 1628.25,-482.55zm-1890.24 -751.52c189.15,-59.74 861.45,-380.87 1143.19,-505.24 56.88,-25.11 118.44,-40.22 160.67,-86.47 -358.79,-377.74 -1272.82,-210.25 -1303.86,591.71z"/>
  <polygon class="fil3" points="19570.71,15162.73 19654.68,15171 20035.03,15169.62 20119.58,15164.34 20119.45,11355.26 19570.71,11347.93 "/>
  <path class="fil4" d="M7645.7 17552.18c12.28,0 22.03,2.89 28.89,9.03 6.86,6.13 10.11,15.88 10.11,28.88l0 34.67c0,13.72 -3.25,24.19 -10.11,31.41 -6.86,7.22 -16.61,10.83 -28.89,10.83l-235.06 0 0 1103.83c0,13.72 -3.61,23.83 -11.19,30.33 -7.59,6.5 -16.97,9.75 -27.81,9.75l-50.91 0c-23.83,0 -35.75,-13.36 -35.75,-40.08l0 -1103.83 -166.82 0c-12.27,0 -21.66,-3.61 -28.52,-10.83 -6.86,-7.22 -10.47,-17.69 -10.47,-31.41l0 -34.67c0,-13 3.61,-22.75 10.47,-28.88 6.86,-6.14 16.25,-9.03 28.52,-9.03l166.82 0 0 -218.46c0,-59.21 9.75,-112.65 28.89,-160.68 19.14,-47.66 45.5,-88.82 79.08,-123.13 33.94,-34.3 74.02,-60.66 120.6,-79.07 46.58,-18.42 97.13,-27.44 151.65,-27.44 13.72,0 24.2,3.61 31.42,11.19 7.22,7.58 10.83,17.33 10.83,29.61l0 46.22c0,12.27 -3.61,21.3 -10.83,27.44 -7.22,6.14 -16.25,9.03 -27.08,9.03 -36.47,0 -70.42,6.13 -101.83,18.77 -31.41,12.64 -58.86,31.78 -81.96,57.41 -23.11,25.64 -41.53,58.14 -54.89,97.13 -13.36,39 -20.22,85.22 -20.22,138.66l0 173.32 235.06 0zm219.9 575.2c0,-64.99 8.67,-127.82 25.64,-188.48 16.97,-60.66 40.8,-117.35 71.86,-170.07 31.05,-52.72 68.24,-100.74 111.57,-144.07 43.69,-43.33 91.72,-80.52 144.43,-111.58 52.72,-31.05 109.41,-55.24 169.71,-72.21 60.3,-16.97 122.77,-25.28 188.13,-25.28 64.99,0 127.46,8.31 187.76,25.28 60.66,16.97 116.99,41.16 169.71,72.21 52.71,31.06 101.1,68.25 144.79,111.58 43.69,43.33 81.24,91.35 112.3,144.07 31.05,52.72 54.88,109.41 71.85,170.07 16.97,60.66 25.64,123.49 25.64,188.48 0,65 -8.67,127.83 -25.64,188.49 -16.97,60.66 -40.8,117.35 -71.85,170.07 -31.06,52.71 -68.61,100.74 -112.3,144.07 -43.69,43.33 -92.08,80.52 -144.79,111.57 -52.72,31.06 -109.05,54.89 -169.71,71.86 -60.3,16.97 -122.77,25.63 -187.76,25.63 -65.36,0 -127.83,-8.66 -188.13,-25.63 -60.3,-16.97 -116.99,-40.8 -169.71,-71.86 -52.71,-31.05 -100.74,-68.24 -144.43,-111.57 -43.33,-43.33 -80.52,-91.36 -111.57,-144.07 -31.06,-52.72 -54.89,-109.41 -71.86,-170.07 -16.97,-60.66 -25.64,-123.49 -25.64,-188.49zm129.99 0c0,52.72 6.86,103.63 20.59,153.1 13.72,49.11 33.22,95.69 58.13,139.38 24.91,43.69 54.88,83.77 89.91,119.88 35.02,36.47 74.02,67.88 116.99,93.52 42.97,26 88.83,46.22 137.57,60.66 48.75,14.44 99.66,21.66 153.1,21.66 80.16,0 155.99,-15.16 227.12,-45.85 71.13,-30.69 133.24,-72.58 186.68,-125.66 53.44,-52.72 95.69,-114.82 126.74,-185.96 31.05,-70.77 46.58,-146.96 46.58,-228.56 0,-79.44 -15.17,-154.91 -45.5,-226.4 -30.33,-71.85 -71.49,-134.68 -123.85,-188.85 -52.36,-54.16 -113.74,-97.13 -184.15,-129.26 -70.41,-32.14 -145.88,-48.03 -226.04,-48.03 -80.16,0 -155.62,15.53 -226.76,46.94 -71.13,31.42 -133.24,74.03 -185.95,128.19 -52.72,54.16 -94.25,116.63 -124.94,188.12 -30.69,71.5 -46.22,146.96 -46.22,227.12zm2403.72 -462.54c-3.61,3.61 -7.58,5.41 -11.91,5.41 -5.06,0 -10.83,-1.44 -17.7,-4.33 -6.86,-2.89 -15.88,-8.3 -26.72,-16.25 -15.16,-10.83 -32.85,-22.02 -53.44,-33.22 -20.58,-11.19 -42.24,-21.66 -64.99,-31.41 -22.75,-9.75 -45.86,-17.7 -69.33,-23.83 -23.47,-6.14 -46.58,-9.03 -68.96,-9.03 -55.61,0 -107.97,9.75 -157.07,29.25 -49.11,19.5 -92.08,46.94 -128.91,82.68 -36.83,35.75 -65.72,79.44 -87.02,131.08 -21.31,51.63 -32.14,109.41 -32.14,172.96l0 809.18c0,22.39 -11.19,33.58 -33.94,33.58l-56.69 0c-23.47,0 -35.02,-11.19 -35.02,-33.58l0 -1302.06c0,-19.5 10.11,-29.25 29.97,-29.25 1.8,0 3.61,0.36 5.05,1.08 1.44,-0.72 3.97,-1.08 7.58,-1.08l43.69 0c12.64,0 22.39,3.97 29.25,11.56 6.86,7.58 10.11,16.97 10.11,28.52l0 176.57c15.17,-28.16 35.03,-55.97 59.58,-83.41 24.55,-27.44 53.44,-52 86.66,-74.02 33.22,-22.03 70.41,-40.08 111.21,-53.8 40.81,-13.72 84.5,-20.58 131.44,-20.58 37.55,0 72.57,2.52 104.71,7.58 32.14,5.05 62.47,12.64 91.35,23.11 28.89,10.11 56.69,23.11 83.41,38.63 26.72,15.89 53.44,34.31 80.16,55.25 7.23,5.78 13.73,11.91 19.5,18.41 5.78,6.5 8.67,14.09 8.67,22.75 0,6.5 -6.14,16.25 -18.42,29.61 -12.27,13.36 -25.63,26.36 -40.08,38.64zm1070.24 506.96c2.17,12.27 3.98,28.52 5.06,49.1 1.08,20.58 3.97,40.08 9.03,58.14 18.05,64.27 44.77,123.13 79.8,176.57 35.02,53.44 76.54,99.29 124.93,137.57 48.38,38.27 102.55,68.24 162.13,89.91 59.57,21.66 122.4,32.49 188.84,32.49 38.28,0 74.02,-2.88 107.24,-8.66 33.22,-5.78 64.27,-14.08 92.8,-24.56 28.53,-10.47 55.61,-22.74 81.24,-37.19 25.64,-14.44 49.83,-30.33 72.94,-47.66 7.22,-4.33 14.81,-9.75 22.39,-15.89 7.58,-6.14 14.8,-11.91 22.03,-17.33 7.22,-5.42 14.08,-10.11 20.22,-14.08 6.13,-3.97 11.55,-5.78 16.61,-5.78 5.77,0 12.27,4.7 19.49,14.08 12.28,17.34 21.31,30.7 26.72,40.08 5.42,9.39 7.95,16.61 7.95,21.67 0,2.89 -1.45,5.78 -4.34,8.66 3.62,3.62 5.42,7.23 5.42,10.84 -7.94,10.11 -17.69,20.58 -29.25,31.41 -11.55,10.83 -25.27,21.67 -41.16,32.5 -58.5,41.88 -121.68,74.74 -189.57,98.94 -67.88,24.19 -141.9,36.46 -222.06,36.46 -97.5,0 -189.21,-18.77 -275.51,-55.96 -86.3,-37.19 -161.76,-88.11 -226.4,-152.74 -64.63,-64.63 -115.9,-140.1 -153.82,-226.04 -37.91,-85.94 -57.05,-177.65 -57.05,-275.5 0,-65.72 8.31,-128.91 24.92,-189.57 16.61,-60.66 40.08,-117.35 70.41,-170.07 30.33,-52.72 67.16,-100.74 110.13,-144.43 42.97,-43.33 90.99,-80.52 144.07,-111.58 53.08,-31.05 110.13,-54.88 171.15,-71.85 61.02,-16.97 124.94,-25.64 192.1,-25.64 62.83,0 123.85,7.58 182.7,22.75 58.86,15.16 114.11,37.19 166.1,66.08 52,28.52 99.66,63.91 142.63,105.79 42.97,41.89 79.8,89.19 110.85,141.91 31.05,52.36 55.61,110.49 73.66,174.04 18.06,63.55 28.17,131.07 30.33,203.29l0 -1.08c0,0.72 0.36,1.8 0.72,2.88 0.37,1.09 0.37,2.17 0.37,3.62 0,24.55 -11.56,36.83 -34.67,36.83l-1251.15 0zm424.64 -610.95c-54.89,14.44 -106.16,37.19 -153.82,67.88 -47.67,31.05 -89.91,67.88 -126.74,110.49 -36.83,42.61 -67.53,89.55 -92.44,141.54 -24.92,52 -42.25,106.16 -51.64,163.21l1159.08 0c-8.67,-72.21 -29.97,-139.01 -64.28,-200.4 -34.3,-61.74 -77.63,-115.18 -129.62,-159.96 -52,-45.13 -110.86,-80.52 -176.93,-106.15 -66.08,-25.64 -135.41,-38.28 -207.63,-38.28 -24.55,0 -48.38,1.08 -71.49,3.61 -23.11,2.53 -51.27,8.67 -84.49,18.06zm2522.88 1215.4c0,23.11 -11.56,34.66 -34.67,34.66l-56.33 0c-23.1,0 -34.66,-11.55 -34.66,-34.66l0 -181.27 -4.33 -80.16c-14.45,23.83 -29.97,48.39 -46.58,72.94 -16.61,24.56 -34.3,45.5 -53.08,62.83 -64.27,60.66 -136.49,107.24 -217.01,139.74 -80.52,32.5 -165.74,48.74 -256.01,48.74 -64.63,0 -127.46,-8.66 -187.76,-25.63 -60.3,-16.97 -116.63,-40.8 -169.35,-71.86 -52.72,-31.05 -100.74,-68.24 -144.07,-111.57 -42.97,-43.69 -80.16,-91.36 -111.21,-143.71 -31.06,-52.36 -55.25,-109.05 -72.22,-169.71 -16.97,-60.66 -25.27,-123.49 -25.27,-188.85 0,-64.99 8.3,-127.82 25.27,-188.48 16.97,-60.66 41.16,-117.35 72.22,-170.07 31.05,-52.72 68.24,-100.74 111.21,-144.43 43.33,-43.33 91.35,-80.52 144.07,-111.58 52.72,-31.05 109.05,-54.88 169.35,-71.85 60.3,-16.97 123.13,-25.64 187.76,-25.64 45.5,0 89.91,4.69 133.24,14.08 43.33,9.39 85.22,22.75 125.66,39.72 40.44,16.97 78.71,37.19 115.18,61.02 36.47,24.2 70.05,50.56 101.11,79.44 19.49,20.22 36.47,40.44 50.91,61.03 14.44,20.58 31.41,44.41 50.91,71.13l0 -696.89c0,-5.05 1.81,-9.39 5.42,-13 3.61,-3.61 8.3,-5.41 14.08,-5.41l76.91 -1.09c19.5,0 29.25,9.75 29.25,29.25l0 1721.28zm-1278.23 -648.87c0,79.44 14.8,154.55 44.77,225.32 29.97,71.13 70.77,133.6 122.77,187.04 52,53.8 112.66,96.41 182.35,128.18 69.32,31.78 143.71,47.66 223.14,47.66 80.16,0 155.63,-15.16 227.13,-45.85 71.49,-30.69 133.96,-72.58 187.4,-125.66 53.8,-52.72 96.04,-115.18 127.1,-186.32 31.05,-71.49 46.58,-147.32 46.58,-228.2 0,-79.44 -15.17,-154.91 -45.5,-226.4 -30.33,-71.85 -71.49,-134.68 -124.21,-188.85 -52.72,-54.16 -114.46,-97.13 -184.88,-129.26 -70.77,-32.14 -145.87,-48.03 -226.03,-48.03 -80.16,0 -155.27,15.53 -226.04,46.94 -70.41,31.42 -132.16,74.03 -184.15,128.19 -52.36,54.16 -93.88,116.63 -124.57,188.12 -30.7,71.5 -45.86,146.96 -45.86,227.12zm2616.03 529.71l-2.17 -67.16c-23.83,36.83 -50.91,70.05 -81.24,99.66 -30.69,29.61 -64.27,54.88 -101.1,75.82 -36.83,20.95 -77.27,36.83 -120.6,48.03 -43.33,11.19 -90.27,16.97 -141.19,16.97 -83.77,0 -161.04,-15.17 -231.09,-45.5 -70.05,-30.33 -130.71,-71.49 -181.26,-123.49 -50.55,-51.99 -90.27,-113.38 -118.8,-183.79 -28.52,-70.41 -42.97,-145.51 -42.97,-225.67l0 -773.44c0,-15.89 3.98,-27.8 11.92,-35.75 7.94,-7.94 18.41,-11.91 32.14,-11.91l40.8 0c16.61,0 27.44,3.61 32.86,10.83 5.41,7.22 7.94,19.14 7.94,35.75l0 781.38c1.44,57.77 13,113.38 34.66,167.18 21.67,53.44 52.36,101.1 91.36,142.99 38.99,42.24 86.3,75.46 141.54,100.38 55.61,24.91 118.07,37.55 187.4,37.55 57.05,0 111.94,-10.83 163.93,-32.14 52.36,-21.3 98.58,-50.91 139.02,-89.55 40.44,-38.27 73.3,-83.77 97.85,-137.21 24.56,-53.08 37.56,-111.57 39,-175.12l0 -807.38c0,-23.11 11.55,-34.66 34.3,-34.66l55.97 0c23.47,0 35.39,11.55 35.39,34.66l0 1299.89c0,30.33 -13.36,45.5 -39.72,45.5l-44.05 0c-27.81,0 -41.89,-13 -41.89,-39l0 -114.82zm1504.63 -965.17c-1.44,1.44 -3.25,3.25 -5.42,5.41 -2.16,2.17 -5.05,3.25 -8.66,3.25 -5.78,0 -12.64,-3.97 -20.58,-11.91 -8.67,-8.67 -22.39,-21.31 -41.53,-37.92 -19.14,-16.61 -44.77,-33.58 -76.55,-50.55 -31.77,-16.97 -70.05,-31.77 -115.18,-44.41 -45.14,-12.64 -98.22,-18.78 -158.88,-18.78 -76.55,0 -149.85,15.53 -219.9,46.58 -70.05,31.06 -131.79,72.94 -185.23,126.38 -53.44,53.44 -96.05,115.91 -127.82,187.04 -31.78,71.5 -47.67,146.96 -47.67,227.12 0,80.16 15.53,155.63 46.22,227.12 30.69,71.14 72.22,133.96 124.94,188.13 52.71,54.16 114.1,96.77 183.79,128.54 69.68,31.78 143.35,47.66 221.34,47.66 38.27,0 73.66,-2.88 106.16,-8.66 32.49,-5.78 63.19,-14.08 92.07,-24.56 28.89,-10.47 55.97,-22.74 81.25,-37.19 25.27,-14.44 50.19,-30.33 74.74,-47.66 5.06,-3.61 11.55,-8.67 19.14,-14.8 7.58,-6.14 15.16,-11.92 22.75,-17.34 7.58,-5.41 14.44,-10.11 20.94,-14.08 6.5,-3.97 11.91,-5.78 16.25,-5.78 6.5,0 13.72,4.34 21.66,13 12.28,16.61 21.31,29.61 26.72,39.36 5.42,9.75 7.95,17.33 7.95,22.39 0,2.89 -1.45,5.78 -4.34,8.66 2.89,4.34 4.34,7.95 4.34,10.84 -15.89,21.66 -39,42.97 -69.33,63.91 -58.5,41.88 -121.33,74.74 -188.85,98.94 -67.52,24.19 -141.9,36.46 -222.79,36.46 -64.27,0 -126.37,-8.66 -186.67,-25.63 -60.31,-16.97 -116.99,-40.8 -169.71,-71.86 -52.72,-31.05 -100.74,-68.24 -144.44,-111.57 -43.69,-43.69 -81.24,-91.72 -112.29,-144.43 -31.05,-52.72 -54.89,-109.41 -71.86,-169.71 -16.97,-60.3 -25.63,-122.77 -25.63,-188.13 0,-64.99 8.66,-127.82 25.63,-188.48 16.97,-60.66 40.81,-117.35 71.86,-170.07 31.05,-52.72 68.6,-100.74 112.29,-144.43 43.7,-43.33 91.72,-80.52 144.44,-111.58 52.72,-31.05 109.4,-54.88 169.71,-71.85 60.3,-16.97 122.4,-25.64 186.67,-25.64 43.33,0 85.94,4.33 127.47,12.64 41.52,8.3 81.24,19.86 119.51,34.3 38.28,14.81 74.39,31.78 108.33,52 33.94,19.86 64.99,41.52 93.16,64.63l0 -1.08 2.16 3.25c6.5,5.77 12.64,11.19 18.06,16.25 5.42,5.05 7.94,11.55 7.94,19.49 0,7.23 -4.69,16.25 -14.08,27.09l-40.08 47.66zm1566.37 902.34l-3.25 -82.33c-28.89,49.83 -63.55,94.61 -104.35,134.69 -40.8,40.08 -85.94,74.38 -135.41,102.55 -49.47,28.16 -102.54,49.82 -158.87,64.99 -56.33,15.17 -114.83,22.75 -175.49,22.75 -64.99,0 -127.46,-8.67 -187.76,-25.64 -60.3,-16.97 -116.99,-41.16 -169.71,-72.58 -52.72,-31.41 -100.74,-68.6 -144.43,-111.93 -43.69,-43.33 -81.25,-91.36 -112.3,-144.07 -31.05,-52.72 -54.88,-109.41 -71.85,-169.71 -16.97,-60.3 -25.64,-122.77 -25.64,-187.76 0,-65 8.67,-127.83 25.64,-188.13 16.97,-60.3 41.16,-116.63 72.57,-169.34 31.42,-52.72 68.61,-100.75 111.94,-144.08 43.33,-43.33 91.35,-80.88 144.07,-112.29 52.72,-31.42 109.41,-55.61 169.71,-72.58 60.3,-16.97 122.77,-25.28 187.76,-25.28 59.22,0 117.35,7.59 174.04,22.75 56.69,15.17 109.77,36.83 159.6,65.36 49.83,28.52 95.69,63.19 137.21,103.63 41.53,40.44 76.91,85.57 106.52,135.4l0 -80.16 0 -186.31c0,-23.11 11.19,-34.67 33.94,-34.67l56.69 0c24.92,0 37.19,11.56 37.19,34.67l0 1302.06c0,12.27 -3.97,20.94 -11.91,26.36 -7.95,5.41 -17.69,8.3 -28.53,8.3l-44.77 0c-28.53,0 -42.61,-13 -42.61,-39l0 -177.65zm6.5 -469.04c0,-78.72 -15.89,-153.46 -47.66,-224.24 -31.78,-71.13 -74.39,-133.6 -127.83,-187.04 -53.07,-53.8 -115.18,-96.4 -185.95,-128.18 -70.77,-31.78 -145.16,-48.02 -222.79,-48.75l-3.25 0c-77.27,0 -150.93,15.89 -220.26,47.67 -69.69,31.77 -131.07,74.38 -183.43,128.18 -52.72,53.44 -94.6,115.91 -125.66,186.32 -31.05,70.77 -46.57,145.15 -46.57,223.87 0,78.72 14.8,153.82 44.77,225.31 29.97,71.86 71.13,135.05 123.13,189.21 51.63,54.52 112.66,97.85 182.34,129.99 69.33,32.14 144.08,48.02 223.51,48.02 79.8,0 155.99,-15.52 227.49,-46.94 71.85,-31.41 134.68,-74.02 187.76,-127.82 53.44,-53.44 96.05,-116.27 127.46,-187.4 31.41,-71.49 46.94,-147.32 46.94,-228.2zm876.34 634.78c0,0 0.36,1.44 0.72,4.69 0.36,3.25 0.36,7.22 0.36,11.56 0,4.33 0,8.66 0,13 0,4.33 0,7.58 0,9.74 0,6.5 -2.52,11.56 -7.58,15.53 -5.05,3.97 -11.19,7.22 -18.41,9.39 -7.23,2.17 -14.45,3.25 -22.03,3.61 -7.58,0.36 -13.72,0.72 -18.05,0.72 -39,0 -75.83,-5.05 -110.86,-14.8 -35.02,-9.75 -66.07,-25.28 -92.79,-46.94 -26.72,-21.67 -47.67,-49.83 -63.19,-84.5 -15.53,-34.66 -23.47,-76.91 -23.47,-126.01l0 -1001.64 -187.41 0c-12.27,0 -21.3,-2.53 -27.08,-7.59 -5.77,-5.05 -8.66,-14.08 -8.66,-26.36l0 -51.27c0,-12.28 2.89,-20.94 8.66,-25.28 5.78,-4.33 14.81,-6.49 27.08,-6.49l187.41 0 0 -341.23c0,-7.22 2.89,-13 8.66,-17.33 2.89,-2.17 6.14,-3.97 9.75,-5.41 -0.72,0 1.81,-1.45 7.58,-3.98 5.78,-2.52 12.64,-5.05 20.59,-7.94 7.94,-2.89 16.24,-5.78 24.55,-8.31 8.3,-2.52 14.44,-3.61 18.78,-3.61 14.44,0 24.19,3.61 28.88,10.84 4.7,7.22 6.86,16.97 6.86,29.24l0 347.73 242.65 0c23.83,0 35.75,11.55 35.75,35.02l0 43.69c0,25.64 -11.92,38.28 -35.75,38.28l-242.65 0 0 916.06c0,31.78 1.45,62.11 3.97,90.27 2.53,28.16 7.59,52.72 15.53,74.02 7.94,21.31 19.5,38.28 34.3,50.91 14.81,12.64 34.67,19.14 59.94,19.14l24.92 0c21.66,0 38.63,1.09 50.55,3.61 11.92,2.53 20.94,6.14 27.08,10.84 6.14,4.69 9.75,10.83 11.19,18.41 1.45,7.58 2.17,16.25 2.17,25.64l0 -3.25zm219.9 -1718.03c0,-13.72 2.16,-24.91 6.14,-33.58 3.97,-8.67 11.91,-13.72 24.19,-15.17l20.58 0 58.5 0c13.72,1.45 22.38,6.5 25.99,15.53 3.61,9.03 5.42,20.22 5.42,33.22l0 41.16c0,20.95 -3.25,34.31 -10.11,40.08 -6.86,5.78 -20.22,8.67 -39.72,8.67l-39 0c-18.77,0 -32.13,-2.53 -40.08,-7.58 -7.94,-5.06 -11.91,-14.08 -11.91,-27.08l0 -55.25zm6.5 434.38c0,-23.11 11.55,-34.66 34.3,-34.66l57.05 0c22.75,0 34.3,11.55 34.3,34.66l0 1299.9c0,23.11 -11.19,34.66 -33.22,34.66l-55.96 0c-24.2,0 -36.47,-11.55 -36.47,-34.66l0 -1299.9zm437.62 651.03c0,-64.99 8.67,-127.82 25.64,-188.48 16.97,-60.66 40.8,-117.35 71.86,-170.07 31.05,-52.72 68.24,-100.74 111.57,-144.07 43.69,-43.33 91.72,-80.52 144.43,-111.58 52.72,-31.05 109.41,-55.24 169.71,-72.21 60.3,-16.97 122.77,-25.28 188.13,-25.28 64.99,0 127.46,8.31 187.76,25.28 60.66,16.97 116.99,41.16 169.71,72.21 52.71,31.06 101.1,68.25 144.79,111.58 43.69,43.33 81.24,91.35 112.3,144.07 31.05,52.72 54.88,109.41 71.85,170.07 16.97,60.66 25.64,123.49 25.64,188.48 0,65 -8.67,127.83 -25.64,188.49 -16.97,60.66 -40.8,117.35 -71.85,170.07 -31.06,52.71 -68.61,100.74 -112.3,144.07 -43.69,43.33 -92.08,80.52 -144.79,111.57 -52.72,31.06 -109.05,54.89 -169.71,71.86 -60.3,16.97 -122.77,25.63 -187.76,25.63 -65.36,0 -127.83,-8.66 -188.13,-25.63 -60.3,-16.97 -116.99,-40.8 -169.71,-71.86 -52.71,-31.05 -100.74,-68.24 -144.43,-111.57 -43.33,-43.33 -80.52,-91.36 -111.57,-144.07 -31.06,-52.72 -54.89,-109.41 -71.86,-170.07 -16.97,-60.66 -25.64,-123.49 -25.64,-188.49zm129.99 0c0,52.72 6.86,103.63 20.59,153.1 13.72,49.11 33.22,95.69 58.13,139.38 24.91,43.69 54.88,83.77 89.91,119.88 35.02,36.47 74.02,67.88 116.99,93.52 42.97,26 88.83,46.22 137.57,60.66 48.75,14.44 99.66,21.66 153.1,21.66 80.16,0 155.99,-15.16 227.12,-45.85 71.13,-30.69 133.24,-72.58 186.68,-125.66 53.44,-52.72 95.69,-114.82 126.74,-185.96 31.05,-70.77 46.58,-146.96 46.58,-228.56 0,-79.44 -15.17,-154.91 -45.5,-226.4 -30.33,-71.85 -71.49,-134.68 -123.85,-188.85 -52.36,-54.16 -113.74,-97.13 -184.15,-129.26 -70.41,-32.14 -145.88,-48.03 -226.04,-48.03 -80.16,0 -155.62,15.53 -226.76,46.94 -71.13,31.42 -133.24,74.03 -185.95,128.19 -52.72,54.16 -94.25,116.63 -124.94,188.12 -30.69,71.5 -46.22,146.96 -46.22,227.12zm1581.54 -645.61c0,-13 3.97,-23.11 11.56,-29.97 7.58,-6.86 17.33,-10.11 29.6,-10.11l44.42 0c13,0 23.11,3.61 29.97,11.19 6.86,7.58 10.11,17.33 10.11,28.89l0 159.24c31.05,-46.95 66.07,-85.58 105.07,-115.55 39,-29.97 79.08,-53.44 120.24,-70.41 41.17,-16.97 81.97,-28.53 122.05,-34.67 40.08,-6.13 76.91,-9.02 110.85,-9.02 83.05,0 158.88,15.16 227.48,45.49 68.61,30.33 127.1,71.86 175.49,124.58 48.38,52.71 85.93,114.1 112.65,184.15 26.72,70.05 40.08,144.79 40.08,224.23l0 773.44c0,15.88 -3.97,27.8 -11.91,35.74 -7.95,7.95 -18.42,11.92 -31.42,11.92l-40.08 0c-16.61,0 -27.8,-3.61 -33.58,-10.83 -5.77,-7.22 -8.66,-19.14 -8.66,-35.75l0 -777.05c-2.17,-56.33 -13.36,-111.21 -33.58,-165.01 -20.22,-53.8 -48.75,-101.47 -85.58,-143.35 -36.83,-41.89 -81.96,-75.83 -135.4,-101.46 -53.44,-25.64 -114.47,-38.28 -183.07,-38.28 -55.61,0 -109.77,10.11 -162.85,30.69 -53.08,20.58 -100.74,49.47 -142.63,86.66 -41.88,37.19 -75.83,81.97 -102.18,133.6 -26.36,52 -40.81,109.41 -42.97,172.24l0 813.88c0,23.11 -10.84,34.66 -32.14,34.66l-57.05 0c-22.75,0 -34.3,-11.55 -34.3,-34.66l0 -300.06c-1.45,-2.17 -2.17,-6.14 -2.17,-11.92l0 -982.5z"/>
  <g>
   <path class="fil5" d="M14997.07 3202.93c-55.22,0 -100,-44.78 -100,-100 0,-54.36 43.39,-98.6 97.42,-99.97 0.86,-0.02 1.72,-0.03 2.58,-0.03 71.21,0 142.08,1.46 212.99,2.7 48.99,6.99 86.36,49.43 85.73,100.24 -0.69,55.22 -46.03,99.42 -101.25,98.73l-0.01 0 -0.38 0 0 -0.01 -44.51 -0.7 -76.22 -0.71 -76.35 -0.25zm1189.93 -141.33c73.65,7.25 146.94,15.65 220.19,24.23 47.82,12.06 80.52,57.95 74.77,108.29 -6.27,54.86 -55.85,94.26 -110.71,87.99l0 0.01 -18.97 -2.23 -74.17 -8.25 -74.31 -7.78 -27.62 -2.72c-54.97,-5.23 -95.31,-54.05 -90.08,-109.02 4.97,-52.25 49.32,-91.27 100.9,-90.52zm1185.68 176.93c72.7,14.59 145.01,30.26 217.23,46.17 46.42,16.77 74.39,65.74 63.61,115.28 -11.74,53.96 -65.02,88.18 -118.98,76.44l-0.38 -0.08 0 0 -15.07 -3.33 -71.77 -15.39 -71.94 -14.95 -32.89 -6.63 0 -0.01c-54.16,-10.74 -89.38,-63.35 -78.65,-117.52 10.16,-51.27 57.84,-85.56 108.84,-79.98zm1164.14 295.37c70.2,21.63 139.91,44.36 209.55,67.25 44.77,21.19 67.92,72.86 52.22,121.22 -17.05,52.52 -73.47,81.28 -125.99,64.23l-0.01 0 0 0 -28.32 -9.29 -68.98 -22.15 -69.19 -21.76 -20.54 -6.32c-52.83,-16.07 -82.63,-71.95 -66.56,-124.78 15.37,-50.52 67.13,-79.97 117.82,-68.4zm1132.54 412.64c65.57,27.74 130.52,56.65 195.48,85.52 42.98,25.31 61.25,79.34 40.76,126.18 -22.13,50.59 -81.1,73.66 -131.69,51.53l0 0.01 -51.89 -22.88 -65.86 -28.57 -63.51 -27.1 0 0c-50.85,-21.52 -74.65,-80.19 -53.14,-131.05 21.34,-50.46 79.27,-74.28 129.85,-53.64zm1074.5 519.75c63.33,34.61 126.25,69.88 188.89,105.59 41.97,29.15 55.55,86.06 29.85,131.39 -27.23,48.04 -88.27,64.9 -136.31,37.67l-17.72 -10.11 -62.11 -34.96 -62.38 -34.62 -29.27 -16.02c-48.52,-26.36 -66.49,-87.09 -40.13,-135.61 25.21,-46.4 81.85,-64.86 129.18,-43.33zm1019.1 625.27c58.94,40.31 117.84,80.69 176.01,122.02 43.03,32.26 52.94,93.11 21.82,137.43 -31.73,45.19 -94.11,56.11 -139.3,24.38l-0.01 0 0 0 -51.64 -36.5 -58.21 -40.61 -52.19 -35.95 0.01 -0.01c-45.57,-31.18 -57.23,-93.42 -26.05,-138.99 29.08,-42.5 85.17,-55.5 129.56,-31.77zm954.09 725.04c56.53,47.55 112.83,95.35 168.46,143.91 35.27,36.85 37.32,95.2 3.26,134.53 -36.15,41.74 -99.31,46.26 -141.05,10.11l0 0 -0.01 0.01 -28.49 -24.83 -53.67 -46.21 -53.94 -45.9 -12.99 -10.91 0 -0.01c-42.37,-35.4 -48.04,-98.46 -12.64,-140.84 32.77,-39.23 89.24,-47 131.07,-19.86zm878.1 816.57c52.28,53.69 104.1,107.82 155.37,162.48 29.43,40.12 25,96.82 -12.14,131.82 -40.19,37.87 -103.48,35.98 -141.35,-4.21l0 -0.01 -0.01 0.01 -9.58 -10.23 -48.71 -51.38 -48.99 -51.09 -28.43 -29.28 0.01 -0.01c-38.58,-39.51 -37.84,-102.82 1.67,-141.4 36.49,-35.63 93.3,-37.72 132.16,-6.7zm793.7 900.55c46.72,58.65 92.74,117.87 138.37,177.41 24.72,42.62 14.76,98.02 -25.24,129.07 -43.62,33.86 -106.45,25.95 -140.31,-17.67l0 0 -0.01 0 -37.65 -48.8 -43.63 -55.87 -40.37 -51.05 0.01 0c-34.38,-43.21 -27.22,-106.13 15.99,-140.51 40.17,-31.96 97.37,-28.02 132.84,7.42zm702.46 978.14c39.55,61.36 78.13,123.38 116.58,185.5 20.95,45.12 5.48,99.83 -37.8,126.84 -46.85,29.24 -108.54,14.97 -137.78,-31.88l-18.07 -29.14 -37.84 -60.21 -38.2 -59.98 -10.78 -16.69c-30.08,-46.31 -16.93,-108.26 29.38,-138.34 44.43,-28.86 103.24,-17.92 134.51,23.9zm599.44 1041.08c32.68,63.98 64.42,128.51 95.98,193.14 17.17,47.4 -3.79,101.12 -50.1,123.78 -49.6,24.27 -109.51,3.74 -133.78,-45.86l-0.54 -1.11 -31.64 -64.16 -32.02 -63.94 -23.6 -46.43 0.01 -0.01 0 0c-25.17,-49.15 -5.73,-109.41 43.42,-134.58 47.71,-24.43 105.88,-6.83 132.27,39.17zm489.51 1090.8c26.24,67.24 51.96,134.75 77.02,202.58 14.15,49.65 -12.03,102.65 -61.24,121.01 -51.74,19.3 -109.35,-6.99 -128.65,-58.73l-11.3 -30.58 -25.42 -67.47 -25.81 -67.29 -6.97 -17.84 0 0 -0.14 -0.36c-20.25,-51.37 4.98,-109.46 56.35,-129.71 48.64,-19.17 103.3,2.43 126.16,48.39zm378.25 1135.62c19.36,69.58 38.5,139.25 56.64,209.32 10.57,51.6 -20.9,103.09 -72.46,116.69 -53.4,14.09 -108.12,-17.77 -122.21,-71.17l-13.3 -51.02 -18.82 -70.44 -18.99 -69.32 0.01 0c-14.75,-53.21 16.43,-108.33 69.64,-123.08 49.56,-13.74 100.78,12.38 119.49,59.02zm262.85 1170.08c12.25,70.98 24.35,142.02 35.36,213.42 5.77,52.66 -30.8,101.14 -83.69,109.56 -54.53,8.68 -105.78,-28.5 -114.47,-83.02l-0.01 0 -8.87 -56.91 -11.86 -73.02 -10.93 -64.6 0 0 -0.06 -0.38c-9.37,-54.42 27.16,-106.15 81.58,-115.52 50.62,-8.72 98.91,22.29 112.95,70.47zm144.61 1191.58c5.14,72.34 9.87,144.78 13.78,217.45 -0.84,51.91 -41.63,95.14 -94.29,98.14 -55.14,3.14 -102.4,-39 -105.54,-94.14l-2.27 -42.29 -4.53 -75.26 -5 -75.12 -0.2 -2.81 -0.01 0 -0.02 -0.34 0 -0.03 0 0 0 -0.01c-4.18,-55.06 37.07,-103.11 92.13,-107.29 51.52,-3.91 96.91,31.96 105.95,81.7zm26.01 1202.32c-2.03,72.9 -4.96,145.58 -8.28,218.15 -7.67,49.78 -51.78,86.83 -103.25,84.55 -55.17,-2.44 -97.91,-49.16 -95.47,-104.33l0.01 -0.39 0.01 0 0.3 -6.49 3.11 -75.63 2.64 -75.74 1.08 -37.81c1.39,-55.21 47.29,-98.83 102.5,-97.44 52.73,1.33 94.89,43.26 97.35,95.13zm-92.87 1199.04c-9.19,71.75 -19.57,143.13 -30.02,214.48 -12.87,48.07 -59.87,80.1 -110.41,73.04 -54.69,-7.64 -92.82,-58.19 -85.18,-112.88l0 -0.01 -0.01 0 9.09 -63.57 10.06 -73.62 7.63 -58.48 0 0c6.97,-54.77 57.03,-93.54 111.81,-86.58 53.38,6.78 91.55,54.5 87.03,107.62zm-211.77 1180.62c-16.3,70.36 -33.75,140.27 -51.28,210.15 -17.53,46.7 -67.6,73.99 -117.28,61.88 -53.65,-13.08 -86.53,-67.2 -73.45,-120.85l0 -0.01 0 0 15.77 -63.79 17.12 -71.12 13.39 -57.1 0.01 0c12.43,-53.79 66.12,-87.35 119.92,-74.93 52.42,12.1 85.61,63.39 75.8,115.77zm-328.78 1151.4c-23.3,68.41 -47.45,136.43 -71.95,204.29 -21.88,45.66 -75.24,68.26 -123.93,50.78 -51.97,-18.66 -78.97,-75.94 -60.31,-127.91l0 -0.01 -0.01 0 3.35 -9.25 24.21 -68.05 23.81 -68.26 13.56 -39.68 0.01 0c17.7,-52.3 74.46,-80.36 126.77,-62.66 50.31,17.02 78.18,70.17 64.49,120.75zm-442.43 1111.74c-30,65.61 -60.38,131.01 -91.51,195.99 -25.54,45.33 -82.2,63.83 -129.93,41.19 -49.89,-23.66 -71.16,-83.31 -47.5,-133.2l0 -0.01 0 0 0.1 -0.22 0.06 -0.12 0 0 17.09 -35.74 30.5 -64.82 30.12 -65.01 5.42 -11.88 0 0c22.75,-50.31 81.99,-72.66 132.31,-49.92 47.49,21.46 70.06,75.44 53.34,123.74zm-551.81 1062.42c-36.37,62.23 -72.78,124.43 -110.23,185.94 -29.64,44.06 -89.01,57.44 -134.86,29.58 -47.19,-28.68 -62.21,-90.2 -33.53,-137.39l0.2 -0.33 0 0 2.97 -4.85 36.77 -60.94 36.43 -61.18 24.27 -41.33 0.01 0 0 0c27.81,-47.7 89.05,-63.82 136.75,-36.01 44.35,25.86 61.39,80.61 41.22,126.51zm-655.68 1003.15c-43.76,60.2 -87.86,120.13 -132.71,179.48 -34.34,36.95 -91.75,42.81 -133.06,11.92 -44.22,-33.07 -53.26,-95.75 -20.19,-139.97l0.23 -0.31 0 0 30.02 -39.89 42.31 -56.93 41.97 -57.19 2.47 -3.41c32.27,-44.81 94.78,-54.98 139.59,-22.71 41.38,29.8 53.22,85.39 29.37,129.01zm-752.91 934.05c-49.88,55.95 -100.28,111.42 -151.19,166.42 -37.91,32.02 -94.64,31.57 -132.12,-2.9 -40.64,-37.38 -43.27,-100.64 -5.89,-141.28l-0.01 -0.01 17.4 -18.8 47.77 -52.25 47.46 -52.53 19.46 -21.8 0.01 0.01c36.65,-41.3 99.86,-45.07 141.16,-8.42 38.22,33.91 44.29,90.57 15.95,131.56zm-842.82 855.74c-54.87,50.42 -110.39,100.13 -166.19,149.53 -40.94,27.77 -97.12,21.54 -130.83,-16.45 -36.65,-41.3 -32.88,-104.51 8.42,-141.16l-0.01 -0.01 1.41 -1.24 52.83 -47.17 52.55 -47.46 39.06 -35.72c40.64,-37.38 103.92,-34.74 141.3,5.9 34.98,38.03 34.91,95.87 1.46,133.78zm-927.45 770.86c-57.59,43.16 -115.96,85.33 -174.34,127.48 -43.54,24.41 -99.45,12.97 -129.6,-28.36 -32.54,-44.61 -22.74,-107.17 21.87,-139.71l-0.01 -0.01 39.59 -28.69 57.18 -41.97 56.93 -42.31 4.2 -3.16 0 0 0.31 -0.23c44.02,-33.34 106.75,-24.67 140.09,19.35 32.53,42.95 25.06,103.72 -16.22,137.61zm-992.11 668.75c-61.62,37.24 -123.69,73.83 -186.03,109.98 -46.33,21.69 -102.41,4.82 -128.68,-40.23 -27.81,-47.7 -11.69,-108.94 36.01,-136.75l0 0 0 -0.01 17.46 -10.11 61.42 -36.06 61.18 -36.42 28.92 -17.46 0 0 0.01 0c47.19,-28.67 108.71,-13.65 137.38,33.54 27.44,45.17 14.85,103.47 -27.67,133.52zm-1052.95 566.11c-64.87,30.83 -129.83,61.51 -195.33,91.21 -49.25,19.98 -105.99,-2.15 -128.4,-50.93 -23.05,-50.18 -1.07,-109.56 49.11,-132.61l-0.01 -0.01 52.57 -23.96 65.01 -30.12 61.31 -28.86 0 0 0.35 -0.16c49.89,-23.67 109.54,-2.4 133.21,47.49 22.08,46.53 5.05,101.55 -37.82,127.95zm-1107.1 459.17c-68.44,24.45 -136.93,48.79 -205.95,72.03 -50.56,13.67 -103.7,-14.2 -120.72,-64.5 -17.7,-52.31 10.36,-109.07 62.66,-126.77l0 -0.01 12.42 -4.16 68.42 -23.39 68.25 -23.81 36.38 -12.94 0 0.01c51.97,-18.66 109.25,8.34 127.91,60.31 17.3,48.19 -4.65,100.93 -49.37,123.23zm-1147.86 345.74c-71.48,17.67 -143.05,35.11 -215.03,51.51 -50.85,7.24 -99.65,-25.56 -111.42,-76.52 -12.42,-53.8 21.14,-107.49 74.93,-119.92l0 -0.01 28.2 -6.41 71.27 -16.7 71.13 -17.12 20 -4.95 0 0 0.37 -0.09c53.57,-13.42 107.89,19.12 121.31,72.69 12.39,49.46 -14.4,99.57 -60.76,117.52zm-1177.12 228.8c-72.95,10.43 -145.98,20.62 -219.34,29.76 -51.33,2.11 -96.63,-35.41 -103.22,-87.31 -6.96,-54.78 31.81,-104.85 86.59,-111.81l27.86 -3.45 73.75 -9.62 73.61 -10.06 19.28 -2.76 0 0.01 0.01 0c54.64,-7.99 105.43,29.82 113.42,84.46 7.36,50.36 -24.18,97.46 -71.96,110.78zm-1194.73 110.22c-72.02,3.07 -144.07,6.03 -216.38,7.98 -53.33,-0.84 -96.98,-43.64 -98.33,-97.45 -1.39,-55.21 42.23,-101.11 97.44,-102.5l5.42 -0.11 75.86 -2.16 75.74 -2.64 38.68 -1.59 0 -0.01 0.39 -0.01c55.17,-2.44 101.89,40.3 104.33,95.47 2.26,50.99 -34.08,94.75 -83.15,103.02zm-1200.24 -8.03c-72.78,-4.09 -145.49,-8.43 -217.92,-13.81 -51.67,-7.11 -89.69,-53.2 -86.02,-106 3.83,-55.09 51.62,-96.64 106.71,-92.81l0.01 0 0 0 0.03 0 0.34 0.02 0 0.01 47.44 3.45 75.12 5 74.13 4.47c55.14,3.14 97.28,50.4 94.14,105.54 -2.92,51.24 -43.94,91.25 -93.98,94.13zm-1194.71 -126.9c-71.75,-11.28 -143.35,-23.02 -214.68,-35.57 -50.01,-12.77 -82.6,-62.08 -73.7,-113.82 9.36,-54.42 61.09,-90.95 115.51,-81.59l0.01 0 0 0 0.09 0.02 0.28 0.04 0 0 34.6 6.07 72.87 12.31 73.01 11.86 12.71 1.99c54.59,8.34 92.08,59.37 83.74,113.96 -7.85,51.4 -53.56,87.64 -104.44,84.73zm-1173.74 -245.47c-70.04,-18.37 -139.93,-37.09 -209.46,-56.68 -49.02,-17.39 -76.94,-70.03 -62.83,-120.93 14.75,-53.21 69.87,-84.39 123.08,-69.64l0.01 0 0 -0.01 40.95 11.49 70.24 19.24 70.43 18.83 7.74 2.02 0 0.01c53.47,13.75 85.67,68.27 71.92,121.75 -12.92,50.26 -61.85,81.72 -112.08,73.92zm-1142.02 -361.9c-67.09,-25.03 -134.16,-50.1 -200.68,-76.29 -49.39,-21.04 -73.53,-77.63 -54.01,-128.07 19.93,-51.5 77.85,-77.08 129.35,-57.15l0.01 0 0 -0.01 59.86 23.39 67.28 25.81 57.3 21.59c51.74,19.3 78.03,76.91 58.73,128.65 -17.96,48.16 -69.12,74.26 -117.84,62.08zm-1100.52 -475.08c-65.84,-32.42 -131.56,-65.03 -196.7,-98.62 -43.96,-27.09 -60.37,-83.9 -36.43,-130.65 25.17,-49.15 85.44,-68.58 134.59,-43.41l0 -0.01 21.41 11.05 63.7 32.38 63.94 32.02 26.27 12.96c49.6,24.27 70.13,84.18 45.86,133.78 -22.48,45.94 -75.53,66.93 -122.64,50.5zm-1047.24 -582.73c-63.69,-39.72 -127.07,-79.87 -189.96,-120.75 -38.46,-31.75 -48.01,-87.97 -20.42,-131.01 29.8,-46.49 91.66,-60.01 138.15,-30.21l0 0 0.01 -0.01 54.24 35.01 59.96 38.19 52.44 32.95c46.85,29.24 61.12,90.93 31.88,137.78 -26.91,43.11 -81.29,58.63 -126.3,38.05zm-985.62 -685.38c-59.36,-45.84 -118.23,-92.26 -176.69,-139.18 -34.44,-35.53 -37.98,-91.98 -6.35,-131.74 34.37,-43.21 97.29,-50.37 140.5,-16l0 0 0.01 -0.01 29.44 23.56 55.61 43.96 55.85 43.63 13.42 10.36 0 0c43.81,33.61 52.11,96.38 18.51,140.2 -31.14,40.62 -87.35,50.71 -130.3,25.22zm-913.74 -780.95c-53.83,-50.88 -106.95,-102.49 -159.84,-154.35 -30.76,-38.85 -28.61,-95.45 6.93,-131.85 38.58,-39.51 101.9,-40.27 141.41,-1.69l9.65 9.48 50.79 49.3 51.1 49 29.99 28.43 -0.01 0.01c40.19,37.87 42.08,101.16 4.21,141.35 -35.7,37.89 -93.99,41.73 -134.23,10.32zm-834.69 -871.31c-46.64,-53.87 -92.35,-108.56 -138.04,-163.26 -27.76,-41.72 -20.43,-98.54 18.75,-131.66 42.17,-35.65 105.27,-30.37 140.92,11.8l0.01 -0.01 39.67 47.21 45.88 53.95 42.49 49.34 -0.01 0.01 0 0c36.15,41.74 31.63,104.9 -10.11,141.05 -41.17,35.66 -103.19,31.74 -139.56,-8.43zm-735.06 -939.88c-41.53,-58.84 -82.64,-118.01 -123.13,-177.62 -25.99,-44.84 -13.37,-102.83 30.09,-132.58 45.57,-31.19 107.81,-19.53 139,26.04l0.22 0.32 0 0 19.94 29.33 40.28 58.47 40.63 58.23 10.71 15.16 -0.01 0c32,45 21.46,107.44 -23.54,139.44 -42.66,30.33 -100.98,22.44 -134.19,-16.79zm-640.1 -1010.9c-35.38,-62.51 -70.71,-125.06 -104.98,-188.27 -23.57,-47.88 -5.31,-106.25 42.01,-131.96 48.52,-26.36 109.23,-8.38 135.6,40.13l0 0 2.61 4.85 34.24 62.59 34.61 62.35 23.65 42.01c27.23,48.04 10.37,109.08 -37.67,136.31 -44.66,25.31 -100.55,12.52 -130.07,-28.01zm-536.98 -1071.39c-29.85,-67.82 -59.38,-135.8 -88.01,-204.27 -15.08,-48.5 8.82,-101.48 56.58,-121.68 50.86,-21.51 109.54,2.29 131.05,53.15l0.15 0.35 0 0 15.59 37.19 28.18 66.06 28.57 65.85 4.7 10.63 0 0 0.15 0.35c22.44,50.46 -0.27,109.57 -50.73,132.01 -46.6,20.72 -100.57,2.94 -126.23,-39.64zm-426.96 -1120.01c-23.22,-71.49 -45.93,-143.2 -67.83,-215.26 -8.8,-48.94 20.04,-97.9 68.74,-113.05 52.73,-16.4 108.78,13.05 125.18,65.78l0 0 0.01 0 19.47 63.27 21.76 69.2 17.97 55.96 0 0 0 0.01c17.05,52.52 -11.71,108.94 -64.23,125.99 -48.25,15.66 -99.79,-7.34 -121.07,-51.9zm-312.45 -1158.27c-15.91,-73.41 -31.21,-147.05 -45.77,-220.95 -3.46,-49.51 30.38,-95.03 80.34,-104.93 54.17,-10.73 106.78,24.49 117.52,78.65l0.01 0 0.67 3.44 14.52 72.08 14.95 71.94 9.52 44.35 0 0 0.08 0.38c11.74,53.96 -22.48,107.24 -76.44,118.98 -49.66,10.81 -98.75,-17.32 -115.4,-63.94zm-194.51 -1183.22c-8.52,-74.84 -16.39,-149.86 -23.55,-225.09 1.41,-49.45 39.32,-91.4 89.86,-96.52 54.94,-5.57 104.02,34.45 109.59,89.39l7.09 72.15 7.78 74.31 5.56 49.94 -0.01 0c6.27,54.86 -33.13,104.44 -87.99,110.71 -50.39,5.76 -96.31,-27.01 -108.33,-74.89zm-75.79 -1196.97c-0.81,-56.59 -2.15,-113.05 -2.15,-169.83 0,-18.04 0.6,-35.93 0.68,-53.94 5.23,-50.31 47.77,-89.55 99.46,-89.55 55.22,0 100,44.78 100,100l0 0.39 0 0 -0.14 43.1 0.25 76.35 0.71 75.97 0.01 0 0 0.39c1.04,55.21 -42.87,100.84 -98.08,101.88 -50.69,0.95 -93.3,-35.98 -100.74,-84.76zm42.28 -1199.43c6.2,-72.95 12.44,-145.89 19.94,-218.47 8.74,-51.43 56.01,-87.98 108.67,-82.64 54.94,5.57 94.96,54.65 89.39,109.59l-0.03 0.38 -0.01 0 -1.46 14.01 -7.32 74.45 -6.86 74.6 -2.75 31.9 0 0c-4.54,55.03 -52.83,95.97 -107.87,91.44 -50.79,-4.18 -89.57,-45.63 -91.7,-95.26zm161.08 -1189c13.35,-71.38 26.7,-142.75 41.3,-213.67 13.36,-51.02 64.48,-83.26 116.77,-72.56 54.1,11.07 88.99,63.92 77.92,118.02l0 0.01 0 0 -0.02 0.08 -0.05 0.29 -0.01 0 -1.68 8.12 -14.52 72.08 -14.07 72.23 -7.49 39.73c-10.05,54.3 -62.23,90.18 -116.53,80.13 -50.26,-9.3 -84.73,-54.7 -81.62,-104.46zm279.38 -1166.28c20.67,-70.41 41.48,-140.76 63.4,-210.63 19.08,-48.12 72.35,-74.14 122.61,-58.51 52.73,16.4 82.18,72.45 65.78,125.18l0.01 0 -6.22 19.81 -21.34 69.37 -20.92 69.52 -8.56 29.09 -0.01 0c-15.41,53.02 -70.9,83.51 -123.93,68.1 -49.04,-14.25 -78.8,-62.77 -70.82,-111.93zm395.19 -1132c28.04,-68.98 56.43,-137.78 85.71,-206.12 24.44,-44.23 78.85,-63.76 126.43,-43.64 50.86,21.51 74.66,80.19 53.15,131.05l-18.15 42.55 -27.78 66.28 -27.41 66.49 -2.37 5.83 0 0c-20.58,51.24 -78.8,76.11 -130.05,55.54 -47.26,-18.97 -72.09,-69.97 -59.53,-117.98zm507 -1086.92c35.11,-66.38 70.74,-132.42 107.06,-198.04 29.17,-40.29 84.5,-53.45 129.18,-28.83 48.36,26.65 65.97,87.48 39.32,135.84l0 0.01 0 0 -0.12 0.21 -0.06 0.12 0 0 -4.14 7.46 -34.24 62.59 -33.88 62.81 -21.01 39.52c-25.77,48.84 -86.27,67.54 -135.11,41.77 -45.02,-23.76 -64.43,-77.02 -47,-123.46zm613.8 -1031.79c41.52,-62.44 83.71,-124.38 126.36,-186 33.01,-36.72 88.92,-44.23 130.78,-15.58 45.57,31.19 57.23,93.43 26.04,139l-0.22 0.32 0 0 -28.78 41.77 -39.93 58.72 -39.58 58.97 -1.79 2.7c-30.36,46.13 -92.38,58.91 -138.51,28.55 -42.85,-28.2 -56.92,-83.72 -34.37,-128.45zm715.08 -967.4c46.65,-56.91 94.12,-113.1 141.79,-169.12 36.54,-33.59 93.24,-35.53 132.14,-2.65 42.17,35.65 47.45,98.75 11.8,140.92l0 0 0.01 0.01 -16.39 19.28 -45.58 54.23 -45.25 54.5 -18.67 22.76 -0.01 0c-34.89,42.79 -97.88,49.21 -140.68,14.32 -40.7,-33.18 -48.5,-91.78 -19.16,-134.25zm808.03 -891.34c50.75,-50.65 102.26,-100.54 153.91,-150.28 39.83,-31.02 97.47,-27.61 133.31,9.53 38.34,39.74 37.21,103.05 -2.53,141.39l-0.01 0 0.01 0.01 -1.05 1.01 -50.79 49.3 -50.49 49.6 -37.86 37.63 -0.01 -0.01c-39.04,39.05 -102.36,39.05 -141.41,0.01 -38,-37.99 -39.02,-98.96 -3.08,-138.19zm886.32 -800.42c55.57,-45.45 111.35,-90.65 167.75,-135.11 42.97,-30.38 102.74,-22.26 135.91,19.44 34.37,43.21 27.21,106.13 -16,140.5l0.01 0.01 -38.64 30.55 -55.32 44.28 -55.04 44.62 -3.91 3.21 0 0 -0.3 0.24c-42.59,35.15 -105.63,29.11 -140.78,-13.48 -33.07,-40.07 -29.68,-98.25 6.32,-134.26zm963.59 -710.61c61,-40.48 122.12,-80.78 183.89,-120.17 45.56,-24.45 103,-10.08 131.38,34.19 29.8,46.49 16.28,108.35 -30.21,138.15l0.01 0.01 -18.9 12.04 -59.71 38.54 -59.5 38.91 -26.22 17.37 0 0 -0.32 0.21c-45.95,30.64 -108.04,18.23 -138.68,-27.72 -28.42,-42.62 -19.8,-99.11 18.26,-131.53zm1030.24 -611.76c66.31,-35.02 132.87,-69.6 199.9,-103.41 46.82,-17.31 100.26,2.71 123.58,48.24 25.17,49.15 5.74,109.42 -43.41,134.59l0 0 0 0.01 -56.05 28.49 -63.48 32.76 -56.04 29.36 -0.01 -0.01 0 0c-48.84,25.76 -109.34,7.06 -135.1,-41.78 -23.69,-44.92 -9.77,-99.7 30.61,-128.25zm1087.94 -506.47c69.52,-28.21 139.36,-55.77 209.52,-82.71 48.12,-11.87 98.72,13.58 117.08,61.02 19.93,51.5 -5.65,109.42 -57.14,129.35l0 0.01 -21.2 8.13 -67.08 26.21 -66.86 26.6 -27.1 10.97 0 0.01 -0.36 0.14c-51.12,20.88 -109.51,-3.63 -130.39,-54.75 -19.29,-47.22 0.16,-100.64 43.53,-124.98zm1133.19 -394.53c72.04,-21.09 144.41,-41.36 217.01,-61.13 48.81,-6.68 96.27,23.58 109.79,72.37 14.75,53.21 -16.43,108.33 -69.63,123.08l0 0.01 -42.86 11.74 -70.07 19.67 -69.92 20.09 -6.06 1.78c-52.93,15.74 -108.62,-14.41 -124.36,-67.34 -14.59,-49.06 10.25,-100.48 56.1,-120.27zm1166.26 -278.31c73.97,-13.79 148.27,-26.65 222.71,-39.08 49.14,-1.64 93.2,33.18 101.77,82.99 9.36,54.42 -27.17,106.14 -81.58,115.51l0 0 -50.75 8.57 -72.71 12.75 -71.04 12.93c-54.3,10.05 -106.48,-25.83 -116.53,-80.13 -9.29,-50.19 20.66,-98.56 68.13,-113.54zm1188.79 -160.02c74.88,-6.34 150.02,-11.73 225.28,-16.73 49.11,3.27 89.51,42.36 93.02,92.83 3.83,55.09 -37.72,102.87 -92.8,106.71l0 0 -38.95 2.59 -74.98 5.46 -74.86 5.93 -6.48 0.57 0 0 -0.38 0.03c-55.01,4.88 -103.58,-35.75 -108.46,-90.76 -4.51,-50.87 29.9,-96.23 78.61,-106.63z"/>
  </g>
 </g>
</svg>
