<?xml version="1.0" encoding="UTF-8"?>
<!DOCTYPE svg PUBLIC "-//W3C//DTD SVG 1.1//EN" "http://www.w3.org/Graphics/SVG/1.1/DTD/svg11.dtd">
<!-- Creator: CorelDRAW 2020 (64 Bit) -->
<svg xmlns="http://www.w3.org/2000/svg" xml:space="preserve" width="400mm" height="300mm" version="1.1" style="shape-rendering:geometricPrecision; text-rendering:geometricPrecision; image-rendering:optimizeQuality; fill-rule:evenodd; clip-rule:evenodd"
viewBox="0 0 40000 30000"
 xmlns:xlink="http://www.w3.org/1999/xlink"
 xmlns:xodm="http://www.corel.com/coreldraw/odm/2003">
 <defs>
  <style type="text/css">
   <![CDATA[
    .fil0 {fill:url(#id0)}
   ]]>
  </style>
  <linearGradient id="id0" gradientUnits="userSpaceOnUse" x1="497.04" y1="28398.41" x2="39497.06" y2="28398.41">
   <stop offset="0" style="stop-opacity:1; stop-color:blue"/>
   <stop offset="1" style="stop-opacity:1; stop-color:red"/>
  </linearGradient>
 </defs>
 <g id="Camada_x0020_1">
  <metadata id="CorelCorpID_0Corel-Layer"/>
  <path class="fil0" d="M18241.46 24519.18c-438.75,1021.19 -755.03,1227.53 -1093.96,1413.59 100.12,-573.64 224.95,-1447.88 238.48,-2097.05 -386.94,878.33 -726.27,1515.84 -1740.53,2326.87 312.45,-971.69 763.38,-2230.99 792.73,-3319.8 -508.82,1271.73 -814.19,2032.62 -2390.32,2816.37l-74.16 0c696.72,-1143.28 1338.85,-1975.82 1352.44,-3464.55 -423.84,695.65 -2173.84,2041.23 -2635.79,2041.23 -54.19,0 1185.91,-1188.79 1346.12,-2399.85 -286.33,214.66 -1681.11,738.2 -3092.83,884.9 865.77,-407.95 1626.34,-966.45 1986.23,-1741.56 -1508.5,661.4 -2322.96,1692.96 -4644.43,1805.53 -1553.6,75.35 -3080.79,-570.62 -3996.39,-1385.56 -188.95,-168.16 -366.05,-355.67 -513.12,-561.91 1716.04,317.16 2412.39,856.96 4607.4,506.15 1032.23,-164.98 3211.96,-830.14 3742.75,-1627.35 -2568.56,393.85 -4799.71,1528.41 -7744.66,368.37 -1768.34,-696.56 -3610.57,-2602.62 -3864.19,-4992.76 1170.28,1385.5 2211.25,2402.44 4395.7,3063.34 1797.32,543.71 4734.45,732.67 6433.88,55.66 -1806.52,-47.2 -3352.49,-61.62 -4741.15,-310.22 -1416.79,-253.62 -2670.58,-751.71 -3871.16,-1777.79 -1906.91,-1629.82 -2734.03,-4938.14 -1933.37,-8482.54 377.06,370.52 451.91,1300.39 602.91,1812.5 753.97,2557.39 2312.59,4581.82 4408.63,5826.21 1430.79,849.45 3043.91,1294.16 4704.63,1371.43l-612.2 -347.69c-4508.95,-1649.79 -7756.55,-4381.62 -6718.22,-10320.5 117.72,-673.3 400.99,-1754.9 766.71,-2660.05 182.5,-451.56 577.78,-1342.87 1035.84,-1555.94 -684.31,8608.28 3843.37,11780.37 6125.64,13272.3 952.02,294.36 1526.01,559.59 1895.62,844.01 567.27,436.5 654.57,919.37 890.89,1624.57 400.42,1195.05 1287.34,2092.31 2614.57,2351.33 2052.81,400.63 2360.02,-771.49 2360.89,-2623.66 0.99,-2002.15 -262.79,-3083.95 -2128.48,-2120.04 131.31,-742.97 329.63,-999.65 984.92,-1219.01 1174.21,-393.08 381.57,-206.84 1117.31,-960.23 1218.62,-174.25 2054.49,339.54 2712.61,-585.72l31.56 484.9c2.73,-22.69 18.87,68.56 36.67,98.36 711.61,-187.48 1235.57,-602.7 1387.24,-1350.11 307.25,2388.44 -1789.05,1924.29 -1984.43,3325.61 -86,616.84 -30.74,2103.58 -21.43,2795.58 13.05,968.67 86.86,1531.27 698.75,1933.43 1371.43,901.33 3151.04,-300.88 3712.61,-1033.96 1172.18,-1530.02 77.06,-2139.4 2238.42,-3052.31 4416.61,-1865.39 8147.63,-6852.58 7238.16,-13783.48 463.36,212.14 862.79,1124.05 1044.88,1579.58 378.15,946.17 667.82,2082.59 778,2759.06 830.37,5097.32 -1972.62,8628.55 -6293.79,10060.83l-959.07 411.04c-13.21,-24.42 -49.16,19.26 -60.12,31.65 -13.61,15.38 -27.51,32.12 -38.59,42.04 2546.42,-128.29 5123.09,-1401.34 6481.84,-2831.96 2437.97,-2566.97 2052.62,-3183.42 3087.41,-6333.96 1220.99,1809.47 304.88,6553.89 -1537.11,8407.67 -55.29,55.64 -111.77,109.02 -168.9,159.44 -2329.45,2056.64 -5018.99,2067.64 -8692.14,2157.4 1661.91,666.61 4665.64,476.76 6432.81,-55.35 2190.44,-659.61 3219.36,-1679.64 4396.36,-3063.85 -471.18,4454.38 -4792.8,5897.5 -8432.53,5340.48 -644.86,-98.65 -3222.27,-783.35 -3356.34,-720.15 1125.69,774.67 2299.49,1343.31 3799.27,1610.69 2227.62,397.11 2965.93,-164.32 4730.47,-484.34 -140.85,196.01 -308.27,374.39 -487.07,535.92 -885.09,799.51 -2362.4,1452.3 -3871.55,1417.03 -966.52,-22.6 -1860.65,-283.44 -2624.48,-613.32 -797.57,-344.4 -1416.81,-872.46 -2067,-1095.15 788.9,1597.16 2963.51,2143.42 4607.09,2500.06 -1088.58,1088.98 -3683.53,266.39 -4743.63,-636.22l-1074.54 -1111.73c255.86,1902.59 1335.42,2134.85 2374.95,2977.07 -848.67,-47.36 -1621.61,-431.14 -2218.35,-894.71 -789.06,-612.97 -832.54,-1143.95 -1444.58,-1721.95 13.87,1655.65 932.16,2570.54 1584.72,3418.49 -75.94,6.2 -154.35,17.79 -236.33,34.75 -15.16,3.14 -30.26,6.76 -45.29,10.87l-44.24 0c-1706.69,-821.24 -1358.61,-1831.61 -2371.31,-2816.37 33.67,1388.85 212.48,2166.23 472.46,2816.37 -514.04,-392.21 -994.4,-964.3 -1420.89,-1823.44 14.01,647.06 83.06,1248.05 181.99,1823.44 -501.34,-306.44 -667.33,-609.68 -1037.03,-1139.54 -1269.34,689.69 -1502.95,3057.81 -1651.2,3878.79 -126.49,-835.95 -930.16,-3512.86 -1755.66,-3879.23z"/>
 </g>
</svg>
