<?xml version="1.0" encoding="UTF-8"?>
<!DOCTYPE svg PUBLIC "-//W3C//DTD SVG 1.1//EN" "http://www.w3.org/Graphics/SVG/1.1/DTD/svg11.dtd">
<!-- Creator: CorelDRAW 2020 (64-Bit) -->
<svg xmlns="http://www.w3.org/2000/svg" xml:space="preserve" width="315mm" height="90mm" version="1.1" style="shape-rendering:geometricPrecision; text-rendering:geometricPrecision; image-rendering:optimizeQuality; fill-rule:evenodd; clip-rule:evenodd"
viewBox="0 0 31500 9000"
 xmlns:xlink="http://www.w3.org/1999/xlink"
 xmlns:xodm="http://www.corel.com/coreldraw/odm/2003">
 <defs>
  <style type="text/css">
   <![CDATA[
    .fil0 {fill:white}
   ]]>
  </style>
 </defs>
 <g id="Layer_x0020_1">
  <metadata id="CorelCorpID_0Corel-Layer"/>
  <g id="_1377561766048">
   <path class="fil0" d="M2391.58 2701.42c-11.78,7.14 -17.09,46.52 -20.36,55.97 -0.15,0.45 -0.61,1.59 -0.77,2.03l-2.46 7.71c-1.61,8.66 2.79,4.91 -4.37,18.05 -7.99,14.65 -2.65,0 -6.13,22.63l-0.95 7.6c-1.44,8.73 2.17,-1.13 -3.12,7.4 -6.72,10.82 -0.92,7.79 -4.27,18.18 -3.99,12.39 -4.21,7.27 -5.21,9.08 -6.58,11.92 0.12,9.96 -0.63,18.94l-11.6 38.68c-7.37,13.14 -1.81,11.89 -1.58,17.83 0.49,12.8 -7.32,4.32 -9.85,22.14 -1.38,9.76 4.36,3.5 -1.75,19.06l-6.23 40.68c8.36,9.88 113.17,45.23 135.85,52.95 46.11,15.68 60.21,22.19 101.1,44.44 13.67,7.44 23.16,8.75 31.66,19.36 -61.16,0 -217.18,-25.86 -233.36,-20.15l-9.77 0.89c4.97,6.23 3.48,-2.09 -0.26,14 -0.32,1.39 -1.04,1.27 -1.87,8.8l-10.97 101.12c-0.14,0.67 -0.64,1.82 -0.79,2.5 -7.14,34.03 -0.26,73.31 -8.12,106.21 1.05,0.53 2.73,-0.02 3.35,1.22l191.35 6.81c38.38,-0.12 58.46,4.19 96.84,4.05 35.22,-0.11 70.47,-0.01 105.69,-0.01 -30.07,23.9 -206.65,49.33 -246.45,52.45l-90.68 7.94c-4.7,3.31 5.56,4.09 -16.74,7.16 4.56,12.03 5.71,6.59 10.33,33.49 1.55,9.02 -1.39,-7.03 0.79,7.84l15.45 52.25c0.01,0.35 -0.22,1.43 -0.2,1.79 0.56,15.91 7.03,22.52 13.02,42.75 3.33,11.23 0.91,13.29 7.56,29.79l21.44 53.48c0.28,-0.62 1.37,1.61 2.05,2.4l14.84 -1.46c19.43,6.86 30.07,0.12 48.39,-4.08 64.23,-14.75 297.56,-64.38 347.89,-64.38 -59.9,81.79 -251.88,144.44 -360.49,177.65 -11.14,3.4 -52.1,11.65 -59.42,19.61 21.48,29.3 46.97,58.6 71.9,89.02 20.36,24.83 57.18,63.37 71.36,88.12 19.33,-1.58 88.94,-34.14 105.78,-43.51 15.96,-8.88 32.56,-16.68 47.81,-24.72 48.4,-25.52 214.15,-117.21 250.75,-125.01 -9.32,16.1 -14.15,25.58 -25.52,41.08 -11.68,15.91 -19.83,25.46 -31.68,39.47 -21.12,24.97 -46.48,44.74 -73.87,65.31 -31.48,23.65 -92.08,60.92 -130.13,78.29 -16.96,7.74 -36.92,12.85 -47.02,25.45 102.66,0 205.63,-0.73 308.25,0.03 62.11,0.46 30.59,6.17 95.73,-53.37 20.54,-18.77 59.76,-58.85 80.36,-71.46l-31.04 120.57c-15.24,56.93 -337.43,326.36 -90.48,170.9l191.98 -130.43c51.2,-33.33 33.11,-8.45 69.06,-49.58 16.73,-19.15 41.72,-46.08 63.02,-59.13 0,103.62 -37.09,207.9 -80.1,272.99l-35.26 52.3c-43.92,60.24 -48.27,50.71 -73.97,109.5 -7.59,17.35 -21.86,46.5 -26.42,64.41 71.92,-15.32 183.64,-118.94 226.36,-175.49l78.93 -117.04c15.68,-28.29 62.76,-99.49 86.59,-114.07 0,176.95 -51.9,381.98 -135.29,540.56l-90.8 158.53c-8.31,15.78 -12.9,31.22 -20.49,45.68 18.87,-4.61 57.13,-38.13 71.55,-51.33 24.64,-22.56 40.85,-37.44 62.47,-63.66 87.14,-105.65 126.47,-195.64 180.5,-318.06 14.67,-33.24 53.86,-137.45 81.76,-166.79 0,73.59 -23.02,223.1 -37.77,295.58 -4.75,23.37 -21.59,76.1 -16.87,94.92l0.27 8.71c18.02,-22.6 61.05,-44.86 90.37,-55.11 12.95,-4.53 18.55,-4.54 26.93,-12.55l7.52 -9.47c2.2,-14.05 9.36,-37.08 12.8,-52.73l44.44 -164.68c17.96,12.03 7.29,74.86 5.04,93.18 -1.88,15.38 -0.61,35.91 -0.54,51.84l-13.7 144.47c-2.43,23.97 -17.35,75.87 -8.44,96.98l-4.63 19.94c46.34,-9.64 27.65,2.51 82.85,-49.09 103.92,-97.14 196.49,-251.56 255.84,-378.65l71.05 -175.94 -3.39 55.71c13.33,-27.81 16.47,-106.04 25.78,-144.27l28.36 -101.39c1.5,-9.95 -1.45,-26.28 8.53,-36.33 -8.1,-34.39 0.57,-78.77 1.36,-111.77 0.93,-38.68 0.42,-78.11 0.52,-116.86 0.18,-72.63 4.96,-162.9 -3.84,-233.49 7.56,-18.16 -4.49,-301.75 -4.49,-350.25 0,-55.32 0.36,-123.69 10.64,-171.44 15.67,-72.83 60.6,-91.12 77.43,-109.67 -119.54,-7.14 -276.63,-40.75 -324.46,-150.77 -1.89,-4.33 -3.09,-7.79 -5.11,-11.99 -6.62,-13.75 -1.06,-3.2 -5.07,-9.02 -69.61,12.33 -82.08,-20.63 -133.07,53.44 -6.84,9.93 -11.96,19.56 -15.93,29.72 -14.33,36.72 -26.84,31.34 -88.13,52.28 -30.12,10.29 -76.37,23 -101.95,39.63 -6.93,4.51 -21.34,13.65 -27.42,19.21 -16.86,15.39 -27.54,35.45 -36.17,55.5 -10.02,23.28 -13.72,45.55 -20.02,70.26 16.55,-1.26 50.52,-19.67 81.95,-29.74 107.25,-34.37 180.79,-30.02 224.48,75.65 34.44,83.27 32.26,281.36 23.52,392.65 -9.05,115.3 -53.56,227.2 -187.73,251.06 -125.6,22.34 -288.5,-26.93 -365.91,-74.47 -53.85,-33.07 -48.72,-28.96 -94.5,-70.6 -45.49,-41.39 -88.77,-108.17 -112.69,-162.67 -43.38,-98.88 -57.85,-209.67 -161.67,-274.89 -72.25,-45.38 -149.17,-73.66 -233.48,-100.54 -41.64,-13.27 -49.53,-9.77 -84.54,-31.39 -47.39,-29.27 -92.39,-56.5 -138.04,-87.16l-131.41 -89.21z"/>
   <path class="fil0" d="M5191.9 3015.45l14.27 48.02c0.16,0.41 0.61,1.53 0.77,1.94l33.03 134.23c5.66,25.95 11.55,53.16 16.9,77.11 25.57,114.43 28.07,203.06 45.11,290.23l172.59 35.47c280.18,63.67 455.18,105.35 761.26,73.58 118.8,-12.34 315.46,-60.6 415.42,-115.35 12.97,-7.1 21.63,-9.95 34.73,-16.55 12.98,-6.55 27.02,-12.47 33.81,-22.59 -9.56,-8.27 -4.59,3.65 -2.75,-9.39l37.26 -70.12c63.54,-132.09 83.3,-257.41 93.16,-277.62 -22.34,8.31 -17.38,8.37 -35.24,20.11 -182.17,119.82 -467.56,194.03 -687.24,213.02 -185.16,15.99 -492.44,24.97 -665.94,-38.55l-17.76 -7.91c-0.59,-0.3 -1.9,-0.93 -2.78,-1.49 33.76,0 67.52,-0.03 101.27,0l387.49 -16.08c29.11,-0.36 64.3,-5.72 92.57,-7.96 247.71,-19.58 476.71,-83.54 679.75,-211.83 17.98,-11.37 42.16,-27.12 55.44,-40.16 -7.85,-11.54 -1.93,-20.86 2.26,-34.85 21.99,-73.47 26.01,-68.84 -3.49,-94.52 -69.24,-60.29 -74.25,-44.16 -118.4,-69.64 6.58,-17.67 19.07,-30.9 28.81,-47 32.71,-54.05 45.98,-80.66 71.76,-139.6 14.67,-33.54 26.88,-64.98 38.46,-101.59l33.41 -110.36c-17.52,7.03 -0.81,-1.66 -10.26,5.9l-215.36 234.65c-31.87,28.87 -57.5,53.4 -93.86,79.24 -74.12,52.69 -91.17,67.1 -181.05,116.27 -190.3,104.09 -404.38,173.6 -628.49,202.34 -35.48,4.55 -76.43,9.75 -112.62,9.75 8.39,-10.48 61.07,-27.69 77.37,-33.93 29.37,-11.25 53.62,-22.03 82.95,-32.85 104.36,-38.49 133.95,-41.58 246.23,-92.91l149.1 -77.04c16.54,-9.76 60.23,-32.73 69.58,-45.79 -3.62,-5.19 -4.38,0.05 0.94,-10l23.28 -31.28c10.47,-14.36 18.61,-28.34 28.12,-42.77 20.7,-31.43 35.84,-54.19 55.06,-86.38 35.7,-59.77 67.19,-119.72 97.41,-184.5 135.85,-291.22 181.07,-626.11 142.42,-945.14 -5.2,-42.94 -9.12,-80.12 -15.91,-122.25l-33.52 -174.76c-3.64,-23.36 -36.69,-154.02 -46.82,-165.48l6.95 94.28c9.03,54.57 -2.14,270.04 -10.05,325.58 -2.36,16.55 -3.61,29.75 -5.33,43.43 -8.79,69.94 -30.75,179.56 -50.67,243.53 -31.06,99.77 -74.28,224.22 -125.77,319.8l-72.35 127.08c-72.9,112.68 -149.6,210.96 -243.66,308.62 -31.32,32.51 -71.33,65.27 -105.64,96.65 -72.47,66.26 -207.2,162.2 -297.49,211.1 -171.01,92.63 -158.91,75.75 -315.68,146.15 -5.74,2.58 -12.5,5.24 -17.82,8.15 -14.12,7.73 -11.38,7.42 -12.99,12.01z"/>
   <path class="fil0" d="M5051.01 3192.59c0.8,23.33 2.96,8.84 10.23,18.74 0.54,0.74 1.36,1.66 1.86,2.46l61.11 206.28c4.91,17.46 6.57,35.67 10.41,50.89 8.51,33.76 16.21,66.19 22.41,100.37 20.38,112.48 33.1,220.82 15.83,335.74 -4.21,27.99 -10.12,85.78 -4.67,114.83 4.82,16.02 58.41,46.91 73.54,55.11 71.13,38.52 105.78,54.75 186.3,79.26 24.6,7.49 80.51,26.07 105.96,26.66 12.89,-12.01 18.48,-13.91 31.22,-29.1 10.03,-11.95 18.57,-22.57 29.01,-34 20.14,-22.09 17.81,-4.76 36.15,-23.03 8.86,-8.84 18.84,-24.15 25.21,-34.64 -4.53,-5.32 2.68,-1.2 -11.59,-6.62 -32.08,-12.2 -68.17,-20.59 -125.02,-42.81 -48.77,-19.06 -83.82,-36.79 -127.05,-60.97 -42.55,-23.79 -72.48,-48.79 -106.43,-79.82 -18.96,-17.34 -29.76,-26.66 -45.82,-46.67 -14.04,-17.5 -27.86,-37.86 -38.94,-57 86.44,6.58 353.8,242.34 730.91,241.56 214.16,-0.45 398.04,-51.68 566.12,-166.79 14.89,-10.19 20.61,-14.22 33.81,-25.44 12.55,-10.68 20.18,-14.25 33.05,-26.14 23.79,-21.98 39.58,-37.88 58.3,-63.44 -37.8,0.77 -289.61,62.19 -343.77,72.15 -132.54,24.38 -256.34,18.97 -389.66,-1.41 -366.71,-56.05 -571.75,-219.61 -605.1,-227.75l17.59 -4.03c-17.04,-87.17 -19.54,-175.8 -45.11,-290.23 -5.35,-23.95 -11.24,-51.16 -16.9,-77.11l-33.03 -134.23c-0.16,-0.41 -0.61,-1.53 -0.77,-1.94l-14.27 -48.02c-18.29,3 -41.44,18.11 -55.98,29.31 -43.59,33.6 -100.41,109.79 -84.91,147.83z"/>
   <path class="fil0" d="M4355.32 4272.73c-4.86,15.59 12.26,46.44 18.2,62.66 24.03,65.72 41.57,138.54 60.19,206.64 13.45,49.2 59.82,220.44 87.08,264.89l17.21 -10.63c6.27,-2.97 11.44,-4.59 18.09,-7.51 14.44,-6.34 24.25,-11.58 37.02,-17.01 -0.91,-41.31 -110.08,-342.86 -110.08,-596.89l3.19 5.13c0.82,1.44 4.32,7.84 4.43,8.04l54.15 115.54c46.35,96.64 72.08,168.71 129.47,256.02 15.07,22.93 68.6,100.19 86.16,109.54l52.83 -37.96c-15.03,-40.55 -85.88,-143.61 -131.54,-267.6 -18.83,-51.12 -27.39,-98.77 -37.14,-159.28l-16.25 -182.41c24.9,15.24 38.86,38.41 52.84,49.57 4.25,-5.51 2.28,-0.54 4.74,-9.93 1.38,-5.28 0.82,-1.52 1.2,-7.39 0.59,-8.98 -1.58,-12.64 -2.57,-18.24l-53 -322.08c-3.07,-15.32 -5.51,-19.77 -8.73,-32.37 -6.08,-23.88 -9.83,-61.4 -23.84,-86.3 -28.94,0.53 -69.2,8 -115.4,3.54 -31.74,-3.07 -65.35,-13.89 -91.57,-24.97 -26.73,-11.3 -51.39,-26.4 -70.88,-43.9 -12,-10.77 -17.07,-15.03 -26.64,-27.97 -4.01,-5.41 -8.25,-11.07 -12.07,-17.1l-9.67 -15.82c-0.38,-0.57 -1.08,-1.8 -1.78,-2.6 17.45,50.12 9.66,64.3 25.05,94.88 0.45,0.89 1.13,1.83 1.53,2.8l3.22 14.74c0.58,6.13 0.06,13.31 0.66,19.87l16.68 101.32c1.22,10.84 -0.09,23.34 2.02,33.34 14.64,-2.62 1.54,-12.61 13.88,-26.22 0.29,27.22 3.38,45.15 7.22,70.67 9.82,65.36 7.5,139.93 21.92,209.23 12.78,61.44 11.6,240.05 -7.82,285.76z"/>
   <path class="fil0" d="M6442.4 1079.07c10.13,11.46 43.18,142.12 46.82,165.48l33.52 174.76c6.79,42.13 10.71,79.31 15.91,122.25 38.65,319.03 -6.57,653.92 -142.42,945.14 -30.22,64.78 -61.71,124.73 -97.41,184.5 -19.22,32.19 -34.36,54.95 -55.06,86.38 -9.51,14.43 -17.65,28.41 -28.12,42.77l-23.28 31.28c-5.32,10.05 -4.56,4.81 -0.94,10 33.1,-5.45 164.24,-123.28 194.84,-151.26 61.79,-56.49 110.12,-115.98 159.23,-184.53 43.95,-61.36 94.63,-154.78 118.74,-221.54 16.04,-44.41 29.05,-81.36 41.51,-127.11 18.33,-67.32 29.41,-145.62 35.84,-216.83 4.83,-53.58 -3.86,-192.93 -8.46,-241.45 -15.32,-161.89 -84.3,-379.36 -151.04,-522.12 -18.63,-39.85 -37.83,-74.79 -60.61,-109.65 -17.4,-26.62 -56.76,-77.14 -92.28,-84.7l13.21 96.63z"/>
   <path class="fil0" d="M6807.83 2476l-33.41 110.36c-11.58,36.61 -23.79,68.05 -38.46,101.59 -25.78,58.94 -39.05,85.55 -71.76,139.6 -9.74,16.1 -22.23,29.33 -28.81,47 44.15,25.48 49.16,9.35 118.4,69.64 29.5,25.68 25.48,21.05 3.49,94.52 -4.19,13.99 -10.11,23.31 -2.26,34.85 14.16,-6.22 20.1,-14.14 33.37,-23.57 40.1,-28.52 107.99,-103.14 134.2,-143l44.63 -67.89c114.22,-172.4 188.48,-477.32 188.48,-685.16 0,-75.22 -4.23,-132.84 -19.45,-195.59 -6.97,-28.74 -16.26,-58.74 -27.69,-83.37 -9,-19.39 -21.1,-61.35 -45.33,-67.26l-109.12 351.11c-40.28,131.15 -47.41,141.84 -103.71,243.35l-34.96 52.8c-11.17,14.93 -10.57,8.84 -7.61,21.02z"/>
   <path class="fil0" d="M3782.92 4657.97c-8.76,6.33 -5.75,-2.34 -11.11,22.32 -27.02,124.41 -43.91,196.7 -84.15,321.32 -6.04,18.73 -17.59,33.13 -10.49,50.89 -5.44,22.89 0.28,11.95 32.91,38.49 26.04,21.18 34.78,21.92 45.54,30.5 75.47,-39.95 186.18,-146.78 238.29,-210.26 61.55,-74.99 129.67,-180.05 167.86,-277.47 10.73,-27.37 19.4,-50.34 29.2,-78.21 27.31,-77.71 26.14,-128.91 39.21,-181.89 9.02,-36.58 4.55,-253.8 11.3,-313.24 4.05,-35.73 12.18,-182.08 5.83,-212.47 -9.98,10.05 -7.03,26.38 -8.53,36.33l-28.36 101.39c-9.31,38.23 -12.45,116.46 -25.78,144.27l3.39 -55.71 -71.05 175.94c-59.35,127.09 -151.92,281.51 -255.84,378.65 -55.2,51.6 -36.51,39.45 -82.85,49.09l4.63 -19.94z"/>
   <path class="fil0" d="M3934.74 5742.72l8.37 1.78c14.58,55.84 37.84,136.06 41.33,190.37 -14.5,9.02 -38.95,24.49 -50.72,35.5l36.36 171.77c11.24,56.72 19.51,119.06 32.28,180.06l10 57.29c71.64,-40.35 227.51,-178.91 248.64,-189.19l23.9 -39.42c-5.93,-10.24 -13.21,-107.51 -13.21,-128.17l29.55 48.31c5.16,-37.67 7.05,-105.08 1.14,-142.02 -4.32,-18 -17.56,-34.8 -27.03,-54.66 -17.96,-37.63 -56.1,-150.7 -48.47,-173.69 16.58,-20.48 15.45,-5.61 19.33,-35.63 7.89,-61.05 -55.96,-220.51 -70.27,-285.94l-65.53 -2.59 -15.35 2.09c-1.53,53.12 -5.71,109.59 -9.77,164.24 -4.07,54.66 -0.34,113.47 -2.47,170.06 -10.05,1.49 -141.33,23.68 -148.08,29.84z"/>
   <path class="fil0" d="M4598.97 3595.16c14.01,24.9 17.76,62.42 23.84,86.3 3.22,12.6 5.66,17.05 8.73,32.37l53 322.08c0.99,5.6 3.16,9.26 2.57,18.24 -0.38,5.87 0.18,2.11 -1.2,7.39 -2.46,9.39 -0.49,4.42 -4.74,9.93 4.6,13.31 24.3,34.91 33.81,52.36 55.75,102.35 92.38,188.57 201.29,254.78 20.64,12.54 38.74,23.53 59.82,33.87 42.68,20.94 28.81,7.45 74.94,3.94 -4.15,-14.21 -109.18,-131.69 -124.23,-152.12 -67.42,-91.53 -122.34,-207.97 -122.34,-335 60.14,36.83 129.91,179.03 185.8,209.35 -11.73,-73.65 -1.07,-167.2 -8.19,-236.56l-19.8 -181.48c0,-57.07 5.59,-129.55 -13.72,-164.69l-21.16 -133.86c-12.11,7.82 -20.51,17 -31.53,27.21 -11.98,11.09 -22.06,17.91 -35.55,27.88 -92.35,68.33 -149.99,89.82 -261.34,118.01z"/>
   <path class="fil0" d="M1743.19 2673.26c-3.02,-29.34 -33.05,-105.95 -43.82,-139.73 -15.44,-48.4 -27.44,-97.84 -39.88,-148.52 -13.95,-56.8 -59.3,-274.19 -51.11,-320.06l-9.16 -31.2c-0.68,-8.4 -0.92,-16.05 -1.42,-24.62l-16.39 -563.19c1.85,-15.77 2.08,-33.69 3.99,-52.9 2.06,-20.77 9.54,-20.08 13.63,-47.67 2.48,-16.73 5.73,-33.07 9.87,-51.51 3.49,-15.51 5.07,-38.68 9.13,-52.29l27.36 -91.41c12.39,-59.64 19.69,-56.64 27,-92.02 4.06,-19.62 9.54,-25.16 9.93,-47.52 -113.02,73.12 -226.49,466.1 -251.28,603.25 -41.89,231.85 -39.73,512.93 65.19,726.64 8.52,17.36 16.07,31.69 23.46,46.99 4.16,8.61 5.12,13.22 10.72,22.41 5.46,8.95 8.84,12.97 14.34,23.12 32.82,60.54 137.29,195.31 198.44,240.23z"/>
   <path class="fil0" d="M3691.65 5233.44c6.38,18.95 23.6,31.95 33.44,49.98l76.95 83.09 -16.37 7.66 3.88 64.8 21.58 -82.93c14.95,-54.8 53.35,-183.14 95.1,-227.05 0,57.24 -5.41,98.41 -8.8,148.95 -1.54,22.9 -5.73,47.28 -8.44,68.78 -3.08,24.59 -9.18,47.29 -9.18,71.81 25.9,2.43 39.75,-7.29 63.97,-17.72 26.95,-11.59 40.7,-23.44 51.45,-42.03 -15.36,-0.79 -17.2,-2.46 -30.35,-9.13l-23.83 -15.47 179.11 -110.31c39.01,-32.36 29.64,-11.18 44.67,-38.42l16.06 -19.99c0.55,-0.45 1.48,-1.35 2.11,-1.78 10.69,-7.21 13.61,-4.64 21.75,-8.67l18.52 -13.93c-2.2,1.94 4.92,12.32 -5.94,-0.28 -0.16,-0.19 -1.08,-1.06 -1.19,-1.33 -3.33,-8.13 3.1,-9.93 16.73,-25.37 15.05,-17.05 49.22,-55.76 59.04,-73.99 16.09,-29.87 8.74,-3.48 29.24,-38.05l72.44 -122.91c10.15,-18.88 15.09,-13.39 14.61,-40.02 6.89,-16.31 -16.93,-98.24 -23.24,-131.74 -25.21,-133.75 -38.42,-222.73 -38.42,-359.4l-0.33 -60.59c2.95,-15.1 -3.36,-8.87 9.11,-14.67 -8.8,-16.52 9.35,-7.1 -16.04,-13.29 -0.94,20.31 1.13,69.06 -4.57,81.65 -17.84,39.42 -5.32,4.61 -9.89,51.12l-20.66 77.94c-18.71,40.94 -4.45,26.97 -21.03,73.35l-38.38 81.67c-1.14,1.29 -7.73,13.1 -8.67,15.84 -4.54,13.12 -5.27,26.53 -8.98,40.35 -3.61,13.38 -7.44,19.09 -13.55,32.05l-20.67 41.53c-4.01,6.34 -2.4,3.4 -5.71,6.91 -25.93,27.48 -11.2,21.1 -25.5,49.07l-98.54 143.45c-9.38,11.42 -22.46,32.48 -34.67,40.88 -21.05,14.49 -9.33,-0.18 -40.26,35.47l-105.76 88.58c-0.65,0.59 -1.56,1.45 -2.21,2.03 -9.06,8.15 -16.25,13.91 -25.88,20.74l-58.3 39.16c-10.02,8.98 -13.06,19.58 -25.52,25.63 -20.58,9.99 -16.33,0.87 -38.57,0.31 -6.76,21.44 -31.22,23.72 -40.31,26.27z"/>
   <path class="fil0" d="M4025.11 2451.82c14.84,-7.17 0.63,-9.03 27.04,11.37l164.72 131.47c46.63,41.6 66.44,30.87 134.28,14.37 29.57,-7.18 119.04,-35.61 143.65,-30.56 -10.09,-19.59 -55.84,-49.74 -77.51,-70.47l-84.96 -67.47 13.76 -9.95c-71.06,6.67 -112.13,-42.18 -64.34,-66.07 37.38,-18.69 111.95,6.92 92.53,51.38 18.11,4.5 11.37,3.68 25.18,15.78l109.65 92.86c12.15,10.11 33.95,32.05 53.18,32.98l143.83 -34.54c23.57,-6.12 26.63,-4.84 41.1,-18.79 -6.67,-26.16 -55.18,-52.98 -80.44,-75.41 -7.95,-7.06 -11.73,-11.61 -20.18,-17.78 -11.08,-8.09 -13.12,-8.88 -23.75,-18.55 -9.81,-8.92 -11.65,-9.22 -21.59,-16.49 -9.27,-6.78 -13.41,-12.42 -22.66,-19.53l-175.93 -141.08c-42.55,-28.5 -77.22,-11.12 -125.71,-0.22 -42.41,9.54 -87.42,21.12 -132.06,32.24 -33.75,8.41 -230.22,51.65 -256.28,67.61 0.55,22.39 21.74,37.51 45.89,54.66 10.04,7.12 10.13,6.62 19.08,14.76l55.96 45.22c15.69,10.96 11.77,2.85 15.56,22.21z"/>
   <path class="fil0" d="M4247.31 3847.95c6.35,30.39 -1.78,176.74 -5.83,212.47 -6.75,59.44 -2.28,276.66 -11.3,313.24 -13.07,52.98 -11.9,104.18 -39.21,181.89 -9.8,27.87 -18.47,50.84 -29.2,78.21 -38.19,97.42 -106.31,202.48 -167.86,277.47 -52.11,63.48 -162.82,170.31 -238.29,210.26 -10.76,-8.58 -19.5,-9.32 -45.54,-30.5 -32.63,-26.54 -38.35,-15.6 -32.91,-38.49 -11.61,7.93 -10.88,10.49 -17.06,28.66 -4.11,12.08 -7.36,20.47 -11.98,33.26 -4.95,13.69 -7.47,19.72 -13.09,32.36 -6.62,14.9 -11.24,20.84 -6.23,34.54 -5.04,10.27 -0.95,8.59 9.72,14.91 4.09,2.43 14.15,6.87 20.21,9.96 27.99,14.26 14.91,15.42 32.91,27.25 9.09,-2.55 33.55,-4.83 40.31,-26.27 22.24,0.56 17.99,9.68 38.57,-0.31 12.46,-6.05 15.5,-16.65 25.52,-25.63l58.3 -39.16c9.63,-6.83 16.82,-12.59 25.88,-20.74 0.65,-0.58 1.56,-1.44 2.21,-2.03l105.76 -88.58c30.93,-35.65 19.21,-20.98 40.26,-35.47 12.21,-8.4 25.29,-29.46 34.67,-40.88l98.54 -143.45c14.3,-27.97 -0.43,-21.59 25.5,-49.07 3.31,-3.51 1.7,-0.57 5.71,-6.91l20.67 -41.53c6.11,-12.96 9.94,-18.67 13.55,-32.05 3.71,-13.82 4.44,-27.23 8.98,-40.35 0.94,-2.74 7.53,-14.55 8.67,-15.84l38.38 -81.67c16.58,-46.38 2.32,-32.41 21.03,-73.35l20.66 -77.94c4.57,-46.51 -7.95,-11.7 9.89,-51.12 5.7,-12.59 3.63,-61.34 4.57,-81.65 25.39,6.19 7.24,-3.23 16.04,13.29 19.42,-45.71 20.6,-224.32 7.82,-285.76 -14.42,-69.3 -12.1,-143.87 -21.92,-209.23 -3.84,-25.52 -6.93,-43.45 -7.22,-70.67 -12.34,13.61 0.76,23.6 -13.88,26.22 -2.11,-10 -0.8,-22.5 -2.02,-33.34l-16.68 -101.32c-0.6,-6.56 -0.08,-13.74 -0.66,-19.87l-3.22 -14.74c-0.4,-0.97 -1.08,-1.91 -1.53,-2.8 -15.39,-30.58 -7.6,-44.76 -25.05,-94.88 -2.07,-12.28 -6.81,-23.23 -10.79,-37.77 -2.41,-8.81 -3.36,-14.4 -4.44,-19.82 -4.79,-24.16 -1.81,-16.69 -10.38,-22.92 8.8,70.59 4.02,160.86 3.84,233.49 -0.1,38.75 0.41,78.18 -0.52,116.86 -0.79,33 -9.46,77.38 -1.36,111.77z"/>
   <path class="fil0" d="M1608.38 2064.95c-8.19,45.87 37.16,263.26 51.11,320.06 12.44,50.68 24.44,100.12 39.88,148.52 10.77,33.78 40.8,110.39 43.82,139.73 6.54,7.14 10.18,10.65 17.33,17.23 12.18,11.21 7.83,9.18 23.41,14.98 -10.56,-26.27 -1.22,-28.85 -1.92,-47.94 -0.48,-12.86 -7.07,-27.54 -8.03,-44.65 -2.03,-36.23 -6.72,-64.39 -3.3,-101.67 3.63,-39.55 -19.51,-13.75 -7.18,-73.35 17.38,-84.04 11.65,-69.66 40.16,-169.05 9.05,-31.58 25.89,-80.16 23.75,-95.41 -2.95,-21.04 12.83,-45.15 18.69,-62.89 2.24,-6.78 5.81,-16.43 7.61,-21.3 5.27,-14.27 7.85,-28.61 18.3,-39.24 -5.55,-23.62 -18.31,-44.81 -26.96,-68.64 -73.49,-202.5 -82.95,-244.07 -115.88,-457.66 -3.29,-21.35 -4.22,-71.26 -8.78,-86.32 -7,9.1 -12.85,22.74 -16.14,35.71 -3.67,14.47 1.66,15.11 -2.61,33.55l-32.93 111.14c-11.31,25.06 -3.61,16.39 -16.53,53.25l-12.94 52.5c-2.97,12.06 -3.65,30.66 -7.58,41.51 -1.54,4.23 -3.55,6.74 -4.26,8.17 -4.83,9.69 -0.46,-2.74 -4.02,8.2l-8.33 60.87c-14.94,57.12 -3.5,157.97 -6.67,222.7z"/>
   <path class="fil0" d="M1311.37 3003.38c-2.48,-24.86 -12.66,-56.56 -18.14,-81.72 -41.66,-191.45 -74.59,-458.65 -64.17,-646.95 -5.33,-22 -59.44,-130.31 -81.71,-223.1 -10.44,-43.51 -17.24,-80.14 -30.07,-121.46 -10.26,-33.05 -31.38,-86.19 -55.43,-102.3 -23.28,44.36 -47.79,258.47 -48.43,322.7l0 5.87c1.1,239.64 21.32,416.82 130.55,626.95l74.59 116.98c18.2,23.98 68.03,83.7 92.81,103.03z"/>
   <path class="fil0" d="M4927.39 3422.06l21.16 133.86c19.31,35.14 13.72,107.62 13.72,164.69l19.8 181.48c7.12,69.36 -3.54,162.91 8.19,236.56 10.48,17.71 99.53,75.52 125.22,84.54 -4.03,-18.65 1.62,-31.37 6.58,-44.22 4.98,-12.89 8.93,-30.54 17.03,-39.65 -13.18,-19.95 -29.45,-32.41 -45.34,-51.81 -12.89,-15.76 -29.72,-40.82 -37.77,-58.06 -16.51,-35.38 -44.58,-100.81 -44.58,-148.45 20.53,12.56 57.71,50.89 78.19,69.4 25.1,22.69 46.92,57.59 78.6,71.5 -5.45,-29.05 0.46,-86.84 4.67,-114.83 17.27,-114.92 4.55,-223.26 -15.83,-335.74 -6.2,-34.18 -13.9,-66.61 -22.41,-100.37 -3.84,-15.22 -5.5,-33.43 -10.41,-50.89l-61.11 -206.28c-0.5,-0.8 -1.32,-1.72 -1.86,-2.46 -7.27,-9.9 -9.43,4.59 -10.23,-18.74 -12.18,8.8 -10.17,10.93 -15.04,30.59 -26.82,108.27 -103.5,183.7 -108.58,198.88z"/>
   <path class="fil0" d="M3531.97 5395.27c-3.67,3.46 -0.83,-1.63 -7.32,8.85l-48.45 96.58c-43.11,78.86 -100.19,138.18 -89.05,231.72 3.7,31.03 35.74,95.05 56.76,109.13l218.38 -403.39c2.47,72.04 -51.87,204.23 -81.26,271.11 -12.07,27.47 -25.6,57.7 -35.31,84.47 -33.86,93.35 -72.79,183.62 -47.95,288.42 5.77,24.37 19.62,68.74 38.6,81.45 3.39,-11.61 14.02,-24.51 20.58,-37.55 7.59,-15.06 13.35,-27.1 20.33,-41.79 13.36,-28.08 25.79,-57.54 36.73,-87.2 22.29,-60.45 45.49,-114.7 65.12,-177.98 9.57,-30.84 20.33,-57.49 30.54,-88.82 34.26,-105.1 53.48,-181.89 79.88,-291.3l-3.88 -64.8c-91.74,10.09 -151.87,23.12 -253.7,21.1z"/>
   <path class="fil0" d="M1933.66 3293.25c10.07,11.66 -1.93,2.45 12.85,8.17 0.3,0.12 16.42,3.48 18.25,3.78l118.03 16.21c-43.44,-63.8 -79.35,-125.33 -118.26,-192.76 -12.35,-21.41 -101.24,-190.66 -101.32,-190.71 -9.29,-11.97 -23.75,-17.02 -37.77,-24.83l-144.15 -93.65c-12.83,-9.49 -22.12,-17.16 -33.84,-25.42 -91.14,-64.22 -213,-196.37 -278.87,-288.34 -11.11,-15.51 -3.73,-10.61 -19.35,-17.62l17.98 72.46c12.79,6.73 -3.76,-4.53 9.99,0 2.4,40.47 38.36,101.14 55.43,139.58 0.41,0.93 0.9,1.98 1.34,2.88l70.31 137.06c16.15,42.26 1.17,0.99 31.31,48l50.37 74.8c28.4,41.15 20.68,23.2 38.39,41.42 34.19,35.19 22.29,4.85 40.27,43.27 4.23,9.06 2.45,6.18 8.89,12.56l94.44 90.72c17.26,16.25 31.48,23.09 41.52,38.34l41.79 38.56c11.61,8.52 50.94,31.55 59.08,42.46 19.59,26.26 33.41,23.36 23.32,23.06z"/>
   <path class="fil0" d="M3875.41 6131.39l-57.24 369.38 9.29 17.82c26.35,69.36 63.93,177.28 118.87,228.34 11.29,10.49 20.7,13.34 18.93,32.63 7.61,-6.88 6.84,-10.43 9.67,-29.87l27.41 -172.12c3.67,-23.79 9.56,-47.63 9.56,-71.77l8.66 169.22c0.04,25.07 4.55,31.75 4.55,57.42 19.48,-10.6 31.47,-24.63 50.23,-39.57 18.32,-14.59 29.74,-22.02 39.9,-45.29l-2.04 47.44c17.35,-6.65 3.78,3.36 8.36,-12.27 0.54,-1.83 0.8,-17.08 0.74,-19.79 -1.95,-90.67 17.29,-187.68 17.29,-237.67l4.41 0c0,25.31 3.27,42.19 6.9,66.15l6.26 50.62c0.71,4.77 -0.94,8.52 5.18,16.08 21.05,-42.03 39.15,-89.96 50.02,-142.95 22.86,-60.33 41.86,-157.11 48.64,-224.89 -21.13,10.28 -177,148.84 -248.64,189.19l-10 -57.29 -12.49 22.55 -44.39 -42.43c-19.03,-20.83 -7.58,-14.12 -19.48,-34.33l-5.05 -7.2c-0.62,-1.09 -3.75,-7.21 -4.15,-8.57 -2.53,-8.65 -1.78,-11.31 -1.78,-20.17 -16.89,-6.51 -6.72,11.72 -13.96,-13.77l-12.46 -90.9c-7.83,4.13 -2.41,0.69 -13.19,4.01z"/>
   <path class="fil0" d="M1311.37 3003.38c18.86,19.49 35.58,36.95 61.33,48.31 -18.82,-119.32 -2.11,-99.64 -6.32,-161.2l-2.47 -63.68c12.1,-24.45 8.58,-59.15 12.41,-86.68l7.64 -82.34c17.68,46.1 32.4,93.92 50.89,141.07 18.64,47.52 37.4,93.98 58.14,140.98 38.06,86.26 70.53,152.51 115.9,231.68 6.76,11.8 13.84,21.84 16.15,33.14 21.2,15.8 108.89,44.48 142.95,54.86 26.66,8.13 52.86,15.04 78.48,20.84 22.32,5.05 66.83,20.08 87.19,12.89 10.09,0.3 -3.73,3.2 -23.32,-23.06 -8.14,-10.91 -47.47,-33.94 -59.08,-42.46l-41.79 -38.56c-10.04,-15.25 -24.26,-22.09 -41.52,-38.34l-94.44 -90.72c-6.44,-6.38 -4.66,-3.5 -8.89,-12.56 -17.98,-38.42 -6.08,-8.08 -40.27,-43.27 -17.71,-18.22 -9.99,-0.27 -38.39,-41.42l-50.37 -74.8c-30.14,-47.01 -15.16,-5.74 -31.31,-48l-70.31 -137.06c-0.44,-0.9 -0.93,-1.95 -1.34,-2.88 -17.07,-38.44 -53.03,-99.11 -55.43,-139.58 -13.75,-4.53 2.8,6.73 -9.99,0l-17.98 -72.46c1.49,-14.67 -51.67,-88.11 -59.91,-103.32 -10.45,-19.3 -19.43,-35.58 -29.33,-53.69 -5.03,-9.19 -9.33,-16.37 -14.72,-26.8l-16.21 -29.56c-10.42,188.3 22.51,455.5 64.17,646.95 5.48,25.16 15.66,56.86 18.14,81.72z"/>
   <path class="fil0" d="M4212.36 6415.19c-10.87,52.99 -28.97,100.92 -50.02,142.95 -1.12,15.83 -3.42,24.29 3.67,34.54 19.53,21.98 12.14,47.69 52.84,48.89l17.13 -34.66c1.01,44.34 -15.32,110.21 -26.87,154.68 -4.71,18.12 -5.28,34.87 -16.68,47.58 0.46,16.32 6.31,46.54 8.43,63.32 2.82,22.28 6.65,43.77 8.78,64.44l34.81 266.08c3.09,22.69 6.48,44.6 8.84,64.38 4.51,37.75 0.16,54.43 13.99,63.7l41.29 -95.1c36.66,-100.68 77.67,-233.17 77.6,-339.69 -0.06,-86.33 -35.73,-402.57 -61.65,-485.57 -12.24,1.83 -7.37,3.1 -12.22,42.78 -3.25,26.59 -8.18,15.01 -14.91,38.87 -4.24,15.02 -3.85,31.67 -7.93,45.24 -2.76,9.17 -1.13,4.8 -5.66,11.31l-19.2 18.53c-2.99,-3.71 -1.27,-0.29 -5.46,-8.45l-31.41 -105c-0.99,-4.01 -4.58,-19.12 -4.73,-19.54 -0.88,-2.65 -2.75,-7.18 -4.02,-9.62 -3.28,-6.33 -3.7,-6.29 -6.62,-9.66z"/>
   <path class="fil0" d="M2039.31 2878.58c3.34,9.54 13.57,12 24.87,17.49 13.85,6.74 19.19,10.58 33.87,17.39l68.97 33.56c22.74,10.39 43.58,19.84 67.51,30.87 17.65,8.13 59.83,26.92 77.77,29.51l6.23 -40.68c6.11,-15.56 0.37,-9.3 1.75,-19.06 2.53,-17.82 10.34,-9.34 9.85,-22.14 -0.23,-5.94 -5.79,-4.69 1.58,-17.83l11.6 -38.68c0.75,-8.98 -5.95,-7.02 0.63,-18.94 1,-1.81 1.22,3.31 5.21,-9.08 3.35,-10.39 -2.45,-7.36 4.27,-18.18 5.29,-8.53 1.68,1.33 3.12,-7.4l0.95 -7.6c3.48,-22.63 -1.86,-7.98 6.13,-22.63 7.16,-13.14 2.76,-9.39 4.37,-18.05l2.46 -7.71c0.16,-0.44 0.62,-1.58 0.77,-2.03 3.27,-9.45 8.58,-48.83 20.36,-55.97 -9.79,-21.98 -6.37,-7.9 -29.79,-29.11 -39.84,-36.09 -105.64,-87.56 -147.4,-130.92 -11.03,-11.45 -13.75,-16.62 -26.48,-28.13 -18.68,-16.89 -17.14,-24.92 -29.7,-25.2 -15.03,6.27 -16.94,40.5 -27.33,65.04 -0.25,0.59 -0.87,1.67 -1.14,2.28 -0.28,0.64 -0.94,1.73 -1.22,2.39l-4.39 15.22c-0.15,0.61 -0.39,1.74 -0.55,2.36l-2.39 7.77c-1.34,4.49 -3.03,10.77 -4.56,15.82l-2.51 7.64c-0.16,0.59 -0.47,1.7 -0.62,2.27 -8.56,32.06 -2.57,11.34 -14.56,21.8 -7.62,6.64 -11.19,26.42 -15.05,37.41 -0.21,0.61 -0.62,1.73 -0.81,2.33 -0.18,0.59 -0.46,1.73 -0.61,2.32l-43.16 205.87z"/>
   <path class="fil0" d="M4320.12 5318.18l25.53 93.42c50.96,186.34 111.7,434.87 193.39,608.21 10.59,22.49 11.5,33.89 27.63,43.16l-11.41 -44.07c13.48,-4.69 22.93,-8.97 33.45,-11.48l13.21 16.56c28.21,-12.29 38.4,-40.4 61.64,-57.53 -0.68,-28.11 -84.23,-210.22 -100.64,-250.28 -17.33,-42.3 -31.88,-85.57 -46.19,-130.87l-32.65 -119.98c-2.12,-27.99 -2.24,-12.25 7.74,-18.3l-52.05 -136.12c18.17,-16.03 58.78,-30.28 79.72,-49.06 -0.46,-10.38 -15.6,-97.08 -17.87,-101.45 -56.69,25.73 -42.05,21.93 -58.54,47.65 -6.52,10.19 0.84,-1.31 -5.74,7.4 -18.8,24.85 -1.46,17.39 -18.99,31.84 -21.56,17.78 -61.11,56.74 -82.53,66.11 -8.16,3.57 2.27,1.67 -15.7,4.79z"/>
   <path class="fil0" d="M1783.93 2705.47c0.35,12.83 86.24,73.28 105.67,80.51 0.74,-19.41 -2.93,-21.13 -4.08,-36.63l9.22 -82.4c0.11,-0.58 0.37,-1.76 0.47,-2.35 0.11,-0.6 0.3,-1.78 0.4,-2.4l19.76 -86.01c6.79,-18.76 1.72,-19.93 16.48,-61.91 2.13,-6.08 3.91,-14.86 4.47,-16.77l30.91 -97.94c1.91,-5.93 -0.09,-0.39 2.95,-7.22l4.81 -12.06c4.04,-16.28 20.84,-75.22 33.52,-82.05 -2.93,-14.2 -61.67,-104.03 -71.92,-122.83l-48.25 -92.77c-3.02,-6.45 -4.91,-11.99 -7.43,-17.4 -0.34,-0.73 -3.78,-7.52 -4.12,-8.12 -4.69,-8.14 -1.65,-3.51 -4.78,-7.15 -10.45,10.63 -13.03,24.97 -18.3,39.24 -1.8,4.87 -5.37,14.52 -7.61,21.3 -5.86,17.74 -21.64,41.85 -18.69,62.89 2.14,15.25 -14.7,63.83 -23.75,95.41 -28.51,99.39 -22.78,85.01 -40.16,169.05 -12.33,59.6 10.81,33.8 7.18,73.35 -3.42,37.28 1.27,65.44 3.3,101.67 0.96,17.11 7.55,31.79 8.03,44.65 0.7,19.09 -8.64,21.67 1.92,47.94z"/>
   <path class="fil0" d="M3965.26 6779.56c1.77,-19.29 -7.64,-22.14 -18.93,-32.63 -54.94,-51.06 -92.52,-158.98 -118.87,-228.34l-9.29 -17.82c-4.07,6.79 -1.17,1.11 -3.52,9.66l-16.56 93.76c-33.14,187.57 -41.44,360.41 8.61,544.15 11.41,41.91 30.5,97.02 49.58,135.83 6.22,12.67 17.94,33.85 19.13,46.92 13.93,-9.34 9.06,-20.87 15.71,-62.13 4.16,-25.87 6.83,-45.74 11.35,-70.14 8.3,-44.87 67.57,-400.32 62.79,-419.26z"/>
   <path class="fil0" d="M1889.6 2785.98c0.8,11.48 -5.57,-3.17 2.95,6.18 0.19,0.21 8.81,6.67 8.99,6.79 8.01,5.15 10.86,6.84 18.24,11.8 12.33,8.29 24.1,15.85 35.91,23.53 16.13,10.5 64.15,41.11 83.62,44.3l43.16 -205.87c0.15,-0.59 0.43,-1.73 0.61,-2.32 0.19,-0.6 0.6,-1.72 0.81,-2.33 3.86,-10.99 7.43,-30.77 15.05,-37.41 11.99,-10.46 6,10.26 14.56,-21.8 0.15,-0.57 0.46,-1.68 0.62,-2.27l2.51 -7.64c1.53,-5.05 3.22,-11.33 4.56,-15.82l2.39 -7.77c0.16,-0.62 0.4,-1.75 0.55,-2.36l4.39 -15.22c0.28,-0.66 0.94,-1.75 1.22,-2.39 0.27,-0.61 0.89,-1.69 1.14,-2.28 10.39,-24.54 12.3,-58.77 27.33,-65.04 -9.19,-20.64 -20.35,-29.44 -38.26,-49.54l-91.18 -117.95c-8.37,-11.71 -11.75,-18.87 -20.26,-22.33 -12.68,6.83 -29.48,65.77 -33.52,82.05l-4.81 12.06c-3.04,6.83 -1.04,1.29 -2.95,7.22l-30.91 97.94c-0.56,1.91 -2.34,10.69 -4.47,16.77 -14.76,41.98 -9.69,43.15 -16.48,61.91l-19.76 86.01c-0.1,0.62 -0.29,1.8 -0.4,2.4 -0.1,0.59 -0.36,1.77 -0.47,2.35l-9.22 82.4c1.15,15.5 4.82,17.22 4.08,36.63z"/>
   <path class="fil0" d="M2123.01 3691.78c42.27,0 120.4,-11 165.41,-17.82l40.9 -7.17c1.06,-0.39 2.31,-1 3.24,-1.38 0.93,-0.38 2.38,-1.23 3.12,-1.57 0.74,-0.33 2.16,-0.95 3.06,-1.66 -15.04,-3.12 -19.45,-13.99 -29.88,-27.51l-143.08 -194.96c-5.57,-7.97 -19.22,-23.57 -16.37,-26.35 -5.93,-11.93 1.31,-6.36 -21.76,-7.89 -119.45,-7.94 -170.91,-13.46 -291.23,-35.41 -35.24,-6.43 -66.3,-15.19 -99.7,-20.47l144.56 144.48c49.37,42.8 152.06,122.61 208.78,155.28l30.46 16.49c18.99,12.79 10.81,14.79 25.09,17.91l-22.6 8.03z"/>
   <path class="fil0" d="M4501.62 5160.39c2.27,4.37 17.41,91.07 17.87,101.45 -20.94,18.78 -61.55,33.03 -79.72,49.06l52.05 136.12c-4.22,15.87 3.31,13.86 22.04,48.31 9.86,18.14 18.79,31.67 29.37,49.63 53.69,91.16 108.51,211.72 159.96,300.62l64.28 -70.05c92.57,-140.65 -72.52,-231.23 -106.5,-301.99l-64.04 -134.68c-13.01,-29.05 -70.64,-155.5 -78.67,-185.25 -14.47,1.96 -5.36,-2.66 -16.64,6.78z"/>
   <path class="fil0" d="M3995.23 5358.78c-10.75,18.59 -24.5,30.44 -51.45,42.03 -24.22,10.43 -38.07,20.15 -63.97,17.72l-62.6 286.14c4.68,13.36 8.7,35.44 15.21,47.14 32.14,7.79 69.64,-9.47 102.32,-9.09 6.75,-6.16 138.03,-28.35 148.08,-29.84 2.13,-56.59 -1.6,-115.4 2.47,-170.06 4.06,-54.65 8.24,-111.12 9.77,-164.24l15.35 -2.09 -107.73 -20.88 -7.45 3.17z"/>
   <path class="fil0" d="M6847.46 3164.41c-9.86,20.21 -29.62,145.53 -93.16,277.62l-37.26 70.12c-1.84,13.04 -6.81,1.12 2.75,9.39 22.49,-2.57 97.99,-60.09 117.86,-76.27 64.65,-52.67 78.67,-65.65 131.23,-129.6 86.26,-104.95 135.26,-225.92 159.83,-357.09 3.55,-18.94 4.97,-38.57 9.37,-55.85 -19.03,4.65 -7.15,1.76 -19.12,14.73 -6.74,7.3 -10.6,9.9 -16.75,16.89 -32.13,36.53 -67.46,65.91 -86.11,86.32 -33.35,36.46 -16.03,18.63 -55.21,50.17l-57.15 48.39c-10.2,8.13 -53.19,36.35 -56.28,45.18z"/>
   <path class="fil0" d="M3994.29 2582.69c4.01,5.82 -1.55,-4.73 5.07,9.02 2.02,4.2 3.22,7.66 5.11,11.99 47.83,110.02 204.92,143.63 324.46,150.77 62.92,-3.86 88.63,-7.38 131.89,-28.87 -5.74,-37.99 -7.71,-64.08 30.01,-78.32 3.41,-12.21 7.69,-25.59 11.09,-37.75 5.14,-18.39 10.76,-26.92 -7.12,-31.06 -24.61,-5.05 -114.08,23.38 -143.65,30.56 -67.84,16.5 -87.65,27.23 -134.28,-14.37l-164.72 -131.47c-26.41,-20.4 -12.2,-18.54 -27.04,-11.37 -9.35,19.24 -29.99,103.58 -30.82,130.87z"/>
   <path class="fil0" d="M3791.75 5791.71c3.4,4.99 1.07,-1.4 4.33,10.12 3.04,10.76 -0.42,-4.14 1.53,7.45l29.69 253.69c-16.17,20.07 -17.48,4.13 -22.1,35.55l-15.56 147.4 -4.6 38.47c7.48,-7.08 9.44,-21.41 11.55,-31.85 2.38,-11.74 5.2,-24.97 8.32,-36.64 15.92,-59.63 32.79,-123.95 64.5,-178.54l10.4 -14.65c0,41.74 -4.4,67.47 -4.4,108.68 10.78,-3.32 5.36,0.12 13.19,-4.01l12.46 90.9c7.24,25.49 -2.93,7.26 13.96,13.77 0,8.86 -0.75,11.52 1.78,20.17 0.4,1.36 3.53,7.48 4.15,8.57l5.05 7.2c11.9,20.21 0.45,13.5 19.48,34.33l44.39 42.43 12.49 -22.55c-12.77,-61 -21.04,-123.34 -32.28,-180.06l-36.36 -171.77c11.77,-11.01 36.22,-26.48 50.72,-35.5 -3.49,-54.31 -26.75,-134.53 -41.33,-190.37l-8.37 -1.78c-32.68,-0.38 -70.18,16.88 -102.32,9.09 -6.51,-11.7 -10.53,-33.78 -15.21,-47.14 -3.69,6.81 -24.39,77.21 -25.46,87.04z"/>
   <path class="fil0" d="M1902.81 3961.51c7.85,8.04 67.31,20.43 83.67,24.17 102.85,23.45 152.55,24.42 259.95,24.28 26.07,-0.03 31.2,-4.16 54.84,-4.16l18.62 -9.05c-24.49,-26.64 -111.44,-161.07 -124.33,-188.22 -58.4,0 -83.9,9.33 -182.82,8.21 -52.86,-0.59 -158.56,-22.42 -175.95,-16.28l-10.88 0.02c12.23,16.26 8.52,16.66 18.24,33.9 17.18,30.5 8.3,30.42 22.42,52.29 27.7,42.92 18.61,12.21 36.24,74.84z"/>
   <path class="fil0" d="M1682.32 1010.62c-0.39,22.36 -5.87,27.9 -9.93,47.52 -7.31,35.38 -14.61,32.38 -27,92.02l-27.36 91.41c-4.06,13.61 -5.64,36.78 -9.13,52.29 -4.14,18.44 -7.39,34.78 -9.87,51.51 -4.09,27.59 -11.57,26.9 -13.63,47.67 -1.91,19.21 -2.14,37.13 -3.99,52.9l16.39 563.19c0.5,8.57 0.74,16.22 1.42,24.62l9.16 31.2c3.17,-64.73 -8.27,-165.58 6.67,-222.7l8.33 -60.87c3.56,-10.94 -0.81,1.49 4.02,-8.2 0.71,-1.43 2.72,-3.94 4.26,-8.17 3.93,-10.85 4.61,-29.45 7.58,-41.51l12.94 -52.5c12.92,-36.86 5.22,-28.19 16.53,-53.25l32.93 -111.14c4.27,-18.44 -1.06,-19.08 2.61,-33.55 3.29,-12.97 9.14,-26.61 16.14,-35.71 -7.92,-33.1 -9.4,-303.98 -6.91,-346.24 1.87,-31.7 8.83,-75.98 8.83,-108.67 -17.45,4.25 -30.44,16.09 -39.99,28.18z"/>
   <path class="fil0" d="M4025.11 6732.44c0,52 4.67,88.94 4.35,139.76l48.49 986.26c0,-38.65 18.11,-148.9 17.54,-205.38 -0.29,-28.49 4.69,-41.71 4.51,-72.37 -0.31,-51.33 4.38,-91.24 4.37,-144.95 -0.01,-53.27 4.4,-93.87 4.4,-148.96l6.95 -440.5c4.84,-29.24 7.88,-126.65 -2.52,-151.28l2.04 -47.44c-10.16,23.27 -21.58,30.7 -39.9,45.29 -18.76,14.94 -30.75,28.97 -50.23,39.57z"/>
   <path class="fil0" d="M1650.23 3627.37c2.85,3.09 -0.51,1.49 8.94,5.51 49.54,21.08 216.54,54.88 270.06,54.88 -3.69,-17.8 -3.13,-12.11 -15.04,-26.04l-48.43 -60.09c-11.57,-14.98 -20.05,-28.3 -31.24,-43.8l-117.32 -174.99c-10.32,-16.29 -17.94,-31.18 -28.49,-45.32 -0.14,-0.14 -78.91,-32.56 -98.49,-28.21l-5.35 0.89c-3.82,13.96 -0.62,31.92 3.76,44.46l5.54 22.8c6.39,50.91 26.82,100.04 27.01,103.1 2.6,41.62 13.08,53.17 19.82,78.07 9.8,36.16 15.79,34.62 9.23,68.74z"/>
   <path class="fil0" d="M3602.42 6336.7c9.02,-5 10.66,2.44 6.09,-5.83 25.88,48.04 43.28,12.68 46,10.56 5.68,13.96 14.27,19.63 31.57,24.43 50.24,-33.15 80.22,-103.84 103.56,-119.94l15.56 -147.4c4.62,-31.42 5.93,-15.48 22.1,-35.55l-29.69 -253.69c-1.95,-11.59 1.51,3.31 -1.53,-7.45 -3.26,-11.52 -0.93,-5.13 -4.33,-10.12l-163.47 472.03c-6.69,16.92 -22.85,55.53 -25.86,72.96z"/>
   <path class="fil0" d="M1270.58 3389.85c15.22,34.25 159.55,133.09 199.86,157.82 27.16,16.67 53.48,28.52 81.02,43.47 -12.05,-29.33 -33.45,-62.51 -49.71,-92.12 -16.8,-30.6 -30.08,-59.87 -44.47,-91.93 -22.29,-49.68 -68.84,-145.6 -78.07,-198.4 -23.14,-17.42 -47.94,-29.34 -72.73,-46.54 -12.94,-8.98 -22.06,-15.84 -34.3,-25 -10.49,-7.85 -25,-19.67 -35.45,-25.08 4.16,49.63 4.4,94.66 11.04,144.01 5.62,41.79 20.4,92.06 22.81,133.77z"/>
   <path class="fil0" d="M4175.94 5379.08c14.31,65.43 78.16,224.89 70.27,285.94 -3.88,30.02 -2.75,15.15 -19.33,35.63 -7.63,22.99 30.51,136.06 48.47,173.69 9.47,19.86 22.71,36.66 27.03,54.66 23.7,-13.77 2.18,5.81 34.34,-19.97 18.06,-14.47 19.14,-0.07 34.57,-24.78l4.5 -7.94c7.16,-10.12 -2.31,-6.28 10.38,-9.61l-33.37 -127.49c-10.66,-44.8 -22.48,-86.11 -31.55,-128.16l-41.38 -195.67c-3.69,-20.31 -10.97,-49.73 -12.59,-70.76l-91.34 34.46z"/>
   <path class="fil0" d="M3995.23 5358.78l7.45 -3.17c14.07,-23.3 69.27,-54.2 105.1,-70.4 59.07,-26.71 74.45,-36.02 146.29,-26.14 0,-44.98 -8.8,-83.66 -8.8,-134.11 15.47,10.36 26.3,39.07 33.61,53.8l10.54 18.67c5.74,-22.06 12.02,4.95 57.84,-19.75 17.9,-9.65 44.95,-22.01 52.6,-39.42 17.99,-40.98 19.01,-209.58 34.74,-230.34 -4.57,-9.14 -7.35,-22.41 -10.52,-34.98 -0.82,-3.23 -2.88,-13.13 -3.98,-16.24 -7.04,-19.86 1.05,-8.22 -11.9,-17.57 0.48,26.63 -4.46,21.14 -14.61,40.02l-72.44 122.91c-20.5,34.57 -13.15,8.18 -29.24,38.05 -9.82,18.23 -43.99,56.94 -59.04,73.99 -13.63,15.44 -20.06,17.24 -16.73,25.37 0.11,0.27 1.03,1.14 1.19,1.33 10.86,12.6 3.74,2.22 5.94,0.28l-18.52 13.93c-8.14,4.03 -11.06,1.46 -21.75,8.67 -0.63,0.43 -1.56,1.33 -2.11,1.78l-16.06 19.99c-15.03,27.24 -5.66,6.06 -44.67,38.42l-179.11 110.31 23.83 15.47c13.15,6.67 14.99,8.34 30.35,9.13z"/>
   <path class="fil0" d="M2171.4 3329.46c18.82,0 13.62,2.58 30.97,3.77 14.28,0.97 23.21,0.01 37.64,1.96 24.55,3.33 49.37,2.33 75.76,2.33 7.86,-32.9 0.98,-72.18 8.12,-106.21 0.15,-0.68 0.65,-1.83 0.79,-2.5l10.97 -101.12c0.83,-7.53 1.55,-7.41 1.87,-8.8 3.74,-16.09 5.23,-7.77 0.26,-14l9.77 -0.89c-10.64,-12.31 -30.38,-10.88 -59.91,-17.67l-121.18 -30.11c-18.99,-5.31 -42.62,-18.27 -61.08,-12.61 -10.62,-2.03 -6.66,-2.26 -11.73,0.02 0.24,10.47 1.62,17.6 2.49,23.2l3.35 14.97c1.07,4.74 0.61,3.56 1.42,7.3l8.52 37.01c1.64,7.98 0.1,0.85 1.75,6.98 3.33,12.35 -0.34,-1.16 1.94,6.75 0.28,0.95 1.08,3.69 1.36,4.67l9.1 45.62c0.04,0.9 -0.05,2.07 0.02,2.97 0.07,0.88 0.09,2.05 0.21,2.93l11.95 40.09c13.18,37.66 17.12,76.15 25.99,85.73l6.16 5.09c0.59,-0.82 2.36,1.64 3.49,2.52z"/>
   <path class="fil0" d="M2195.56 3808.53c12.89,27.15 99.84,161.58 124.33,188.22l-18.62 9.05c21.55,-0.37 49.09,-5.72 72.01,-8.68 21.77,-2.82 46.45,-7.76 69.43,-13.01 29.87,-6.84 103.39,-25.99 121.33,-38.7 -14.18,-24.75 -51,-63.29 -71.36,-88.12 -24.93,-30.42 -50.42,-59.72 -71.9,-89.02 -30.95,0.51 -78.29,15.98 -110.29,22.48 -38.79,7.88 -76.76,11.27 -114.93,17.78z"/>
   <path class="fil0" d="M1372.7 3051.69l9.63 12.76c42.64,34.23 196.44,129.91 242.71,140.21 -2.31,-11.3 -9.39,-21.34 -16.15,-33.14 -45.37,-79.17 -77.84,-145.42 -115.9,-231.68 -20.74,-47 -39.5,-93.46 -58.14,-140.98 -18.49,-47.15 -33.21,-94.97 -50.89,-141.07l-7.64 82.34c-3.83,27.53 -0.31,62.23 -12.41,86.68l2.47 63.68c4.21,61.56 -12.5,41.88 6.32,161.2z"/>
   <path class="fil0" d="M1551.46 3591.14c11.92,6.53 29.87,12.43 44.64,18.78 17.01,7.31 34.91,14.31 54.13,17.45 6.56,-34.12 0.57,-32.58 -9.23,-68.74 -6.74,-24.9 -17.22,-36.45 -19.82,-78.07 -0.19,-3.06 -20.62,-52.19 -27.01,-103.1l-5.54 -22.8c-4.38,-12.54 -7.58,-30.5 -3.76,-44.46l5.35 -0.89c-8.86,-10.92 0.6,-2.43 -11.4,-9.49l-43.33 -16.94c-51.74,-19.69 -108.67,-50.05 -156.28,-74.19 9.23,52.8 55.78,148.72 78.07,198.4 14.39,32.06 27.67,61.33 44.47,91.93 16.26,29.61 37.66,62.79 49.71,92.12z"/>
   <path class="fil0" d="M4368.53 6284.39c-8.89,21.06 55.65,313.26 69.13,335.55 7.18,11.87 -2.08,2.39 10.13,10.66 -7.72,-44.01 10.88,-29.45 15.04,-76.13 2.6,-29.33 7.16,-53.48 1.94,-87.68 -15.3,-100.37 -17.24,-71.78 -50.52,-136.63 17.92,1.77 25.28,5.88 45.87,7.42 28.32,2.12 20.64,-1.65 44.93,9.47 11.75,-8.1 18.51,-19.47 23.75,-33.09 6.69,3.92 6.27,0.43 11.47,7.27 -1.19,-32.43 -33.18,-122.69 -45.63,-156.15l-60.04 -144.01c-13.1,-2.75 -17.05,-4.03 -25.31,-8.86 -0.21,13.14 -2.14,28.48 1.52,40.71 4.25,14.18 4.99,-8.86 7.49,37.96 0.94,17.69 3.26,16.34 -4.03,33.46 -29.16,68.47 -8.75,71.5 -20.93,101.68 -13.19,32.7 -25.95,37.96 -24.81,58.37z"/>
   <path class="fil0" d="M2082.79 3321.41c27.03,0 57.11,8.05 88.61,8.05 -1.13,-0.88 -2.9,-3.34 -3.49,-2.52l-6.16 -5.09c-8.87,-9.58 -12.81,-48.07 -25.99,-85.73l-11.95 -40.09c-0.12,-0.88 -0.14,-2.05 -0.21,-2.93 -0.07,-0.9 0.02,-2.07 -0.02,-2.97l-9.1 -45.62c-0.28,-0.98 -1.08,-3.72 -1.36,-4.67 -2.28,-7.91 1.39,5.6 -1.94,-6.75 -1.65,-6.13 -0.11,1 -1.75,-6.98l-8.52 -37.01c-0.81,-3.74 -0.35,-2.56 -1.42,-7.3l-3.35 -14.97c-0.87,-5.6 -2.25,-12.73 -2.49,-23.2 5.07,-2.28 1.11,-2.05 11.73,-0.02 -11.21,-16.31 -21.73,-12.18 -61.53,-28.26 -20.17,-8.15 -40.07,-16.8 -61.14,-24.61 -34.35,-12.74 -98.29,-47.71 -110.69,-51.18 -10.23,-2.86 0.68,-0.87 -8.81,-1.62 0.08,0.05 88.97,169.3 101.32,190.71 38.91,67.43 74.82,128.96 118.26,192.76z"/>
   <path class="fil0" d="M1270.58 3389.85c-2.41,-41.71 -17.19,-91.98 -22.81,-133.77 -6.64,-49.35 -6.88,-94.38 -11.04,-144.01l-218.91 -209.34c0,47.36 18.2,110.65 31.34,148.48 7.71,22.2 16.65,43.63 25.89,64.9 5.03,11.58 8.46,18.98 14.69,30.85 32.57,61.99 44.45,84.69 89.19,143.89 17.43,23.06 69.33,88.18 91.65,99z"/>
   <path class="fil0" d="M2338.74 3662.18c19.41,2.44 92.35,-7.29 105.67,-22.71l-14.84 1.46c-0.68,-0.79 -1.77,-3.02 -2.05,-2.4l-21.44 -53.48c-6.65,-16.5 -4.23,-18.56 -7.56,-29.79 -5.99,-20.23 -12.46,-26.84 -13.02,-42.75 -0.02,-0.36 0.21,-1.44 0.2,-1.79l-15.45 -52.25c-2.18,-14.87 0.76,1.18 -0.79,-7.84 -4.62,-26.9 -5.77,-21.46 -10.33,-33.49 22.3,-3.07 12.04,-3.85 16.74,-7.16 -46.83,0 -192.12,-6.86 -226.46,3.38 -2.85,2.78 10.8,18.38 16.37,26.35l143.08 194.96c10.43,13.52 14.84,24.39 29.88,27.51z"/>
   <path class="fil0" d="M1929.23 3687.76c31.16,12.67 152.05,4.02 193.78,4.02l22.6 -8.03c-14.28,-3.12 -6.1,-5.12 -25.09,-17.91l-30.46 -16.49c-56.72,-32.67 -159.41,-112.48 -208.78,-155.28l-144.56 -144.48c-6.46,-4.87 -35.62,-11.33 -48.01,-12.07 10.55,14.14 18.17,29.03 28.49,45.32l117.32 174.99c11.19,15.5 19.67,28.82 31.24,43.8l48.43 60.09c11.91,13.93 11.35,8.24 15.04,26.04z"/>
   <path class="fil0" d="M3602.42 6336.7c-24.71,50.79 1.9,120.06 21.45,169.62 11.03,27.96 64.93,142.05 66.61,160.51l37.04 -86.9c9.1,-33.26 15.13,-61.01 22.77,-95.93 6.79,-31.03 39.53,-178.13 34.75,-199.61l4.6 -38.47c-23.34,16.1 -53.32,86.79 -103.56,119.94 -17.3,-4.8 -25.89,-10.47 -31.57,-24.43 -2.72,2.12 -20.12,37.48 -46,-10.56 4.57,8.27 2.93,0.83 -6.09,5.83z"/>
   <path class="fil0" d="M3618.23 4557.33c-7.85,7.11 -7.74,9.36 -11.66,24.06l-49.95 187.69c-10.12,36.98 -18.98,69.85 -27.23,107.95 -7.81,36.14 -20.67,80.23 -23.84,115.08 56.71,-34.72 146.59,-231.07 170.08,-291.36 30.04,-77.14 51.88,-120.28 67.69,-211.84l-7.52 9.47c-8.38,8.01 -13.98,8.02 -26.93,12.55 -29.32,10.25 -72.35,32.51 -90.37,55.11l-0.27 -8.71z"/>
   <path class="fil0" d="M4302.38 5929c5.91,36.94 4.02,104.35 -1.14,142.02 4.45,19.94 12.54,31.9 18.41,48.74l36.66 135.42c0.25,1.36 2.09,12.33 2.56,13.75 4.88,14.53 -1.62,7.31 9.66,15.46 -1.14,-20.41 11.62,-25.67 24.81,-58.37 12.18,-30.18 -8.23,-33.21 20.93,-101.68 7.29,-17.12 4.97,-15.77 4.03,-33.46 -2.5,-46.82 -3.24,-23.78 -7.49,-37.96 -3.66,-12.23 -1.73,-27.57 -1.52,-40.71 8.26,4.83 12.21,6.11 25.31,8.86 -4.88,-24.59 -16.72,-51.25 -24.61,-76.51 -6.51,-20.84 -15.24,-63.83 -23.82,-77.86 -12.69,3.33 -3.22,-0.51 -10.38,9.61l-4.5 7.94c-15.43,24.71 -16.51,10.31 -34.57,24.78 -32.16,25.78 -10.64,6.2 -34.34,19.97z"/>
   <path class="fil0" d="M5533.99 4182.93c67.88,25.24 236.41,23.41 316.99,-13.36 26.18,-11.95 57.15,-26.94 71.86,-47.03 -44.26,-9.43 -88.66,-18.25 -132.1,-28.18l-135.16 -32.2c-6.37,10.49 -16.35,25.8 -25.21,34.64 -18.34,18.27 -16.01,0.94 -36.15,23.03 -10.44,11.43 -18.98,22.05 -29.01,34 -12.74,15.19 -18.33,17.09 -31.22,29.1z"/>
   <path class="fil0" d="M4289.42 5197.43c1.13,14.52 11.02,40.72 15.73,57.97 5.69,20.86 13.6,41.51 14.97,62.78 17.97,-3.12 7.54,-1.22 15.7,-4.79 21.42,-9.37 60.97,-48.33 82.53,-66.11 17.53,-14.45 0.19,-6.99 18.99,-31.84 6.58,-8.71 -0.78,2.79 5.74,-7.4 16.49,-25.72 1.85,-21.92 58.54,-47.65 11.28,-9.44 2.17,-4.82 16.64,-6.78 -8.36,-17 -15.57,-41.12 -22.58,-60.34 -7.09,-19.46 -14.45,-39.65 -22.04,-60.36 -14.17,-38.6 -27.94,-83.22 -39.04,-124.99 -15.73,20.76 -16.75,189.36 -34.74,230.34 -7.65,17.41 -34.7,29.77 -52.6,39.42 -45.82,24.7 -52.1,-2.31 -57.84,19.75z"/>
   <path class="fil0" d="M4261 6190.3c-6.78,67.78 -25.78,164.56 -48.64,224.89 2.92,3.37 3.34,3.33 6.62,9.66 1.27,2.44 3.14,6.97 4.02,9.62 0.15,0.42 3.74,15.53 4.73,19.54l31.41 105c4.19,8.16 2.47,4.74 5.46,8.45l19.2 -18.53c4.53,-6.51 2.9,-2.14 5.66,-11.31 4.08,-13.57 3.69,-30.22 7.93,-45.24 6.73,-23.86 11.66,-12.28 14.91,-38.87 4.85,-39.68 -0.02,-40.95 12.22,-42.78 -0.41,-19.41 -6.62,-43.08 -10.08,-64.79 -6.76,-42.45 -29.54,-158.8 -29.54,-195.06l-23.9 39.42z"/>
   <path class="fil0" d="M3531.97 5395.27c101.83,2.02 161.96,-11.01 253.7,-21.1l16.37 -7.66 -76.95 -83.09 -122.69 -12.84c-13.78,-3.47 -3.96,0.92 -12.48,-4.72l-57.95 129.41z"/>
   <path class="fil0" d="M4447.79 6630.6c-6.53,17.82 2.54,15.6 4.42,36.23 13.76,-3.35 6.28,0.5 15.36,-10.1 5.45,-6.36 7.58,-11.62 11.13,-18.01 27.14,-48.8 30.76,-60.03 46.63,-118.4 26.94,-99.11 21.7,-98.42 14.94,-199.09 -5.2,-6.84 -4.78,-3.35 -11.47,-7.27 -5.24,13.62 -12,24.99 -23.75,33.09 -24.29,-11.12 -16.61,-7.35 -44.93,-9.47 -20.59,-1.54 -27.95,-5.65 -45.87,-7.42 33.28,64.85 35.22,36.26 50.52,136.63 5.22,34.2 0.66,58.35 -1.94,87.68 -4.16,46.68 -22.76,32.12 -15.04,76.13z"/>
   <path class="fil0" d="M4002.68 5355.61l107.73 20.88 65.53 2.59 91.34 -34.46c-0.45,-15.43 -9.14,-71.98 -13.21,-85.55 -71.84,-9.88 -87.22,-0.57 -146.29,26.14 -35.83,16.2 -91.03,47.1 -105.1,70.4z"/>
   <path class="fil0" d="M1779.66 3913.2c0.77,0.63 2.06,0.58 2.44,1.77l53.18 23.76c19.32,7.87 46.53,19.75 67.53,22.78 -17.63,-62.63 -8.54,-31.92 -36.24,-74.84 -14.12,-21.87 -5.24,-21.79 -22.42,-52.29 -9.72,-17.24 -6.01,-17.64 -18.24,-33.9l10.88 -0.02c-10.66,-12.34 -2.33,-6.94 -40.51,-15.29 -27.44,-6 -115.38,-28.87 -131.21,-28.45 -0.25,0.53 -0.25,0.98 -0.22,1.74l21.55 34.85c10.99,14.7 19.35,25.05 31.09,39.92 17.81,22.53 49.68,58.4 62.17,79.97z"/>
   <path class="fil0" d="M4346.09 2430.58l-13.76 9.95 84.96 67.47c21.67,20.73 67.42,50.88 77.51,70.47 17.88,4.14 12.26,12.67 7.12,31.06 -3.4,12.16 -7.68,25.54 -11.09,37.75 -1.42,22.17 -9.59,29.17 0.71,50.35 35.68,12.7 50.19,-7.78 48.76,-40.47 12.09,-10.52 8.73,-10.08 12.64,-24.88l11.5 -51.78c-0.38,-12.25 -7.79,-12.51 -2.15,-22.99 -19.23,-0.93 -41.03,-22.87 -53.18,-32.98l-109.65 -92.86c-13.81,-12.1 -7.07,-11.28 -25.18,-15.78 -7.54,13.45 -13.31,13.94 -28.19,14.69z"/>
   <path class="fil0" d="M5115.48 4223.19c29.07,30.35 186.65,76.49 261.38,76.49 -14.37,-19.62 -145.57,-96.83 -178.01,-119.05 -24.48,-16.77 -48.11,-39.34 -59.76,-41.31 -8.1,9.11 -12.05,26.76 -17.03,39.65 -4.96,12.85 -10.61,25.57 -6.58,44.22z"/>
   <path class="fil0" d="M1779.66 3913.2c-12.49,-21.57 -44.36,-57.44 -62.17,-79.97 -11.74,-14.87 -20.1,-25.22 -31.09,-39.92l-21.55 -34.85c-0.03,-0.76 -0.03,-1.21 0.22,-1.74l-5.96 -2.9c-23.94,-9.13 17.58,5.24 -6.38,-2.42 -6.02,-1.93 -8.27,-2.26 -17.5,-4.17 -9.86,-2.04 -25.04,-4.72 -36.2,-7.14 -17.78,-3.86 -51.19,-11.68 -70.46,-12.07l49.44 55.44c26.86,25.04 96.1,74.28 127.53,92.74 14.51,8.52 59.2,33.86 74.12,37z"/>
   <path class="fil0" d="M4566.67 6062.97c-5.83,21.92 42.83,78.57 48.46,100.64 30.09,-18.43 64.78,-115.35 55.63,-171.64 -0.06,-0.39 -2.28,-11.82 -2.76,-13.57l-4.44 -11.95c-23.24,17.13 -33.43,45.24 -61.64,57.53l-13.21 -16.56c-10.52,2.51 -19.97,6.79 -33.45,11.48l11.41 44.07z"/>
   <path class="fil0" d="M4520.79 4806.92c19.39,40.62 82.67,159.18 125.16,185.19 -0.32,-13.11 -42.47,-207.94 -52.84,-220.34 -12.77,5.43 -22.58,10.67 -37.02,17.01 -6.65,2.92 -11.82,4.54 -18.09,7.51l-17.21 10.63z"/>
   <path class="fil0" d="M3589.92 5265.86c8.52,5.64 -1.3,1.25 12.48,4.72l122.69 12.84c-9.84,-18.03 -27.06,-31.03 -33.44,-49.98 -18,-11.83 -4.92,-12.99 -32.91,-27.25 -6.06,-3.09 -16.12,-7.53 -20.21,-9.96 -10.67,-6.32 -14.76,-4.64 -9.72,-14.91 -16.13,9.28 -11.75,11.97 -23.27,39.09 -5.23,12.3 -15.42,33.44 -15.62,45.45z"/>
   <path class="fil0" d="M4192.43 6809.17c11.4,-12.71 11.97,-29.46 16.68,-47.58 11.55,-44.47 27.88,-110.34 26.87,-154.68l-17.13 34.66c-40.7,-1.2 -33.31,-26.91 -52.84,-48.89 0,35.14 8.18,75.59 12.41,107.1 2.75,20.51 3.57,33.15 6.48,54.45 1.78,13.02 7.21,39.7 7.53,54.94z"/>
   <path class="fil0" d="M4346.09 2430.58c14.88,-0.75 20.65,-1.24 28.19,-14.69 19.42,-44.46 -55.15,-70.07 -92.53,-51.38 -47.79,23.89 -6.72,72.74 64.34,66.07z"/>
   <path class="fil0" d="M4465.42 2746.96l-20.39 52.8c-18.53,56.4 53.85,69.48 64.15,22.2 3.87,-17.78 11.18,-52.69 4.83,-68.18l0.79 -8.76 -40.72 -8.97 -8.66 10.91z"/>
   <path class="fil0" d="M4460.82 2725.6l5.49 13.14c-2.1,9.34 0.22,-5.25 -0.89,8.22l8.66 -10.91 40.72 8.97 -0.79 8.76c1.07,-0.74 2.47,-3.27 2.99,-2.48 0.02,0.03 32.38,-24.84 37.39,-36.97 3.88,-9.4 7.05,-33.44 -0.45,-45.34 -12.22,-19.42 1.16,-3.32 -13.64,-11.83 1.43,32.69 -13.08,53.17 -48.76,40.47 -10.3,-21.18 -2.13,-28.18 -0.71,-50.35 -37.72,14.24 -35.75,40.33 -30.01,78.32z"/>
   <path class="fil0" d="M4760.43 4669.15c19.57,30.59 79.64,80.66 114.48,97.52l-61.65 -135.48 -52.83 37.96z"/>
  </g>
  <path class="fil0" d="M1157.96 6766.42c-10.29,-17.5 -20.07,-35.51 -29.33,-54.03 -9.26,-18.53 -17.49,-37.06 -24.7,-55.58 -132.76,-350.44 -265.01,-697.27 -396.75,-1041.53 -131.73,-343.75 -263.98,-690.59 -396.75,-1041.02 0,-5.15 -0.51,-9.78 -2.06,-13.9 -1.54,-4.11 -2.57,-8.23 -2.57,-12.35 0,-28.81 19.04,-43.22 57.12,-43.22l497.09 0c39.11,0 65.87,19.55 80.28,58.66l472.4 1407.41 436.88 -1407.41c14.41,-39.11 42.71,-58.66 84.91,-58.66l501.73 0c23.67,0 40.65,4.11 50.43,12.86 9.77,8.75 14.41,20.59 14.41,34.99 0,8.24 -0.52,13.9 -1.55,16.99l0 4.63 -274.79 787.84 206.87 607.22 500.18 -1405.87c14.41,-39.11 42.71,-58.66 84.91,-58.66l486.28 0c23.68,0 40.66,4.11 50.43,12.86 9.78,8.75 14.41,20.59 14.41,34.99 0,8.24 -0.51,13.9 -1.54,16.99l0 4.63c-69.99,181.13 -141.51,362.27 -214.59,542.38 -73.07,180.1 -146.14,360.21 -219.73,540.32 -73.58,180.62 -146.65,360.73 -219.21,541.86 -72.56,180.62 -143.57,361.25 -212.53,541.35 -4.11,11.32 -13.38,23.67 -27.79,37.57 -14.4,13.89 -31.9,21.1 -52.48,21.1l-4.64 0 -373.59 0c-22.64,0 -39.62,-4.63 -51.46,-13.38 -11.83,-8.75 -20.58,-20.07 -25.73,-34.48l-243.91 -642.72c-35,93.65 -69.47,185.76 -103.44,275.81 -33.96,90.06 -67.92,182.17 -101.89,275.83 -5.14,14.41 -10.8,29.33 -17.49,45.28 -6.69,15.95 -14.92,30.88 -24.19,44.77 -9.26,13.89 -19.55,25.73 -31.39,34.99 -11.83,9.27 -25.73,13.9 -41.16,13.9l-4.64 0 -373.59 0c-32.93,0 -54.55,-10.81 -64.84,-32.42zm3640.22 -1901.93c13.38,-11.32 27.79,-18.53 42.71,-21.62 14.92,-3.08 28.82,-4.63 42.2,-4.63l233.11 0c18.52,0 34.47,3.09 47.85,9.78 13.38,6.69 24.7,15.95 33.97,27.27 9.26,11.32 16.98,23.67 22.64,38.08 5.66,14.41 10.81,29.34 15.95,44.77l32.42 135.34c15.44,-31.39 40.65,-64.32 75.13,-98.29 34.48,-33.96 77.19,-64.84 128.13,-92.62 50.95,-27.28 109.61,-50.43 176.51,-68.44 66.9,-18.01 141.51,-26.76 223.85,-26.76 117.32,0 222.3,22.64 314.41,67.92 92.11,44.77 170.33,106.52 234.66,184.74 64.32,77.71 113.21,168.79 146.65,273.25 33.45,104.46 49.92,215.61 49.92,333.97l0 1011.17c0,39.11 -8.23,68.44 -25.22,88.51 -16.98,20.07 -44.25,30.36 -81.3,30.36l-356.61 0c-44.26,0 -74.62,-7.72 -91.09,-22.64 -16.46,-14.92 -24.7,-43.74 -24.7,-86.97l0 -1004.99c0,-44.26 -9.77,-86.45 -29.84,-126.08 -20.07,-39.62 -46.83,-74.61 -79.76,-104.97 -32.94,-30.36 -69.99,-54.04 -111.67,-71.53 -41.68,-17.5 -84.39,-26.25 -127.62,-26.25 -37.05,0 -74.61,8.24 -113.21,24.7 -38.59,16.47 -74.1,39.11 -106.52,68.44 -32.42,29.34 -59.69,63.81 -81.82,103.44 -22.13,39.62 -34.99,82.85 -38.08,129.16l0 1003.45c0,17.5 -3.09,35 -9.78,52.49 -6.69,17.5 -16.98,30.88 -30.36,40.14 -13.38,8.23 -25.73,13.89 -37.56,16.98 -11.84,3.09 -25.73,4.63 -41.17,4.63l-348.89 0c-44.26,0 -76.16,-10.8 -95.72,-32.42 -19.55,-21.61 -29.33,-50.43 -29.33,-86.45l0 -1726.45c0,-19.56 4.63,-37.57 13.38,-54.03 8.75,-15.96 20.58,-28.82 36.02,-38.08l-9.26 4.63zm2230.75 0c13.38,-11.32 27.79,-18.53 42.71,-21.62 14.93,-3.08 28.82,-4.63 42.2,-4.63l233.11 0c18.53,0 34.48,3.09 47.86,9.78 13.38,6.69 24.7,15.95 33.96,27.27 9.26,11.32 16.98,23.67 22.64,38.08 5.66,14.41 10.81,29.34 15.95,44.77l32.42 135.34c15.44,-31.39 40.66,-64.32 75.13,-98.29 34.48,-33.96 77.19,-64.84 128.14,-92.62 50.94,-27.28 109.61,-50.43 176.5,-68.44 66.9,-18.01 141.51,-26.76 223.85,-26.76 117.33,0 222.3,22.64 314.41,67.92 92.12,44.77 170.33,106.52 234.66,184.74 64.32,77.71 113.21,168.79 146.66,273.25 33.44,104.46 49.91,215.61 49.91,333.97l0 1011.17c0,39.11 -8.23,68.44 -25.21,88.51 -16.98,20.07 -44.26,30.36 -81.31,30.36l-356.61 0c-44.26,0 -74.62,-7.72 -91.08,-22.64 -16.47,-14.92 -24.7,-43.74 -24.7,-86.97l0 -1004.99c0,-44.26 -9.78,-86.45 -29.85,-126.08 -20.07,-39.62 -46.83,-74.61 -79.76,-104.97 -32.93,-30.36 -69.99,-54.04 -111.67,-71.53 -41.68,-17.5 -84.39,-26.25 -127.62,-26.25 -37.05,0 -74.61,8.24 -113.21,24.7 -38.59,16.47 -74.1,39.11 -106.52,68.44 -32.42,29.34 -59.69,63.81 -81.82,103.44 -22.12,39.62 -34.99,82.85 -38.08,129.16l0 1003.45c0,17.5 -3.08,35 -9.77,52.49 -6.69,17.5 -16.99,30.88 -30.36,40.14 -13.38,8.23 -25.73,13.89 -37.57,16.98 -11.84,3.09 -25.73,4.63 -41.17,4.63l-348.89 0c-44.26,0 -76.16,-10.8 -95.71,-32.42 -19.56,-21.61 -29.34,-50.43 -29.34,-86.45l0 -1726.45c0,-19.56 4.64,-37.57 13.38,-54.03 8.75,-15.96 20.59,-28.82 36.03,-38.08l-9.27 4.63zm3833.19 1699.69c-90.57,83.37 -192.46,148.21 -305.67,195.03 -113.2,46.83 -233.1,70.5 -359.69,70.5 -141,0 -274.28,-25.73 -399.84,-77.19 -125.56,-51.46 -235.68,-122.98 -330.37,-214.07 -94.68,-91.08 -169.81,-198.11 -225.39,-321.62 -55.58,-123.5 -83.36,-257.81 -83.36,-402.92 0,-90.57 11.32,-178.57 33.44,-263.47 22.13,-84.91 53.52,-164.16 94.17,-238.26 40.66,-74.1 90.06,-142.54 148.21,-204.81 58.15,-62.26 122.98,-115.26 195.03,-159.52 72.04,-44.25 150.26,-78.73 234.65,-103.43 84.39,-24.7 173.42,-37.05 267.07,-37.05 85.43,0 168.27,11.32 248.55,33.96 80.28,22.64 155.92,54.55 226.42,95.71 70.5,41.17 134.82,90.57 193.49,148.21 58.66,57.63 109.09,120.41 151.29,188.85 42.19,68.44 75.13,141.51 98.28,219.22 23.16,77.7 34.48,157.98 34.48,240.31 0,53.52 -0.51,97.26 -2.06,131.22 -1.54,33.97 -9.78,60.72 -24.18,80.79 -14.41,20.07 -38.08,33.97 -71.53,41.68 -33.45,7.72 -82.85,11.84 -147.69,11.84l-1111.51 0c10.29,65.87 31.38,120.93 62.78,165.18 31.38,44.26 67.41,79.25 108.57,105.5 41.17,26.24 84.91,45.28 131.22,56.6 46.32,11.32 90.06,16.98 131.22,16.98 37.06,0 75.14,-4.11 114.24,-11.83 39.11,-7.72 77.19,-18.01 113.73,-30.88 36.53,-12.86 69.98,-27.79 100.34,-44.77 30.36,-16.98 54.55,-34.48 73.08,-53 16.46,-13.38 30.87,-23.67 42.71,-30.36 11.83,-6.69 24.18,-9.78 37.56,-9.78 13.38,0 27.28,4.63 41.17,13.9 13.89,9.26 29.33,22.64 46.83,40.13l163.64 185.26c11.32,13.38 18.52,25.21 21.61,36.02 3.09,10.8 4.63,22.13 4.63,33.45 0,20.58 -5.66,38.08 -16.98,53 -11.32,14.92 -24.7,28.3 -40.14,39.62zm-742.55 -1285.96c-40.14,0 -78.74,7.72 -116.3,23.67 -37.57,15.95 -73.07,37.57 -106.01,64.32 -32.93,26.76 -62.26,57.12 -88.51,91.09 -26.24,33.96 -47.85,68.44 -64.32,103.43l788.87 0c-21.62,-40.14 -44.77,-77.19 -69.99,-111.15 -25.21,-33.97 -54.03,-63.81 -86.45,-89.54 -32.42,-25.73 -69.47,-45.8 -111.15,-60.21 -41.68,-14.41 -90.57,-21.61 -146.14,-21.61zm1285.96 -324.71c0,-19.55 3.6,-36.53 10.81,-50.94 7.2,-14.41 16.98,-26.25 28.81,-35.51 11.84,-9.26 25.22,-16.47 40.14,-21.1 14.92,-4.63 29.33,-6.69 43.74,-6.69l233.11 0c25.73,0 46.31,7.72 61.75,23.16 15.44,15.44 28.82,34.99 39.63,58.66 10.8,23.67 20.07,49.92 28.3,78.73 8.23,28.82 18.01,56.61 29.33,83.37 30.88,-34.48 61.75,-67.93 92.11,-100.86 30.36,-32.94 62.78,-62.27 97.77,-88 35,-26.24 73.59,-46.82 115.27,-62.78 41.68,-15.95 89.03,-24.18 142.54,-24.18 55.58,0 105.5,4.11 149.24,12.35 43.74,8.23 84.9,20.58 124.01,36.53 39.11,15.96 78.22,36.02 116.82,61.24 38.59,24.7 80.27,53.52 125.55,86.45 44.26,25.73 66.39,56.09 66.39,91.6 0,22.64 -8.75,48.88 -26.25,78.73l-140.48 239.8c-27.79,40.14 -62.27,60.21 -103.43,60.21 -20.59,0 -43.74,-5.66 -69.47,-16.98 -44.26,-43.23 -89.03,-75.65 -134.83,-96.75 -45.79,-21.09 -98.28,-31.39 -156.95,-31.39 -40.13,0 -75.13,5.66 -105.49,16.98 -30.36,11.33 -58.15,27.28 -82.85,47.86 -24.7,20.59 -47.85,45.29 -69.47,74.1 -21.61,28.82 -43.22,60.72 -64.83,95.72l0 1117.69c0,39.11 -9.27,68.44 -28.31,88.51 -19.04,20.07 -50.94,30.36 -95.2,30.36l-347.35 0c-80.27,0 -120.41,-39.62 -120.41,-118.87l0 -1728zm1988.38 1235.54c27.79,27.78 58.15,50.94 90.57,69.98 32.42,19.04 63.29,34.48 93.14,46.31 29.85,11.84 56.09,20.59 78.73,25.73 22.64,5.15 38.08,7.72 46.31,7.72 19.56,0 44.77,-1.03 75.14,-2.57 30.36,-1.55 59.17,-6.18 86.96,-13.9 27.79,-7.71 51.98,-20.06 72.04,-37.56 20.07,-17.5 29.85,-42.2 29.85,-74.1 0,-28.82 -5.66,-51.98 -16.98,-68.96 -11.32,-16.98 -27.79,-31.39 -49.4,-43.22 -21.62,-11.84 -47.86,-22.13 -79.25,-31.39 -31.39,-9.27 -66.9,-20.07 -106,-32.42 -123.51,-32.94 -225.4,-72.56 -305.67,-118.87 -80.28,-46.32 -143.57,-98.29 -190.4,-155.41 -46.83,-57.12 -79.76,-118.35 -98.29,-184.22 -18.52,-65.87 -27.79,-135.34 -27.79,-208.41 0,-85.42 16.99,-163.13 50.95,-233.11 33.96,-69.99 82.33,-130.19 145.11,-180.11 62.78,-49.91 137.91,-88.51 225.39,-115.78 87.49,-27.28 184.74,-40.66 291.78,-40.66 64.84,0 125.56,5.15 182.16,15.96 56.61,10.8 110.64,27.78 162.1,50.94 51.46,23.16 101.89,53 150.77,89.54 48.89,36.54 97.26,80.28 145.63,130.71 17.5,20.58 26.76,39.62 27.28,57.63 0.51,18.01 -11.33,37.57 -35,58.15 -40.13,32.93 -78.21,65.35 -114.75,97.26 -36.54,31.9 -74.62,67.41 -113.72,106.52 -12.35,10.29 -24.7,16.47 -37.05,19.04 -12.35,2.57 -24.19,2.57 -35.51,-0.52 -11.32,-3.08 -22.13,-8.23 -32.42,-15.43 -10.29,-7.21 -19.56,-15.96 -27.79,-26.25 -36.02,-40.14 -77.19,-67.41 -123.5,-81.3 -46.31,-13.9 -89.54,-20.59 -129.68,-20.59 -50.43,0 -90.57,8.75 -120.41,26.25 -29.85,17.49 -43.74,44.25 -41.68,80.27 2.05,26.76 12.35,47.35 30.36,62.27 18.01,14.92 40.14,27.27 66.38,36.53 26.24,9.27 54.03,16.47 83.36,22.13 29.34,5.66 56.09,12.35 80.79,19.56 92.63,29.84 177.54,62.26 254.73,97.25 77.19,35 144.08,77.71 200.69,128.65 56.6,50.95 100.86,112.18 132.25,183.2 31.39,71.01 46.82,157.46 46.82,259.35 0,101.89 -20.06,192.97 -60.72,273.25 -40.65,80.27 -96.74,147.69 -167.75,202.23 -71.02,54.55 -154.89,96.23 -252.15,125.05 -97.26,28.82 -202.24,43.22 -314.42,43.22 -63.81,0 -128.65,-5.66 -194.51,-16.98 -65.87,-11.32 -129.68,-29.84 -191.43,-55.06 -61.75,-25.21 -120.42,-57.63 -175.99,-97.26 -55.58,-39.62 -104.98,-87.48 -148.2,-144.08 -11.32,-14.41 -19.56,-29.85 -25.22,-45.8 -5.66,-15.95 -8.23,-31.39 -7.72,-46.83 0.52,-15.44 3.6,-29.84 9.27,-42.71 5.66,-12.86 14.4,-23.67 26.75,-32.93l199.15 -199.15c24.7,-20.58 46.83,-27.79 65.87,-21.61 19.04,6.17 43.22,23.67 73.07,52.49zm1560.24 -1641.55c0,-28.82 14.41,-43.23 43.23,-43.23l1492.31 0c34.48,0 51.46,14.41 51.46,43.23l0 1.54c0,14.93 -4.63,26.25 -13.89,33.97 -8.75,7.2 -21.62,11.32 -37.57,11.32l-1449.09 0 0 971.03 1187.16 0c15.96,0 28.82,3.6 39.11,10.29 10.29,7.21 15.44,18.01 15.44,32.94l0 2.05c0,14.93 -5.15,25.73 -15.44,32.94 -10.29,6.69 -23.15,10.29 -39.11,10.29l-1187.16 0 0 1054.91 1481 0c34.47,0 51.45,14.41 51.45,43.23l0 2.06c0,14.92 -4.11,26.24 -13.37,33.45 -9.27,7.71 -21.62,11.32 -38.08,11.32l-1524.22 0c-28.82,0 -43.23,-14.93 -43.23,-44.77l0 -2206.57zm3915.52 2199.88c0,15.95 -3.6,28.81 -11.32,37.56 -7.2,9.27 -18.52,13.9 -33.45,13.9l-1.54 0c-28.3,0 -42.2,-16.98 -42.2,-51.46l0 -516.14c-52.48,118.87 -125.04,224.36 -218.7,316.48 -93.14,92.62 -199.14,164.67 -318.01,216.64 -119.39,51.97 -241.86,77.7 -368.45,77.7 -192.97,0 -368.45,-45.28 -526.43,-136.36 -158.49,-91.09 -283.02,-214.08 -374.11,-368.97 -91.08,-154.89 -136.88,-324.19 -136.88,-507.38 0,-183.71 45.8,-353.53 137.91,-509.96 91.6,-156.44 215.62,-280.97 373.08,-373.08 156.95,-92.12 327.8,-138.43 512.02,-138.43 133.79,0 261.41,25.73 382.86,77.19 120.93,51.46 227.96,123.5 320.59,216.64 92.62,92.63 164.67,199.15 216.12,319.05l0 -1116.15c0,-34.48 13.9,-51.46 42.2,-51.46l1.54 0c14.93,0 26.25,4.63 33.45,13.9 7.72,8.75 11.32,21.61 11.32,37.56l0 2442.77zm-88.51 -918.03c0,-168.28 -41.16,-324.2 -123.5,-467.25 -82.85,-143.06 -194.51,-256.78 -335.51,-340.15 -141,-83.88 -294.86,-125.56 -462.1,-125.56 -165.19,0 -319.56,42.2 -462.62,126.08 -143.06,84.39 -257.3,197.6 -342.2,340.14 -85.43,142.54 -128.14,298.46 -128.14,466.74 0,167.24 42.2,321.62 125.56,463.13 83.88,141.51 197.61,253.69 342.72,336.54 144.6,83.37 304.12,125.05 479.09,125.05 157.46,0 306.18,-42.2 445.63,-125.56 138.94,-83.88 251.12,-196.58 335,-338.6 84.39,-142.03 126.07,-295.89 126.07,-460.56zm2114.97 -952c0,-33.45 14.93,-49.91 44.77,-49.91l2.06 0c27.79,0 41.68,16.46 41.68,49.91l0 1870.03c0,34.48 -13.89,51.46 -41.68,51.46l-2.06 0c-27.78,0 -41.68,-16.98 -41.68,-51.46l-3.09 -321.62c-49.4,85.93 -114.24,161.06 -194.51,225.9 -80.28,64.84 -167.76,114.24 -262.44,148.72 -94.17,34.48 -185.77,51.46 -274.79,51.46 -167.25,0 -316.48,-41.17 -447.18,-122.99 -130.71,-81.82 -232.08,-190.4 -303.61,-324.71 -72.05,-134.82 -108.07,-277.36 -108.07,-428.65l0 -1098.14c0,-33.45 13.9,-49.91 41.69,-49.91l2.05 0c29.85,0 44.77,16.46 44.77,49.91l0 1098.14c0,152.32 35,288.17 104.46,408.58 69.99,119.91 163.13,213.05 280.97,279.43 117.33,66.9 243.92,99.83 380.28,99.83 113.21,0 227.45,-28.82 341.69,-86.45 114.24,-58.15 208.41,-139.97 283.03,-245.46 74.1,-105.49 111.66,-226.42 111.66,-362.79l0 -1191.28zm2037.78 1640.01c11.84,-9.78 24.19,-14.41 37.06,-14.41 11.83,0 21.09,4.11 27.78,12.86 7.21,8.75 10.81,18.01 10.81,28.82 0,15.95 -7.2,29.84 -21.1,40.14 -208.92,171.87 -434.83,257.29 -677.2,257.29 -183.2,0 -353.52,-45.8 -510.99,-137.91 -157.98,-92.62 -283.02,-216.64 -375.65,-373.08 -92.63,-156.95 -138.94,-326.25 -138.94,-508.41 0,-188.86 47.34,-360.73 143.06,-516.14 95.2,-155.4 220.76,-277.36 377.19,-365.87 155.92,-88.51 320.08,-132.77 492.46,-132.77 113.73,0 232.6,22.64 357.13,68.44 124.53,45.8 231.05,108.58 320.08,188.86 12.86,10.8 19.55,23.15 19.55,37.05 0,12.86 -4.12,23.67 -11.32,32.42 -7.72,8.23 -18.53,12.86 -32.42,12.86 -10.81,0 -20.58,-5.14 -30.36,-14.41 -84.91,-78.73 -181.14,-137.39 -288.69,-177.02 -108.06,-39.62 -213.04,-59.69 -315.95,-59.69 -163.13,0 -316.99,40.14 -461.59,120.93 -144.6,80.28 -260.9,190.91 -348.9,332.43 -87.99,141.51 -131.73,299.49 -131.73,472.91 0,167.24 42.2,322.13 126.59,464.67 84.91,142.54 199.15,256.27 342.72,340.15 143.57,84.39 298.97,126.59 466.22,126.59 130.7,0 245.97,-21.1 345.8,-62.78 99.83,-42.2 192.46,-99.83 278.39,-173.93zm2297.65 228.47c0,35.51 -14.4,53.01 -43.22,53.01l-1.55 0c-28.81,0 -43.74,-17.5 -43.74,-53.01l0 -511.5c-53.51,117.84 -128.13,222.82 -223.33,315.44 -95.2,92.12 -204.29,163.64 -326.25,215.1 -122.47,51.46 -250.09,77.19 -382.85,77.19 -173.94,0 -338.6,-45.8 -494.53,-137.39 -155.92,-91.6 -281.48,-215.1 -376.16,-370.51 -95.2,-155.41 -142.54,-323.68 -142.54,-504.81 0,-181.14 47.34,-350.44 142.54,-507.39 94.68,-157.47 220.24,-282 376.16,-374.62 155.93,-93.15 320.59,-139.46 494.53,-139.46 131.73,0 258.84,26.25 381.31,78.22 121.96,51.97 231.05,124.53 326.76,217.67 96.23,93.66 170.85,199.66 224.36,318.53l0 -543.4c0,-16.47 3.61,-29.34 10.81,-38.6 6.69,-9.78 18.01,-14.41 32.93,-14.41l1.55 0c28.82,0 43.22,17.5 43.22,53.01l0 1866.93zm-88.51 -916.48c0,-166.22 -44.76,-321.11 -134.3,-464.17 -89.54,-143.05 -206.36,-256.78 -350.44,-341.68 -144.09,-84.91 -293.83,-127.11 -449.24,-127.11 -159.01,0 -309.27,42.2 -451.29,126.08 -142.03,84.39 -256.27,198.12 -342.21,341.17 -86.45,143.06 -129.67,298.46 -129.67,465.71 0,164.67 43.22,318.01 129.67,459.53 85.94,141.51 200.18,254.72 342.21,338.6 142.02,84.39 292.28,126.59 451.29,126.59 166.21,0 321.11,-42.2 464.68,-125.56 143.57,-83.88 257.81,-196.06 342.2,-337.58 84.91,-141.51 127.1,-295.37 127.1,-461.58zm1094.03 -826.95c26.75,0 40.13,13.38 40.13,40.14l0 2.05c0,9.27 -4.11,18.53 -11.32,26.25 -7.72,8.23 -17.49,12.35 -28.81,12.35l-375.14 0 0 1382.71c0,65.35 17.49,122.98 52.49,172.9 34.99,49.91 91.59,74.61 169.81,74.61l62.78 0c39.63,0 59.18,12.35 59.18,37.06l0 3.6c0,7.2 -3.09,16.46 -8.75,27.79 -5.66,11.31 -19.55,16.98 -41.16,16.98 -62.27,0 -106.01,-2.06 -131.74,-6.18 -81.31,-12.86 -143.57,-48.89 -186.28,-108.06 -43.23,-58.67 -64.33,-129.68 -64.33,-212.01l0 -1389.4 -262.44 0c-29.84,0 -44.77,-13.38 -44.77,-40.65 0,-26.76 14.93,-40.14 44.77,-40.14l262.44 0 0 -519.23c0,-33.44 13.9,-49.91 41.69,-49.91l1.54 0c29.85,0 44.77,16.47 44.77,49.91l0 519.23 375.14 0zm398.8 -684.92c0,-21.62 10.81,-31.91 31.91,-31.91l78.73 0c20.58,0 30.88,11.84 30.88,34.99l0 71.02c0,23.67 -10.3,35.5 -30.88,35.5l-77.19 0c-12.86,0 -21.61,-3.08 -26.24,-8.23 -4.63,-5.15 -7.21,-14.41 -7.21,-27.27l0 -74.1zm28.82 559.87c0,-33.45 14.92,-49.91 45.28,-49.91l1.55 0c28.82,0 43.22,16.46 43.22,49.91l0 1870.03c0,34.48 -14.4,51.46 -43.22,51.46l-1.55 0c-15.43,0 -26.24,-4.63 -33.96,-13.9 -7.72,-8.75 -11.32,-21.61 -11.32,-37.56l0 -1870.03zm574.28 942.22c0,-183.2 44.77,-353.01 134.31,-508.42 89.54,-155.4 210.99,-278.39 364.33,-368.96 153.35,-90.57 321.11,-135.85 503.27,-135.85 184.23,0 355.59,45.8 513.57,136.88 158.49,91.08 284.05,214.07 377.19,368.96 93.14,154.89 139.97,324.19 139.97,507.39 0,182.16 -46.83,351.98 -139.97,508.93 -93.14,156.95 -218.7,282 -376.17,374.62 -157.46,92.63 -328.3,138.94 -511.5,138.94 -181.13,0 -348.89,-46.31 -503.27,-138.94 -154.38,-92.62 -276.33,-217.67 -366.39,-374.62 -90.05,-156.95 -135.34,-326.77 -135.34,-508.93zm88.51 0c0,166.21 41.17,321.1 122.99,464.68 81.82,143.57 192.97,257.81 333.46,342.71 140.48,84.4 293.83,127.11 460.04,127.11 173.93,0 332.43,-42.71 476,-127.11 143.57,-84.9 256.78,-198.63 339.63,-341.69 82.33,-143.57 123.5,-298.46 123.5,-465.7 0,-167.24 -42.71,-321.62 -127.62,-463.13 -85.42,-141.52 -200.17,-253.7 -344.26,-337.06 -144.09,-82.85 -301.04,-124.53 -470.34,-124.53 -166.21,0 -319.04,41.17 -459.01,124.01 -139.97,82.34 -250.61,194.52 -332.43,336.03 -81.3,141.51 -121.96,296.41 -121.96,464.68zm2436.59 929.35c0,33.45 -15.43,49.92 -45.28,49.92l-1.55 0c-27.78,0 -41.68,-16.47 -41.68,-49.92l0 -1870.02c0,-34.48 13.9,-51.46 41.68,-51.46l1.55 0c27.79,0 41.68,16.98 41.68,51.46l3.6 367.93c47.86,-92.11 112.18,-171.88 191.95,-239.29 79.76,-67.41 166.21,-118.87 258.84,-154.37 92.62,-35.51 183.19,-53.01 271.18,-53.01 164.67,0 309.79,39.63 433.8,118.87 124.54,79.25 219.74,182.68 286.63,310.3 66.38,127.62 99.32,261.42 99.32,401.9l0 1117.69c0,33.45 -13.9,49.92 -41.68,49.92l-1.55 0c-29.84,0 -45.28,-16.47 -45.28,-49.92l0 -1117.69c0,-120.93 -29.85,-238.77 -90.57,-353.53 -60.72,-114.75 -146.66,-208.41 -258.32,-280.96 -111.16,-72.05 -239.8,-108.58 -385.95,-108.58 -102.92,0 -209.95,29.33 -322.13,86.96 -112.18,58.15 -206.35,141.52 -282.51,251.12 -76.16,109.1 -113.73,237.23 -113.73,384.4l0 1138.28z"/>
 </g>
</svg>
