<?xml version="1.0" encoding="UTF-8"?>
<!DOCTYPE svg PUBLIC "-//W3C//DTD SVG 1.1//EN" "http://www.w3.org/Graphics/SVG/1.1/DTD/svg11.dtd">
<!-- Creator: CorelDRAW 2019 (64-Bit) -->
<svg xmlns="http://www.w3.org/2000/svg" xml:space="preserve" width="300mm" height="300mm" version="1.1" style="shape-rendering:geometricPrecision; text-rendering:geometricPrecision; image-rendering:optimizeQuality; fill-rule:evenodd; clip-rule:evenodd"
viewBox="0 0 30000 30000"
 xmlns:xlink="http://www.w3.org/1999/xlink"
 xmlns:xodm="http://www.corel.com/coreldraw/odm/2003">
 <defs>
  <style type="text/css">
   <![CDATA[
    .fil1 {fill:#132028}
    .fil0 {fill:#45494C}
    .fil2 {fill:#FEB639}
    .fil3 {fill:#FED691}
   ]]>
  </style>
    <clipPath id="id0">
     <path d="M14026.05 25666.69c-413.41,-1550.26 257.42,-2876.77 294.73,-4583.87 -422.47,679.72 -401.56,1842.83 -731.52,2657.02 -98.78,-240.23 -197.53,-480.43 -296.3,-720.65 -134.14,-479.94 -150.87,-411.29 11.78,-844.57 552.38,-1471.65 1080.64,-3129.33 1128.19,-4746.23 -53.61,92.48 -107.19,184.97 -160.8,277.46 -260.45,615.71 -366.82,1343.93 -558.15,1980.51 -155.08,515.99 -515.12,1623.39 -758.45,1998.21 -550.71,-897.48 455.81,-1941.99 519.74,-2975.97 -293.97,554.77 -587.9,1109.53 -881.86,1664.3 -468.75,-644.84 -63.31,-928.59 211.89,-1509.68 710.13,-1499.42 1283.7,-3189.82 1226.58,-4914.35 -175.92,387.94 -254.6,1121.54 -451.04,1615.31 -193.8,487.1 -434.54,1065.65 -728.35,1361.79 192.55,-1126.62 623.11,-2088.24 651.44,-3376.71 -68.26,129.52 -136.5,259.06 -204.76,388.58 -288.21,763.63 -663.78,1647.74 -1345.6,2076.82 168.29,-431.87 458.79,-768.72 655.21,-1330.62 210.35,-601.83 291.39,-1053.3 310.23,-1715.34 -22.56,20.76 -46.73,48.04 -62.72,67.29 -15.55,18.68 -41.49,43.75 -59.46,66.67 -44.98,65.31 -89.97,130.64 -134.95,195.96 -395.87,672.99 -697.15,1153.97 -1528.42,1445.11 397.07,-546.89 1088.9,-1077.81 1099.27,-2154.01 -674.87,586.61 -833.13,1453.49 -2260.41,1529.65 638.76,-489.94 1309.72,-631.09 1464.49,-1739.33 -20.09,14.26 -44.09,36.46 -56.53,47.68 -202.66,199.85 -405.34,399.69 -607.99,599.54 -625.98,534.09 -2302.39,967.55 -2925.6,374 962.85,-197.67 2452.72,-594.74 2907.2,-1522.1 -930.95,386.7 -1433.6,989.84 -2866.27,1055.67 -992.54,45.6 -1967.52,-360.61 -2524.6,-860.82 -100.52,-90.25 -187.44,-183.56 -258.39,-277.84 1059.03,185.43 1488.77,501.05 2843.4,295.93 637.04,-96.46 1982.23,-485.37 2309.81,-951.5 -1585.16,230.29 -2962.09,893.66 -4779.54,215.38 -1091.32,-407.26 -2228.23,-1521.72 -2384.75,-2919.2 722.22,810.08 1364.65,1404.67 2712.76,1791.09 1109.2,317.91 2921.83,428.38 3970.62,32.54 -2252.35,-55.74 -3847.88,-32.87 -5315.01,-1220.83 -1176.85,-952.94 -1687.3,-2887.28 -1193.17,-4959.66 232.71,216.64 278.9,760.32 372.08,1059.74 768.25,2468.82 2889.9,4087.85 5624.16,4208.41 -125.92,-67.78 -251.88,-135.53 -377.8,-203.3 -2782.66,-964.62 -4786.88,-2561.89 -4146.09,-6034.3 72.65,-393.68 247.46,-1026.07 473.16,-1555.31 187.72,-440.18 410.64,-809 639.27,-909.75 -539.65,3845.95 1513.28,6593.79 3903.3,7815.82 1038.58,531 1154.62,137.76 1596.73,1387.74 247.13,698.73 794.48,1223.34 1613.57,1374.8 1266.87,234.25 1456.46,-451.09 1457,-1534.04 0.61,-1170.63 -162.19,-1803.15 -1313.58,-1239.56 81.04,-434.41 203.43,-584.48 607.84,-712.74 724.65,-229.83 235.48,-120.95 689.54,-561.44 752.06,-101.88 1267.9,198.52 1674.05,-342.46 6.5,94.51 12.99,189 19.48,283.51 1.7,-13.26 11.65,40.09 22.64,57.51 439.15,-109.63 762.52,-352.39 856.11,-789.39 189.62,1396.48 -1104.09,1125.11 -1224.67,1944.45 -53.07,360.66 -18.97,1229.94 -13.22,1634.56 8.06,566.36 53.61,895.3 431.23,1130.44 846.36,527 1944.63,-175.91 2291.2,-604.55 723.39,-894.58 47.55,-1250.88 1381.42,-1784.65 2725.67,-1090.67 5028.24,-4006.65 4466.95,-8059.08 230.86,100.14 455.76,475.37 644.84,923.56 233.38,553.23 412.14,1217.68 480.14,1613.21 512.45,2980.36 -1217.39,5045.04 -3884.16,5882.48 -197.29,80.11 -394.58,160.21 -591.87,240.32 -10.68,-18.68 -41.96,27 -60.92,43.09 1571.5,-75.01 3161.66,-819.34 4000.2,-1655.83 1504.58,-1500.88 1266.77,-1861.31 1905.37,-3703.39 776.21,1089.82 153.03,4000.48 -1052.84,5009.11 -1437.6,1202.48 -3097.43,1208.92 -5364.28,1261.4 1025.64,389.76 2879.35,278.77 3969.95,-32.36 1351.81,-385.68 1986.79,-982.07 2713.16,-1791.4 -290.78,2604.43 -2957.83,3448.21 -5204.04,3122.53 -397.97,-57.69 -1988.6,-458.02 -2071.33,-421.07 694.7,452.94 1419.09,785.42 2344.68,941.76 1374.75,232.19 1830.39,-96.08 2919.36,-283.19 -67.13,88.51 -148.61,176.48 -242.45,262.01 -538.22,490.62 -1482.2,901.24 -2447.44,879.86 -596.47,-13.22 -1148.28,-165.73 -1619.67,-358.6 -492.2,-201.38 -874.36,-510.12 -1275.62,-640.33 486.86,933.85 1828.9,1253.24 2843.22,1461.77 -671.81,636.71 -2273.26,155.75 -2927.49,-372 -221.06,-216.66 -442.09,-433.35 -663.14,-650.02 157.9,1112.43 824.14,1248.24 1465.67,1740.67 -523.74,-27.69 -1000.75,-252.08 -1369.03,-523.13 -486.96,-358.39 -513.78,-668.86 -891.5,-1006.8 9.47,1069.7 700.47,1610.56 1098.62,2154.14 -1421.43,-500.85 -1103.12,-1147.05 -1785.17,-1775.42 44.12,1723.89 491.82,1836.7 965.7,3046.49 -361.56,-228.36 -659.78,-617.43 -918.58,-1067.65 -210.82,-466.1 -421.61,-932.18 -632.42,-1398.28 29.2,1278.98 446.65,2250.04 651.95,3376.43 -751.21,-756.75 -789.37,-2114.18 -1179.64,-2976.56 -58.97,1748.65 517.04,3457.65 1255.5,4975.34 267.55,549.87 643.76,814.75 150.45,1464.88 -293.32,-554.87 -586.63,-1109.76 -879.95,-1664.63 60.69,465.74 305.74,1116.15 479.96,1530.31 235.24,559.18 439.21,831.82 70.13,1429.8 -537.7,-836.18 -841.67,-2202.54 -1102.27,-3185.27 -92.61,-349.24 -148.48,-788.78 -374.46,-1071.02 29.77,1007.96 382.34,2408.12 637.96,3316.67 235.61,837.51 725.76,1489.84 479.83,2341.98 -28.04,97.21 -72.98,264.2 -106.37,350.06 -43.19,82.79 -86.35,165.6 -129.54,248.39 -5.13,-13.09 -24.43,36.95 -38.88,53.68 -330.81,-815.39 -310.13,-1971.52 -731.01,-2656.12 23.45,1165.66 660.9,3203.58 372.87,4178.23 -26.69,90.33 -53.22,187.59 -80.76,287.39 -86.58,313.95 -182.92,653.28 -324.52,882.19 -157.47,-1242.9 -314.9,-2485.8 -472.37,-3728.7 -193.26,1064.68 -54.94,4456.64 -264.11,5877.43 -0.29,1.89 -0.57,3.79 -0.85,5.67 -77.63,-1857.46 -155.28,-3714.95 -232.91,-5572.4 -176.53,1138.27 -353.06,2276.54 -529.59,3414.82 -128.03,-261.04 -221.52,-513.94 -287.45,-761.14z"/>
    </clipPath>
 </defs>
 <g id="Layer_x0020_1">
  <metadata id="CorelCorpID_0Corel-Layer"/>
  <g>
   <g style="clip-path:url(#id0)">
    <image x="3039.1" y="603.43" width="24152.48" height="28023.96" xlink:href="logo-fenix_Images\logo-fenix_ImgID1.png"/>
   </g>
  </g>
  <g>
   <path class="fil0" d="M16904.65 6818.65c-30.29,-8.13 -67.2,-53.59 -92.79,-75.8 -28.8,-25.02 -51.85,-47.93 -82.32,-76.21 -54.04,-50.14 -109.85,-100.78 -165.4,-151.98l-250.74 -230.72c-29.3,-27.87 -64.6,-69.51 -88.18,-66.4 9.76,-29.89 33.32,-51.94 -7.51,-116.56 -67.5,-106.83 -233.59,-140.73 -337.38,-98.63 -83.79,34 -114.48,123.81 -53.93,197.99 48.7,59.65 139.8,94.39 228.1,98.81 -0.51,12.73 -0.12,9.59 13.3,21.99 76.15,70.39 593.6,537.97 602.75,560.75 -33.87,5.11 -82.66,22.17 -118.86,31.11 -190.49,47.01 -410.56,112.49 -608.27,163.63 -88.44,22.88 -200.51,5.25 -275.98,-63.99 -216.46,-198.59 -451.51,-391.23 -663.4,-585.89l-98.94 -84.68 -115.26 502.91c-12.49,-30.94 41.59,-221.26 49,-252.87 18.87,-80.54 47.86,-180.15 59.74,-259.71l-369.9 -325.44c-61.84,-54.74 -255.51,-183.33 -85.58,-235.69 130.18,-40.11 343.09,-93.17 478.64,-128.97 379.28,-100.18 741.27,-202.43 1115.85,-299.58 217.6,-56.44 291.01,52.35 458.43,199.7l992.24 874.95c66.73,58.74 246.54,176.27 56.2,229.22 -205.43,57.15 -441.38,112.81 -639.81,172.06z"/>
   <path class="fil1" d="M16670.55 6881.89c18.27,5.23 40.56,29.51 56.45,46.33l-61.73 255.87c-49.91,7.52 -104.83,64.45 -121.39,126.78 -42.32,159.39 15.84,147.72 5.61,196.46 -53.53,16.67 -78.87,48.91 -221.05,85.72 -76.18,19.72 -166.57,32.64 -257.77,35.19 -358.84,10.06 -801.59,-112.44 -1068.1,-358.59 -62.46,-57.69 -118.04,-120.43 -153.46,-184.3 -21.92,-39.52 -84.16,-173.6 -59.27,-240.37l115.26 -502.91 98.94 84.68c211.89,194.66 446.94,387.3 663.4,585.89 75.47,69.24 187.54,86.87 275.98,63.99 197.71,-51.14 417.78,-116.62 608.27,-163.63 36.2,-8.94 84.99,-26 118.86,-31.11z"/>
   <path class="fil2" d="M16904.65 6818.65c-0.72,19.55 3.22,10.64 13.78,26.37 5.25,7.82 9.52,19.81 11.75,30.16 -7.53,73.84 -83.97,423.01 -100.35,477.84 -22.01,73.66 -118.08,83.76 -163.37,34.28 -67.2,-73.43 14.03,-158.13 -1.19,-203.21l61.73 -255.87c-15.89,-16.82 -38.18,-41.1 -56.45,-46.33 -9.15,-22.78 -526.6,-490.36 -602.75,-560.75 -13.42,-12.4 -13.81,-9.26 -13.3,-21.99 57.2,7.63 157.68,-30.79 170.72,-81.61 23.58,-3.11 58.88,38.53 88.18,66.4l250.74 230.72c55.55,51.2 111.36,101.84 165.4,151.98 30.47,28.28 53.52,51.19 82.32,76.21 25.59,22.21 62.5,67.67 92.79,75.8z"/>
   <path class="fil1" d="M16225.22 6217.54c-13.04,50.82 -113.52,89.24 -170.72,81.61 -88.3,-4.42 -179.4,-39.16 -228.1,-98.81 -60.55,-74.18 -29.86,-163.99 53.93,-197.99 103.79,-42.1 269.88,-8.2 337.38,98.63 40.83,64.62 17.27,86.67 7.51,116.56z"/>
   <path class="fil2" d="M16758.19 7703.98c-21.46,61.89 -16.58,164.04 -35.42,232.16 -30.85,111.52 -189.15,115.93 -237.06,10.6 -38.42,-84.5 68.46,-258.78 75.5,-331.43 11.99,-8.57 14.12,-18.88 19.77,-34.8 10.17,-28.63 11.08,-36.93 33.86,-26 6.97,3.34 13.32,8.93 16.1,10.74 54.25,35.25 127.42,17.3 133.22,18.16 8.35,38.91 -19.97,92.52 -5.97,120.57z"/>
   <path class="fil3" d="M16758.19 7703.98c-14,-28.05 14.32,-81.66 5.97,-120.57 -5.8,-0.86 -78.97,17.09 -133.22,-18.16 -2.78,-1.81 -9.13,-7.4 -16.1,-10.74 -22.78,-10.93 -23.69,-2.63 -33.86,26 -5.65,15.92 -7.78,26.23 -19.77,34.8l21.68 -77.1c-4.04,-6.97 -6.7,-12.21 -11.97,-18.26 -12.59,-14.45 -4.71,-10.01 -21.43,-12.62 10.23,-48.74 -47.93,-37.07 -5.61,-196.46 16.56,-62.33 71.48,-119.26 121.39,-126.78 15.22,45.08 -66.01,129.78 1.19,203.21 45.29,49.48 141.36,39.38 163.37,-34.28 16.38,-54.83 92.82,-404 100.35,-477.84 9.16,9.53 5.8,-4.85 9.89,17.83 4.01,22.24 -58.12,266.23 -66.44,303 -11.42,50.52 9.64,49.12 25.22,80 25.45,50.41 24.71,114.57 -0.74,188.72 -10.24,29.85 -28.61,54.66 -48.78,73.37 -26.88,24.93 -43.39,27.38 -70.39,46.03l-20.75 119.85z"/>
  </g>
 </g>
</svg>
