<?xml version="1.0" encoding="UTF-8"?>
<!DOCTYPE svg PUBLIC "-//W3C//DTD SVG 1.1//EN" "http://www.w3.org/Graphics/SVG/1.1/DTD/svg11.dtd">
<!-- Creator: CorelDRAW 2019 (64-Bit) -->
<?xml-stylesheet href="logo-winners.css" type="text/css"?>
<svg xmlns="http://www.w3.org/2000/svg" xml:space="preserve" width="3840mm" height="800mm" version="1.1" style="shape-rendering:geometricPrecision; text-rendering:geometricPrecision; image-rendering:optimizeQuality; fill-rule:evenodd; clip-rule:evenodd"
viewBox="0 0 384000 80000"
 xmlns:xlink="http://www.w3.org/1999/xlink"
 xmlns:xodm="http://www.corel.com/coreldraw/odm/2003">
 <g id="Layer_x0020_1">
  <metadata id="CorelCorpID_0Corel-Layer"/>
  <g id="_1377561766048">
   <path class="fil0" d="M40800.92 20668.67c-138,83.61 -200.21,545.07 -238.46,655.78 -1.82,5.27 -7.23,18.6 -9.01,23.77l-28.87 90.3c-18.91,101.51 32.72,57.51 -51.24,211.46 -93.64,171.68 -31.07,0.08 -71.77,265.17l-11.15 89.09c-16.87,102.28 25.47,-13.31 -36.6,86.71 -78.68,126.79 -10.75,91.3 -49.94,212.92 -46.81,145.25 -49.36,85.28 -61.05,106.42 -77.19,139.63 1.35,116.73 -7.44,221.99l-135.84 453.13c-86.38,153.97 -21.29,139.34 -18.6,208.91 5.82,150.02 -85.74,50.67 -115.35,259.37 -16.23,114.43 51.01,41 -20.54,223.33l-73 476.69c97.94,115.73 1325.97,529.9 1591.72,620.32 540.29,183.81 705.51,260 1184.5,520.72 160.21,87.21 271.4,102.58 370.97,226.84 -716.59,0 -2544.61,-303.04 -2734.22,-236.08l-114.36 10.47c58.12,72.96 40.72,-24.51 -3.05,164 -3.78,16.27 -12.2,14.9 -22,103.13l-128.52 1184.78c-1.62,7.8 -7.52,21.26 -9.2,29.28 -83.74,398.64 -3.07,858.97 -95.18,1244.35 12.31,6.27 32.02,-0.22 39.25,14.37l2242.01 79.82c449.71,-1.52 684.95,48.98 1134.65,47.45 412.66,-1.4 825.59,-0.14 1238.29,-0.14 -352.36,280.03 -2421.24,577.94 -2887.53,614.52l-1062.45 93.01c-55.12,38.83 65.07,47.95 -196.22,83.87 53.51,140.98 66.94,77.24 121.04,392.36 18.15,105.71 -16.29,-82.26 9.26,91.87l181.05 612.29c0.16,3.99 -2.52,16.69 -2.37,20.96 6.65,186.37 82.42,263.79 152.61,500.89 38.94,131.57 10.63,155.7 88.58,348.99l251.13 626.61c3.28,-7.24 16.06,18.81 24.1,28.1l173.87 -17.11c227.65,80.4 352.34,1.45 566.94,-47.82 752.51,-172.76 3486.37,-754.27 4076.07,-754.27 -701.84,958.27 -2951.13,1692.35 -4223.71,2081.42 -130.5,39.9 -610.46,136.48 -696.15,229.83 251.64,343.26 550.25,686.51 842.43,1042.95 238.45,290.88 669.95,742.44 836.01,1032.46 226.54,-18.55 1042.14,-399.99 1239.42,-509.74 186.96,-104.02 381.47,-195.48 560.18,-289.68 567.12,-298.94 2509.09,-1373.33 2937.9,-1464.67 -109.2,188.69 -165.82,299.73 -299.03,481.29 -136.8,186.45 -232.28,298.29 -371.17,462.5 -247.46,292.59 -544.59,524.16 -865.5,765.22 -368.79,277.03 -1078.78,713.74 -1524.63,917.27 -198.75,90.73 -432.6,150.54 -550.9,298.16 1202.82,0 2409.28,-8.51 3611.64,0.38 727.74,5.38 358.41,72.28 1121.65,-625.36 240.62,-219.93 700.17,-689.48 941.5,-837.23l-363.66 1412.72c-178.58,667 -3953.6,3823.75 -1060.1,2002.35l2249.35 -1528.19c599.82,-390.56 387.92,-99.03 809.05,-580.99 196.03,-224.35 488.9,-539.91 738.46,-692.71 0,1213.97 -434.63,2435.87 -938.47,3198.43l-413.13 612.82c-514.7,705.81 -565.58,594.15 -866.74,1282.94 -88.88,203.29 -256.06,544.86 -309.53,754.7 842.68,-179.5 2151.64,-1393.57 2652.12,-2056.14l924.87 -1371.3c183.7,-331.5 735.32,-1165.68 1014.44,-1336.57 0,2073.3 -608.05,4475.47 -1585.03,6333.58l-1063.9 1857.37c-97.39,184.92 -151.15,365.8 -240.06,535.21 221.01,-53.96 669.38,-446.68 838.33,-601.4 288.65,-264.35 478.61,-438.68 731.94,-745.83 1020.98,-1237.91 1481.77,-2292.22 2114.82,-3726.61 171.89,-389.47 631.09,-1610.47 957.92,-1954.26 0,862.31 -269.68,2613.98 -442.48,3463.25 -55.71,273.81 -252.96,891.64 -197.74,1112.09l3.22 102.14c211.09,-264.81 715.25,-525.69 1058.77,-645.74 151.8,-53.06 217.41,-53.16 315.55,-147.05l88.1 -110.98c25.76,-164.56 109.67,-434.48 149.96,-617.82l520.7 -1929.51c210.4,140.95 85.48,877.11 59.13,1091.76 -22.13,180.21 -7.22,420.83 -6.33,607.4l-160.59 1692.75c-28.46,280.79 -203.31,888.94 -98.82,1136.26l-54.32 233.66c543.03,-113.04 323.95,29.4 970.73,-575.17 1217.66,-1138.16 2302.21,-2947.51 2997.6,-4436.58l832.43 -2061.33 -39.65 652.71c156.19,-325.87 192.93,-1242.4 302.06,-1690.34l332.23 -1187.92c17.62,-116.66 -16.97,-307.93 99.9,-425.71 -94.87,-402.99 6.75,-922.96 16.02,-1309.55 10.87,-453.19 4.92,-915.17 6.07,-1369.23 2.15,-850.96 58.1,-1908.58 -45,-2735.76 88.63,-212.75 -52.56,-3535.45 -52.56,-4103.66 0,-648.15 4.17,-1449.2 124.57,-2008.68 183.64,-853.35 710.12,-1067.61 907.21,-1284.95 -1400.54,-83.69 -3241.16,-477.54 -3801.57,-1766.57 -22.04,-50.72 -36.12,-91.2 -59.84,-140.5 -77.51,-161.07 -12.37,-37.46 -59.35,-105.7 -815.59,144.48 -961.75,-241.7 -1559.17,626.21 -80.08,116.34 -140.11,229.16 -186.6,348.25 -167.89,430.12 -314.52,367.16 -1032.58,612.46 -352.96,120.57 -894.89,269.47 -1194.55,464.37 -81.17,52.79 -250.03,159.97 -321.32,225.06 -197.52,180.33 -322.58,415.36 -423.74,650.28 -117.44,272.78 -160.8,533.65 -234.59,823.22 193.89,-14.75 591.92,-230.47 960.19,-348.47 1256.67,-402.65 2118.2,-351.73 2630.19,886.38 403.46,975.66 377.89,3296.57 275.56,4600.48 -106.02,1350.98 -627.52,2662.03 -2199.53,2941.63 -1471.64,261.74 -3380.28,-315.52 -4287.26,-872.57 -630.93,-387.5 -570.83,-339.28 -1107.21,-827.23 -532.98,-484.87 -1040.15,-1267.32 -1320.32,-1905.93 -508.29,-1158.5 -677.82,-2456.56 -1894.3,-3220.71 -846.44,-531.71 -1747.73,-863.05 -2735.54,-1178 -487.86,-155.54 -580.35,-114.55 -990.56,-367.87 -555.25,-342.89 -1082.5,-661.88 -1617.4,-1021.11l-1539.67 -1045.26z"/>
   <path class="fil1" d="M73611.26 24348.04l167.15 562.64c1.81,4.79 7.13,17.84 8.98,22.63l387.07 1572.78c66.25,303.99 135.33,622.81 198.02,903.43 299.54,1340.73 328.85,2379.19 528.51,3400.59l2022.09 415.5c3282.79,746.04 5333.26,1234.43 8919.47,862.11 1391.91,-144.5 3696.09,-710 4867.32,-1351.47 151.89,-83.18 253.34,-116.54 406.91,-193.96 152.05,-76.65 316.56,-146.08 396.12,-264.65 -112.07,-96.88 -53.74,42.79 -32.27,-109.97l436.57 -821.65c744.5,-1547.65 976.07,-3015.96 1091.53,-3252.75 -261.68,97.41 -203.61,98.07 -412.84,235.69 -2134.42,1403.91 -5478.29,2273.37 -8052.2,2495.78 -2169.39,187.46 -5769.7,292.59 -7802.5,-451.6l-208.11 -92.75c-6.93,-3.5 -22.25,-10.81 -32.57,-17.37 395.51,0 791.06,-0.42 1186.57,0.02l4540.1 -188.43c341,-4.29 753.31,-67.1 1084.52,-93.28 2902.32,-229.47 5585.42,-978.78 7964.34,-2481.97 210.74,-133.16 493.97,-317.72 649.58,-470.52 -91.95,-135.21 -22.53,-244.45 26.5,-408.3 257.62,-860.85 304.76,-806.57 -40.87,-1107.49 -811.26,-706.33 -869.95,-517.34 -1387.23,-815.9 77.04,-207.03 223.42,-362.1 337.53,-550.65 383.27,-633.33 538.79,-945.11 840.78,-1635.66 171.89,-393.05 314.99,-761.42 450.65,-1190.36l391.45 -1293.01c-205.27,82.38 -9.48,-19.48 -120.23,69.19l-2523.34 2749.23c-373.4,338.33 -673.63,625.64 -1099.65,928.48 -868.4,617.32 -1068.23,786.16 -2121.36,1362.21 -2229.63,1219.59 -4737.88,2034.08 -7363.72,2370.77 -415.72,53.3 -895.44,114.24 -1319.54,114.24 98.36,-122.74 715.57,-324.47 906.48,-397.57 344.17,-131.76 628.26,-258.06 972,-384.84 1222.64,-450.95 1569.41,-487.22 2884.9,-1088.6l1746.92 -902.7c193.79,-114.35 705.77,-383.45 815.33,-536.4 -42.42,-60.86 -51.4,0.54 11.03,-117.17l272.72 -366.56c122.69,-168.27 217.98,-332 329.42,-501.16 242.54,-368.22 419.93,-634.89 645.13,-1011.98 418.29,-700.4 787.32,-1402.76 1141.34,-2161.71 1591.69,-3412.19 2121.51,-7335.89 1668.72,-11073.91 -60.93,-503.03 -106.86,-938.68 -186.48,-1432.35l-392.77 -2047.51c-42.59,-273.71 -429.84,-1804.61 -548.53,-1938.86l81.41 1104.54c105.83,639.47 -25.09,3164.02 -117.72,3814.71 -27.62,193.99 -42.33,348.56 -62.47,508.9 -102.94,819.44 -360.31,2103.84 -593.64,2853.35 -363.93,1168.99 -870.34,2627.12 -1473.56,3746.91l-847.77 1488.95c-854.16,1320.31 -1752.83,2471.74 -2854.89,3615.97 -366.9,380.94 -835.69,764.78 -1237.75,1132.4 -849.06,776.34 -2427.65,1900.44 -3485.47,2473.4 -2003.65,1085.28 -1861.93,887.54 -3698.78,1712.43 -67.17,30.16 -146.39,61.31 -208.81,95.5 -165.4,90.58 -133.27,86.93 -152.09,140.71z"/>
   <path class="fil2" d="M71960.42 26423.45c9.39,273.36 34.77,103.55 119.87,219.65 6.34,8.66 15.93,19.45 21.81,28.75l716.05 2416.89c57.45,204.59 76.91,417.93 121.88,596.29 99.73,395.6 190.01,775.48 262.58,1176.02 238.78,1317.9 387.9,2587.26 185.51,3933.68 -49.3,327.96 -118.58,1005.1 -54.77,1345.42 56.58,187.69 684.4,549.68 861.68,645.7 833.41,451.37 1239.41,641.46 2182.83,928.66 288.18,87.72 943.31,305.44 1241.44,312.37 151.05,-140.75 216.55,-163 365.85,-340.95 117.45,-139.99 217.6,-264.42 339.85,-398.41 236.05,-258.75 208.69,-55.67 423.59,-269.83 103.86,-103.51 220.71,-282.91 295.35,-405.86 -53,-62.28 31.45,-14.03 -135.74,-77.56 -375.92,-142.85 -798.76,-241.23 -1464.8,-501.52 -571.43,-223.32 -982.1,-431.11 -1488.65,-714.33 -498.56,-278.76 -849.23,-571.68 -1246.96,-935.3 -222.17,-203.11 -348.69,-312.35 -536.88,-546.83 -164.56,-205.03 -326.48,-443.6 -456.21,-667.75 1012.72,77.05 4145.29,2839.35 8563.71,2830.16 2509.28,-5.22 4663.67,-605.41 6633,-1954.12 174.44,-119.46 241.53,-166.59 396.18,-298.13 147.05,-125.08 236.44,-166.91 387.25,-306.28 278.72,-257.55 463.73,-443.78 683.11,-743.32 -442.89,9.02 -3393.29,728.68 -4027.9,845.42 -1552.93,285.66 -3003.44,222.2 -4565.42,-16.54 -4296.6,-656.72 -6699.02,-2573.06 -7089.74,-2668.44l206.1 -47.18c-199.66,-1021.4 -228.97,-2059.86 -528.51,-3400.59 -62.69,-280.62 -131.77,-599.44 -198.02,-903.43l-387.07 -1572.78c-1.85,-4.79 -7.17,-17.84 -8.98,-22.63l-167.15 -562.64c-214.36,35.14 -485.64,212.11 -655.95,343.39 -510.69,393.62 -1176.5,1286.36 -994.89,1732.02z"/>
   <path class="fil3" d="M63809.36 39079.03c-56.95,182.67 143.65,544.08 213.19,734.23 281.6,769.94 487.06,1623.13 705.27,2421.12 157.62,576.43 700.85,2582.79 1020.24,3103.61l201.67 -124.57c73.5,-34.88 134.01,-53.77 211.98,-88.02 169.16,-74.31 284.13,-135.65 433.71,-199.31 -10.66,-484.04 -1289.73,-4017.11 -1289.73,-6993.54l37.34 60.18c9.62,16.84 50.63,91.77 51.86,94.1l634.48 1353.8c543.07,1132.3 844.56,1976.67 1516.98,2999.67 176.61,268.67 803.7,1173.86 1009.45,1283.42l619.07 -444.79c-176.12,-475.03 -1006.31,-1682.57 -1541.29,-3135.3 -220.58,-598.97 -320.83,-1157.3 -435.1,-1866.27l-190.35 -2137.21c291.69,178.58 455.21,450.05 619.07,580.79 49.76,-64.57 26.66,-6.31 55.52,-116.38 16.21,-61.79 9.56,-17.8 14.05,-86.52 6.88,-105.17 -18.47,-148.08 -30.11,-213.72l-620.95 -3773.68c-35.95,-179.45 -64.61,-231.59 -102.25,-379.21 -71.35,-279.84 -115.18,-719.44 -279.34,-1011.14 -339.09,6.11 -810.81,93.71 -1352.12,41.4 -371.89,-35.93 -765.64,-162.78 -1072.87,-292.6 -313.22,-132.36 -602.17,-309.31 -830.46,-514.25 -140.67,-126.29 -200.08,-176.2 -312.21,-327.73 -46.9,-63.38 -96.67,-129.71 -141.33,-200.38l-113.4 -185.36c-4.36,-6.68 -12.65,-21.13 -20.86,-30.46 204.54,587.2 113.27,753.32 293.54,1111.64 5.25,10.43 13.25,21.43 17.99,32.84l37.66 172.71c6.85,71.75 0.68,155.88 7.69,232.74l195.44 1187.14c14.35,127.03 -1.02,273.54 23.71,390.72 171.54,-30.81 18.09,-147.78 162.67,-307.32 3.34,318.96 39.52,529.05 84.5,828.09 115.14,765.73 87.96,1639.45 256.88,2451.47 149.74,719.82 135.86,2812.57 -91.59,3348.09z"/>
   <path class="fil4" d="M88262.8 1660.27c118.69,134.25 505.94,1665.15 548.53,1938.86l392.77 2047.51c79.62,493.67 125.55,929.32 186.48,1432.35 452.79,3738.02 -77.03,7661.72 -1668.72,11073.91 -354.02,758.95 -723.05,1461.31 -1141.34,2161.71 -225.2,377.09 -402.59,643.76 -645.13,1011.98 -111.44,169.16 -206.73,332.89 -329.42,501.16l-272.72 366.56c-62.43,117.71 -53.45,56.31 -11.03,117.17 387.84,-63.9 1924.26,-1444.46 2282.82,-1772.29 723.97,-661.91 1290.26,-1358.88 1865.59,-2162.07 514.96,-718.92 1108.76,-1813.51 1391.28,-2595.76 187.89,-520.24 340.41,-953.21 486.37,-1489.21 214.79,-788.77 344.61,-1706.21 419.86,-2540.55 56.62,-627.78 -45.21,-2260.48 -99.02,-2828.95 -179.56,-1896.76 -987.8,-4444.83 -1769.76,-6117.51 -218.28,-466.91 -443.19,-876.29 -710.1,-1284.66 -203.9,-311.97 -665.09,-903.85 -1081.23,-992.49l154.77 1132.28z"/>
   <path class="fil4" d="M92544.43 18027.47l-391.45 1293.01c-135.66,428.94 -278.76,797.31 -450.65,1190.36 -301.99,690.55 -457.51,1002.33 -840.78,1635.66 -114.11,188.55 -260.49,343.62 -337.53,550.65 517.28,298.56 575.97,109.57 1387.23,815.9 345.63,300.92 298.49,246.64 40.87,1107.49 -49.03,163.85 -118.45,273.09 -26.5,408.3 165.93,-72.84 235.57,-165.6 391.01,-276.16 469.87,-334.2 1265.25,-1208.43 1572.35,-1675.46l522.92 -795.44c1338.32,-2019.95 2208.32,-5592.53 2208.32,-8027.78 0,-881.26 -49.54,-1556.4 -227.85,-2291.61 -81.66,-336.7 -190.54,-688.19 -324.48,-976.86 -105.38,-227.11 -247.18,-718.71 -531.04,-788.02l-1278.55 4113.88c-471.98,1536.59 -555.49,1661.86 -1215.06,2851.2l-409.69 618.66c-130.8,174.88 -123.82,103.54 -89.12,246.22z"/>
   <path class="fil5" d="M57102.79 43592.76c-102.73,74.2 -67.47,-27.39 -130.21,261.54 -316.53,1457.65 -514.54,2304.6 -985.9,3764.77 -70.84,219.44 -206.14,388.15 -122.91,596.19 -63.85,268.23 3.23,140.06 385.56,451.02 305.09,248.15 407.51,256.81 533.56,357.32 884.25,-468.06 2181.37,-1719.69 2791.92,-2463.54 721.15,-878.59 1519.3,-2109.56 1966.77,-3250.94 125.73,-320.71 227.34,-589.89 342.08,-916.4 319.99,-910.51 306.28,-1510.43 459.41,-2131.11 105.73,-428.6 53.36,-2973.63 132.41,-3670.14 47.51,-418.6 142.71,-2133.32 68.29,-2489.39 -116.87,117.78 -82.28,309.05 -99.9,425.71l-332.23 1187.92c-109.13,447.94 -145.87,1364.47 -302.06,1690.34l39.65 -652.71 -832.43 2061.33c-695.39,1489.07 -1779.94,3298.42 -2997.6,4436.58 -646.78,604.57 -427.7,462.13 -970.73,575.17l54.32 -233.66z"/>
   <path class="fil6" d="M58881.57 56302.29l98 20.91c170.91,654.28 443.38,1594.18 484.28,2230.45 -169.83,105.73 -456.37,286.99 -594.27,416.01l426.03 2012.49c131.74,664.6 228.55,1395.05 378.2,2109.66l117.2 671.26c839.39,-472.73 2665.69,-2096.15 2913.18,-2216.62l280 -461.9c-69.47,-119.98 -154.77,-1259.65 -154.77,-1501.7l346.33 566.02c60.41,-441.32 82.53,-1231.17 13.31,-1664.03 -50.61,-210.89 -205.74,-407.67 -316.76,-640.38 -210.32,-440.86 -657.29,-1765.73 -567.8,-2035.08 194.18,-239.94 180.96,-65.7 226.43,-417.42 92.47,-715.35 -655.71,-2583.59 -823.3,-3350.31l-767.8 -30.3 -179.91 24.55c-17.89,622.36 -66.86,1284 -114.45,1924.23 -47.61,640.51 -3.94,1329.55 -28.9,1992.59 -117.79,17.4 -1655.93,277.47 -1735,349.57z"/>
   <path class="fil7" d="M66664.12 31140.29c164.16,291.7 207.99,731.3 279.34,1011.14 37.64,147.62 66.3,199.76 102.25,379.21l620.95 3773.68c11.64,65.64 36.99,108.55 30.11,213.72 -4.49,68.72 2.16,24.73 -14.05,86.52 -28.86,110.07 -5.76,51.81 -55.52,116.38 53.83,155.92 284.73,409.03 396.15,613.56 653.21,1199.13 1082.34,2209.35 2358.4,2985.05 241.79,146.98 453.9,275.77 700.94,396.94 499.98,245.27 337.55,87.28 877.99,46.16 -48.65,-166.56 -1279.24,-1543.03 -1455.5,-1782.33 -789.95,-1072.45 -1433.49,-2436.76 -1433.49,-3925.05 704.67,431.44 1522.11,2097.61 2177.01,2452.76 -137.51,-862.92 -12.61,-1958.95 -95.99,-2771.6l-232.03 -2126.4c0,-668.59 65.51,-1517.79 -160.75,-1929.53l-247.85 -1568.45c-141.96,91.65 -240.38,199.26 -369.47,318.8 -140.35,129.97 -258.48,209.86 -416.47,326.74 -1082.1,800.53 -1757.47,1052.39 -3062.02,1382.7z"/>
   <path class="fil8" d="M33204.08 20338.73c-35.38,-343.74 -387.25,-1241.39 -513.46,-1637.13 -180.87,-567.13 -321.52,-1146.4 -467.27,-1740.15 -163.39,-665.58 -694.8,-3212.58 -598.77,-3750.1l-107.36 -365.54c-8.03,-98.42 -10.84,-188.07 -16.71,-288.46l-192.03 -6598.64c21.69,-184.79 24.47,-394.73 46.82,-619.88 24.14,-243.29 111.7,-235.16 159.66,-558.47 29.07,-195.99 67.17,-387.46 115.69,-603.56 40.8,-181.71 59.39,-453.19 106.89,-612.66l320.67 -1070.94c145.06,-698.8 230.67,-663.68 316.34,-1078.18 47.52,-229.87 111.75,-294.76 116.27,-556.85 -1324.22,856.74 -2653.7,5461.19 -2944.08,7068.14 -490.89,2716.49 -465.52,6009.76 763.8,8513.73 99.82,203.33 188.29,371.3 274.87,550.54 48.73,100.89 60.01,154.92 125.59,262.52 63.94,104.92 103.61,151.98 168.05,270.87 384.54,709.39 1608.51,2288.39 2325.03,2814.76z"/>
   <path class="fil9" d="M56033.33 50335.26c74.85,222.1 276.53,374.37 391.87,585.6l901.51 973.54 -191.8 89.73 45.51 759.3 252.84 -971.63c175.18,-642.16 625.1,-2145.77 1114.28,-2660.34 0,670.73 -63.43,1153.08 -103.18,1745.24 -18.01,268.33 -67.13,553.92 -98.78,805.88 -36.19,288.06 -107.58,554.05 -107.58,841.32 303.46,28.44 465.73,-85.44 749.49,-207.55 315.77,-135.87 476.88,-274.66 602.85,-492.48 -180.04,-9.29 -201.55,-28.85 -355.65,-106.96l-279.15 -181.32 2098.53 -1292.42c457.02,-379.15 347.3,-131.01 523.41,-450.12l188.18 -234.3c6.39,-5.19 17.24,-15.74 24.7,-20.77 125.2,-84.49 159.45,-54.38 254.75,-101.6l217.09 -163.18c-25.88,22.7 57.65,144.31 -69.64,-3.3 -1.9,-2.21 -12.69,-12.5 -13.98,-15.65 -39.02,-95.2 36.39,-116.3 196.05,-297.17 176.35,-199.77 576.74,-653.37 691.73,-866.91 188.51,-350.03 102.43,-40.83 342.56,-445.82l848.82 -1440.17c118.9,-221.14 176.83,-156.82 171.2,-468.85 80.72,-191.07 -198.41,-1151.08 -272.37,-1543.6 -295.28,-1567.1 -450.12,-2609.58 -450.13,-4210.94l-3.87 -709.84c34.64,-177 -39.31,-103.9 106.79,-171.92 -103.16,-193.58 109.57,-83.12 -187.96,-155.71 -11.02,238.02 13.28,809.18 -53.5,956.71 -209.05,461.82 -62.33,54 -115.96,598.91l-242.01 913.18c-219.2,479.74 -52.19,315.97 -246.45,859.42l-449.66 956.91c-13.32,15.06 -90.52,153.43 -101.62,185.56 -53.11,153.77 -61.65,310.88 -105.22,472.74 -42.25,156.87 -87.13,223.69 -158.66,375.55l-242.18 486.6c-46.99,74.25 -28.21,39.86 -67,80.97 -303.75,321.94 -131.21,247.24 -298.69,574.93l-1154.56 1680.79c-109.9,133.73 -263.23,380.5 -406.3,478.95 -246.63,169.7 -109.29,-2.12 -471.65,415.6l-1239.17 1037.86c-7.55,6.91 -18.22,16.94 -25.84,23.79 -106.14,95.45 -190.42,162.97 -303.32,243.01l-683.07 458.73c-117.33,105.26 -152.93,229.44 -298.97,300.31 -241.15,117.02 -191.32,10.28 -451.9,3.65 -79.16,251.21 -365.77,277.9 -472.34,307.77z"/>
   <path class="fil10" d="M59940.44 17744.23c173.79,-84.02 7.32,-105.8 316.8,133.13l1929.94 1540.36c546.34,487.45 778.42,361.72 1573.31,168.48 346.41,-84.22 1394.72,-417.25 1683.09,-358.14 -118.25,-229.49 -654.22,-582.75 -908.22,-825.65l-995.37 -790.54 161.23 -116.52c-832.63,78.13 -1313.81,-494.27 -753.89,-774.14 438.03,-218.94 1311.71,81.02 1084.14,601.97 212.16,52.76 133.22,43.17 295.07,184.88l1284.68 1088c142.36,118.46 397.77,375.56 623.08,386.4l1685.26 -404.67c276.14,-71.68 311.95,-56.73 481.48,-220.14 -78.1,-306.49 -646.47,-620.72 -942.44,-883.55 -93.16,-82.73 -137.4,-136.04 -236.43,-208.34 -129.89,-94.81 -153.74,-104.04 -278.26,-217.27 -114.99,-104.55 -136.56,-108.02 -252.97,-193.22 -108.65,-79.52 -157.17,-145.58 -265.55,-228.9l-2061.28 -1652.98c-498.57,-333.82 -904.79,-130.19 -1472.84,-2.49 -496.9,111.71 -1024.35,247.38 -1547.3,377.69 -395.44,98.53 -2697.45,605.21 -3002.79,792.15 6.4,262.39 254.76,439.46 537.71,640.41 117.61,83.52 118.63,77.66 223.49,173.01l655.7 529.82c183.84,128.36 137.88,33.41 182.36,260.25z"/>
   <path class="fil11" d="M62543.77 34102.08c74.42,356.07 -20.78,2070.79 -68.29,2489.39 -79.05,696.51 -26.68,3241.54 -132.41,3670.14 -153.13,620.68 -139.42,1220.6 -459.41,2131.11 -114.74,326.51 -216.35,595.69 -342.08,916.4 -447.47,1141.38 -1245.62,2372.35 -1966.77,3250.94 -610.55,743.85 -1907.67,1995.48 -2791.92,2463.54 -126.05,-100.51 -228.47,-109.17 -533.56,-357.32 -382.33,-310.96 -449.41,-182.79 -385.56,-451.02 -136.08,92.97 -127.52,122.94 -199.98,335.89 -48.12,141.44 -86.23,239.81 -140.35,389.61 -57.96,160.47 -87.54,231.11 -153.29,379.14 -77.58,174.66 -131.78,244.26 -73.06,404.75 -59.02,120.34 -11.07,100.59 113.86,174.7 47.94,28.43 165.84,80.43 236.88,116.64 327.95,167.14 174.67,180.72 385.5,319.27 106.57,-29.87 393.18,-56.56 472.34,-307.77 260.58,6.63 210.75,113.37 451.9,-3.65 146.04,-70.87 181.64,-195.05 298.97,-300.31l683.07 -458.73c112.9,-80.04 197.18,-147.56 303.32,-243.01 7.62,-6.85 18.29,-16.88 25.84,-23.79l1239.17 -1037.86c362.36,-417.72 225.02,-245.9 471.65,-415.6 143.07,-98.45 296.4,-345.22 406.3,-478.95l1154.56 -1680.79c167.48,-327.69 -5.06,-252.99 298.69,-574.93 38.79,-41.11 20.01,-6.72 67,-80.97l242.18 -486.6c71.53,-151.86 116.41,-218.68 158.66,-375.55 43.57,-161.86 52.11,-318.97 105.22,-472.74 11.1,-32.13 88.3,-170.5 101.62,-185.56l449.66 -956.91c194.26,-543.45 27.25,-379.68 246.45,-859.42l242.01 -913.18c53.63,-544.91 -93.09,-137.09 115.96,-598.91 66.78,-147.53 42.48,-718.69 53.5,-956.71 297.53,72.59 84.8,-37.87 187.96,155.71 227.45,-535.52 241.33,-2628.27 91.59,-3348.09 -168.92,-812.02 -141.74,-1685.74 -256.88,-2451.47 -44.98,-299.04 -81.16,-509.13 -84.5,-828.09 -144.58,159.54 8.87,276.51 -162.67,307.32 -24.73,-117.18 -9.36,-263.69 -23.71,-390.72l-195.44 -1187.14c-7.01,-76.86 -0.84,-160.99 -7.69,-232.74l-37.66 -172.71c-4.74,-11.41 -12.74,-22.41 -17.99,-32.84 -180.27,-358.32 -89,-524.44 -293.54,-1111.64 -24.17,-143.88 -79.79,-272.15 -126.36,-442.56 -28.21,-103.2 -39.4,-168.66 -51.98,-232.17 -56.13,-283.16 -21.21,-195.57 -121.67,-268.64 103.1,827.18 47.15,1884.8 45,2735.76 -1.15,454.06 4.8,916.04 -6.07,1369.23 -9.27,386.59 -110.89,906.56 -16.02,1309.55z"/>
   <path class="fil12" d="M31624.58 13211.35c-96.03,537.52 435.38,3084.52 598.77,3750.1 145.75,593.75 286.4,1173.02 467.27,1740.15 126.21,395.74 478.08,1293.39 513.46,1637.13 76.54,83.68 119.28,124.75 203.01,201.84 142.65,131.32 91.76,107.56 274.29,175.5 -123.75,-307.82 -14.31,-338 -22.54,-561.62 -5.55,-150.7 -82.84,-322.77 -94.06,-523.21 -23.76,-424.51 -78.73,-754.39 -38.67,-1191.24 42.51,-463.4 -228.53,-161.1 -84.1,-859.43 203.64,-984.67 136.54,-816.19 470.51,-1980.67 106.1,-369.97 303.32,-939.12 278.27,-1117.82 -34.56,-246.6 150.31,-529.02 219.01,-736.89 26.26,-79.45 68.11,-192.48 89.17,-249.53 61.76,-167.27 92.01,-335.3 214.45,-459.78 -65.07,-276.76 -214.53,-525.02 -315.9,-804.3 -861.1,-2372.6 -971.97,-2859.57 -1357.77,-5362.15 -38.55,-250.1 -49.4,-834.9 -102.88,-1011.41 -81.97,106.69 -150.5,266.48 -189.03,418.43 -43,169.59 19.45,177.02 -30.65,393.11l-385.84 1302.2c-132.53,293.63 -42.27,191.96 -193.66,623.89l-151.58 615.15c-34.77,141.25 -42.79,359.15 -88.85,486.28 -17.97,49.6 -41.54,78.94 -49.91,95.75 -56.55,113.58 -5.39,-32.14 -47.09,96.04l-97.62 713.23c-174.96,669.27 -40.92,1850.82 -78.06,2609.25z"/>
   <path class="fil8" d="M28144.52 24206.54c-29,-291.19 -148.32,-662.62 -212.48,-957.44 -488.14,-2243.14 -873.97,-5373.82 -751.84,-7580.05 -62.47,-257.75 -696.43,-1526.83 -957.38,-2613.99 -122.38,-509.82 -201.98,-938.93 -352.31,-1423.12 -120.21,-387.16 -367.73,-1009.85 -649.47,-1198.58 -272.79,519.81 -559.96,3028.45 -567.47,3780.94l0 68.84c12.94,2807.78 249.8,4883.71 1529.59,7345.65l873.97 1370.68c213.3,280.94 797.07,980.69 1087.39,1207.07z"/>
   <path class="fil13" d="M70512.08 29112.05l247.85 1568.45c226.26,411.74 160.75,1260.94 160.75,1929.53l232.03 2126.4c83.38,812.65 -41.52,1908.68 95.99,2771.6 122.76,207.61 1166.08,884.91 1467.15,990.54 -47.24,-218.43 18.99,-367.55 77.1,-518.06 58.3,-151.02 104.54,-357.81 199.51,-464.61 -154.47,-233.7 -345.05,-379.69 -531.21,-607.05 -151.11,-184.55 -348.2,-478.21 -442.53,-680.27 -193.51,-414.53 -522.35,-1181.1 -522.35,-1739.33 240.48,147.23 676.13,596.26 916.16,813.24 294.01,265.78 549.67,674.65 920.82,837.66 -63.81,-340.32 5.47,-1017.46 54.77,-1345.42 202.39,-1346.42 53.27,-2615.78 -185.51,-3933.68 -72.57,-400.54 -162.85,-780.42 -262.58,-1176.02 -44.97,-178.36 -64.43,-391.7 -121.88,-596.29l-716.05 -2416.89c-5.88,-9.3 -15.47,-20.09 -21.81,-28.75 -85.1,-116.1 -110.48,53.71 -119.87,-219.65 -142.73,103.1 -119.13,128.13 -176.19,358.46 -314.27,1268.57 -1212.61,2152.32 -1272.15,2330.14z"/>
   <path class="fil14" d="M54162.47 52231.45c-42.99,40.45 -9.77,-19.2 -85.79,103.68l-567.67 1131.55c-505.13,923.95 -1173.92,1619.02 -1043.37,2714.92 43.32,363.64 418.76,1113.68 665.05,1278.67l2558.71 -4726.32c28.86,843.99 -607.81,2392.86 -952.11,3176.47 -141.42,321.88 -299.91,675.99 -413.69,989.65 -396.76,1093.74 -852.89,2151.43 -561.9,3379.39 67.67,285.53 229.98,805.32 452.36,954.29 39.72,-136 164.17,-287.25 241.09,-439.93 88.94,-176.54 156.36,-317.62 238.23,-489.71 156.5,-329.01 302.14,-674.16 430.28,-1021.64 261.2,-708.27 533.03,-1343.93 763.02,-2085.3 112.11,-361.38 238.23,-673.66 357.87,-1040.68 401.4,-1231.49 626.51,-2131.17 935.87,-3413.06l-45.51 -759.3c-1074.88,118.3 -1779.36,270.89 -2972.44,247.32z"/>
   <path class="fil15" d="M35435.67 27602.9c118.03,136.61 -22.62,28.7 150.55,95.71 3.54,1.37 192.44,40.73 213.84,44.28l1382.96 189.95c-508.98,-747.6 -929.68,-1468.52 -1385.59,-2258.51 -144.75,-250.82 -1186.27,-2233.95 -1187.19,-2234.46 -108.79,-140.32 -278.24,-199.39 -442.56,-290.93l-1688.85 -1097.28c-150.38,-111.13 -259.22,-201 -396.56,-297.78 -1067.84,-752.51 -2495.66,-2300.89 -3267.34,-3378.38 -130.19,-181.79 -43.7,-124.35 -226.8,-206.52l210.74 849.03c149.87,78.88 -44.13,-53.09 116.98,0 28.12,474.2 449.53,1184.97 649.45,1635.45 4.82,10.86 10.61,23.17 15.78,33.69l823.74 1605.84c189.22,495.17 13.76,11.66 366.91,562.45l590.14 876.38c332.75,482.12 242.3,271.88 449.75,485.34 400.6,412.23 261.18,56.78 471.81,506.99 49.65,106.11 28.76,72.32 104.24,147.14l1106.42 1062.96c202.34,190.35 368.88,270.49 486.52,449.19l489.6 451.82c136.06,99.73 596.85,369.58 692.22,497.42 229.59,307.72 391.51,273.66 273.24,270.22z"/>
   <path class="fil16" d="M58186.42 60856.16l-670.66 4327.89 108.86 208.86c308.69,812.66 749.04,2077.07 1392.79,2675.29 132.26,122.9 242.45,156.36 221.74,382.31 89.15,-80.6 80.1,-122.21 113.28,-349.97l321.16 -2016.59c43,-278.81 112.08,-558.06 112.08,-840.89l101.41 1982.69c0.45,293.68 53.36,371.95 53.36,672.69 228.15,-124.16 368.65,-288.54 588.53,-463.59 214.65,-170.9 348.36,-257.95 467.47,-530.7l-23.96 555.83c203.27,-77.82 44.29,39.44 98.01,-143.75 6.27,-21.37 9.36,-200.04 8.68,-231.87 -22.94,-1062.33 202.58,-2198.9 202.58,-2784.67l51.59 0c0,296.6 38.39,494.35 80.89,775.08l73.31 593.04c8.36,55.93 -10.99,99.83 60.77,188.44 246.55,-492.45 458.67,-1053.97 586.01,-1674.85 267.89,-706.87 490.45,-1840.79 569.87,-2634.95 -247.49,120.47 -2073.79,1743.89 -2913.18,2216.62l-117.2 -671.26 -146.34 264.28 -520.05 -497.11c-222.95,-244.05 -88.86,-165.47 -228.3,-402.33l-59.11 -84.34c-7.33,-12.69 -44.01,-84.44 -48.66,-100.34 -29.66,-101.37 -20.89,-132.57 -20.89,-236.36 -197.88,-76.28 -78.73,137.34 -163.46,-161.32l-146.08 -1065.06c-91.71,48.37 -28.21,8.07 -154.5,46.93z"/>
   <path class="fil12" d="M28144.52 24206.54c220.98,228.44 416.95,432.95 718.65,566.02 -220.54,-1397.99 -24.69,-1167.34 -74.11,-1888.65l-28.9 -746.16c141.81,-286.39 100.55,-692.96 145.4,-1015.61l89.56 -964.7c207.1,540.09 379.59,1100.42 596.22,1652.81 218.4,556.88 438.16,1101.17 681.18,1651.92 445.94,1010.64 826.37,1786.82 1357.96,2714.39 79.24,138.26 162.18,256 189.21,388.4 248.44,185.07 1275.87,521.08 1674.87,642.73 312.44,95.25 619.44,176.22 919.54,244.13 261.51,59.18 783.08,235.3 1021.57,151.08 118.27,3.44 -43.65,37.5 -273.24,-270.22 -95.37,-127.84 -556.16,-397.69 -692.22,-497.42l-489.6 -451.82c-117.64,-178.7 -284.18,-258.84 -486.52,-449.19l-1106.42 -1062.96c-75.48,-74.82 -54.59,-41.03 -104.24,-147.14 -210.63,-450.21 -71.21,-94.76 -471.81,-506.99 -207.45,-213.46 -117,-3.22 -449.75,-485.34l-590.14 -876.38c-353.15,-550.79 -177.69,-67.28 -366.91,-562.45l-823.74 -1605.84c-5.17,-10.52 -10.96,-22.83 -15.78,-33.69 -199.92,-450.48 -621.33,-1161.25 -649.45,-1635.45 -161.11,-53.09 32.89,78.88 -116.98,0l-210.74 -849.03c17.52,-171.82 -605.36,-1032.29 -701.86,-1210.47 -122.45,-226.12 -227.65,-416.92 -343.72,-629.1 -58.93,-107.72 -109.29,-191.85 -172.49,-313.97l-189.86 -346.39c-122.13,2206.23 263.7,5336.91 751.84,7580.05 64.16,294.82 183.48,666.25 212.48,957.44z"/>
   <path class="fil17" d="M62134.32 64181.4c-127.34,620.88 -339.46,1182.4 -586.01,1674.85 -13.14,185.48 -40.08,284.64 42.98,404.7 228.85,257.59 142.24,558.81 619.04,572.82l200.74 -406.04c11.86,519.49 -179.53,1291.2 -314.85,1812.3 -55.15,212.34 -61.87,408.59 -195.4,557.44 5.42,191.18 73.93,545.29 98.8,741.92 33.02,261.02 77.9,512.84 102.85,755l407.89 3117.52c36.17,265.94 75.86,522.57 103.56,754.35 52.85,442.27 1.87,637.78 163.91,746.33l483.78 -1114.24c429.55,-1179.59 909.94,-2731.99 909.13,-3979.94 -0.65,-1011.52 -418.6,-4716.8 -722.25,-5689.26 -143.47,21.37 -86.41,36.25 -143.19,501.17 -38.05,311.58 -95.91,175.93 -174.75,455.51 -49.63,175.96 -45.06,371.07 -92.89,529.96 -32.38,107.55 -13.25,56.34 -66.31,132.55l-224.9 217.12c-35.07,-43.43 -14.88,-3.37 -64.01,-98.98l-368.03 -1230.3c-11.59,-46.97 -53.72,-223.93 -55.4,-228.93 -10.38,-31 -32.26,-84.1 -47.1,-112.74 -38.4,-74.08 -43.4,-73.63 -77.59,-113.11z"/>
   <path class="fil18" d="M36673.54 22744.31c39.13,111.84 159.04,140.6 291.45,205 162.21,78.88 224.86,123.93 396.81,203.67l808.08 393.2c266.41,121.78 510.57,232.5 790.94,361.71 206.8,95.31 701.01,315.48 911.24,345.82l73 -476.69c71.55,-182.33 4.31,-108.9 20.54,-223.33 29.61,-208.7 121.17,-109.35 115.35,-259.37 -2.69,-69.57 -67.78,-54.94 18.6,-208.91l135.84 -453.13c8.79,-105.26 -69.75,-82.36 7.44,-221.99 11.69,-21.14 14.24,38.83 61.05,-106.42 39.19,-121.62 -28.74,-86.13 49.94,-212.92 62.07,-100.02 19.73,15.57 36.6,-86.71l11.15 -89.09c40.7,-265.09 -21.87,-93.49 71.77,-265.17 83.96,-153.95 32.33,-109.95 51.24,-211.46l28.87 -90.3c1.78,-5.17 7.19,-18.5 9.01,-23.77 38.25,-110.71 100.46,-572.17 238.46,-655.78 -114.69,-257.58 -74.6,-92.55 -348.99,-341.12 -466.76,-422.83 -1237.7,-1025.85 -1727.07,-1533.95 -129.14,-134.08 -161.11,-194.75 -310.23,-329.57 -218.85,-197.88 -200.86,-291.96 -347.92,-295.29 -176.1,73.53 -198.54,474.57 -320.24,762.1 -2.94,6.94 -10.27,19.58 -13.38,26.68 -3.27,7.48 -11.05,20.31 -14.31,28.01l-51.41 178.32c-1.74,7.14 -4.56,20.42 -6.45,27.66l-28.06 91.04c-15.6,52.57 -35.45,126.16 -53.43,185.42l-29.34 89.51c-1.94,6.83 -5.47,19.85 -7.26,26.56 -100.35,375.63 -30.11,132.83 -170.61,255.39 -89.25,77.85 -131.15,309.61 -176.3,438.39 -2.48,7.08 -7.33,20.23 -9.48,27.27 -2.1,6.88 -5.41,20.26 -7.22,27.22l-505.68 2412z"/>
   <path class="fil19" d="M63396.9 51328.14l299.14 1094.62c597.03,2183.23 1308.74,5095.16 2265.82,7126.17 124.14,263.44 134.78,397.01 323.77,505.61l-133.63 -516.38c157.88,-54.93 268.63,-104.99 391.83,-134.43l154.77 193.95c330.55,-143.95 449.96,-473.24 722.24,-673.97 -7.94,-329.34 -986.82,-2463.12 -1179.1,-2932.46 -203.07,-495.66 -373.61,-1002.56 -541.29,-1533.34l-382.51 -1405.75c-24.84,-327.95 -26.24,-143.55 90.67,-214.39l-609.86 -1594.85c212.96,-187.9 688.71,-354.79 934.08,-574.9 -5.34,-121.54 -182.76,-1137.43 -209.42,-1188.67 -664.13,301.5 -492.64,256.97 -685.81,558.39 -76.46,119.3 9.87,-15.36 -67.3,86.64 -220.26,291.12 -17.13,203.74 -222.44,373.02 -252.7,208.34 -716.08,664.82 -966.99,774.66 -95.58,41.84 26.64,19.59 -183.97,56.08z"/>
   <path class="fil20" d="M33681.38 20716.07c4.07,150.35 1010.47,858.63 1238.14,943.37 8.56,-227.44 -34.41,-247.62 -47.81,-429.26l107.98 -965.42c1.33,-6.77 4.28,-20.58 5.53,-27.49 1.28,-7.05 3.49,-20.91 4.67,-28.2l231.48 -1007.69c79.6,-219.83 20.24,-233.49 193.08,-725.33 25.05,-71.27 45.85,-174.13 52.47,-196.54l362.06 -1147.57c22.4,-69.4 -1.02,-4.47 34.66,-84.51l56.32 -141.32c47.29,-190.76 244.16,-881.32 392.72,-961.32 -34.33,-166.44 -722.52,-1218.87 -842.64,-1439.21l-565.31 -1086.89c-35.38,-75.63 -57.55,-140.54 -87.08,-203.96 -3.97,-8.52 -44.24,-88.07 -48.3,-95.11 -54.9,-95.3 -19.34,-41.15 -55.93,-83.74 -122.44,124.48 -152.69,292.51 -214.45,459.78 -21.06,57.05 -62.91,170.08 -89.17,249.53 -68.7,207.87 -253.57,490.29 -219.01,736.89 25.05,178.7 -172.17,747.85 -278.27,1117.82 -333.97,1164.48 -266.87,996 -470.51,1980.67 -144.43,698.33 126.61,396.03 84.1,859.43 -40.06,436.85 14.91,766.73 38.67,1191.24 11.22,200.44 88.51,372.51 94.06,523.21 8.23,223.62 -101.21,253.8 22.54,561.62z"/>
   <path class="fil21" d="M59239.15 68450.51c20.71,-225.95 -89.48,-259.41 -221.74,-382.31 -643.75,-598.22 -1084.1,-1862.63 -1392.79,-2675.29l-108.86 -208.86c-47.68,79.65 -13.77,12.99 -41.28,113.25l-194.05 1098.49c-388.19,2197.71 -485.49,4222.75 100.89,6375.63 133.76,491.08 357.43,1136.78 580.92,1591.44 72.97,148.45 210.23,396.57 224.18,549.73 163.25,-109.36 106.15,-244.56 184.02,-727.95 48.82,-303.09 80.11,-535.89 133.02,-821.74 97.31,-525.8 791.64,-4690.42 735.69,-4912.39z"/>
   <path class="fil22" d="M34919.52 21659.44c9.33,134.44 -65.3,-37.19 34.53,72.32 2.26,2.47 103.17,78.18 105.33,79.57 93.89,60.36 127.27,80.18 213.67,138.28 144.48,97.14 282.44,185.68 420.73,275.7 189.03,123.06 751.64,481.61 979.76,519l505.68 -2412c1.81,-6.96 5.12,-20.34 7.22,-27.22 2.15,-7.04 7,-20.19 9.48,-27.27 45.15,-128.78 87.05,-360.54 176.3,-438.39 140.5,-122.56 70.26,120.24 170.61,-255.39 1.79,-6.71 5.32,-19.73 7.26,-26.56l29.34 -89.51c17.98,-59.26 37.83,-132.85 53.43,-185.42l28.06 -91.04c1.89,-7.24 4.71,-20.52 6.45,-27.66l51.41 -178.32c3.26,-7.7 11.04,-20.53 14.31,-28.01 3.11,-7.1 10.44,-19.74 13.38,-26.68 121.7,-287.53 144.14,-688.57 320.24,-762.1 -107.67,-241.8 -238.43,-344.87 -448.28,-580.43l-1068.39 -1381.97c-98,-137.13 -137.68,-221.05 -237.36,-261.55 -148.56,80 -345.43,770.56 -392.72,961.32l-56.32 141.32c-35.68,80.04 -12.26,15.11 -34.66,84.51l-362.06 1147.57c-6.62,22.41 -27.42,125.27 -52.47,196.54 -172.84,491.84 -113.48,505.5 -193.08,725.33l-231.48 1007.69c-1.18,7.29 -3.39,21.15 -4.67,28.2 -1.25,6.91 -4.2,20.72 -5.53,27.49l-107.98 965.42c13.4,181.64 56.37,201.82 47.81,429.26z"/>
   <path class="fil12" d="M37654.25 32272.34c495.23,0 1410.71,-128.95 1938.09,-208.82l479.15 -84.08c12.44,-4.49 27.04,-11.66 37.96,-16.14 10.88,-4.48 27.94,-14.43 36.58,-18.33 8.64,-3.89 25.28,-11.2 35.83,-19.47 -176.27,-36.63 -227.83,-163.99 -350.09,-322.3l-1676.41 -2284.32c-65.21,-93.36 -225.23,-276.1 -191.83,-308.72 -69.42,-139.8 15.37,-74.49 -254.89,-92.45 -1399.61,-93.05 -2002.57,-157.76 -3412.23,-414.91 -412.9,-75.32 -776.81,-177.95 -1168.21,-239.78l1693.78 1692.75c578.4,501.53 1781.66,1436.57 2446.17,1819.44l356.91 193.17c222.54,149.84 126.61,173.25 294.01,209.86l-264.82 94.1z"/>
   <path class="fil23" d="M65523.41 49479.35c26.66,51.24 204.08,1067.13 209.42,1188.67 -245.37,220.11 -721.12,387 -934.08,574.9l609.86 1594.85c-49.46,185.92 38.84,162.34 258.25,565.98 115.54,212.57 220.18,371.1 344.14,581.55 629.06,1068.04 1271.39,2480.62 1874.15,3522.14l753.21 -820.71c1084.52,-1647.93 -849.71,-2709.17 -1247.83,-3538.23l-750.33 -1578.05c-152.42,-340.3 -827.71,-1821.9 -921.79,-2170.46 -169.56,22.9 -62.82,-31.14 -195,79.36z"/>
   <path class="fil24" d="M59590.34 51803.87c-125.97,217.82 -287.08,356.61 -602.85,492.48 -283.76,122.11 -446.03,235.99 -749.49,207.55l-733.46 3352.65c54.81,156.53 101.91,415.24 178.13,552.25 376.66,91.34 815.98,-110.87 1198.9,-106.51 79.07,-72.1 1617.21,-332.17 1735,-349.57 24.96,-663.04 -18.71,-1352.08 28.9,-1992.59 47.59,-640.23 96.56,-1301.87 114.45,-1924.23l179.91 -24.55 -1262.19 -244.69 -87.3 37.21z"/>
   <path class="fil4" d="M93008.73 26093.27c-115.46,236.79 -347.03,1705.1 -1091.53,3252.75l-436.57 821.65c-21.47,152.76 -79.8,13.09 32.27,109.97 263.51,-30.1 1148.1,-703.98 1380.86,-893.6 757.5,-617.09 921.76,-769.24 1537.66,-1518.53 1010.65,-1229.55 1584.72,-2646.94 1872.67,-4183.86 41.57,-221.89 58.2,-451.93 109.77,-654.32 -222.96,54.43 -83.81,20.59 -224.01,172.53 -78.99,85.62 -124.25,116.01 -196.27,197.89 -376.46,427.99 -790.43,772.3 -1009,1011.37 -390.64,427.29 -187.81,218.31 -646.78,587.85l-669.65 566.94c-119.52,95.25 -623.23,425.91 -659.42,529.36z"/>
   <path class="fil25" d="M59579.32 19277.48c46.98,68.24 -18.16,-55.37 59.35,105.7 23.72,49.3 37.8,89.78 59.84,140.5 560.41,1289.03 2401.03,1682.88 3801.57,1766.57 737.31,-45.25 1038.53,-86.48 1545.38,-338.33 -67.31,-445.1 -90.42,-750.82 351.57,-917.66 40.02,-142.99 90.17,-299.84 129.96,-442.31 60.16,-215.43 126.04,-315.4 -83.41,-363.89 -288.37,-59.11 -1336.68,273.92 -1683.09,358.14 -794.89,193.24 -1026.97,318.97 -1573.31,-168.48l-1929.94 -1540.36c-309.48,-238.93 -143.01,-217.15 -316.8,-133.13 -109.62,225.32 -351.41,1213.5 -361.12,1533.25z"/>
   <path class="fil16" d="M57206.22 56876.36c39.78,58.38 12.56,-16.47 50.71,118.48 35.65,126.12 -4.95,-48.46 17.96,87.39l347.79 2972.31c-189.42,235.15 -204.76,48.4 -258.92,416.55l-182.28 1726.98 -53.88 450.73c87.64,-82.87 110.62,-250.83 135.37,-373.12 27.85,-137.59 60.87,-292.52 97.4,-429.31 186.59,-698.67 384.17,-1452.23 755.78,-2091.92l121.85 -171.6c0,489.11 -51.58,790.58 -51.58,1273.31 126.29,-38.86 62.79,1.44 154.5,-46.93l146.08 1065.06c84.73,298.66 -34.42,85.04 163.46,161.32 0,103.79 -8.77,134.99 20.89,236.36 4.65,15.9 41.33,87.65 48.66,100.34l59.11 84.34c139.44,236.86 5.35,158.28 228.3,402.33l520.05 497.11 146.34 -264.28c-149.65,-714.61 -246.46,-1445.06 -378.2,-2109.66l-426.03 -2012.49c137.9,-129.02 424.44,-310.28 594.27,-416.01 -40.9,-636.27 -313.37,-1576.17 -484.28,-2230.45l-98 -20.91c-382.92,-4.36 -822.24,197.85 -1198.9,106.51 -76.22,-137.01 -123.32,-395.72 -178.13,-552.25 -43.3,79.73 -285.84,904.61 -298.32,1019.81z"/>
   <path class="fil18" d="M35074.29 35432.62c91.96,94.17 788.59,239.41 980.31,283.13 1205,274.77 1787.32,286.11 3045.67,284.51 305.54,-0.39 365.54,-48.78 642.58,-48.78l218.15 -105.95c-286.97,-312.18 -1305.65,-1887.19 -1456.7,-2205.31 -684.27,0 -982.99,109.3 -2142.09,96.22 -619.29,-6.99 -1857.8,-262.73 -2061.5,-190.79l-127.47 0.23c143.24,190.57 99.85,195.16 213.67,397.19 201.34,357.38 97.33,356.46 262.72,612.69 324.55,502.84 218.01,143.06 424.66,876.86z"/>
   <path class="fil26" d="M32490.82 858.17c-4.52,262.09 -68.75,326.98 -116.27,556.85 -85.67,414.5 -171.28,379.38 -316.34,1078.18l-320.67 1070.94c-47.5,159.47 -66.09,430.95 -106.89,612.66 -48.52,216.1 -86.62,407.57 -115.69,603.56 -47.96,323.31 -135.52,315.18 -159.66,558.47 -22.35,225.15 -25.13,435.09 -46.82,619.88l192.03 6598.64c5.87,100.39 8.68,190.04 16.71,288.46l107.36 365.54c37.14,-758.43 -96.9,-1939.98 78.06,-2609.25l97.62 -713.23c41.7,-128.18 -9.46,17.54 47.09,-96.04 8.37,-16.81 31.94,-46.15 49.91,-95.75 46.06,-127.13 54.08,-345.03 88.85,-486.28l151.58 -615.15c151.39,-431.93 61.13,-330.26 193.66,-623.89l385.84 -1302.2c50.1,-216.09 -12.35,-223.52 30.65,-393.11 38.53,-151.95 107.06,-311.74 189.03,-418.43 -92.77,-387.82 -110.15,-3561.6 -80.9,-4056.71 21.93,-371.4 103.42,-890.21 103.42,-1273.32 -204.45,49.91 -356.59,188.63 -468.57,330.18z"/>
   <path class="fil21" d="M59940.44 67898.44c0,609.24 54.7,1042.05 50.91,1637.57l568.16 11555.64c0,-452.9 212.15,-1744.62 205.49,-2406.38 -3.36,-333.82 54.91,-488.74 52.79,-847.93 -3.55,-601.48 51.32,-1069.03 51.25,-1698.37 -0.06,-624.16 51.59,-1099.83 51.59,-1745.24l81.41 -5161.26c56.71,-342.59 92.37,-1483.86 -29.56,-1772.49l23.96 -555.83c-119.11,272.75 -252.82,359.8 -467.47,530.7 -219.88,175.05 -360.38,339.43 -588.53,463.59z"/>
   <path class="fil22" d="M32114.89 31517.64c33.37,36.21 -6,17.47 104.75,64.59 580.41,246.97 2537.13,642.94 3164.18,642.94 -43.23,-208.54 -36.64,-141.88 -176.23,-305.07l-567.39 -704.07c-135.59,-175.52 -234.95,-331.57 -366.05,-513.19l-1374.67 -2050.32c-120.84,-190.87 -210.13,-365.24 -333.72,-531 -1.64,-1.59 -924.61,-381.45 -1154.04,-330.42l-62.71 10.41c-44.69,163.51 -7.25,374.01 44.1,520.92l64.96 267.15c74.78,596.47 314.21,1172.12 316.44,1207.89 30.45,487.65 153.19,623.01 232.24,914.75 114.8,423.7 185.03,405.67 108.14,805.42z"/>
   <path class="fil27" d="M54987.9 63261.75c105.69,-58.58 124.94,28.63 71.41,-68.29 303.17,562.84 507.07,148.5 538.88,123.72 66.52,163.52 167.26,229.97 369.9,286.25 588.64,-388.38 939.94,-1216.71 1213.39,-1405.36l182.28 -1726.98c54.16,-368.15 69.5,-181.4 258.92,-416.55l-347.79 -2972.31c-22.91,-135.85 17.69,38.73 -17.96,-87.39 -38.15,-134.95 -10.93,-60.1 -50.71,-118.48l-1915.35 5530.6c-78.36,198.18 -267.72,650.58 -302.97,854.79z"/>
   <path class="fil28" d="M27666.68 28734.71c178.36,401.24 1869.37,1559.33 2341.67,1849.14 318.24,195.26 626.63,334.15 949.25,509.28 -141.15,-343.64 -391.91,-732.38 -582.4,-1079.29 -196.91,-358.6 -352.49,-701.52 -521.08,-1077.17 -261.18,-582.01 -806.53,-1705.91 -914.68,-2324.54 -271.16,-204.07 -561.7,-343.82 -852.1,-545.28 -151.69,-105.23 -258.53,-185.56 -401.89,-292.9 -122.92,-92.04 -293.01,-230.51 -415.36,-293.87 48.68,581.53 51.55,1109.03 129.3,1687.31 65.82,489.62 239.07,1078.56 267.29,1567.32z"/>
   <path class="fil29" d="M61707.63 52041.65c167.59,766.72 915.77,2634.96 823.3,3350.31 -45.47,351.72 -32.25,177.48 -226.43,417.42 -89.49,269.35 357.48,1594.22 567.8,2035.08 111.02,232.71 266.15,429.49 316.76,640.38 277.63,-161.29 25.55,68.09 402.37,-233.9 211.63,-169.59 224.22,-0.83 405.07,-290.4l52.65 -92.99c83.93,-118.57 -27.07,-73.61 121.59,-112.6l-390.94 -1493.79c-124.91,-524.89 -263.33,-1008.85 -369.7,-1501.55l-484.76 -2292.55c-43.29,-238.05 -128.56,-582.71 -147.51,-829.12l-1070.2 403.71z"/>
   <path class="fil3" d="M59590.34 51803.87l87.3 -37.21c164.77,-272.97 811.54,-635 1231.39,-824.84 692.05,-312.92 872.24,-421.97 1714.04,-306.17 0,-527.12 -103.18,-980.29 -103.18,-1571.36 181.23,121.41 308.22,457.73 393.85,630.34l123.52 218.7c67.25,-258.45 140.78,58.09 677.68,-231.39 209.68,-113.04 526.67,-257.9 616.2,-461.82 210.82,-480.12 222.79,-2455.53 407.08,-2698.86 -53.53,-107.05 -86.07,-262.54 -123.27,-409.79 -9.55,-37.81 -33.69,-153.85 -46.59,-190.26 -82.49,-232.75 12.3,-96.29 -139.42,-205.88 5.63,312.03 -52.3,247.71 -171.2,468.85l-848.82 1440.17c-240.13,404.99 -154.05,95.79 -342.56,445.82 -114.99,213.54 -515.38,667.14 -691.73,866.91 -159.66,180.87 -235.07,201.97 -196.05,297.17 1.29,3.15 12.08,13.44 13.98,15.65 127.29,147.61 43.76,26 69.64,3.3l-217.09 163.18c-95.3,47.22 -129.55,17.11 -254.75,101.6 -7.46,5.03 -18.31,15.58 -24.7,20.77l-188.18 234.3c-176.11,319.11 -66.39,70.97 -523.41,450.12l-2098.53 1292.42 279.15 181.32c154.1,78.11 175.61,97.67 355.65,106.96z"/>
   <path class="fil18" d="M38221.22 28027.18c220.5,0 159.54,30.2 362.88,44.07 167.32,11.41 271.93,0.13 440.96,23.06 287.63,39.01 578.42,27.21 887.66,27.21 92.11,-385.38 11.44,-845.71 95.18,-1244.35 1.68,-8.02 7.58,-21.48 9.2,-29.28l128.52 -1184.78c9.8,-88.23 18.22,-86.86 22,-103.13 43.77,-188.51 61.17,-91.04 3.05,-164l114.36 -10.47c-124.61,-144.21 -355.87,-127.48 -701.91,-207.03l-1419.79 -352.76c-222.46,-62.26 -499.34,-214.04 -715.69,-147.73 -124.36,-23.85 -78.05,-26.55 -137.4,0.23 2.84,122.67 18.99,206.14 29.12,271.79l39.33 175.39c12.51,55.48 7.14,41.75 16.63,85.54l99.8 433.67c19.2,93.4 1.21,9.95 20.56,81.74 39.02,144.69 -3.99,-13.59 22.74,79.11 3.2,11.1 12.65,43.25 15.93,54.64l106.51 534.56c0.53,10.49 -0.55,24.3 0.29,34.75 0.84,10.34 1.05,24.04 2.42,34.32l140.06 469.8c154.47,441.22 200.57,892.17 304.51,1004.4l72.18 59.7c6.93,-9.65 27.69,19.23 40.9,29.55z"/>
   <path class="fil20" d="M38504.3 33640.22c151.05,318.12 1169.73,1893.13 1456.7,2205.31l-218.15 105.95c252.44,-4.28 575.16,-66.91 843.68,-101.69 255.08,-33.03 544.25,-90.85 813.47,-152.43 349.96,-80.05 1211.36,-304.53 1421.58,-453.41 -166.06,-290.02 -597.56,-741.58 -836.01,-1032.46 -292.18,-356.44 -590.79,-699.69 -842.43,-1042.95 -362.68,5.9 -917.35,187.16 -1292.31,263.36 -454.47,92.35 -899.37,131.99 -1346.53,208.32z"/>
   <path class="fil20" d="M28863.17 24772.56l112.81 149.57c499.63,401.06 2301.67,1522.04 2843.71,1642.83 -27.03,-132.4 -109.97,-250.14 -189.21,-388.4 -531.59,-927.57 -912.02,-1703.75 -1357.96,-2714.39 -243.02,-550.75 -462.78,-1095.04 -681.18,-1651.92 -216.63,-552.39 -389.12,-1112.72 -596.22,-1652.81l-89.56 964.7c-44.85,322.65 -3.59,729.22 -145.4,1015.61l28.9 746.16c49.42,721.31 -146.43,490.66 74.11,1888.65z"/>
   <path class="fil20" d="M30957.6 31093.13c139.72,76.56 350,145.68 523,220.03 199.31,85.66 409.08,167.63 634.29,204.48 76.89,-399.75 6.66,-381.72 -108.14,-805.42 -79.05,-291.74 -201.79,-427.1 -232.24,-914.75 -2.23,-35.77 -241.66,-611.42 -316.44,-1207.89l-64.96 -267.15c-51.35,-146.91 -88.79,-357.41 -44.1,-520.92l62.71 -10.41c-103.76,-128.03 7.09,-28.5 -133.5,-111.3l-507.72 -198.39c-606.17,-230.75 -1273.25,-586.46 -1831.06,-869.28 108.15,618.63 653.5,1742.53 914.68,2324.54 168.59,375.65 324.17,718.57 521.08,1077.17 190.49,346.91 441.25,735.65 582.4,1079.29z"/>
   <path class="fil17" d="M63964.13 62648.8c-104.24,246.75 652.04,3670.35 809.96,3931.59 84.08,139.08 -24.37,28.01 118.64,124.89 -90.38,-515.69 127.56,-345.1 176.2,-891.97 30.56,-343.66 83.9,-626.59 22.8,-1027.3 -179.3,-1175.99 -201.98,-841.11 -591.94,-1600.84 210,20.64 296.14,68.84 537.46,86.87 331.77,24.8 241.81,-19.32 526.39,110.95 137.74,-94.93 216.94,-228.05 278.27,-387.62 78.42,45.89 73.51,4.96 134.44,85.08 -13.96,-379.94 -388.76,-1437.52 -534.7,-1829.51l-703.43 -1687.28c-153.51,-32.27 -199.72,-47.26 -296.54,-103.85 -2.47,154.01 -25.12,333.69 17.81,476.98 49.77,166.11 58.46,-103.81 87.71,444.81 11.05,207.19 38.28,191.37 -47.19,392.04 -341.68,802.16 -102.45,837.68 -245.19,1191.37 -154.6,383.06 -304.11,444.74 -290.69,683.79z"/>
   <path class="fil22" d="M37183.02 27932.84c316.72,0 669.17,94.34 1038.2,94.34 -13.21,-10.32 -33.97,-39.2 -40.9,-29.55l-72.18 -59.7c-103.94,-112.23 -150.04,-563.18 -304.51,-1004.4l-140.06 -469.8c-1.37,-10.28 -1.58,-23.98 -2.42,-34.32 -0.84,-10.45 0.24,-24.26 -0.29,-34.75l-106.51 -534.56c-3.28,-11.39 -12.73,-43.54 -15.93,-54.64 -26.73,-92.7 16.28,65.58 -22.74,-79.11 -19.35,-71.79 -1.36,11.66 -20.56,-81.74l-99.8 -433.67c-9.49,-43.79 -4.12,-30.06 -16.63,-85.54l-39.33 -175.39c-10.13,-65.65 -26.28,-149.12 -29.12,-271.79 59.35,-26.78 13.04,-24.08 137.4,-0.23 -131.35,-191.1 -254.57,-142.8 -720.91,-331.17 -236.3,-95.45 -469.43,-196.82 -716.36,-288.39 -402.42,-149.24 -1151.64,-558.99 -1296.92,-599.64 -119.78,-33.51 8.03,-10.15 -103.21,-18.92 0.92,0.51 1042.44,1983.64 1187.19,2234.46 455.91,789.99 876.61,1510.91 1385.59,2258.51z"/>
   <path class="fil30" d="M27666.68 28734.71c-28.22,-488.76 -201.47,-1077.7 -267.29,-1567.32 -77.75,-578.28 -80.62,-1105.78 -129.3,-1687.31l-2564.93 -2452.75c0,554.85 213.21,1296.41 367.21,1739.66 90.37,260.11 195.13,511.22 303.34,760.35 58.97,135.75 99.07,222.45 172.12,361.49 381.55,726.3 520.76,992.32 1045.04,1685.94 204.23,270.19 812.23,1033.15 1073.81,1159.94z"/>
   <path class="fil18" d="M40181.86 31925.5c227.42,28.51 1082.06,-85.48 1238.13,-266.12l-173.87 17.11c-8.04,-9.29 -20.82,-35.34 -24.1,-28.1l-251.13 -626.61c-77.95,-193.29 -49.64,-217.42 -88.58,-348.99 -70.19,-237.1 -145.96,-314.52 -152.61,-500.89 -0.15,-4.27 2.53,-16.97 2.37,-20.96l-181.05 -612.29c-25.55,-174.13 8.89,13.84 -9.26,-91.87 -54.1,-315.12 -67.53,-251.38 -121.04,-392.36 261.29,-35.92 141.1,-45.04 196.22,-83.87 -548.78,0 -2251.02,-80.35 -2653.41,39.61 -33.4,32.62 126.62,215.36 191.83,308.72l1676.41 2284.32c122.26,158.31 173.82,285.67 350.09,322.3z"/>
   <path class="fil20" d="M35383.82 32225.17c365.12,148.49 1781.44,47.17 2270.43,47.17l264.82 -94.1c-167.4,-36.61 -71.47,-60.02 -294.01,-209.86l-356.91 -193.17c-664.51,-382.87 -1867.77,-1317.91 -2446.17,-1819.44l-1693.78 -1692.75c-75.7,-57.07 -417.28,-132.77 -562.44,-141.5 123.59,165.76 212.88,340.13 333.72,531l1374.67 2050.32c131.1,181.62 230.46,337.67 366.05,513.19l567.39 704.07c139.59,163.19 133,96.53 176.23,305.07z"/>
   <path class="fil21" d="M54987.9 63261.75c-289.48,595.04 22.27,1406.74 251.33,1987.36 129.25,327.64 760.75,1664.33 780.45,1880.69l433.97 -1018.26c106.57,-389.61 177.24,-714.74 266.78,-1123.97 79.53,-363.55 463.17,-2087.07 407.17,-2338.77l53.88 -450.73c-273.45,188.65 -624.75,1016.98 -1213.39,1405.36 -202.64,-56.28 -303.38,-122.73 -369.9,-286.25 -31.81,24.78 -235.71,439.12 -538.88,-123.72 53.53,96.92 34.28,9.71 -71.41,68.29z"/>
   <path class="fil5" d="M55173.1 42413.55c-91.98,83.36 -90.69,109.73 -136.53,281.94l-585.25 2199.07c-118.58,433.32 -222.46,818.45 -319.04,1264.86 -91.58,423.38 -242.18,939.97 -279.34,1348.32 664.4,-406.79 1717.52,-2707.34 1992.68,-3413.76 352.04,-903.78 607.96,-1409.32 793.12,-2482.06l-88.1 110.98c-98.14,93.89 -163.75,93.99 -315.55,147.05 -343.52,120.05 -847.68,380.93 -1058.77,645.74l-3.22 -102.14z"/>
   <path class="fil31" d="M63189.06 58484.84c69.22,432.86 47.1,1222.71 -13.31,1664.03 52.09,233.69 146.89,373.82 215.63,571.08l429.5 1586.66c3,15.9 24.49,144.45 30.08,161.12 57.09,170.17 -19.03,85.59 113.17,181.07 -13.42,-239.05 136.09,-300.73 290.69,-683.79 142.74,-353.69 -96.49,-389.21 245.19,-1191.37 85.47,-200.67 58.24,-184.85 47.19,-392.04 -29.25,-548.62 -37.94,-278.7 -87.71,-444.81 -42.93,-143.29 -20.28,-322.97 -17.81,-476.98 96.82,56.59 143.03,71.58 296.54,103.85 -57.19,-288.16 -195.85,-600.55 -288.3,-896.42 -76.32,-244.21 -178.65,-747.94 -279.18,-912.29 -148.66,38.99 -37.66,-5.97 -121.59,112.6l-52.65 92.99c-180.85,289.57 -193.44,120.81 -405.07,290.4 -376.82,301.99 -124.74,72.61 -402.37,233.9z"/>
   <path class="fil32" d="M77619.3 38026.88c795.36,295.71 2769.96,274.32 3714.14,-156.53 306.72,-139.96 669.52,-315.69 841.86,-550.99 -518.54,-110.46 -1038.71,-213.85 -1547.67,-330.18l-1583.69 -377.35c-74.64,122.95 -191.49,302.35 -295.35,405.86 -214.9,214.16 -187.54,11.08 -423.59,269.83 -122.25,133.99 -222.4,258.42 -339.85,398.41 -149.3,177.95 -214.8,200.2 -365.85,340.95z"/>
   <path class="fil13" d="M63037.26 49913.33c13.24,170.17 129.07,477.2 184.2,679.26 66.67,244.39 159.45,486.33 175.44,735.55 210.61,-36.49 88.39,-14.24 183.97,-56.08 250.91,-109.84 714.29,-566.32 966.99,-774.66 205.31,-169.28 2.18,-81.9 222.44,-373.02 77.17,-102 -9.16,32.66 67.3,-86.64 193.17,-301.42 21.68,-256.89 685.81,-558.39 132.18,-110.5 25.44,-56.46 195,-79.36 -97.95,-199.17 -182.45,-481.86 -264.51,-707.04 -83.08,-227.94 -169.29,-464.55 -258.31,-707.2 -165.92,-452.24 -327.29,-975.01 -457.37,-1464.49 -184.29,243.33 -196.26,2218.74 -407.08,2698.86 -89.53,203.92 -406.52,348.78 -616.2,461.82 -536.9,289.48 -610.43,-27.06 -677.68,231.39z"/>
   <path class="fil33" d="M62704.19 61546.45c-79.42,794.16 -301.98,1928.08 -569.87,2634.95 34.19,39.48 39.19,39.03 77.59,113.11 14.84,28.64 36.72,81.74 47.1,112.74 1.68,5 43.81,181.96 55.4,228.93l368.03 1230.3c49.13,95.61 28.94,55.55 64.01,98.98l224.9 -217.12c53.06,-76.21 33.93,-25 66.31,-132.55 47.83,-158.89 43.26,-354 92.89,-529.96 78.84,-279.58 136.7,-143.93 174.75,-455.51 56.78,-464.92 -0.28,-479.8 143.19,-501.17 -4.8,-227.39 -77.61,-504.74 -118.14,-759.14 -79.24,-497.32 -346.16,-1860.54 -346.16,-2285.46l-280 461.9z"/>
   <path class="fil28" d="M54162.47 52231.45c1193.08,23.57 1897.56,-129.02 2972.44,-247.32l191.8 -89.73 -901.51 -973.54 -1437.54 -150.38c-161.45,-40.68 -46.37,10.72 -146.27,-55.29l-678.92 1516.26z"/>
   <path class="fil23" d="M64892.73 66705.28c-76.53,208.77 29.84,182.79 51.84,424.52 161.18,-39.35 73.57,5.84 180,-118.44 63.83,-74.52 88.74,-136.05 130.39,-210.96 317.9,-571.72 360.39,-703.3 546.29,-1387.26 315.62,-1161.23 254.23,-1153.09 175.1,-2332.69 -60.93,-80.12 -56.02,-39.19 -134.44,-85.08 -61.33,159.57 -140.53,292.69 -278.27,387.62 -284.58,-130.27 -194.62,-86.15 -526.39,-110.95 -241.32,-18.03 -327.46,-66.23 -537.46,-86.87 389.96,759.73 412.64,424.85 591.94,1600.84 61.1,400.71 7.76,683.64 -22.8,1027.3 -48.64,546.87 -266.58,376.28 -176.2,891.97z"/>
   <path class="fil0" d="M59677.64 51766.66l1262.19 244.69 767.8 30.3 1070.2 -403.71c-5.32,-180.79 -107.11,-843.34 -154.76,-1002.29 -841.8,-115.8 -1021.99,-6.75 -1714.04,306.17 -419.85,189.84 -1066.62,551.87 -1231.39,824.84z"/>
   <path class="fil22" d="M33631.32 34866.6c9.1,7.36 24.19,6.76 28.59,20.66l623.16 278.47c226.26,92.22 545.15,231.38 791.22,266.89 -206.65,-733.8 -100.11,-374.02 -424.66,-876.86 -165.39,-256.23 -61.38,-255.31 -262.72,-612.69 -113.82,-202.03 -70.43,-206.62 -213.67,-397.19l127.47 -0.23c-124.9,-144.55 -27.28,-81.37 -474.64,-179.18 -321.47,-70.29 -1351.84,-338.26 -1537.33,-333.36 -2.96,6.28 -2.93,11.52 -2.55,20.39l252.43 408.34c128.84,172.23 226.7,293.56 364.34,467.71 208.69,264.04 582.02,684.33 728.36,937.05z"/>
   <path class="fil34" d="M63701.22 17495.35l-161.23 116.52 995.37 790.54c254,242.9 789.97,596.16 908.22,825.65 209.45,48.49 143.57,148.46 83.41,363.89 -39.79,142.47 -89.94,299.32 -129.96,442.31 -16.63,259.8 -112.35,341.77 8.38,590 417.96,148.73 588,-91.2 571.2,-474.21 141.69,-123.21 102.39,-118.09 148.14,-291.54l134.71 -606.67c-4.43,-143.48 -91.21,-146.52 -25.16,-269.38 -225.31,-10.84 -480.72,-267.94 -623.08,-386.4l-1284.68 -1088c-161.85,-141.71 -82.91,-132.12 -295.07,-184.88 -88.39,157.64 -155.97,163.36 -330.25,172.17z"/>
   <path class="fil2" d="M72715.85 38498.57c340.58,355.64 2186.91,896.2 3062.41,896.2 -168.32,-229.83 -1705.48,-1134.52 -2085.64,-1394.87 -286.77,-196.4 -563.68,-460.92 -700.16,-484 -94.97,106.8 -141.21,313.59 -199.51,464.61 -58.11,150.51 -124.34,299.63 -77.1,518.06z"/>
   <path class="fil26" d="M33631.32 34866.6c-146.34,-252.72 -519.67,-673.01 -728.36,-937.05 -137.64,-174.15 -235.5,-295.48 -364.34,-467.71l-252.43 -408.34c-0.38,-8.87 -0.41,-14.11 2.55,-20.39l-69.88 -33.96c-280.46,-106.96 206.02,61.39 -74.67,-28.33 -70.58,-22.55 -96.93,-26.42 -205.13,-48.82 -115.42,-23.89 -293.33,-55.27 -424.14,-83.66 -208.25,-45.19 -599.67,-136.89 -825.44,-141.49l579.25 649.6c314.7,293.43 1125.91,870.37 1494.21,1086.59 170.03,99.82 693.59,396.76 868.38,433.56z"/>
   <path class="fil4" d="M66285.63 60054.54c-68.33,256.82 501.84,920.59 567.74,1179.21 352.63,-215.91 759.08,-1351.57 651.88,-2011.11 -0.73,-4.48 -26.78,-138.39 -32.41,-158.96l-52 -139.97c-272.28,200.73 -391.69,530.02 -722.24,673.97l-154.77 -193.95c-123.2,29.44 -233.95,79.5 -391.83,134.43l133.63 516.38z"/>
   <path class="fil32" d="M65748.06 45337.99c227.17,475.89 968.58,1864.94 1466.43,2169.75 -3.74,-153.66 -497.58,-2436.31 -619.07,-2581.65 -149.58,63.66 -264.55,125 -433.71,199.31 -77.97,34.25 -138.48,53.14 -211.98,88.02l-201.67 124.57z"/>
   <path class="fil20" d="M54841.39 50715.19c99.9,66.01 -15.18,14.61 146.27,55.29l1437.54 150.38c-115.34,-211.23 -317.02,-363.5 -391.87,-585.6 -210.83,-138.55 -57.55,-152.13 -385.5,-319.27 -71.04,-36.21 -188.94,-88.21 -236.88,-116.64 -124.93,-74.11 -172.88,-54.36 -113.86,-174.7 -189,108.68 -137.68,140.17 -272.68,457.93 -61.27,144.19 -180.57,391.8 -183.02,532.61z"/>
   <path class="fil35" d="M61900.82 68797.47c133.53,-148.85 140.25,-345.1 195.4,-557.44 135.32,-521.1 326.71,-1292.81 314.85,-1812.3l-200.74 406.04c-476.8,-14.01 -390.19,-315.23 -619.04,-572.82 0,411.74 95.77,885.65 145.33,1254.83 32.27,240.35 41.82,388.49 75.99,638.04 20.87,152.48 84.4,465.08 88.21,643.65z"/>
   <path class="fil25" d="M63701.22 17495.35c174.28,-8.81 241.86,-14.53 330.25,-172.17 227.57,-520.95 -646.11,-820.91 -1084.14,-601.97 -559.92,279.87 -78.74,852.27 753.89,774.14z"/>
   <path class="fil34" d="M65099.34 21202.19l-238.92 618.68c-217.15,660.8 630.99,814.07 751.57,260.13 45.36,-208.37 131.01,-617.38 56.63,-798.9l9.23 -102.63 -477.11 -105.1 -101.4 127.82z"/>
   <path class="fil36" d="M65045.46 20951.92l64.29 153.93c-24.6,109.5 2.58,-61.41 -10.41,96.34l101.4 -127.82 477.11 105.1 -9.23 102.63c12.59,-8.66 28.91,-38.28 35.04,-28.99 0.22,0.33 379.4,-291.04 438.12,-433.25 45.43,-110.04 82.52,-391.71 -5.28,-531.18 -143.25,-227.58 13.58,-38.95 -159.89,-138.63 16.8,383.01 -153.24,622.94 -571.2,474.21 -120.73,-248.23 -25.01,-330.2 -8.38,-590 -441.99,166.84 -418.88,472.56 -351.57,917.66z"/>
   <path class="fil32" d="M68555.8 43723.72c229.29,358.41 933.15,945.11 1341.32,1142.59l-722.25 -1587.38 -619.07 444.79z"/>
  </g>
  <path class="fil37" d="M26347.16 68296.57c-120.59,-204.99 -235.14,-416.02 -343.66,-633.07 -108.53,-217.06 -204.99,-434.11 -289.41,-651.16 -1555.55,-4105.93 -3105.07,-8169.66 -4648.56,-12203.23 -1543.48,-4027.54 -3093.01,-8091.26 -4648.56,-12197.19 0,-60.29 -6.02,-114.55 -24.11,-162.79 -18.09,-48.24 -30.15,-96.46 -30.15,-144.7 0,-337.64 223.08,-506.46 669.25,-506.46l5824.26 0c458.22,0 771.75,229.12 940.57,687.34l5534.86 16490.03 5118.84 -16490.03c168.81,-458.22 500.43,-687.34 994.83,-687.34l5878.52 0c277.35,0 476.31,48.24 590.88,150.73 114.55,102.5 168.81,241.18 168.81,409.99 0,96.47 -6.02,162.79 -18.09,198.97l0 54.26 -3219.62 9230.79 2423.76 7114.54 5860.44 -16471.94c168.82,-458.22 500.44,-687.34 994.83,-687.34l5697.65 0c277.34,0 476.31,48.24 590.87,150.73 114.55,102.5 168.82,241.18 168.82,409.99 0,96.47 -6.03,162.79 -18.09,198.97l0 54.26c-819.98,2122.3 -1658.05,4244.61 -2514.2,6354.84 -856.15,2110.24 -1712.32,4220.49 -2574.49,6330.72 -862.19,2116.27 -1718.34,4226.51 -2568.47,6348.81 -850.12,2116.27 -1682.16,4232.54 -2490.08,6342.79 -48.24,132.63 -156.77,277.34 -325.58,440.13 -168.82,162.79 -373.82,247.2 -614.99,247.2l-54.26 0 -4377.25 0c-265.29,0 -464.25,-54.26 -602.92,-156.76 -138.67,-102.49 -241.18,-235.15 -301.46,-403.96l-2857.87 -7530.54c-410,1097.32 -813.95,2176.56 -1211.88,3231.67 -397.94,1055.13 -795.87,2134.36 -1193.8,3231.69 -60.29,168.82 -126.61,343.67 -204.99,530.57 -78.39,186.92 -174.85,361.76 -283.38,524.55 -108.52,162.79 -229.11,301.46 -367.78,409.99 -138.68,108.53 -301.47,162.79 -482.34,162.79l-54.27 0 -4377.24 0c-385.87,0 -639.1,-126.61 -759.69,-379.84zm42650.99 -22284.15c156.76,-132.63 325.58,-217.05 500.43,-253.22 174.84,-36.18 337.63,-54.27 494.39,-54.27l2731.26 0c217.05,0 403.95,36.18 560.72,114.55 156.77,78.39 289.4,186.92 397.93,319.56 108.53,132.64 198.97,277.34 265.29,446.17 66.32,168.81 126.62,343.67 186.91,524.54l379.84 1585.69c180.88,-367.78 476.31,-753.65 880.28,-1151.58 403.95,-397.93 904.38,-759.69 1501.28,-1085.27 596.9,-319.55 1284.23,-590.87 2068.03,-801.9 783.8,-211.01 1658.05,-313.51 2622.73,-313.51 1374.67,0 2604.64,265.29 3683.88,795.86 1079.23,524.54 1995.68,1248.06 2749.34,2164.51 753.65,910.41 1326.44,1977.59 1718.34,3201.53 391.9,1223.93 584.84,2526.25 584.84,3912.99l0 11847.49c0,458.22 -96.47,801.89 -295.43,1037.03 -198.97,235.14 -518.52,355.73 -952.63,355.73l-4178.28 0c-518.52,0 -874.23,-90.44 -1067.18,-265.29 -192.94,-174.84 -289.4,-512.48 -289.4,-1018.94l0 -11775.14c0,-518.52 -114.55,-1012.92 -349.69,-1477.18 -235.14,-464.24 -548.67,-874.23 -934.54,-1229.97 -385.87,-355.71 -819.98,-633.07 -1308.35,-838.06 -488.37,-204.99 -988.8,-307.49 -1495.26,-307.49 -434.1,0 -874.24,96.46 -1326.43,289.4 -452.19,192.95 -868.21,458.22 -1248.06,801.89 -379.84,343.67 -699.4,747.64 -958.65,1211.88 -259.27,464.26 -409.99,970.72 -446.17,1513.35l0 11757.06c0,204.99 -36.17,409.99 -114.55,614.98 -78.39,204.99 -198.97,361.76 -355.73,470.28 -156.77,96.47 -301.47,162.79 -440.13,198.97 -138.68,36.18 -301.47,54.26 -482.35,54.26l-4087.84 0c-518.52,0 -892.32,-126.61 -1121.44,-379.84 -229.11,-253.23 -343.67,-590.87 -343.67,-1012.92l0 -20228.16c0,-229.11 54.27,-440.14 156.77,-633.07 102.49,-186.92 241.16,-337.64 422.04,-446.17l-108.52 54.26zm26136.84 0c156.76,-132.63 325.58,-217.05 500.43,-253.22 174.84,-36.18 337.63,-54.27 494.39,-54.27l2731.26 0c217.05,0 403.95,36.18 560.72,114.55 156.77,78.39 289.4,186.92 397.93,319.56 108.53,132.64 198.97,277.34 265.29,446.17 66.32,168.81 126.62,343.67 186.91,524.54l379.84 1585.69c180.88,-367.78 476.31,-753.65 880.28,-1151.58 403.95,-397.93 904.38,-759.69 1501.28,-1085.27 596.9,-319.55 1284.23,-590.87 2068.03,-801.9 783.8,-211.01 1658.05,-313.51 2622.73,-313.51 1374.67,0 2604.64,265.29 3683.88,795.86 1079.23,524.54 1995.68,1248.06 2749.34,2164.51 753.65,910.41 1326.44,1977.59 1718.34,3201.53 391.9,1223.93 584.84,2526.25 584.84,3912.99l0 11847.49c0,458.22 -96.47,801.89 -295.43,1037.03 -198.97,235.14 -518.52,355.73 -952.63,355.73l-4178.28 0c-518.52,0 -874.23,-90.44 -1067.18,-265.29 -192.94,-174.84 -289.4,-512.48 -289.4,-1018.94l0 -11775.14c0,-518.52 -114.55,-1012.92 -349.69,-1477.18 -235.14,-464.24 -548.67,-874.23 -934.54,-1229.97 -385.87,-355.71 -819.98,-633.07 -1308.35,-838.06 -488.37,-204.99 -988.8,-307.49 -1495.26,-307.49 -434.1,0 -874.24,96.46 -1326.43,289.4 -452.19,192.95 -868.21,458.22 -1248.06,801.89 -379.84,343.67 -699.4,747.64 -958.65,1211.88 -259.27,464.26 -409.99,970.72 -446.17,1513.35l0 11757.06c0,204.99 -36.17,409.99 -114.55,614.98 -78.39,204.99 -198.97,361.76 -355.73,470.28 -156.77,96.47 -301.47,162.79 -440.13,198.97 -138.68,36.18 -301.47,54.26 -482.35,54.26l-4087.84 0c-518.52,0 -892.32,-126.61 -1121.44,-379.84 -229.11,-253.23 -343.67,-590.87 -343.67,-1012.92l0 -20228.16c0,-229.11 54.27,-440.14 156.77,-633.07 102.49,-186.92 241.17,-337.64 422.04,-446.17l-108.52 54.26zm44911.95 19914.65c-1061.15,976.74 -2254.95,1736.43 -3581.38,2285.08 -1326.43,548.68 -2731.25,826.02 -4214.45,826.02 -1652.01,0 -3213.6,-301.47 -4684.74,-904.39 -1471.13,-602.92 -2761.4,-1441 -3870.78,-2508.18 -1109.38,-1067.18 -1989.66,-2321.26 -2640.82,-3768.28 -651.16,-1447.02 -976.74,-3020.66 -976.74,-4720.91 0,-1061.16 132.64,-2092.16 391.91,-3086.99 259.25,-994.83 627.03,-1923.33 1103.35,-2791.54 476.31,-868.21 1055.12,-1670.1 1736.43,-2399.65 681.3,-729.54 1440.98,-1350.54 2285.09,-1869.07 844.1,-518.52 1760.53,-922.47 2749.34,-1211.88 988.8,-289.4 2031.85,-434.1 3129.18,-434.1 1000.86,0 1971.57,132.64 2912.14,397.93 940.56,265.29 1826.86,639.09 2652.87,1121.44 826,482.35 1579.67,1061.15 2267,1736.43 687.34,675.27 1278.21,1410.84 1772.6,2212.73 494.4,801.9 880.28,1658.05 1151.6,2568.46 271.31,910.43 403.95,1851 403.95,2815.67 0,627.05 -6.02,1139.53 -24.11,1537.46 -18.09,397.94 -114.57,711.45 -283.38,946.59 -168.81,235.14 -446.17,397.93 -838.06,488.37 -391.91,90.44 -970.72,138.68 -1730.4,138.68l-13023.2 0c120.59,771.75 367.78,1416.87 735.57,1935.39 367.78,518.52 789.82,928.51 1272.17,1236 482.34,307.49 994.83,530.58 1537.46,663.22 542.63,132.64 1055.12,198.97 1537.46,198.97 434.11,0 880.28,-48.24 1338.5,-138.68 458.22,-90.44 904.39,-211.02 1332.47,-361.76 428.07,-150.72 819.97,-325.58 1175.7,-524.54 355.72,-198.97 639.1,-403.96 856.15,-621.01 192.94,-156.77 361.76,-277.34 500.44,-355.73 138.66,-78.38 283.36,-114.55 440.13,-114.55 156.76,0 319.55,54.26 482.34,162.79 162.79,108.52 343.67,265.29 548.66,470.28l1917.31 2170.53c132.63,156.77 217.05,295.43 253.22,422.05 36.18,126.61 54.27,259.26 54.27,391.9 0,241.17 -66.33,446.17 -198.97,621.01 -132.64,174.85 -289.4,331.62 -470.28,464.26zm-8700.22 -15067.12c-470.28,0 -922.48,90.44 -1362.61,277.34 -440.14,186.92 -856.16,440.15 -1242.03,753.66 -385.87,313.52 -729.54,669.25 -1037.03,1067.18 -307.49,397.93 -560.72,801.89 -753.66,1211.88l9242.85 0c-253.23,-470.28 -524.54,-904.39 -819.97,-1302.32 -295.44,-397.93 -633.07,-747.62 -1012.92,-1049.09 -379.84,-301.47 -813.95,-536.61 -1302.32,-705.42 -488.37,-168.82 -1061.15,-253.23 -1712.31,-253.23zm15067.12 -3804.46c0,-229.12 42.2,-428.08 126.61,-596.9 84.42,-168.82 198.97,-307.49 337.65,-416.01 138.66,-108.53 295.43,-192.95 470.28,-247.21 174.84,-54.26 343.67,-78.37 512.48,-78.37l2731.26 0c301.46,0 542.63,90.43 723.51,271.31 180.87,180.88 337.64,409.98 464.25,687.34 126.62,277.34 235.15,584.83 331.61,922.47 96.46,337.63 211.03,663.21 343.67,976.74 361.75,-403.97 723.51,-795.86 1079.24,-1181.74 355.72,-385.87 735.56,-729.54 1145.55,-1031 410,-307.5 862.19,-548.66 1350.56,-735.56 488.37,-186.92 1043.05,-283.38 1670.1,-283.38 651.16,0 1236,48.24 1748.49,144.7 512.48,96.46 994.83,241.16 1453.05,428.08 458.22,186.9 916.45,422.04 1368.65,717.47 452.19,289.41 940.56,627.05 1471.13,1012.92 518.52,301.47 777.77,657.2 777.77,1073.22 0,265.27 -102.5,572.77 -307.49,922.47l-1645.99 2809.63c-325.58,470.29 -729.53,705.43 -1211.88,705.43 -241.16,0 -512.48,-66.33 -813.95,-198.97 -518.52,-506.46 -1043.06,-886.3 -1579.66,-1133.5 -536.61,-247.19 -1151.59,-367.78 -1838.93,-367.78 -470.28,0 -880.27,66.32 -1235.99,198.96 -355.73,132.64 -681.31,319.56 -970.72,560.72 -289.4,241.17 -560.72,530.57 -813.95,868.22 -253.22,337.64 -506.45,711.44 -759.68,1121.44l0 13095.55c0,458.22 -108.53,801.89 -331.61,1037.03 -223.09,235.14 -596.89,355.73 -1115.41,355.73l-4069.75 0c-940.57,0 -1410.85,-464.26 -1410.85,-1392.76l0 -20246.25zm23297.06 14476.25c325.58,325.58 681.31,596.89 1061.15,819.97 379.84,223.09 741.6,403.97 1091.29,542.64 349.7,138.67 657.19,241.18 922.48,301.46 265.29,60.29 446.17,90.44 542.63,90.44 229.12,0 524.55,-12.06 880.28,-30.15 355.72,-18.09 693.36,-72.35 1018.94,-162.79 325.58,-90.44 608.96,-235.14 844.1,-440.13 235.14,-204.99 349.69,-494.39 349.69,-868.21 0,-337.65 -66.32,-608.96 -198.96,-807.93 -132.64,-198.96 -325.58,-367.78 -578.81,-506.46 -253.23,-138.66 -560.72,-259.25 -928.5,-367.78 -367.8,-108.52 -783.82,-235.14 -1242.03,-379.84 -1447.03,-385.87 -2640.82,-850.13 -3581.39,-1392.76 -940.56,-542.63 -1682.16,-1151.59 -2230.82,-1820.84 -548.67,-669.25 -934.54,-1386.72 -1151.59,-2158.47 -217.05,-771.75 -325.58,-1585.7 -325.58,-2441.85 0,-1000.85 198.97,-1911.28 596.9,-2731.25 397.93,-819.98 964.67,-1525.4 1700.25,-2110.25 735.57,-584.83 1615.84,-1037.03 2640.81,-1356.58 1024.98,-319.54 2164.51,-476.31 3418.59,-476.31 759.69,0 1471.14,60.29 2134.36,186.9 663.23,126.62 1296.3,325.58 1899.22,596.9 602.92,271.32 1193.79,621.02 1766.58,1049.09 572.77,428.08 1139.53,940.56 1706.27,1531.44 204.99,241.16 313.52,464.25 319.56,675.27 6.02,211.03 -132.66,440.14 -410,681.31 -470.28,385.87 -916.45,765.71 -1344.52,1139.53 -428.08,373.82 -874.25,789.84 -1332.47,1248.06 -144.7,120.59 -289.4,192.94 -434.1,223.07 -144.71,30.16 -283.38,30.16 -416.02,-6.02 -132.64,-36.18 -259.26,-96.46 -379.85,-180.88 -120.59,-84.41 -229.11,-186.9 -325.58,-307.49 -422.04,-470.28 -904.39,-789.84 -1447.02,-952.63 -542.63,-162.79 -1049.09,-241.16 -1519.37,-241.16 -590.87,0 -1061.16,102.5 -1410.85,307.49 -349.69,204.99 -512.48,518.52 -488.37,940.56 24.11,313.52 144.7,554.7 355.73,729.54 211.02,174.85 470.28,319.55 777.78,428.08 307.49,108.53 633.07,192.94 976.74,259.25 343.66,66.33 657.18,144.71 946.59,229.12 1085.26,349.69 2080.09,729.54 2984.48,1139.53 904.39,410 1688.19,910.41 2351.41,1507.31 663.22,596.9 1181.73,1314.38 1549.52,2146.42 367.78,832.04 548.66,1844.96 548.66,3038.75 0,1193.79 -235.14,2260.97 -711.45,3201.54 -476.32,940.56 -1133.5,1730.4 -1965.54,2369.5 -832.04,639.09 -1814.8,1127.46 -2954.33,1465.11 -1139.53,337.64 -2369.5,506.45 -3683.88,506.45 -747.63,0 -1507.31,-66.32 -2279.06,-198.96 -771.75,-132.64 -1519.38,-349.69 -2242.89,-645.14 -723.51,-295.43 -1410.85,-675.27 -2062.01,-1139.53 -651.16,-464.24 -1229.96,-1024.96 -1736.42,-1688.19 -132.64,-168.81 -229.12,-349.69 -295.43,-536.6 -66.33,-186.91 -96.48,-367.78 -90.44,-548.66 6.02,-180.88 42.2,-349.7 108.53,-500.44 66.31,-150.72 168.81,-277.34 313.51,-385.86l2333.33 -2333.33c289.4,-241.16 548.65,-325.58 771.75,-253.23 223.07,72.35 506.45,277.34 856.15,614.99zm18280.72 -19233.33c0,-337.65 168.81,-506.46 506.45,-506.46l17484.85 0c403.97,0 602.93,168.81 602.93,506.46l0 18.08c0,174.84 -54.26,307.5 -162.79,397.93 -102.5,84.4 -253.23,132.64 -440.14,132.64l-16978.39 0 0 11377.22 13909.5 0c186.91,0 337.63,42.2 458.22,120.59 120.59,84.4 180.88,211.01 180.88,385.86l0 24.12c0,174.85 -60.29,301.46 -180.88,385.88 -120.59,78.37 -271.31,120.57 -458.22,120.57l-13909.5 0 0 12360 17352.21 0c403.95,0 602.92,168.81 602.92,506.45l0 24.12c0,174.85 -48.23,307.49 -156.75,391.9 -108.53,90.44 -253.23,132.64 -446.17,132.64l-17858.67 0c-337.64,0 -506.45,-174.85 -506.45,-524.54l0 -25853.46zm45876.63 25775.08c0,186.9 -42.2,337.63 -132.64,440.13 -84.42,108.53 -217.05,162.79 -391.91,162.79l-18.09 0c-331.6,0 -494.39,-198.96 -494.39,-602.92l0 -6047.36c-614.98,1392.76 -1465.11,2628.77 -2562.44,3708 -1091.29,1085.26 -2333.32,1929.37 -3726.08,2538.33 -1398.79,608.94 -2833.75,910.41 -4316.94,910.41 -2260.98,0 -4316.96,-530.57 -6167.94,-1597.75 -1857.01,-1067.18 -3316.1,-2508.18 -4383.28,-4322.98 -1067.18,-1814.82 -1603.77,-3798.43 -1603.77,-5944.85 0,-2152.45 536.59,-4142.11 1615.84,-5975 1073.2,-1832.9 2526.26,-3291.97 4371.21,-4371.21 1838.92,-1079.25 3840.64,-1621.88 5999.11,-1621.88 1567.61,0 3062.87,301.47 4485.77,904.39 1416.88,602.94 2670.96,1447.02 3756.23,2538.33 1085.27,1085.26 1929.37,2333.32 2532.29,3738.13l0 -13077.46c0,-403.96 162.79,-602.93 494.39,-602.93l18.09 0c174.86,0 307.49,54.27 391.91,162.79 90.44,102.51 132.64,253.23 132.64,440.14l0 28620.9zm-1037.03 -10756.2c0,-1971.57 -482.35,-3798.44 -1447.02,-5474.58 -970.72,-1676.12 -2279.06,-3008.59 -3931.07,-3985.33 -1652.03,-982.77 -3454.77,-1471.14 -5414.29,-1471.14 -1935.39,0 -3744.17,494.4 -5420.29,1477.16 -1676.14,988.81 -3014.64,2315.24 -4009.47,3985.35 -1000.85,1670.1 -1501.28,3496.97 -1501.28,5468.54 0,1959.5 494.39,3768.28 1471.13,5426.33 982.78,1658.05 2315.24,2972.42 4015.49,3943.14 1694.23,976.74 3563.29,1465.11 5613.25,1465.11 1844.95,0 3587.4,-494.4 5221.33,-1471.14 1627.9,-982.78 2942.28,-2303.19 3925.05,-3967.26 988.8,-1664.08 1477.17,-3466.82 1477.17,-5396.18zm24780.26 -11154.14c0,-391.89 174.85,-584.83 524.54,-584.83l24.13 0c325.58,0 488.37,192.94 488.37,584.83l0 21910.34c0,403.96 -162.79,602.92 -488.37,602.92l-24.13 0c-325.58,0 -488.37,-198.96 -488.37,-602.92l-36.17 -3768.3c-578.81,1006.89 -1338.5,1887.17 -2279.06,2646.86 -940.57,759.68 -1965.53,1338.49 -3074.93,1742.45 -1103.35,403.95 -2176.55,602.92 -3219.62,602.92 -1959.51,0 -3708,-482.33 -5239.42,-1440.98 -1531.43,-958.66 -2719.2,-2230.84 -3557.27,-3804.48 -844.1,-1579.66 -1266.14,-3249.76 -1266.14,-5022.36l0 -12866.45c0,-391.89 162.79,-584.83 488.37,-584.83l24.11 0c349.71,0 524.55,192.94 524.55,584.83l0 12866.45c0,1784.65 409.99,3376.38 1223.94,4787.22 819.98,1404.83 1911.28,2496.12 3291.98,3273.89 1374.67,783.81 2857.87,1169.68 4455.62,1169.68 1326.44,0 2664.94,-337.64 4003.43,-1012.91 1338.5,-681.31 2441.85,-1639.97 3316.09,-2875.96 868.22,-1235.99 1308.35,-2652.88 1308.35,-4250.63l0 -13957.74zm23875.86 19215.26c138.68,-114.56 283.38,-168.83 434.11,-168.83 138.68,0 247.21,48.24 325.58,150.74 84.42,102.49 126.62,211.02 126.62,337.63 0,186.92 -84.42,349.71 -247.21,470.28 -2447.87,2013.79 -5094.71,3014.64 -7934.5,3014.64 -2146.42,0 -4142.1,-536.61 -5987.05,-1615.84 -1850.99,-1085.26 -3316.1,-2538.33 -4401.37,-4371.22 -1085.27,-1838.92 -1627.9,-3822.54 -1627.9,-5956.9 0,-2212.75 554.7,-4226.52 1676.14,-6047.36 1115.42,-1820.82 2586.55,-3249.76 4419.44,-4286.8 1826.87,-1037.03 3750.21,-1555.55 5770,-1555.55 1332.48,0 2725.23,265.29 4184.32,801.9 1459.07,536.6 2707.13,1272.17 3750.19,2212.74 150.73,126.61 229.12,271.31 229.12,434.1 0,150.73 -48.24,277.34 -132.65,379.85 -90.44,96.46 -217.06,150.72 -379.85,150.72 -126.61,0 -241.16,-60.29 -355.71,-168.81 -994.83,-922.48 -2122.31,-1609.81 -3382.42,-2074.07 -1266.14,-464.25 -2496.11,-699.39 -3701.97,-699.39 -1911.28,0 -3714.02,470.29 -5408.24,1416.87 -1694.23,940.57 -3056.84,2236.86 -4087.84,3894.9 -1031,1658.05 -1543.49,3509.03 -1543.49,5540.9 0,1959.5 494.4,3774.31 1483.2,5444.42 994.83,1670.1 2333.32,3002.57 4015.49,3985.34 1682.16,988.8 3502.99,1483.2 5462.51,1483.2 1531.42,0 2881.98,-247.21 4051.66,-735.58 1169.67,-494.39 2254.93,-1169.67 3261.82,-2037.88zm26920.64 2676.99c0,416.02 -168.81,621.01 -506.45,621.01l-18.09 0c-337.63,0 -512.48,-204.99 -512.48,-621.01l0 -5993.09c-627.05,1380.71 -1501.29,2610.68 -2616.71,3695.94 -1115.4,1079.23 -2393.61,1917.31 -3822.54,2520.23 -1434.96,602.92 -2930.22,904.39 -4485.77,904.39 -2037.9,0 -3967.25,-536.61 -5794.12,-1609.81 -1826.86,-1073.21 -3298.01,-2520.23 -4407.39,-4341.07 -1115.42,-1820.84 -1670.1,-3792.41 -1670.1,-5914.7 0,-2122.3 554.68,-4105.93 1670.1,-5944.86 1109.38,-1844.95 2580.53,-3304.02 4407.39,-4389.29 1826.87,-1091.31 3756.22,-1633.94 5794.12,-1633.94 1543.48,0 3032.72,307.49 4467.68,916.45 1428.93,608.96 2707.14,1459.09 3828.58,2550.38 1127.47,1097.33 2001.71,2339.35 2628.76,3732.11l0 -6366.9c0,-192.93 42.2,-343.67 126.61,-452.2 78.38,-114.55 211.03,-168.81 385.87,-168.81l18.09 0c337.64,0 506.45,204.99 506.45,621.01l0 21874.16zm-1037.02 -10738.11c0,-1947.46 -524.55,-3762.26 -1573.64,-5438.4 -1049.09,-1676.13 -2417.74,-3008.6 -4105.93,-4003.42 -1688.19,-994.83 -3442.7,-1489.23 -5263.54,-1489.23 -1863.04,0 -3623.58,494.4 -5287.66,1477.16 -1664.07,988.81 -3002.57,2321.28 -4009.46,3997.4 -1012.91,1676.14 -1519.37,3496.98 -1519.37,5456.49 0,1929.36 506.46,3726.08 1519.37,5384.13 1006.89,1658.04 2345.39,2984.48 4009.46,3967.25 1664.08,988.8 3424.62,1483.2 5287.66,1483.2 1947.45,0 3762.26,-494.4 5444.42,-1471.14 1682.16,-982.78 3020.66,-2297.15 4009.46,-3955.2 994.83,-1658.05 1489.23,-3460.79 1489.23,-5408.24zm12818.21 -9689.03c313.51,0 470.28,156.77 470.28,470.28l0 24.13c0,108.53 -48.24,217.05 -132.64,307.49 -90.44,96.47 -205.01,144.7 -337.64,144.7l-4395.33 0 0 16200.62c0,765.72 204.99,1440.99 614.98,2025.83 409.99,584.84 1073.2,874.25 1989.66,874.25l735.57 0c464.24,0 693.36,144.7 693.36,434.11l0 42.2c0,84.41 -36.18,192.94 -102.5,325.58 -66.31,132.63 -229.1,198.96 -482.33,198.96 -729.55,0 -1242.04,-24.11 -1543.5,-72.35 -952.62,-150.73 -1682.17,-572.78 -2182.59,-1266.14 -506.45,-687.34 -753.66,-1519.38 -753.66,-2484.05l0 -16279.01 -3074.92 0c-349.69,0 -524.55,-156.76 -524.55,-476.32 0,-313.51 174.86,-470.28 524.55,-470.28l3074.92 0 0 -6083.52c0,-391.9 162.79,-584.83 488.37,-584.83l18.09 0c349.69,0 524.55,192.93 524.55,584.83l0 6083.52 4395.33 0zm4672.67 -8024.93c0,-253.23 126.61,-373.82 373.82,-373.82l922.47 0c241.17,0 361.76,138.68 361.76,409.99l0 832.04c0,277.34 -120.59,416.02 -361.76,416.02l-904.39 0c-150.72,0 -253.23,-36.18 -307.49,-96.48 -54.26,-60.29 -84.41,-168.81 -84.41,-319.54l0 -868.21zm337.64 6559.82c0,-391.89 174.85,-584.83 530.57,-584.83l18.09 0c337.64,0 506.46,192.94 506.46,584.83l0 21910.34c0,403.96 -168.82,602.92 -506.46,602.92l-18.09 0c-180.88,0 -307.49,-54.26 -397.93,-162.79 -90.44,-102.5 -132.64,-253.23 -132.64,-440.13l0 -21910.34zm6728.65 11039.58c0,-2146.42 524.55,-4136.07 1573.64,-5956.91 1049.09,-1820.83 2472,-3261.83 4268.72,-4322.98 1796.71,-1061.14 3762.25,-1591.73 5896.61,-1591.73 2158.47,0 4166.22,536.61 6017.21,1603.79 1857,1067.18 3328.15,2508.18 4419.44,4322.98 1091.29,1814.8 1639.96,3798.43 1639.96,5944.85 0,2134.36 -548.67,4124.02 -1639.96,5962.93 -1091.29,1838.93 -2562.44,3304.04 -4407.39,4389.31 -1844.96,1085.27 -3846.66,1627.9 -5993.08,1627.9 -2122.3,0 -4087.84,-542.63 -5896.62,-1627.9 -1808.78,-1085.27 -3237.71,-2550.38 -4292.83,-4389.31 -1055.13,-1838.91 -1585.7,-3828.57 -1585.7,-5962.93zm1037.03 0c0,1947.45 482.35,3762.26 1441,5444.43 958.65,1682.16 2260.97,3020.66 3906.96,4015.48 1645.99,988.79 3442.7,1489.23 5390.16,1489.23 2037.89,0 3894.89,-500.44 5577.06,-1489.23 1682.16,-994.82 3008.61,-2327.3 3979.31,-4003.43 964.69,-1682.17 1447.02,-3496.97 1447.02,-5456.48 0,-1959.51 -500.42,-3768.29 -1495.25,-5426.33 -1000.86,-1658.05 -2345.38,-2972.43 -4033.57,-3949.17 -1688.2,-970.7 -3527.12,-1459.07 -5510.75,-1459.07 -1947.45,0 -3738.14,482.33 -5378.09,1453.04 -1639.97,964.68 -2936.26,2279.06 -3894.91,3937.11 -952.62,1658.04 -1428.94,3472.86 -1428.94,5444.42zm28548.56 10888.85c0,391.89 -180.88,584.83 -530.59,584.83l-18.09 0c-325.58,0 -488.37,-192.94 -488.37,-584.83l0 -21910.34c0,-403.96 162.79,-602.92 488.37,-602.92l18.09 0c325.58,0 488.37,198.96 488.37,602.92l42.22 4310.93c560.72,-1079.24 1314.36,-2013.78 2248.9,-2803.61 934.54,-789.83 1947.46,-1392.76 3032.73,-1808.77 1085.26,-416.02 2146.4,-621.03 3177.41,-621.03 1929.36,0 3629.62,464.26 5082.66,1392.76 1459.09,928.52 2574.51,2140.4 3358.31,3635.64 777.77,1495.27 1163.64,3062.88 1163.64,4708.87l0 13095.55c0,391.89 -162.79,584.83 -488.37,584.83l-18.09 0c-349.69,0 -530.57,-192.94 -530.57,-584.83l0 -13095.55c0,-1416.89 -349.69,-2797.59 -1061.15,-4142.11 -711.45,-1344.53 -1718.34,-2441.85 -3026.69,-3291.97 -1302.32,-844.1 -2809.63,-1272.18 -4521.94,-1272.18 -1205.86,0 -2459.94,343.66 -3774.32,1018.95 -1314.37,681.3 -2417.73,1658.04 -3310.07,2942.27 -892.32,1278.21 -1332.45,2779.49 -1332.45,4503.86l0 13336.73z"/>
 </g>
</svg>
