<?xml version="1.0" encoding="UTF-8"?>
<!DOCTYPE svg PUBLIC "-//W3C//DTD SVG 1.1//EN" "http://www.w3.org/Graphics/SVG/1.1/DTD/svg11.dtd">
<!-- Creator: CorelDRAW 2019 (64-Bit) -->
<?xml-stylesheet href="logo.css" type="text/css"?>
<svg xmlns="http://www.w3.org/2000/svg" xml:space="preserve" width="2160mm" height="3840mm" version="1.1" style="shape-rendering:geometricPrecision; text-rendering:geometricPrecision; image-rendering:optimizeQuality; fill-rule:evenodd; clip-rule:evenodd"
viewBox="0 0 216000 384000"
 xmlns:xlink="http://www.w3.org/1999/xlink"
 xmlns:xodm="http://www.corel.com/coreldraw/odm/2003">
 <defs>
     <clipPath id="id0">
      <path d="M98952.81 286710.66c-60.56,-221.5 -118.69,-442.48 -174.39,-662.92 -3369.5,-13336.18 2097.98,-24747.5 2402.12,-39432.98 -3443.3,5847.28 -3272.83,15853.08 -5962.15,22857.16 -804.96,-2066.48 -1609.92,-4132.96 -2414.88,-6199.44 -1093.22,-4128.66 -1229.6,-3538.11 96.03,-7265.44 4502.01,-12659.97 8807.44,-26920.23 9194.97,-40829.71 -436.87,795.59 -873.68,1591.24 -1310.54,2386.83 -2122.7,5296.74 -2989.66,11561.24 -4549.07,17037.46 -1263.9,4438.84 -4198.34,13965.32 -6181.54,17189.77 -4488.46,-7720.68 3714.99,-16706.06 4235.98,-25600.95 -2395.77,4772.42 -4791.59,9544.79 -7187.36,14317.22 -3820.4,-5547.32 -515.96,-7988.24 1726.97,-12987.15 5787.72,-12898.84 10462.52,-27440.58 9996.91,-42275.93 -1433.74,3337.21 -2075,9648.14 -3676.08,13895.76 -1579.48,4190.29 -3541.56,9167.33 -5936.17,11714.93 1569.27,-9691.86 5078.43,-17964.23 5309.35,-29048.38 -556.3,1114.24 -1112.54,2228.53 -1668.84,3342.77 -2348.97,6569.17 -5409.93,14174.81 -10966.94,17865.92 1371.64,-3715.2 3739.24,-6612.9 5340.11,-11446.68 1714.42,-5177.26 2374.91,-9061.13 2528.44,-14756.31 -183.87,178.62 -380.86,413.25 -511.15,578.85 -126.79,160.73 -338.23,376.41 -484.61,573.51 -366.67,561.91 -733.28,1123.82 -1099.95,1685.73 -2887.37,5181.12 -5157.35,9039.42 -10458.49,11588.14 467.78,-1182.53 934.08,-2365.6 1398.9,-3548.97 2756.08,-3525.95 5503.16,-7696.49 5561.92,-14137.44 -1078.61,989.56 -1995.27,2071.83 -2859.79,3177.38 -430.78,-360.42 -9394.39,7089.58 -10397.88,7089.58 -848.95,0 6538.36,-7619.88 5689.41,-7619.88 482.07,-1253.1 851.55,-2713.94 1081.36,-4450.92 -163.74,122.72 -359.31,313.67 -460.74,410.18 -1294.08,1346.91 -2588.21,2693.83 -3882.28,4040.74 -3737.81,0 -7475.57,0 -11213.38,0 4354.67,-2051.92 8180.2,-4861.1 9990.4,-8759.75 -7587.43,3326.68 -11684.12,8515.22 -23360.73,9081.47 -7814.38,378.94 -15495.2,-2869.01 -20101.23,-6969.14 -162.16,-144.32 -320.45,-289.74 -474.88,-436.07 -819.25,-776.43 -1527.65,-1579.11 -2105.97,-2390.21 8631.36,1595.25 12133.85,4310.36 23174.43,2545.85 5191.98,-829.84 16155.63,-4175.46 18825.47,-8185.39 -12919.43,1981.09 -24141.75,7687.75 -38954.39,1852.87 -8894.48,-3503.5 -18160.6,-13090.7 -19436.25,-25112.69 5886.24,6968.77 11122.16,12083.82 22109.64,15408.01 9040.22,2734.8 23813.57,3685.19 32361.45,279.95 -9086.6,-237.39 -16861.59,-309.07 -23847.25,-1560.32 -7127.06,-1276.6 -13432.69,-3781 -19471.35,-8941.96 -9591.54,-8197.73 -13751.81,-24838.03 -9724.58,-42665.79 1896.59,1863.67 2273.05,6540.69 3032.54,9116.51 3792.39,12863.27 11631.12,23044.88 22174.7,29304.88 1969.54,1169.41 4033.58,2201.96 6183.13,3089.56 5342.54,2205.97 11214.06,3516.94 17480.41,3808.59 -1026.41,-582.93 -2052.77,-1165.91 -3079.18,-1748.84 -22679.32,-8298.21 -39014.21,-22038.8 -33791.64,-51910.41 592.14,-3386.65 2016.88,-8826.87 3856.4,-13379.64 67.08,-166.08 134.73,-330.99 202.92,-494.57 1486.46,-3566.02 3225.66,-6502.95 5007.27,-7331.62 -3441.98,43298.26 19331.43,59253.36 30810.93,66757.51 4788.57,1480.64 7674.68,2813.84 9534.74,4245.24 2854.07,2196.45 3292.37,4624.3 4480.94,8171.36 2014.12,6010.92 6475.14,10523.94 13150.94,11826.85 10325.24,2015.08 11870.47,-3880.53 11874.86,-13196.63 5.03,-10070.49 -1321.81,-15511.77 -10705.94,-10663.43 660.54,-3737.06 1657.99,-5028.07 4954.01,-6131.4 5906.1,-1977.17 1919.2,-1040.44 5619.95,-4829.82 6129.45,-876.43 10333.67,1707.81 13643.93,-2946.08 52.94,813.01 105.83,1625.96 158.77,2438.97 13.76,-114.14 94.92,344.85 184.44,494.73 3579.25,-943.09 6214.79,-3031.48 6977.56,-6790.84 1545.43,12013.41 -8998.61,9678.84 -9981.4,16727.29 -432.52,3102.57 -154.59,10580.63 -107.74,14061.36 65.7,4872.21 436.92,7701.94 3514.62,9724.74 6898.09,4533.56 15849.26,-1513.31 18673.85,-5200.66 5895.82,-7695.75 387.58,-10760.79 11258.96,-15352.58 22214.77,-9382.59 40981.27,-34467.43 36406.68,-69328.67 1799.29,823.7 3554.16,3811.55 5051.79,7442.9 68.46,166.07 136.43,333.47 203.83,502.08 1902.04,4759.14 3359.02,10475.07 3913.25,13877.66 4176.58,25638.76 -9922.05,43400.28 -31656.82,50604.37 -1607.96,689.13 -3215.97,1378.31 -4823.93,2067.43 -45.05,-83.22 -135.16,-17.94 -232.94,83.44 -22.87,23.71 -46.27,49.5 -69.51,75.75 -69.35,78.25 -138.28,161.53 -194.08,211.5 12808.15,-645.29 25768.35,-7048.49 32602.65,-14244.37 12262.65,-12911.44 10324.4,-16012.06 15529.19,-31858.68 6141.36,9101.26 1534.32,32963.97 -7731.43,42289.11 -279,280.75 -562.23,548.41 -849.48,802.05 -11716.79,10344.46 -25244.83,10399.84 -43720.2,10851.32 8359.24,3352.93 23467.45,2398.09 32356.05,-278.42 11017.55,-3317.78 16192.85,-8448.29 22112.97,-15410.65 -2369.93,22404.83 -24107.03,29663.45 -42414.21,26861.78 -3243.56,-496.26 -16207.52,-3940.14 -16881.82,-3622.24 5661.98,3896.42 11565.96,6756.58 19109.71,8101.48 11204.53,1997.45 14918.04,-826.56 23793.46,-2436.11 -547.14,761.39 -1211.17,1518.18 -1976.06,2253.95 -153.89,148.07 -311.92,295.3 -473.81,441.57 -4452.88,4022.26 -11882.49,7304.89 -19473.36,7127.48 -4861.37,-113.71 -9358.77,-1425.68 -13200.71,-3084.94 -4011.56,-1732.32 -7126.26,-4388.29 -10396.61,-5508.41 3968.05,8033.46 14905.97,10781.07 23172.95,12574.95 -5475.42,5477.33 -18527.63,1339.82 -23859.8,-3200.14 -1801.56,-1863.93 -3603.18,-3727.91 -5404.74,-5591.84 1286.93,9569.73 6716.98,10738.02 11945.59,14974.21 -4268.59,-238.23 -8156.33,-2168.54 -11157.89,-4500.25 -3968.9,-3083.15 -4187.49,-5753.89 -7266.03,-8661.12 69.83,8327.59 4688.67,12929.44 7970.93,17194.48 -382.02,31.19 -776.32,89.42 -1188.67,174.76 -123.04,25.47 -245.22,57.34 -366.51,95.61 -8681.18,-4138.09 -6900.74,-9237.32 -12011.19,-14206.84 359.52,14829.85 4008.39,15800.3 7870.61,26207.65 -2946.72,-1964.57 -5377.32,-5311.51 -7486.63,-9184.53 -1718.13,-4009.61 -3436.26,-8019.22 -5154.39,-12028.82 238.02,11002.46 3640.35,19356.1 5313.58,29045.95 -6122.56,-6510.04 -6433.59,-18187.38 -9614.36,-25606.09 -480.64,15042.88 4214.01,29744.66 10232.6,42800.68 3686.03,4963.38 6616.08,7220.97 1226.26,12601.74 -2390.68,-4998.17 -4781.21,-10092.05 -7171.84,-14320.14 494.62,4006.59 2491.85,9601.82 3911.77,13164.66 1917.29,4810.38 3579.67,7155.75 571.6,12299.92 -4382.36,-7193.28 -6859.82,-18947.5 -8983.74,-27401.51 -754.82,-3004.32 -1210.16,-6785.54 -3051.96,-9213.44 242.62,8671.01 3116.18,20715.98 5199.55,28531.79 1920.2,7204.72 5915.03,12816.46 3910.76,20147.08 -228.65,836.25 -594.84,2272.73 -866.95,3011.41 -351.95,712.26 -703.85,1424.47 -1055.79,2136.73 -41.88,-112.6 -199.17,317.91 -316.91,461.8 -2696.2,-7014.45 -2527.59,-16960.17 -5957.92,-22849.37 191.17,10027.61 5386.54,27558.9 3039,35943.4 -217.53,777.06 -433.8,1613.74 -658.21,2472.27 -135,516.65 -272.91,1041.23 -415.74,1565.66 -603.84,2217.15 -1295.88,4430.96 -2229.22,6023.46 -1283.28,-10692.12 -2566.61,-21384.24 -3849.88,-32076.36 -1575.14,9158.96 -447.83,38338.48 -2152.62,50560.9 -0.21,1.48 -0.42,2.91 -0.63,4.4 -2.07,14.77 -4.18,29.59 -6.25,44.36 -632.74,-15978.97 -1265.54,-31957.94 -1898.29,-47936.91 -1438.76,9792.08 -2877.52,19584.16 -4316.29,29376.24 -73,-157.12 -144.63,-313.93 -214.88,-470.27 -75.07,-167.18 -148.66,-334 -220.66,-500.39 -723.85,-1672.92 -1293.49,-3307.99 -1732.79,-4914.2z"/>
     </clipPath>
 </defs>
 <g id="Layer_x0020_1">
  <metadata id="CorelCorpID_0Corel-Layer"/>
  <g id="_2582368705088">
   <g>
    <g style="clip-path:url(#id0)">
     <image x="9532.37" y="70758.8" width="196247.96" height="240439.37" xlink:href="logo_Images\logo_ImgID1.png"/>
    </g>
   </g>
   <path class="fil0" d="M122667.4 125878.42c-254.35,-68.27 -564.29,-450 -779.17,-636.5 -241.84,-210.09 -435.39,-402.47 -691.25,-639.94 -453.78,-421.03 -922.42,-846.26 -1388.88,-1276.19l-2105.48 -1937.38c-246.04,-234.03 -542.46,-583.68 -740.46,-557.57 81.96,-250.98 279.79,-436.14 -63.06,-978.76 -566.81,-897.06 -1961.48,-1181.72 -2833.01,-828.21 -703.6,285.5 -961.3,1039.65 -452.86,1662.54 408.94,500.89 1173.91,792.61 1915.38,829.72 -4.29,106.9 -1.01,80.53 111.68,184.65 639.44,591.07 4984.51,4517.39 5061.35,4708.67 -284.41,42.91 -694.11,186.17 -998.08,261.24 -1599.56,394.74 -3447.51,944.59 -5107.7,1374.01 -742.64,192.13 -1683.7,44.09 -2317.43,-537.33 -1817.64,-1667.58 -3791.37,-3285.19 -5570.63,-4919.77l-830.81 -711.07 -967.85 4222.99c-104.88,-259.81 349.23,-1857.94 411.46,-2123.38 158.45,-676.3 401.88,-1512.73 501.64,-2180.81l-3106.09 -2732.75c-519.27,-459.65 -2145.54,-1539.44 -718.62,-1979.11 1093.13,-336.8 2880.96,-782.35 4019.18,-1082.97 3184.85,-841.22 6224.52,-1699.82 9369.9,-2515.6 1827.21,-473.93 2443.64,439.59 3849.48,1676.9l8331.94 7347.04c560.33,493.24 2070.22,1480.15 471.91,1924.78 -1725.01,479.89 -3706.31,947.27 -5372.54,1444.8z"/>
   <path class="fil1" d="M120701.64 126409.45c153.41,43.92 340.58,247.8 474.01,389.04l-518.35 2148.57c-419.1,63.14 -880.27,541.19 -1019.32,1064.58 -355.37,1338.41 133.01,1240.42 47.11,1649.69 -449.5,139.98 -662.28,410.7 -1856.18,719.8 -639.69,165.59 -1398.71,274.08 -2164.52,295.5 -3013.21,84.47 -6731.03,-944.17 -8968.94,-3011.12 -524.48,-484.43 -991.19,-1011.26 -1288.62,-1547.58 -184.06,-331.86 -706.7,-1457.74 -497.69,-2018.41l967.85 -4222.99 830.81 711.07c1779.26,1634.58 3752.99,3252.19 5570.63,4919.77 633.73,581.42 1574.79,729.46 2317.43,537.33 1660.19,-429.42 3508.14,-979.27 5107.7,-1374.01 303.97,-75.07 713.67,-218.33 998.08,-261.24z"/>
   <path class="fil2" d="M122667.4 125878.42c-6.05,164.16 27.04,89.35 115.71,221.43 44.08,65.67 79.94,166.35 98.67,253.26 -63.24,620.04 -705.11,3552.05 -842.65,4012.47 -184.82,618.53 -991.53,703.34 -1371.84,287.85 -564.28,-616.6 117.81,-1327.83 -9.99,-1706.37l518.35 -2148.57c-133.43,-141.24 -320.6,-345.12 -474.01,-389.04 -76.84,-191.28 -4421.91,-4117.6 -5061.35,-4708.67 -112.69,-104.12 -115.97,-77.75 -111.68,-184.65 480.31,64.07 1324.05,-258.55 1433.55,-685.29 198,-26.11 494.42,323.54 740.46,557.57l2105.48 1937.38c466.46,429.93 935.1,855.16 1388.88,1276.19 255.86,237.47 449.41,429.85 691.25,639.94 214.88,186.5 524.82,568.23 779.17,636.5z"/>
   <path class="fil1" d="M116962.16 120830.84c-109.5,426.74 -953.24,749.36 -1433.55,685.29 -741.47,-37.11 -1506.44,-328.83 -1915.38,-829.72 -508.44,-622.89 -250.74,-1377.04 452.86,-1662.54 871.53,-353.51 2266.2,-68.85 2833.01,828.21 342.85,542.62 145.02,727.78 63.06,978.76z"/>
   <path class="fil2" d="M121437.56 133312.62c-180.2,519.7 -139.23,1377.46 -297.43,1949.47 -259.05,936.44 -1588.31,973.48 -1990.61,89.01 -322.62,-709.55 574.86,-2173 633.98,-2783.05 100.68,-71.96 118.57,-158.54 166.01,-292.22 85.4,-240.41 93.04,-310.1 284.33,-218.32 58.52,28.04 111.84,74.98 135.19,90.18 455.54,296 1069.96,145.27 1118.66,152.49 70.12,326.73 -167.69,776.9 -50.13,1012.44z"/>
   <path class="fil3" d="M121437.56 133312.62c-117.56,-235.54 120.25,-685.71 50.13,-1012.44 -48.7,-7.22 -663.12,143.51 -1118.66,-152.49 -23.35,-15.2 -76.67,-62.14 -135.19,-90.18 -191.29,-91.78 -198.93,-22.09 -284.33,218.32 -47.44,133.68 -65.33,220.26 -166.01,292.22l182.05 -647.42c-33.93,-58.52 -56.26,-102.52 -100.52,-153.33 -105.71,-121.33 -39.55,-84.05 -179.94,-105.97 85.9,-409.27 -402.48,-311.28 -47.11,-1649.69 139.05,-523.39 600.22,-1001.44 1019.32,-1064.58 127.8,378.54 -554.29,1089.77 9.99,1706.37 380.31,415.49 1187.02,330.68 1371.84,-287.85 137.54,-460.42 779.41,-3392.43 842.65,-4012.47 76.91,80.02 48.7,-40.73 83.04,149.72 33.67,186.75 -488.04,2235.56 -557.9,2544.32 -95.9,424.22 80.95,412.46 211.77,671.77 213.71,423.29 207.5,962.05 -6.21,1584.7 -85.99,250.65 -240.24,458.98 -409.61,616.09 -225.71,209.34 -364.35,229.91 -591.07,386.52l-174.24 1006.39z"/>
  </g>
 </g>
</svg>
