<?xml version="1.0" encoding="UTF-8"?>
<!DOCTYPE svg PUBLIC "-//W3C//DTD SVG 1.1//EN" "http://www.w3.org/Graphics/SVG/1.1/DTD/svg11.dtd">
<!-- Creator: CorelDRAW 2019 (64-Bit) -->
<svg xmlns="http://www.w3.org/2000/svg" xml:space="preserve" width="2560mm" height="600mm" version="1.1" style="shape-rendering:geometricPrecision; text-rendering:geometricPrecision; image-rendering:optimizeQuality; fill-rule:evenodd; clip-rule:evenodd"
viewBox="0 0 256000 60000"
 xmlns:xlink="http://www.w3.org/1999/xlink"
 xmlns:xodm="http://www.corel.com/coreldraw/odm/2003">
 <defs>
  <style type="text/css">
   <![CDATA[
    .fil0 {fill:black;fill-rule:nonzero}
   ]]>
  </style>
     <clipPath id="id0">
      <path d="M30792.16 47306.5c-636.47,-2519.09 396.29,-4674.59 453.74,-7448.55 -650.41,1104.5 -618.21,2994.51 -1126.2,4317.52 -152.06,-390.35 -304.08,-780.66 -456.15,-1171.02 -206.5,-779.87 -232.26,-668.32 18.14,-1372.38 850.39,-2391.36 1663.65,-5085 1736.85,-7712.38 -82.53,150.28 -165.02,300.57 -247.55,450.85 -400.96,1000.51 -564.72,2183.82 -859.28,3218.23 -238.74,838.46 -793.03,2637.93 -1167.64,3247 -847.83,-1458.37 701.73,-3155.63 800.14,-4835.8 -452.55,901.46 -905.07,1802.93 -1357.63,2704.4 -721.64,-1047.84 -97.46,-1508.91 326.21,-2453.16 1093.25,-2436.48 1976.28,-5183.29 1888.33,-7985.56 -270.82,630.37 -391.95,1822.45 -694.38,2624.79 -298.35,791.51 -668.97,1731.63 -1121.29,2212.85 296.42,-1830.71 959.27,-3393.29 1002.89,-5486.99 -105.09,210.46 -210.14,420.96 -315.23,631.42 -443.7,1240.86 -1021.89,2677.5 -2071.56,3374.72 259.09,-701.77 706.31,-1249.12 1008.7,-2162.18 323.84,-977.94 448.6,-1711.57 477.6,-2787.34 -34.73,33.74 -71.94,78.06 -96.55,109.34 -23.95,30.36 -63.89,71.1 -91.54,108.33 -69.26,106.13 -138.52,212.3 -207.77,318.42 -609.44,1093.58 -1073.26,1875.16 -2353.02,2348.25 611.3,-888.67 1676.38,-1751.4 1692.34,-3500.16 -1038.96,953.21 -1282.61,2361.83 -3479.92,2485.6 983.37,-796.13 2016.33,-1025.48 2254.6,-2826.33 -30.93,23.18 -67.87,59.25 -87.03,77.48 -311.99,324.75 -624.02,649.47 -936.01,974.23 -963.7,867.86 -3544.55,1572.21 -4503.99,607.73 1482.31,-321.21 3775.99,-966.43 4475.66,-2473.34 -1433.2,628.38 -2207.03,1608.45 -4412.64,1715.41 -1528.03,74.1 -3029.03,-585.97 -3886.65,-1398.78 -154.75,-146.66 -288.56,-298.28 -397.8,-451.49 1630.39,301.33 2291.98,814.19 4377.45,480.89 980.72,-156.75 3051.66,-788.71 3555.97,-1546.15 -2440.37,374.21 -4560.17,1452.15 -7358.15,349.99 -1680.09,-661.78 -3430.38,-2472.72 -3671.34,-4743.57 1111.86,1316.34 2100.88,2282.53 4176.32,2910.44 1707.62,516.58 4498.18,696.1 6112.8,52.88 -3467.51,-90.58 -5923.84,-53.42 -8182.51,-1983.79 -1811.76,-1548.48 -2597.6,-4691.69 -1836.89,-8059.2 358.25,352.03 429.36,1235.48 572.82,1722.03 1182.73,4011.7 4449.03,6642.54 8658.45,6838.44 -193.86,-110.13 -387.76,-220.21 -581.63,-330.34 -4283.93,-1567.46 -7369.45,-4162.94 -6382.95,-9805.43 111.85,-639.71 380.97,-1667.32 728.44,-2527.3 288.99,-715.28 632.19,-1314.59 984.16,-1478.3 -830.8,6249.47 2329.71,10714.56 6009.18,12700.31 1598.9,862.85 1777.55,223.85 2458.18,2255 380.45,1135.41 1223.1,1987.88 2484.1,2233.99 1950.35,380.63 2242.23,-733 2243.06,-2492.73 0.95,-1902.23 -249.68,-2930.04 -2022.26,-2014.23 124.77,-705.9 313.18,-949.76 935.77,-1158.17 1115.61,-373.47 362.52,-196.53 1061.56,-912.31 1157.8,-165.55 1951.94,322.59 2577.22,-556.49 10,153.58 19.99,307.12 29.99,460.7 2.6,-21.56 17.93,65.14 34.84,93.45 676.09,-178.14 1173.92,-572.62 1318,-1282.73 291.92,2269.23 -1699.76,1828.25 -1885.4,3159.64 -81.7,586.05 -29.2,1998.59 -20.35,2656.07 12.41,920.32 82.53,1454.83 663.88,1836.92 1302.99,856.35 2993.79,-285.85 3527.33,-982.36 1113.67,-1453.66 73.21,-2032.62 2126.72,-2899.97 4196.18,-1772.29 7741.01,-6510.6 6876.91,-13095.59 355.41,162.71 701.65,772.45 992.74,1500.74 359.28,898.96 634.49,1978.65 739.18,2621.37 788.92,4842.94 -1874.19,8197.94 -5979.7,9558.73 -303.73,130.19 -607.47,260.33 -911.2,390.52 -16.43,-30.36 -64.59,43.87 -93.79,70.02 2419.35,-121.89 4867.42,-1331.4 6158.36,-2690.64 2316.31,-2438.86 1950.19,-3024.54 2933.33,-6017.83 1194.98,1770.91 235.58,6500.58 -1620.86,8139.55 -2213.2,1953.98 -4768.53,1964.44 -8258.37,2049.72 1578.99,633.34 4432.8,452.98 6111.78,-52.59 2081.12,-626.7 3058.69,-1595.81 4176.95,-2910.94 -447.66,4232.08 -4553.61,5603.17 -8011.68,5073.96 -612.68,-93.74 -3061.46,-744.26 -3188.83,-684.21 1069.5,736 2184.71,1276.26 3609.66,1530.3 2116.44,377.3 2817.89,-156.13 4494.38,-460.16 -103.35,143.82 -228.78,286.77 -373.26,425.75 -828.59,797.22 -2281.86,1464.46 -3767.85,1429.73 -918.27,-21.48 -1767.79,-269.3 -2493.5,-582.72 -757.75,-327.22 -1346.09,-828.91 -1963.83,-1040.49 749.53,1517.45 2815.61,2036.45 4377.17,2375.3 -1034.26,1034.62 -3499.71,253.08 -4506.91,-604.48 -340.32,-352.07 -680.59,-704.18 -1020.91,-1056.25 243.09,1807.64 1268.78,2028.32 2256.42,2828.5 -806.3,-45 -1540.66,-409.62 -2107.63,-850.06 -749.69,-582.38 -790.98,-1086.86 -1372.49,-1636.01 14.58,1738.22 1078.39,2617.09 1691.35,3500.37 -2188.31,-813.85 -1698.26,-1863.9 -2748.28,-2884.96 67.91,2801.23 757.15,2984.54 1486.69,4950.4 -556.61,-371.09 -1015.73,-1003.3 -1414.16,-1734.88 -324.55,-757.4 -649.06,-1514.75 -973.62,-2272.14 44.96,2078.27 687.63,3656.2 1003.69,5486.53 -1156.5,-1229.69 -1215.25,-3435.44 -1816.07,-4836.77 -90.79,2841.47 795.99,5618.51 1932.85,8084.68 411.9,893.51 991.08,1323.93 231.63,2380.36 -451.57,-901.64 -903.14,-1803.31 -1354.7,-2704.95 93.43,756.81 470.69,1813.7 738.9,2486.69 362.16,908.64 676.17,1351.66 107.97,2323.35 -827.79,-1358.75 -1295.76,-3579.02 -1696.95,-5175.91 -142.58,-567.49 -228.59,-1281.73 -576.49,-1740.34 45.83,1637.88 588.62,3913.07 982.15,5389.41 362.71,1360.91 1117.3,2420.92 738.71,3805.61 -43.19,157.96 -112.36,429.3 -163.76,568.83 -66.49,134.52 -132.94,269.08 -199.43,403.61 -7.91,-21.27 -37.62,60.05 -59.86,87.23 -509.29,-1324.97 -477.44,-3203.63 -1125.4,-4316.05 36.11,1894.13 1017.47,5205.64 574.04,6789.4 -41.09,146.78 -81.94,304.82 -124.33,466.99 -133.3,510.16 -281.61,1061.56 -499.61,1433.52 -242.42,-2019.65 -484.79,-4039.3 -727.21,-6058.95 -297.53,1730.05 -84.59,7241.81 -406.61,9550.52 -0.43,3.08 -0.87,6.17 -1.3,9.21 -119.51,-3018.27 -239.06,-6036.59 -358.57,-9054.87 -271.77,1849.64 -543.54,3699.28 -815.31,5548.92 -197.1,-424.17 -341.03,-835.12 -442.52,-1236.82z"/>
     </clipPath>
 </defs>
 <g id="Layer_x0020_1">
  <metadata id="CorelCorpID_0Corel-Layer"/>
  <g id="_1882110740272">
   <path class="fil0" d="M7791.5 45162.61c-84.67,-143.93 -165.1,-292.1 -241.3,-444.5 -76.2,-152.4 -143.93,-304.8 -203.2,-457.2 -1092.2,-2882.9 -2180.17,-5736.17 -3263.9,-8568.27 -1083.73,-2827.86 -2171.7,-5681.13 -3263.9,-8564.03 0,-42.33 -4.23,-80.43 -16.93,-114.3 -12.7,-33.87 -21.17,-67.73 -21.17,-101.6 0,-237.07 156.63,-355.6 469.9,-355.6l4089.4 0c321.73,0 541.87,160.87 660.4,482.6l3886.2 11578.17 3594.1 -11578.17c118.53,-321.73 351.37,-482.6 698.5,-482.6l4127.5 0c194.73,0 334.43,33.87 414.87,105.83 80.43,71.97 118.53,169.34 118.53,287.87 0,67.73 -4.23,114.3 -12.7,139.7l0 38.1 -2260.6 6481.23 1701.8 4995.34 4114.8 -11565.47c118.53,-321.73 351.37,-482.6 698.5,-482.6l4000.5 0c194.73,0 334.43,33.87 414.87,105.83 80.43,71.97 118.53,169.34 118.53,287.87 0,67.73 -4.23,114.3 -12.7,139.7l0 38.1c-575.73,1490.13 -1164.17,2980.27 -1765.3,4461.93 -601.13,1481.67 -1202.27,2963.34 -1807.63,4445 -605.37,1485.9 -1206.5,2967.57 -1803.4,4457.7 -596.9,1485.9 -1181.1,2971.8 -1748.37,4453.47 -33.87,93.13 -110.07,194.73 -228.6,309.03 -118.53,114.3 -262.47,173.57 -431.8,173.57l-38.1 0 -3073.4 0c-186.27,0 -325.97,-38.1 -423.33,-110.07 -97.37,-71.96 -169.34,-165.1 -211.67,-283.63l-2006.6 -5287.43c-287.87,770.46 -571.5,1528.23 -850.9,2269.06 -279.4,740.84 -558.8,1498.6 -838.2,2269.07 -42.33,118.53 -88.9,241.3 -143.93,372.53 -55.04,131.24 -122.77,254 -198.97,368.3 -76.2,114.3 -160.87,211.67 -258.23,287.87 -97.37,76.2 -211.67,114.3 -338.67,114.3l-38.1 0 -3073.4 0c-270.93,0 -448.73,-88.9 -533.4,-266.7zm29946.6 -15646.4c110.07,-93.13 228.6,-152.4 351.37,-177.8 122.76,-25.4 237.06,-38.1 347.13,-38.1l1917.7 0c152.4,0 283.63,25.4 393.7,80.43 110.07,55.04 203.2,131.24 279.4,224.37 76.2,93.13 139.7,194.73 186.27,313.27 46.56,118.53 88.9,241.3 131.23,368.3l266.7 1113.36c127,-258.23 334.43,-529.16 618.07,-808.56 283.63,-279.4 635,-533.4 1054.1,-762 419.1,-224.37 901.7,-414.87 1452.03,-563.04 550.33,-148.16 1164.17,-220.13 1841.5,-220.13 965.2,0 1828.8,186.27 2586.57,558.8 757.76,368.3 1401.23,876.3 1930.4,1519.77 529.16,639.23 931.33,1388.53 1206.5,2247.9 275.16,859.36 410.63,1773.76 410.63,2747.43l0 8318.5c0,321.73 -67.73,563.03 -207.43,728.13 -139.7,165.1 -364.07,249.77 -668.87,249.77l-2933.7 0c-364.07,0 -613.83,-63.5 -749.3,-186.27 -135.47,-122.76 -203.2,-359.83 -203.2,-715.43l0 -8267.7c0,-364.07 -80.43,-711.2 -245.53,-1037.17 -165.1,-325.96 -385.24,-613.83 -656.17,-863.6 -270.93,-249.76 -575.73,-444.5 -918.63,-588.43 -342.9,-143.93 -694.27,-215.9 -1049.87,-215.9 -304.8,0 -613.83,67.73 -931.33,203.2 -317.5,135.47 -609.6,321.73 -876.3,563.03 -266.7,241.3 -491.07,524.94 -673.1,850.9 -182.04,325.97 -287.87,681.57 -313.27,1062.57l0 8255c0,143.93 -25.4,287.87 -80.43,431.8 -55.04,143.93 -139.7,254 -249.77,330.2 -110.07,67.73 -211.67,114.3 -309.03,139.7 -97.37,25.4 -211.67,38.1 -338.67,38.1l-2870.2 0c-364.07,0 -626.53,-88.9 -787.4,-266.7 -160.87,-177.8 -241.3,-414.87 -241.3,-711.2l0 -14202.83c0,-160.87 38.1,-309.04 110.07,-444.5 71.96,-131.24 169.33,-237.07 296.33,-313.27l-76.2 38.1zm18351.5 0c110.07,-93.13 228.6,-152.4 351.37,-177.8 122.76,-25.4 237.06,-38.1 347.13,-38.1l1917.7 0c152.4,0 283.63,25.4 393.7,80.43 110.07,55.04 203.2,131.24 279.4,224.37 76.2,93.13 139.7,194.73 186.27,313.27 46.56,118.53 88.9,241.3 131.23,368.3l266.7 1113.36c127,-258.23 334.43,-529.16 618.07,-808.56 283.63,-279.4 635,-533.4 1054.1,-762 419.1,-224.37 901.7,-414.87 1452.03,-563.04 550.33,-148.16 1164.17,-220.13 1841.5,-220.13 965.2,0 1828.8,186.27 2586.57,558.8 757.76,368.3 1401.23,876.3 1930.4,1519.77 529.16,639.23 931.33,1388.53 1206.5,2247.9 275.16,859.36 410.63,1773.76 410.63,2747.43l0 8318.5c0,321.73 -67.73,563.03 -207.43,728.13 -139.7,165.1 -364.07,249.77 -668.87,249.77l-2933.7 0c-364.07,0 -613.83,-63.5 -749.3,-186.27 -135.47,-122.76 -203.2,-359.83 -203.2,-715.43l0 -8267.7c0,-364.07 -80.43,-711.2 -245.53,-1037.17 -165.1,-325.96 -385.24,-613.83 -656.17,-863.6 -270.93,-249.76 -575.73,-444.5 -918.63,-588.43 -342.9,-143.93 -694.27,-215.9 -1049.87,-215.9 -304.8,0 -613.83,67.73 -931.33,203.2 -317.5,135.47 -609.6,321.73 -876.3,563.03 -266.7,241.3 -491.07,524.94 -673.1,850.9 -182.04,325.97 -287.87,681.57 -313.27,1062.57l0 8255c0,143.93 -25.4,287.87 -80.43,431.8 -55.04,143.93 -139.7,254 -249.77,330.2 -110.07,67.73 -211.67,114.3 -309.03,139.7 -97.37,25.4 -211.67,38.1 -338.67,38.1l-2870.2 0c-364.07,0 -626.53,-88.9 -787.4,-266.7 -160.87,-177.8 -241.3,-414.87 -241.3,-711.2l0 -14202.83c0,-160.87 38.1,-309.04 110.07,-444.5 71.96,-131.24 169.33,-237.07 296.33,-313.27l-76.2 38.1zm31534.1 13982.7c-745.07,685.8 -1583.27,1219.2 -2514.6,1604.43 -931.33,385.24 -1917.7,579.97 -2959.1,579.97 -1159.93,0 -2256.37,-211.67 -3289.3,-635 -1032.93,-423.33 -1938.87,-1011.77 -2717.8,-1761.07 -778.93,-749.3 -1397,-1629.83 -1854.2,-2645.83 -457.2,-1016 -685.8,-2120.9 -685.8,-3314.7 0,-745.07 93.13,-1468.97 275.17,-2167.47 182.03,-698.5 440.26,-1350.43 774.7,-1960.03 334.43,-609.6 740.83,-1172.63 1219.2,-1684.87 478.36,-512.23 1011.76,-948.26 1604.43,-1312.33 592.67,-364.07 1236.13,-647.7 1930.4,-850.9 694.27,-203.2 1426.63,-304.8 2197.1,-304.8 702.73,0 1384.3,93.13 2044.7,279.4 660.4,186.27 1282.7,448.73 1862.67,787.4 579.96,338.67 1109.13,745.07 1591.73,1219.2 482.6,474.13 897.47,990.6 1244.6,1553.63 347.13,563.04 618.07,1164.17 808.57,1803.4 190.5,639.24 283.63,1299.64 283.63,1976.97 0,440.27 -4.23,800.1 -16.93,1079.5 -12.7,279.4 -80.44,499.53 -198.97,664.63 -118.53,165.1 -313.27,279.4 -588.43,342.9 -275.17,63.5 -681.57,97.37 -1214.97,97.37l-9144 0c84.67,541.87 258.23,994.83 516.47,1358.9 258.23,364.07 554.56,651.93 893.23,867.83 338.67,215.9 698.5,372.54 1079.5,465.67 381,93.13 740.83,139.7 1079.5,139.7 304.8,0 618.07,-33.87 939.8,-97.37 321.73,-63.5 635,-148.16 935.57,-254 300.56,-105.83 575.73,-228.6 825.5,-368.3 249.76,-139.7 448.73,-283.63 601.13,-436.03 135.47,-110.07 254,-194.73 351.37,-249.77 97.36,-55.03 198.96,-80.43 309.03,-80.43 110.07,0 224.37,38.1 338.67,114.3 114.3,76.2 241.3,186.27 385.23,330.2l1346.2 1524c93.13,110.07 152.4,207.43 177.8,296.33 25.4,88.9 38.1,182.04 38.1,275.17 0,169.33 -46.57,313.27 -139.7,436.03 -93.13,122.77 -203.2,232.84 -330.2,325.97zm-6108.7 -10579.1c-330.2,0 -647.7,63.5 -956.73,194.73 -309.04,131.24 -601.14,309.04 -872.07,529.17 -270.93,220.13 -512.23,469.9 -728.13,749.3 -215.9,279.4 -393.7,563.03 -529.17,850.9l6489.7 0c-177.8,-330.2 -368.3,-635 -575.73,-914.4 -207.44,-279.4 -444.5,-524.93 -711.2,-736.6 -266.7,-211.67 -571.5,-376.77 -914.4,-495.3 -342.9,-118.53 -745.07,-177.8 -1202.27,-177.8zm10579.1 -2671.23c0,-160.87 29.63,-300.57 88.9,-419.1 59.27,-118.54 139.7,-215.9 237.07,-292.1 97.36,-76.2 207.43,-135.47 330.2,-173.57 122.76,-38.1 241.3,-55.03 359.83,-55.03l1917.7 0c211.67,0 381,63.5 508,190.5 127,127 237.07,287.86 325.97,482.6 88.9,194.73 165.1,410.63 232.83,647.7 67.73,237.06 148.17,465.66 241.3,685.8 254,-283.64 508,-558.8 757.77,-829.74 249.76,-270.93 516.46,-512.23 804.33,-723.9 287.87,-215.9 605.37,-385.23 948.27,-516.46 342.9,-131.24 732.36,-198.97 1172.63,-198.97 457.2,0 867.83,33.87 1227.67,101.6 359.83,67.73 698.5,169.33 1020.23,300.57 321.73,131.23 643.47,296.33 960.97,503.76 317.5,203.2 660.4,440.27 1032.93,711.2 364.07,211.67 546.1,461.44 546.1,753.54 0,186.26 -71.97,402.16 -215.9,647.7l-1155.7 1972.73c-228.6,330.2 -512.23,495.3 -850.9,495.3 -169.33,0 -359.83,-46.57 -571.5,-139.7 -364.07,-355.6 -732.37,-622.3 -1109.13,-795.87 -376.77,-173.56 -808.57,-258.23 -1291.17,-258.23 -330.2,0 -618.07,46.57 -867.83,139.7 -249.77,93.13 -478.37,224.37 -681.57,393.7 -203.2,169.33 -393.7,372.53 -571.5,609.6 -177.8,237.07 -355.6,499.53 -533.4,787.4l0 9194.8c0,321.73 -76.2,563.03 -232.83,728.13 -156.64,165.1 -419.1,249.77 -783.17,249.77l-2857.5 0c-660.4,0 -990.6,-325.97 -990.6,-977.9l0 -14215.53zm16357.6 10164.23c228.6,228.6 478.37,419.1 745.07,575.73 266.7,156.64 520.7,283.64 766.23,381 245.53,97.37 461.43,169.34 647.7,211.67 186.27,42.33 313.27,63.5 381,63.5 160.87,0 368.3,-8.47 618.07,-21.17 249.76,-12.7 486.83,-50.8 715.43,-114.3 228.6,-63.5 427.57,-165.1 592.67,-309.03 165.1,-143.93 245.53,-347.13 245.53,-609.6 0,-237.07 -46.57,-427.57 -139.7,-567.27 -93.13,-139.7 -228.6,-258.23 -406.4,-355.6 -177.8,-97.36 -393.7,-182.03 -651.93,-258.23 -258.24,-76.2 -550.34,-165.1 -872.07,-266.7 -1016,-270.93 -1854.2,-596.9 -2514.6,-977.9 -660.4,-381 -1181.1,-808.57 -1566.33,-1278.47 -385.24,-469.9 -656.17,-973.66 -808.57,-1515.53 -152.4,-541.87 -228.6,-1113.37 -228.6,-1714.5 0,-702.73 139.7,-1341.97 419.1,-1917.7 279.4,-575.73 677.33,-1071.03 1193.8,-1481.67 516.47,-410.63 1134.53,-728.13 1854.2,-952.5 719.67,-224.36 1519.77,-334.43 2400.3,-334.43 533.4,0 1032.93,42.33 1498.6,131.23 465.67,88.9 910.17,228.6 1333.5,419.1 423.33,190.5 838.2,436.04 1240.37,736.6 402.16,300.57 800.1,660.4 1198.03,1075.27 143.93,169.33 220.13,325.97 224.37,474.13 4.23,148.17 -93.14,309.04 -287.87,478.37 -330.2,270.93 -643.47,537.63 -944.03,800.1 -300.57,262.47 -613.84,554.57 -935.57,876.3 -101.6,84.67 -203.2,135.47 -304.8,156.63 -101.6,21.17 -198.97,21.17 -292.1,-4.23 -93.13,-25.4 -182.03,-67.73 -266.7,-127 -84.67,-59.27 -160.87,-131.23 -228.6,-215.9 -296.33,-330.2 -635,-554.57 -1016,-668.87 -381,-114.3 -736.6,-169.33 -1066.8,-169.33 -414.87,0 -745.07,71.97 -990.6,215.9 -245.53,143.93 -359.83,364.07 -342.9,660.4 16.93,220.13 101.6,389.47 249.77,512.23 148.16,122.77 330.2,224.37 546.1,300.57 215.9,76.2 444.5,135.47 685.8,182.03 241.3,46.57 461.43,101.6 664.63,160.87 762,245.53 1460.5,512.23 2095.5,800.1 635,287.87 1185.33,639.23 1651,1058.33 465.67,419.1 829.73,922.87 1087.97,1507.07 258.23,584.2 385.23,1295.4 385.23,2133.6 0,838.2 -165.1,1587.5 -499.53,2247.9 -334.44,660.4 -795.87,1214.97 -1380.07,1663.7 -584.2,448.73 -1274.23,791.63 -2074.33,1028.7 -800.1,237.07 -1663.7,355.6 -2586.57,355.6 -524.93,0 -1058.33,-46.57 -1600.2,-139.7 -541.87,-93.13 -1066.8,-245.53 -1574.8,-452.97 -508,-207.43 -990.6,-474.13 -1447.8,-800.1 -457.2,-325.96 -863.6,-719.66 -1219.2,-1185.33 -93.13,-118.53 -160.87,-245.53 -207.43,-376.77 -46.57,-131.23 -67.74,-258.23 -63.5,-385.23 4.23,-127 29.63,-245.53 76.2,-351.37 46.56,-105.83 118.53,-194.73 220.13,-270.93l1638.3 -1638.3c203.2,-169.33 385.23,-228.6 541.87,-177.8 156.63,50.8 355.6,194.73 601.13,431.8zm12835.47 -13504.33c0,-237.07 118.53,-355.6 355.6,-355.6l12276.66 0c283.64,0 423.34,118.53 423.34,355.6l0 12.7c0,122.76 -38.1,215.9 -114.3,279.4 -71.97,59.26 -177.8,93.13 -309.04,93.13l-11921.06 0 0 7988.3 9766.3 0c131.23,0 237.06,29.63 321.73,84.67 84.67,59.26 127,148.16 127,270.93l0 16.93c0,122.77 -42.33,211.67 -127,270.94 -84.67,55.03 -190.5,84.66 -321.73,84.66l-9766.3 0 0 8678.34 12183.53 0c283.63,0 423.33,118.53 423.33,355.6l0 16.93c0,122.77 -33.86,215.9 -110.06,275.17 -76.2,63.5 -177.8,93.13 -313.27,93.13l-12539.13 0c-237.07,0 -355.6,-122.77 -355.6,-368.3l0 -18152.53zm32211.43 18097.5c0,131.23 -29.63,237.06 -93.13,309.03 -59.27,76.2 -152.4,114.3 -275.17,114.3l-12.7 0c-232.83,0 -347.13,-139.7 -347.13,-423.33l0 -4246.04c-431.8,977.9 -1028.7,1845.74 -1799.17,2603.5 -766.23,762 -1638.3,1354.67 -2616.2,1782.24 -982.13,427.56 -1989.66,639.23 -3031.06,639.23 -1587.5,0 -3031.07,-372.53 -4330.7,-1121.83 -1303.87,-749.3 -2328.34,-1761.07 -3077.64,-3035.3 -749.3,-1274.24 -1126.06,-2667 -1126.06,-4174.07 0,-1511.3 376.76,-2908.3 1134.53,-4195.23 753.53,-1286.94 1773.77,-2311.4 3069.17,-3069.17 1291.16,-757.77 2696.63,-1138.77 4212.16,-1138.77 1100.67,0 2150.54,211.67 3149.6,635 994.84,423.34 1875.37,1016 2637.37,1782.24 762,762 1354.67,1638.3 1778,2624.66l0 -9182.1c0,-283.63 114.3,-423.33 347.13,-423.33l12.7 0c122.77,0 215.9,38.1 275.17,114.3 63.5,71.97 93.13,177.8 93.13,309.03l0 20095.64zm-728.13 -7552.27c0,-1384.3 -338.67,-2667 -1016,-3843.87 -681.57,-1176.86 -1600.2,-2112.43 -2760.13,-2798.23 -1159.94,-690.03 -2425.7,-1032.93 -3801.54,-1032.93 -1358.9,0 -2628.9,347.13 -3805.76,1037.16 -1176.87,694.27 -2116.67,1625.6 -2815.17,2798.24 -702.73,1172.63 -1054.1,2455.33 -1054.1,3839.63 0,1375.83 347.13,2645.83 1032.93,3810 690.04,1164.17 1625.6,2087.03 2819.4,2768.6 1189.57,685.8 2501.9,1028.7 3941.24,1028.7 1295.4,0 2518.83,-347.13 3666.06,-1032.93 1143,-690.04 2065.87,-1617.14 2755.9,-2785.54 694.27,-1168.4 1037.17,-2434.16 1037.17,-3788.83zm17399 -7831.67c0,-275.16 122.77,-410.63 368.3,-410.63l16.94 0c228.6,0 342.9,135.47 342.9,410.63l0 15383.94c0,283.63 -114.3,423.33 -342.9,423.33l-16.94 0c-228.6,0 -342.9,-139.7 -342.9,-423.33l-25.4 -2645.84c-406.4,706.97 -939.8,1325.04 -1600.2,1858.44 -660.4,533.4 -1380.06,939.8 -2159,1223.43 -774.7,283.63 -1528.23,423.33 -2260.6,423.33 -1375.83,0 -2603.5,-338.66 -3678.76,-1011.76 -1075.27,-673.1 -1909.24,-1566.34 -2497.67,-2671.24 -592.67,-1109.13 -889,-2281.76 -889,-3526.36l0 -9033.94c0,-275.16 114.3,-410.63 342.9,-410.63l16.93 0c245.54,0 368.3,135.47 368.3,410.63l0 9033.94c0,1253.06 287.87,2370.66 859.37,3361.26 575.73,986.37 1341.97,1752.6 2311.4,2298.7 965.2,550.34 2006.6,821.27 3128.43,821.27 931.34,0 1871.14,-237.07 2810.94,-711.2 939.8,-478.37 1714.5,-1151.47 2328.33,-2019.3 609.6,-867.83 918.63,-1862.67 918.63,-2984.5l0 -9800.17zm16764 13491.64c97.37,-80.44 198.97,-118.54 304.8,-118.54 97.37,0 173.57,33.87 228.6,105.84 59.27,71.96 88.9,148.16 88.9,237.06 0,131.24 -59.27,245.54 -173.57,330.2 -1718.73,1413.94 -3577.16,2116.67 -5571.06,2116.67 -1507.07,0 -2908.3,-376.77 -4203.7,-1134.53 -1299.64,-762 -2328.34,-1782.24 -3090.34,-3069.17 -762,-1291.17 -1143,-2683.93 -1143,-4182.53 0,-1553.64 389.47,-2967.57 1176.87,-4246.04 783.17,-1278.46 1816.1,-2281.76 3103.03,-3009.9 1282.7,-728.13 2633.14,-1092.2 4051.3,-1092.2 935.57,0 1913.47,186.27 2937.94,563.04 1024.46,376.76 1900.76,893.23 2633.13,1553.63 105.83,88.9 160.87,190.5 160.87,304.8 0,105.83 -33.87,194.73 -93.14,266.7 -63.5,67.73 -152.4,105.83 -266.7,105.83 -88.9,0 -169.33,-42.33 -249.76,-118.53 -698.5,-647.7 -1490.14,-1130.3 -2374.9,-1456.27 -889,-325.96 -1752.6,-491.06 -2599.27,-491.06 -1341.97,0 -2607.73,330.2 -3797.3,994.83 -1189.57,660.4 -2146.3,1570.57 -2870.2,2734.73 -723.9,1164.17 -1083.73,2463.8 -1083.73,3890.44 0,1375.83 347.13,2650.06 1041.4,3822.7 698.5,1172.63 1638.3,2108.2 2819.4,2798.23 1181.1,694.27 2459.56,1041.4 3835.4,1041.4 1075.26,0 2023.53,-173.57 2844.8,-516.47 821.26,-347.13 1583.26,-821.26 2290.23,-1430.86zm18901.83 1879.6c0,292.1 -118.53,436.03 -355.6,436.03l-12.7 0c-237.06,0 -359.83,-143.93 -359.83,-436.03l0 -4207.94c-440.27,969.44 -1054.1,1833.04 -1837.27,2595.04 -783.16,757.76 -1680.63,1346.2 -2683.93,1769.53 -1007.53,423.33 -2057.4,635 -3149.6,635 -1430.87,0 -2785.53,-376.77 -4068.23,-1130.3 -1282.7,-753.53 -2315.64,-1769.53 -3094.57,-3048 -783.17,-1278.47 -1172.63,-2662.77 -1172.63,-4152.9 0,-1490.13 389.46,-2882.9 1172.63,-4174.07 778.93,-1295.4 1811.87,-2319.86 3094.57,-3081.86 1282.7,-766.24 2637.36,-1147.24 4068.23,-1147.24 1083.73,0 2129.37,215.9 3136.9,643.47 1003.3,427.57 1900.77,1024.47 2688.17,1790.7 791.63,770.47 1405.46,1642.53 1845.73,2620.43l0 -4470.4c0,-135.46 29.63,-241.3 88.9,-317.5 55.03,-80.43 148.17,-118.53 270.93,-118.53l12.7 0c237.07,0 355.6,143.93 355.6,436.03l0 15358.54zm-728.13 -7539.57c0,-1367.37 -368.3,-2641.6 -1104.9,-3818.47 -736.6,-1176.86 -1697.57,-2112.43 -2882.9,-2810.93 -1185.33,-698.5 -2417.23,-1045.63 -3695.7,-1045.63 -1308.1,0 -2544.23,347.13 -3712.63,1037.16 -1168.4,694.27 -2108.2,1629.84 -2815.17,2806.7 -711.2,1176.87 -1066.8,2455.34 -1066.8,3831.17 0,1354.67 355.6,2616.2 1066.8,3780.37 706.97,1164.16 1646.77,2095.5 2815.17,2785.53 1168.4,694.27 2404.53,1041.4 3712.63,1041.4 1367.37,0 2641.6,-347.13 3822.7,-1032.93 1181.1,-690.04 2120.9,-1612.9 2815.17,-2777.07 698.5,-1164.17 1045.63,-2429.93 1045.63,-3797.3zm9000.07 -6802.97c220.13,0 330.2,110.07 330.2,330.2l0 16.94c0,76.2 -33.87,152.4 -93.13,215.9 -63.5,67.73 -143.94,101.6 -237.07,101.6l-3086.1 0 0 11374.96c0,537.64 143.93,1011.77 431.8,1422.4 287.87,410.64 753.53,613.84 1397,613.84l516.47 0c325.96,0 486.83,101.6 486.83,304.8l0 29.63c0,59.27 -25.4,135.47 -71.97,228.6 -46.56,93.13 -160.86,139.7 -338.66,139.7 -512.24,0 -872.07,-16.93 -1083.74,-50.8 -668.86,-105.83 -1181.1,-402.17 -1532.46,-889 -355.6,-482.6 -529.17,-1066.8 -529.17,-1744.13l0 -11430 -2159 0c-245.53,0 -368.3,-110.07 -368.3,-334.44 0,-220.13 122.77,-330.2 368.3,-330.2l2159 0 0 -4271.43c0,-275.17 114.3,-410.63 342.9,-410.63l12.7 0c245.53,0 368.3,135.46 368.3,410.63l0 4271.43 3086.1 0zm3280.83 -5634.56c0,-177.8 88.9,-262.47 262.47,-262.47l647.7 0c169.33,0 254,97.37 254,287.87l0 584.2c0,194.73 -84.67,292.1 -254,292.1l-635 0c-105.83,0 -177.8,-25.4 -215.9,-67.74 -38.1,-42.33 -59.27,-118.53 -59.27,-224.36l0 -609.6zm237.07 4605.86c0,-275.16 122.77,-410.63 372.53,-410.63l12.7 0c237.07,0 355.6,135.47 355.6,410.63l0 15383.94c0,283.63 -118.53,423.33 -355.6,423.33l-12.7 0c-127,0 -215.9,-38.1 -279.4,-114.3 -63.5,-71.97 -93.13,-177.8 -93.13,-309.03l0 -15383.94zm4724.4 7751.24c0,-1507.07 368.3,-2904.07 1104.9,-4182.54 736.6,-1278.46 1735.67,-2290.23 2997.2,-3035.3 1261.53,-745.06 2641.6,-1117.6 4140.2,-1117.6 1515.53,0 2925.23,376.77 4224.87,1126.07 1303.86,749.3 2336.8,1761.07 3103.03,3035.3 766.23,1274.23 1151.47,2667 1151.47,4174.07 0,1498.6 -385.24,2895.6 -1151.47,4186.76 -766.23,1291.17 -1799.17,2319.87 -3094.57,3081.87 -1295.4,762 -2700.86,1143 -4207.93,1143 -1490.13,0 -2870.2,-381 -4140.2,-1143 -1270,-762 -2273.3,-1790.7 -3014.13,-3081.87 -740.84,-1291.16 -1113.37,-2688.16 -1113.37,-4186.76zm728.13 0c0,1367.36 338.67,2641.6 1011.77,3822.7 673.1,1181.1 1587.5,2120.9 2743.2,2819.4 1155.7,694.26 2417.23,1045.63 3784.6,1045.63 1430.87,0 2734.73,-351.37 3915.83,-1045.63 1181.1,-698.5 2112.44,-1634.07 2794,-2810.94 677.34,-1181.1 1016,-2455.33 1016,-3831.16 0,-1375.84 -351.36,-2645.84 -1049.86,-3810 -702.74,-1164.17 -1646.77,-2087.04 -2832.1,-2772.84 -1185.34,-681.56 -2476.5,-1024.46 -3869.27,-1024.46 -1367.37,0 -2624.67,338.66 -3776.13,1020.23 -1151.47,677.33 -2061.64,1600.2 -2734.74,2764.37 -668.86,1164.16 -1003.3,2438.4 -1003.3,3822.7zm20044.84 7645.4c0,275.16 -127,410.63 -372.54,410.63l-12.7 0c-228.6,0 -342.9,-135.47 -342.9,-410.63l0 -15383.94c0,-283.63 114.3,-423.33 342.9,-423.33l12.7 0c228.6,0 342.9,139.7 342.9,423.33l29.64 3026.84c393.7,-757.77 922.86,-1413.94 1579.03,-1968.5 656.17,-554.57 1367.37,-977.9 2129.37,-1270 762,-292.1 1507.06,-436.04 2230.96,-436.04 1354.67,0 2548.47,325.97 3568.7,977.9 1024.47,651.94 1807.64,1502.84 2357.97,2552.7 546.1,1049.87 817.03,2150.54 817.03,3306.24l0 9194.8c0,275.16 -114.3,410.63 -342.9,410.63l-12.7 0c-245.53,0 -372.53,-135.47 -372.53,-410.63l0 -9194.8c0,-994.84 -245.53,-1964.27 -745.07,-2908.3 -499.53,-944.04 -1206.5,-1714.5 -2125.13,-2311.4 -914.4,-592.67 -1972.73,-893.24 -3175,-893.24 -846.67,0 -1727.2,241.3 -2650.07,715.44 -922.86,478.36 -1697.56,1164.16 -2324.1,2065.86 -626.53,897.47 -935.56,1951.57 -935.56,3162.3l0 9364.14z"/>
   <g>
    <g style="clip-path:url(#id0)">
     <image x="13900.29" y="6606.22" width="37137.66" height="45485.03" xlink:href="logo-top_Images\logo-top_ImgID1.png"/>
    </g>
   </g>
  </g>
 </g>
</svg>
