<?xml version="1.0" encoding="UTF-8"?>
<!DOCTYPE svg PUBLIC "-//W3C//DTD SVG 1.1//EN" "http://www.w3.org/Graphics/SVG/1.1/DTD/svg11.dtd">
<!-- Creator: CorelDRAW 2020 (64-Bit) -->
<svg xmlns="http://www.w3.org/2000/svg" xml:space="preserve" width="300mm" height="300mm" version="1.1" shape-rendering="geometricPrecision" text-rendering="geometricPrecision" image-rendering="optimizeQuality" fill-rule="evenodd" clip-rule="evenodd"
viewBox="0 0 30000000 30000000"
 xmlns:xlink="http://www.w3.org/1999/xlink"
 xmlns:xodm="http://www.corel.com/coreldraw/odm/2003">
 <g id="Layer_x0020_1">
  <metadata id="CorelCorpID_0Corel-Layer"/>
  <g id="_2082032510560">
   <polygon fill="white" fill-rule="nonzero" points="6551410,21036280 6551410,22270390 1406120,22270390 1406120,15625180 6428000,15625180 6428000,16859290 2934520,16859290 2934520,18302250 6019790,18302250 6019790,19498390 2934520,19498390 2934520,21036280 "/>
   <polygon id="1" fill="white" fill-rule="nonzero" points="13870620,15625180 13870620,22270390 12608030,22270390 9294930,18235800 9294930,22270390 7776020,22270390 7776020,15625180 9048100,15625180 12351720,19659770 12351720,15625180 "/>
   <polygon id="2" fill="white" fill-rule="nonzero" points="20591780,21036280 20591780,22270390 15446490,22270390 15446490,15625180 20468370,15625180 20468370,16859290 16974890,16859290 16974890,18302250 20060160,18302250 20060160,19498390 16974890,19498390 16974890,21036280 "/>
   <polygon id="3" fill="white" fill-rule="nonzero" points="27863530,22270390 27854040,18283270 25898450,21567900 25205450,21567900 23259350,18368710 23259350,22270390 21816390,22270390 21816390,15625180 23088470,15625180 25575680,19754710 28024910,15625180 29287500,15625180 29306490,22270390 "/>
   <polygon fill="#0000C8" points="1306500,5496570 29306480,5496570 29306480,15062600 1306500,15062600 "/>
   <path id="1" fill="white" fill-rule="nonzero" d="M1306500 7569030c0,-116350 55750,-174520 167250,-174520l1807040 0c239970,0 462970,44840 667790,134530 204820,89680 381770,212090 532050,366010 150290,155130 267850,334500 352680,539320 84840,206040 127260,422980 127260,650830 0,223000 -41210,436300 -124830,637490 -83630,202400 -199980,379340 -349050,534470 -149070,153920 -324800,276330 -527200,367230 -202400,90900 -422980,136950 -660520,136950l-1290740 0 0 1879760c0,106650 -53330,159980 -159980,159980l-381770 0c-106650,0 -159980,-53330 -159980,-159980l0 -5072070zm2952340 1508890c0,-128460 -25450,-252080 -76350,-370860 -50900,-118770 -119990,-224210 -208460,-315110 -88470,-90890 -192700,-163610 -311470,-218150 -118780,-54540 -246030,-81200 -381770,-81200l-1272560 0 0 1970650 1272560 0c130890,0 255720,-26660 374500,-79990 118770,-53330 223000,-126040 312680,-216940 89690,-90900 161190,-195130 213310,-313900 52110,-118770 77560,-243600 77560,-374500z"/>
   <path id="2" fill="white" fill-rule="nonzero" d="M6636710 8667070c29090,-55750 71510,-116350 126050,-181800 54530,-65440 119980,-126040 197550,-181790 77560,-55750 166030,-103020 265420,-140590 99380,-37570 208450,-55750 327230,-55750 130890,0 249660,4850 355100,15760 105440,10910 204820,30300 299360,58170 94530,27880 186640,65450 275110,112710 88470,47270 180580,107870 277540,180590 29090,21810 61810,49690 96960,83620 35150,33940 52110,73930 52110,119990 0,26660 -6060,50900 -18180,72710l-214510 330870c-33940,41210 -67870,61810 -101810,61810 -19390,0 -37570,-7270 -54540,-20600 -16960,-13330 -37570,-27880 -61810,-44850 -150280,-101800 -295720,-176940 -437520,-224210 -141800,-47270 -293290,-70290 -453270,-70290 -121200,0 -237550,23020 -349050,69080 -111500,46050 -209670,111500 -295720,197550 -86040,86050 -155130,191490 -207240,316320 -52120,124830 -78780,266630 -78780,424190l0 2846900c0,106650 -53320,159980 -159980,159980l-378130 0c-111500,0 -167250,-53330 -167250,-159980l0 -4297620c0,-48480 15750,-87260 47270,-116350 31510,-29090 69080,-43630 112710,-43630l378130 0c50900,0 92110,15760 122410,47270 30300,31510 44840,69080 44840,112710l0 327230z"/>
   <path id="3" fill="white" fill-rule="nonzero" d="M9399980 10495920c0,-327230 64240,-636280 191490,-927150 127260,-289660 299360,-544170 516300,-762330 218150,-218150 470240,-391460 759900,-517500 288450,-126050 596290,-189070 921090,-189070 215730,0 425400,29090 627800,86050 203610,56960 392680,138160 570840,243600 176940,105440 338130,231490 483570,376920 145430,145440 271480,307840 376920,486000 105440,178160 186640,368440 243600,572050 56970,202400 86050,413280 86050,631430 0,218160 -29080,429040 -86050,631430 -56960,203610 -138160,392680 -243600,570840 -105440,176950 -231490,338140 -376920,483570 -145440,145440 -306630,270270 -483570,375710 -178160,104230 -367230,184220 -570840,241180 -202400,56960 -412070,86050 -627800,86050 -215730,0 -425400,-29090 -627790,-86050 -202400,-56960 -392680,-136950 -569630,-241180 -178150,-105440 -339350,-230270 -484780,-375710 -145440,-145430 -270270,-306620 -375710,-483570 -104230,-178160 -185430,-367230 -243600,-570840 -58180,-202390 -87270,-413270 -87270,-631430zm727180 -2420c0,231480 43630,449640 130890,655670 87270,206030 206040,386620 356320,542960 150290,155130 326020,278750 527210,370860 201180,92110 416910,138160 647180,138160 227850,0 442370,-46050 642340,-138160 199980,-92110 374500,-215730 523570,-370860 149070,-156340 266630,-336930 352680,-542960 86050,-206030 128470,-424190 128470,-655670 0,-225430 -42420,-442370 -128470,-650830 -86050,-208450 -203610,-392670 -352680,-551440 -149070,-158770 -323590,-286020 -523570,-380560 -199970,-94530 -414490,-141800 -642340,-141800 -230270,0 -446000,47270 -647180,141800 -201190,94540 -376920,221790 -527210,380560 -150280,158770 -269050,342990 -356320,551440 -87260,208460 -130890,425400 -130890,650830z"/>
   <path id="4" fill="white" fill-rule="nonzero" d="M14624760 14244520c-55750,0 -100600,-16960 -134530,-49690 -33940,-32720 -50900,-77560 -50900,-133310l0 -241180c0,-60600 18180,-109080 54540,-143010 36350,-33940 83620,-50910 139370,-50910l25450 0c63020,-4840 122410,-26660 176950,-64230 55750,-37570 103020,-83630 143010,-139380 40000,-55750 71510,-117560 94530,-184220 23030,-66650 35150,-132100 35150,-197550l0 -4672110c0,-63030 19390,-111500 58170,-144230 38790,-32720 84840,-48480 140590,-48480l351470 0c63020,0 110290,18180 143010,54540 32730,36360 48480,82420 48480,138170l0 4672110c0,164830 -33930,319960 -101800,465400 -67870,145430 -158770,273900 -272690,382980 -113930,110290 -244820,196340 -392680,260570 -147860,63020 -300570,94530 -458120,94530zm476300 -7277840c7270,-100590 58170,-153910 152710,-161190l421760 0c31510,2430 58170,6060 79990,9700 21810,3630 38780,12120 50900,25450 12120,13330 21820,31510 27880,55750 6060,24240 8480,58170 8480,99380l0 299360c0,19390 -1210,41200 -4850,65440 -3630,24240 -10910,48480 -21810,70300 -10910,21810 -27880,39990 -49690,54530 -21820,14550 -52120,23030 -90900,25460l-421760 0c-101810,-14550 -152710,-78780 -152710,-193920l0 -350260z"/>
   <path id="5" fill="white" fill-rule="nonzero" d="M20285840 11739400c21820,-19400 46060,-37570 71510,-54540 25450,-16970 50900,-25450 77560,-25450 36360,0 71510,21810 105450,65440 48470,65450 88470,118770 118770,159980 30300,41210 54540,73930 73930,98170 19390,26660 33930,46060 43630,58170 12120,14550 21810,29090 29090,44850 7270,15750 10900,33930 10900,53320 0,26670 -9690,55750 -30300,86050 -20600,30300 -56960,65450 -107860,107870 -104230,82410 -212090,157550 -324810,224210 -112710,66660 -231480,124830 -355100,173310 -123620,49690 -253300,87260 -390250,113930 -136960,26660 -282390,39990 -435100,39990 -215730,0 -424190,-29090 -625370,-86050 -201190,-56960 -390250,-138160 -568410,-243600 -178160,-105440 -340570,-231490 -487210,-376920 -146650,-145440 -273910,-306630 -380560,-483580 -106650,-178160 -189070,-367220 -247240,-570830 -58170,-202400 -87260,-413280 -87260,-631430 0,-218160 27870,-430250 82410,-633860 54540,-203610 132110,-393890 232700,-572050 100590,-176940 221790,-338140 364800,-483570 143010,-145440 304200,-271480 482360,-375710 178160,-104230 370860,-184220 578110,-241180 207240,-56960 425400,-86050 655670,-86050 181800,0 362380,20600 541750,61810 179370,41210 351470,101810 516290,180580 164830,78780 319960,175740 464190,293300 144220,116350 272690,249660 386610,399950 155130,208450 270270,447210 345410,713840 75140,266630 110290,573260 105440,921090 0,113930 -53320,170890 -159980,170890l-3832220 0c41200,193920 113920,373290 216940,538110 103010,164830 226630,307840 370860,430250 144220,122410 304200,218150 481150,287240 176940,69080 359950,104220 549020,104220 133310,0 254510,-13330 362370,-38780 107870,-25450 206040,-59380 294510,-101800 88470,-42420 169680,-90900 244820,-145440 75140,-54540 147860,-110290 218150,-168460l7270 -7270zm-1992460 -2690560c-184220,123620 -342990,278750 -476310,466600 -133310,187860 -224210,395100 -272690,620530l3286850 0c-26670,-201190 -88480,-384190 -186650,-549020 -98170,-164830 -221790,-305420 -369640,-421760 -147860,-116350 -313900,-207250 -499330,-271480 -185430,-64240 -378140,-95750 -576900,-95750 -157550,0 -312680,20600 -466600,61810 -153920,41210 -300570,104230 -438730,189070z"/>
   <path id="6" fill="white" fill-rule="nonzero" d="M23685400 12848340c-112720,0 -225430,-13330 -338140,-39990 -112710,-26670 -214520,-72720 -304200,-139380 -89690,-66660 -163620,-157550 -220580,-272690 -56960,-115140 -86050,-261780 -86050,-441150l0 -3149900 -421760 0c-60600,0 -105440,-9690 -134530,-27870 -29090,-18180 -43630,-58180 -43630,-122410l0 -339350c0,-64230 14540,-103020 43630,-118770 29090,-15760 73930,-24240 134530,-24240l421760 0 0 -774450c0,-41200 8480,-71500 25450,-89680 16970,-18180 46060,-32720 87260,-44840 14550,-4850 44840,-10910 89690,-16970 44840,-6060 90890,-13330 139370,-23030 58180,-9700 121200,-20600 189070,-32720 41210,-4850 73930,-2430 98170,7270 24240,9700 42420,24240 53320,43630 10910,19390 16970,41210 19400,66660 2420,25450 3630,53320 3630,82410l0 781720 505390 0c55750,0 96960,12120 122410,36360 25450,24240 37570,69080 37570,132100l0 288450c0,63020 -12120,109070 -37570,135740 -25450,26660 -66660,39990 -122410,39990l-505390 0 0 3142620c0,84840 20610,144230 61810,178160 42420,32730 99380,49690 173310,49690 55750,0 101810,16970 139380,50910 36360,33930 54540,81200 54540,141790l0 298150c0,55750 -16970,100590 -50910,133310 -33930,32730 -78770,48480 -134520,48480z"/>
   <path id="7" fill="white" fill-rule="nonzero" d="M24528920 10495920c0,-327230 64240,-636280 191490,-927150 127260,-289660 299360,-544170 516300,-762330 218150,-218150 470240,-391460 759900,-517500 288450,-126050 596290,-189070 921090,-189070 215730,0 425400,29090 627800,86050 203610,56960 392680,138160 570840,243600 176940,105440 338130,231490 483570,376920 145430,145440 271480,307840 376920,486000 105440,178160 186640,368440 243600,572050 56970,202400 86050,413280 86050,631430 0,218160 -29080,429040 -86050,631430 -56960,203610 -138160,392680 -243600,570840 -105440,176950 -231490,338140 -376920,483570 -145440,145440 -306630,270270 -483570,375710 -178160,104230 -367230,184220 -570840,241180 -202400,56960 -412070,86050 -627800,86050 -215730,0 -425400,-29090 -627790,-86050 -202400,-56960 -392680,-136950 -569630,-241180 -178150,-105440 -339350,-230270 -484780,-375710 -145440,-145430 -270270,-306620 -375710,-483570 -104230,-178160 -185430,-367230 -243600,-570840 -58180,-202390 -87270,-413270 -87270,-631430zm727180 -2420c0,231480 43630,449640 130890,655670 87270,206030 206040,386620 356320,542960 150290,155130 326020,278750 527210,370860 201180,92110 416910,138160 647180,138160 227850,0 442370,-46050 642340,-138160 199980,-92110 374500,-215730 523570,-370860 149070,-156340 266630,-336930 352680,-542960 86050,-206030 128470,-424190 128470,-655670 0,-225430 -42420,-442370 -128470,-650830 -86050,-208450 -203610,-392670 -352680,-551440 -149070,-158770 -323590,-286020 -523570,-380560 -199970,-94530 -414490,-141800 -642340,-141800 -230270,0 -446000,47270 -647180,141800 -201190,94540 -376920,221790 -527210,380560 -150280,158770 -269050,342990 -356320,551440 -87260,208460 -130890,425400 -130890,650830z"/>
   <path id="8" fill="none" fill-rule="nonzero" stroke="white" stroke-width="7620" stroke-miterlimit="22.9256" d="M1306500 7569030c0,-116350 55750,-174520 167250,-174520l1807040 0c239970,0 462970,44840 667790,134530 204820,89680 381770,212090 532050,366010 150290,155130 267850,334500 352680,539320 84840,206040 127260,422980 127260,650830 0,223000 -41210,436300 -124830,637490 -83630,202400 -199980,379340 -349050,534470 -149070,153920 -324800,276330 -527200,367230 -202400,90900 -422980,136950 -660520,136950l-1290740 0 0 1879760c0,106650 -53330,159980 -159980,159980l-381770 0c-106650,0 -159980,-53330 -159980,-159980l0 -5072070zm2952340 1508890c0,-128460 -25450,-252080 -76350,-370860 -50900,-118770 -119990,-224210 -208460,-315110 -88470,-90890 -192700,-163610 -311470,-218150 -118780,-54540 -246030,-81200 -381770,-81200l-1272560 0 0 1970650 1272560 0c130890,0 255720,-26660 374500,-79990 118770,-53330 223000,-126040 312680,-216940 89690,-90900 161190,-195130 213310,-313900 52110,-118770 77560,-243600 77560,-374500z"/>
   <path id="9" fill="none" fill-rule="nonzero" stroke="white" stroke-width="7620" stroke-miterlimit="22.9256" d="M6636710 8667070c29090,-55750 71510,-116350 126050,-181800 54530,-65440 119980,-126040 197550,-181790 77560,-55750 166030,-103020 265420,-140590 99380,-37570 208450,-55750 327230,-55750 130890,0 249660,4850 355100,15760 105440,10910 204820,30300 299360,58170 94530,27880 186640,65450 275110,112710 88470,47270 180580,107870 277540,180590 29090,21810 61810,49690 96960,83620 35150,33940 52110,73930 52110,119990 0,26660 -6060,50900 -18180,72710l-214510 330870c-33940,41210 -67870,61810 -101810,61810 -19390,0 -37570,-7270 -54540,-20600 -16960,-13330 -37570,-27880 -61810,-44850 -150280,-101800 -295720,-176940 -437520,-224210 -141800,-47270 -293290,-70290 -453270,-70290 -121200,0 -237550,23020 -349050,69080 -111500,46050 -209670,111500 -295720,197550 -86040,86050 -155130,191490 -207240,316320 -52120,124830 -78780,266630 -78780,424190l0 2846900c0,106650 -53320,159980 -159980,159980l-378130 0c-111500,0 -167250,-53330 -167250,-159980l0 -4297620c0,-48480 15750,-87260 47270,-116350 31510,-29090 69080,-43630 112710,-43630l378130 0c50900,0 92110,15760 122410,47270 30300,31510 44840,69080 44840,112710l0 327230z"/>
   <path id="10" fill="none" fill-rule="nonzero" stroke="white" stroke-width="7620" stroke-miterlimit="22.9256" d="M9399980 10495920c0,-327230 64240,-636280 191490,-927150 127260,-289660 299360,-544170 516300,-762330 218150,-218150 470240,-391460 759900,-517500 288450,-126050 596290,-189070 921090,-189070 215730,0 425400,29090 627800,86050 203610,56960 392680,138160 570840,243600 176940,105440 338130,231490 483570,376920 145430,145440 271480,307840 376920,486000 105440,178160 186640,368440 243600,572050 56970,202400 86050,413280 86050,631430 0,218160 -29080,429040 -86050,631430 -56960,203610 -138160,392680 -243600,570840 -105440,176950 -231490,338140 -376920,483570 -145440,145440 -306630,270270 -483570,375710 -178160,104230 -367230,184220 -570840,241180 -202400,56960 -412070,86050 -627800,86050 -215730,0 -425400,-29090 -627790,-86050 -202400,-56960 -392680,-136950 -569630,-241180 -178150,-105440 -339350,-230270 -484780,-375710 -145440,-145430 -270270,-306620 -375710,-483570 -104230,-178160 -185430,-367230 -243600,-570840 -58180,-202390 -87270,-413270 -87270,-631430zm727180 -2420c0,231480 43630,449640 130890,655670 87270,206030 206040,386620 356320,542960 150290,155130 326020,278750 527210,370860 201180,92110 416910,138160 647180,138160 227850,0 442370,-46050 642340,-138160 199980,-92110 374500,-215730 523570,-370860 149070,-156340 266630,-336930 352680,-542960 86050,-206030 128470,-424190 128470,-655670 0,-225430 -42420,-442370 -128470,-650830 -86050,-208450 -203610,-392670 -352680,-551440 -149070,-158770 -323590,-286020 -523570,-380560 -199970,-94530 -414490,-141800 -642340,-141800 -230270,0 -446000,47270 -647180,141800 -201190,94540 -376920,221790 -527210,380560 -150280,158770 -269050,342990 -356320,551440 -87260,208460 -130890,425400 -130890,650830z"/>
   <path id="11" fill="none" fill-rule="nonzero" stroke="white" stroke-width="7620" stroke-miterlimit="22.9256" d="M14624760 14244520c-55750,0 -100600,-16960 -134530,-49690 -33940,-32720 -50900,-77560 -50900,-133310l0 -241180c0,-60600 18180,-109080 54540,-143010 36350,-33940 83620,-50910 139370,-50910l25450 0c63020,-4840 122410,-26660 176950,-64230 55750,-37570 103020,-83630 143010,-139380 40000,-55750 71510,-117560 94530,-184220 23030,-66650 35150,-132100 35150,-197550l0 -4672110c0,-63030 19390,-111500 58170,-144230 38790,-32720 84840,-48480 140590,-48480l351470 0c63020,0 110290,18180 143010,54540 32730,36360 48480,82420 48480,138170l0 4672110c0,164830 -33930,319960 -101800,465400 -67870,145430 -158770,273900 -272690,382980 -113930,110290 -244820,196340 -392680,260570 -147860,63020 -300570,94530 -458120,94530zm476300 -7277840c7270,-100590 58170,-153910 152710,-161190l421760 0c31510,2430 58170,6060 79990,9700 21810,3630 38780,12120 50900,25450 12120,13330 21820,31510 27880,55750 6060,24240 8480,58170 8480,99380l0 299360c0,19390 -1210,41200 -4850,65440 -3630,24240 -10910,48480 -21810,70300 -10910,21810 -27880,39990 -49690,54530 -21820,14550 -52120,23030 -90900,25460l-421760 0c-101810,-14550 -152710,-78780 -152710,-193920l0 -350260z"/>
   <path id="12" fill="none" fill-rule="nonzero" stroke="white" stroke-width="7620" stroke-miterlimit="22.9256" d="M20285840 11739400c21820,-19400 46060,-37570 71510,-54540 25450,-16970 50900,-25450 77560,-25450 36360,0 71510,21810 105450,65440 48470,65450 88470,118770 118770,159980 30300,41210 54540,73930 73930,98170 19390,26660 33930,46060 43630,58170 12120,14550 21810,29090 29090,44850 7270,15750 10900,33930 10900,53320 0,26670 -9690,55750 -30300,86050 -20600,30300 -56960,65450 -107860,107870 -104230,82410 -212090,157550 -324810,224210 -112710,66660 -231480,124830 -355100,173310 -123620,49690 -253300,87260 -390250,113930 -136960,26660 -282390,39990 -435100,39990 -215730,0 -424190,-29090 -625370,-86050 -201190,-56960 -390250,-138160 -568410,-243600 -178160,-105440 -340570,-231490 -487210,-376920 -146650,-145440 -273910,-306630 -380560,-483580 -106650,-178160 -189070,-367220 -247240,-570830 -58170,-202400 -87260,-413280 -87260,-631430 0,-218160 27870,-430250 82410,-633860 54540,-203610 132110,-393890 232700,-572050 100590,-176940 221790,-338140 364800,-483570 143010,-145440 304200,-271480 482360,-375710 178160,-104230 370860,-184220 578110,-241180 207240,-56960 425400,-86050 655670,-86050 181800,0 362380,20600 541750,61810 179370,41210 351470,101810 516290,180580 164830,78780 319960,175740 464190,293300 144220,116350 272690,249660 386610,399950 155130,208450 270270,447210 345410,713840 75140,266630 110290,573260 105440,921090 0,113930 -53320,170890 -159980,170890l-3832220 0c41200,193920 113920,373290 216940,538110 103010,164830 226630,307840 370860,430250 144220,122410 304200,218150 481150,287240 176940,69080 359950,104220 549020,104220 133310,0 254510,-13330 362370,-38780 107870,-25450 206040,-59380 294510,-101800 88470,-42420 169680,-90900 244820,-145440 75140,-54540 147860,-110290 218150,-168460l7270 -7270zm-1992460 -2690560c-184220,123620 -342990,278750 -476310,466600 -133310,187860 -224210,395100 -272690,620530l3286850 0c-26670,-201190 -88480,-384190 -186650,-549020 -98170,-164830 -221790,-305420 -369640,-421760 -147860,-116350 -313900,-207250 -499330,-271480 -185430,-64240 -378140,-95750 -576900,-95750 -157550,0 -312680,20600 -466600,61810 -153920,41210 -300570,104230 -438730,189070z"/>
   <path id="13" fill="none" fill-rule="nonzero" stroke="white" stroke-width="7620" stroke-miterlimit="22.9256" d="M23685400 12848340c-112720,0 -225430,-13330 -338140,-39990 -112710,-26670 -214520,-72720 -304200,-139380 -89690,-66660 -163620,-157550 -220580,-272690 -56960,-115140 -86050,-261780 -86050,-441150l0 -3149900 -421760 0c-60600,0 -105440,-9690 -134530,-27870 -29090,-18180 -43630,-58180 -43630,-122410l0 -339350c0,-64230 14540,-103020 43630,-118770 29090,-15760 73930,-24240 134530,-24240l421760 0 0 -774450c0,-41200 8480,-71500 25450,-89680 16970,-18180 46060,-32720 87260,-44840 14550,-4850 44840,-10910 89690,-16970 44840,-6060 90890,-13330 139370,-23030 58180,-9700 121200,-20600 189070,-32720 41210,-4850 73930,-2430 98170,7270 24240,9700 42420,24240 53320,43630 10910,19390 16970,41210 19400,66660 2420,25450 3630,53320 3630,82410l0 781720 505390 0c55750,0 96960,12120 122410,36360 25450,24240 37570,69080 37570,132100l0 288450c0,63020 -12120,109070 -37570,135740 -25450,26660 -66660,39990 -122410,39990l-505390 0 0 3142620c0,84840 20610,144230 61810,178160 42420,32730 99380,49690 173310,49690 55750,0 101810,16970 139380,50910 36360,33930 54540,81200 54540,141790l0 298150c0,55750 -16970,100590 -50910,133310 -33930,32730 -78770,48480 -134520,48480z"/>
   <path id="14" fill="none" fill-rule="nonzero" stroke="white" stroke-width="7620" stroke-miterlimit="22.9256" d="M24528920 10495920c0,-327230 64240,-636280 191490,-927150 127260,-289660 299360,-544170 516300,-762330 218150,-218150 470240,-391460 759900,-517500 288450,-126050 596290,-189070 921090,-189070 215730,0 425400,29090 627800,86050 203610,56960 392680,138160 570840,243600 176940,105440 338130,231490 483570,376920 145430,145440 271480,307840 376920,486000 105440,178160 186640,368440 243600,572050 56970,202400 86050,413280 86050,631430 0,218160 -29080,429040 -86050,631430 -56960,203610 -138160,392680 -243600,570840 -105440,176950 -231490,338140 -376920,483570 -145440,145440 -306630,270270 -483570,375710 -178160,104230 -367230,184220 -570840,241180 -202400,56960 -412070,86050 -627800,86050 -215730,0 -425400,-29090 -627790,-86050 -202400,-56960 -392680,-136950 -569630,-241180 -178150,-105440 -339350,-230270 -484780,-375710 -145440,-145430 -270270,-306620 -375710,-483570 -104230,-178160 -185430,-367230 -243600,-570840 -58180,-202390 -87270,-413270 -87270,-631430zm727180 -2420c0,231480 43630,449640 130890,655670 87270,206030 206040,386620 356320,542960 150290,155130 326020,278750 527210,370860 201180,92110 416910,138160 647180,138160 227850,0 442370,-46050 642340,-138160 199980,-92110 374500,-215730 523570,-370860 149070,-156340 266630,-336930 352680,-542960 86050,-206030 128470,-424190 128470,-655670 0,-225430 -42420,-442370 -128470,-650830 -86050,-208450 -203610,-392670 -352680,-551440 -149070,-158770 -323590,-286020 -523570,-380560 -199970,-94530 -414490,-141800 -642340,-141800 -230270,0 -446000,47270 -647180,141800 -201190,94540 -376920,221790 -527210,380560 -150280,158770 -269050,342990 -356320,551440 -87260,208460 -130890,425400 -130890,650830z"/>
  </g>
 </g>
</svg>
