<?xml version="1.0" encoding="UTF-8"?>
<!DOCTYPE svg PUBLIC "-//W3C//DTD SVG 1.1//EN" "http://www.w3.org/Graphics/SVG/1.1/DTD/svg11.dtd">
<!-- Creator: CorelDRAW 2020 (64 Bit) -->
<svg xmlns="http://www.w3.org/2000/svg" xml:space="preserve" width="480mm" height="80mm" version="1.1" style="shape-rendering:geometricPrecision; text-rendering:geometricPrecision; image-rendering:optimizeQuality; fill-rule:evenodd; clip-rule:evenodd"
viewBox="0 0 48000 8000"
 xmlns:xlink="http://www.w3.org/1999/xlink"
 xmlns:xodm="http://www.corel.com/coreldraw/odm/2003">
 <defs>
  <style type="text/css">
   <![CDATA[
    .str0 {stroke:white;stroke-width:7.62;stroke-miterlimit:22.9256}
    .fil1 {fill:white}
    .fil0 {fill:white;fill-rule:nonzero}
   ]]>
  </style>
 </defs>
 <g id="Camada_x0020_1">
  <metadata id="CorelCorpID_0Corel-Layer"/>
  <g id="_2209320342048">
   <g>
    <path class="fil0 str0" d="M3481.51 2143.91c11.58,-28.3 29.58,-42.44 54.02,-42.44l250.77 0c32.15,0 54.02,5.78 64.95,18 10.93,12.22 16.07,27.65 16.07,45.65l0 25.08 -441.75 1064.83 470.69 1145.85 900.86 -2228.04c18,-47.58 52.08,-71.37 102.24,-71.37l198.69 0c32.15,0 54.66,5.78 66.87,18 12.22,12.22 18.01,27.65 18.01,45.65l0 17.37 -1124.63 2702.58c0,1.29 -1.29,5.79 -4.5,14.15 -3.22,8.36 -9.01,17.36 -16.72,27 -7.72,9.65 -18.01,18.65 -30.87,27.01 -12.86,8.36 -28.29,12.86 -46.29,12.86l-131.18 0c-32.15,0 -55.94,-8.36 -72.02,-25.08 -16.07,-16.71 -24.43,-32.15 -24.43,-46.29l-497.69 -1188.29 -491.91 1178.64c-6.43,21.86 -17.36,40.51 -33.44,56.59 -16.07,16.07 -34.72,24.43 -55.29,24.43l-136.97 0c-27,0 -48.22,-9 -63.65,-26.36 -15.44,-17.36 -26.37,-32.8 -32.8,-46.94l-1120.77 -2702.59c-1.29,-2.57 -2.57,-6.43 -4.5,-11.57 -1.93,-5.15 -3.22,-10.93 -3.22,-17.36 0,-39.87 25.08,-59.8 75.24,-59.8l216.05 0c19.29,0 37.29,6.43 54.01,19.29 16.72,12.86 30.22,33.43 40.51,61.73l902.79 2218.39 900.86 -2256.97zm2494.25 2739.23c0,56.59 -28.29,84.88 -84.88,84.88l-198.69 0c-60.44,0 -90.67,-28.29 -90.67,-84.88l0 -2280.12c0,-25.72 8.36,-46.3 25.08,-61.73 16.72,-15.43 36.65,-23.15 59.8,-23.15l200.62 0c27.01,0 48.87,8.36 64.95,25.08 16.07,16.72 23.79,36.65 23.79,59.8l0 2280.12zm0 -2809.32c0,57.23 -28.29,85.52 -84.88,85.52l-198.69 0c-60.44,0 -90.67,-28.29 -90.67,-85.52l0 -199.34c0,-26.36 8.36,-46.94 25.08,-62.37 16.72,-15.43 36.65,-23.15 59.8,-23.15l200.62 0c27.01,0 48.87,8.36 64.95,24.44 16.07,16.07 23.79,36.01 23.79,61.08l0 199.34zm997.31 768.4c36.01,-45.01 76.52,-89.38 121.53,-132.46 45.01,-43.08 95.81,-81.67 151.75,-115.75 55.94,-34.07 117.67,-61.72 185.83,-82.94 68.16,-21.22 144.68,-31.51 229.56,-31.51 158.18,0 297.71,27 418.6,81.66 120.88,54.66 222.48,129.25 304.14,223.77 81.67,94.52 143.39,205.76 185.19,333.08 41.8,127.32 62.37,263.64 62.37,408.96l0 1309.82c0,43.72 -10.93,76.51 -33.43,98.38 -22.51,21.86 -51.45,32.79 -86.17,32.79l-142.75 0c-47.58,0 -77.8,-9.65 -91.3,-28.94 -13.51,-19.29 -20.58,-51.44 -20.58,-96.45l0 -1315.6c0,-77.16 -10.29,-156.26 -31.51,-236.63 -21.22,-80.38 -55.94,-153.04 -104.17,-218.63 -48.22,-65.58 -112.52,-118.95 -192.26,-160.11 -79.73,-41.15 -177.47,-61.73 -293.21,-61.73 -73.31,0 -149.18,12.86 -227.63,39.23 -78.45,26.36 -149.82,65.59 -214.12,117.03 -64.3,51.44 -117.03,115.1 -158.83,190.97 -41.79,75.88 -63.01,162.68 -63.01,260.42l0 1425.56c0,56.59 -28.29,84.88 -84.88,84.88l-198.69 0c-60.44,0 -90.67,-28.29 -90.67,-84.88l0 -2280.12c0,-25.72 8.36,-46.3 25.08,-61.73 16.72,-15.43 36.65,-23.15 59.8,-23.15l200.62 0c27.01,0 48.87,8.36 64.95,25.08 16.07,16.72 23.79,36.65 23.79,59.8l0 239.2zm2536.69 0c36.01,-45.01 76.52,-89.38 121.53,-132.46 45.01,-43.08 95.81,-81.67 151.75,-115.75 55.94,-34.07 117.67,-61.72 185.83,-82.94 68.16,-21.22 144.68,-31.51 229.56,-31.51 158.18,0 297.71,27 418.6,81.66 120.88,54.66 222.48,129.25 304.14,223.77 81.67,94.52 143.39,205.76 185.19,333.08 41.8,127.32 62.37,263.64 62.37,408.96l0 1309.82c0,43.72 -10.93,76.51 -33.43,98.38 -22.51,21.86 -51.45,32.79 -86.17,32.79l-142.75 0c-47.58,0 -77.8,-9.65 -91.3,-28.94 -13.51,-19.29 -20.58,-51.44 -20.58,-96.45l0 -1315.6c0,-77.16 -10.29,-156.26 -31.51,-236.63 -21.22,-80.38 -55.94,-153.04 -104.17,-218.63 -48.22,-65.58 -112.52,-118.95 -192.26,-160.11 -79.73,-41.15 -177.47,-61.73 -293.21,-61.73 -73.31,0 -149.18,12.86 -227.63,39.23 -78.45,26.36 -149.82,65.59 -214.12,117.03 -64.3,51.44 -117.03,115.1 -158.83,190.97 -41.79,75.88 -63.01,162.68 -63.01,260.42l0 1425.56c0,56.59 -28.29,84.88 -84.88,84.88l-198.69 0c-60.44,0 -90.67,-28.29 -90.67,-84.88l0 -2280.12c0,-25.72 8.36,-46.3 25.08,-61.73 16.72,-15.43 36.65,-23.15 59.8,-23.15l200.62 0c27.01,0 48.87,8.36 64.95,25.08 16.07,16.72 23.79,36.65 23.79,59.8l0 239.2zm3904.38 1564.45c11.57,-10.29 24.43,-19.93 37.94,-28.94 13.5,-9 27,-13.5 41.15,-13.5 19.29,0 37.94,11.57 55.94,34.72 25.72,34.73 46.94,63.02 63.02,84.88 16.07,21.86 28.93,39.22 39.22,52.09 10.29,14.14 18,24.43 23.15,30.86 6.43,7.72 11.57,15.43 15.43,23.79 3.86,8.36 5.79,18.01 5.79,28.29 0,14.15 -5.15,29.58 -16.08,45.66 -10.93,16.07 -30.22,34.72 -57.23,57.23 -55.3,43.72 -112.52,83.59 -172.32,118.95 -59.8,35.37 -122.82,66.23 -188.41,91.95 -65.58,26.37 -134.39,46.3 -207.05,60.45 -72.66,14.14 -149.82,21.22 -230.84,21.22 -114.45,0 -225.05,-15.44 -331.79,-45.66 -106.74,-30.22 -207.05,-73.3 -301.58,-129.24 -94.52,-55.94 -180.68,-122.82 -258.49,-199.98 -77.8,-77.16 -145.32,-162.68 -201.9,-256.56 -56.59,-94.53 -100.31,-194.84 -131.18,-302.86 -30.86,-107.38 -46.3,-219.27 -46.3,-335.01 0,-115.74 14.79,-228.27 43.73,-336.3 28.93,-108.02 70.09,-208.98 123.46,-303.5 53.37,-93.88 117.67,-179.4 193.54,-256.56 75.88,-77.16 161.4,-144.04 255.92,-199.34 94.53,-55.3 196.77,-97.73 306.72,-127.96 109.96,-30.22 225.7,-45.65 347.87,-45.65 96.45,0 192.26,10.93 287.43,32.79 95.16,21.87 186.47,54.02 273.92,95.81 87.45,41.8 169.76,93.24 246.28,155.61 76.51,61.73 144.67,132.46 205.12,212.2 82.3,110.59 143.39,237.27 183.26,378.73 39.86,141.46 58.51,304.15 55.94,488.69 0,60.44 -28.29,90.67 -84.88,90.67l-2033.21 0c21.86,102.88 60.45,198.04 115.1,285.49 54.66,87.45 120.25,163.33 196.76,228.27 76.52,64.95 161.4,115.75 255.28,152.4 93.88,36.65 190.98,55.3 291.29,55.3 70.73,0 135.03,-7.08 192.26,-20.58 57.22,-13.5 109.31,-31.51 156.25,-54.01 46.94,-22.51 90.02,-48.23 129.89,-77.16 39.86,-28.94 78.44,-58.52 115.74,-89.38l3.86 -3.86zm-1057.12 -1427.49c-97.73,65.59 -181.97,147.89 -252.7,247.56 -70.73,99.67 -118.96,209.62 -144.68,329.22l1743.85 0c-14.14,-106.74 -46.94,-203.83 -99.02,-291.28 -52.08,-87.45 -117.67,-162.04 -196.12,-223.77 -78.45,-61.73 -166.54,-109.96 -264.92,-144.04 -98.38,-34.08 -200.62,-50.79 -306.08,-50.79 -83.59,0 -165.89,10.93 -247.56,32.79 -81.66,21.86 -159.46,55.3 -232.77,100.31zm2600.35 -202.55c15.44,-29.58 37.94,-61.73 66.88,-96.45 28.93,-34.72 63.66,-66.87 104.81,-96.45 41.15,-29.58 88.09,-54.66 140.82,-74.59 52.73,-19.94 110.6,-29.58 173.61,-29.58 69.45,0 132.46,2.57 188.41,8.36 55.94,5.78 108.66,16.07 158.82,30.86 50.15,14.79 99.02,34.72 145.96,59.8 46.94,25.08 95.81,57.23 147.25,95.81 15.44,11.58 32.8,26.36 51.44,44.37 18.65,18 27.65,39.22 27.65,63.66 0,14.14 -3.21,27 -9.64,38.58l-113.81 175.54c-18.01,21.86 -36.01,32.79 -54.02,32.79 -10.29,0 -19.93,-3.85 -28.93,-10.93 -9.01,-7.07 -19.94,-14.79 -32.8,-23.79 -79.73,-54.01 -156.89,-93.88 -232.12,-118.96 -75.24,-25.07 -155.61,-37.29 -240.49,-37.29 -64.3,0 -126.03,12.22 -185.19,36.65 -59.16,24.44 -111.24,59.16 -156.89,104.81 -45.66,45.66 -82.31,101.6 -109.96,167.83 -27.65,66.23 -41.8,141.46 -41.8,225.05l0 1510.44c0,56.59 -28.29,84.88 -84.87,84.88l-200.62 0c-59.16,0 -88.74,-28.29 -88.74,-84.88l0 -2280.12c0,-25.72 8.36,-46.3 25.08,-61.73 16.72,-15.43 36.65,-23.15 59.8,-23.15l200.62 0c27,0 48.87,8.36 64.94,25.08 16.08,16.72 23.79,36.65 23.79,59.8l0 173.61zm1452.57 1712.99c-6.43,-19.29 -10.93,-35.37 -13.5,-47.58 -2.57,-12.22 -1.93,-22.51 1.29,-30.87 3.21,-8.36 8.36,-15.43 15.43,-21.86 7.07,-6.43 16.72,-12.86 29.58,-19.29l182.61 -84.88c32.15,-12.86 57.23,-11.57 75.24,4.5 18,16.08 32.15,36.01 42.43,59.16 19.3,50.15 49.52,93.88 91.31,131.82 41.8,37.93 86.81,69.44 135.68,93.88 48.22,24.43 97.74,42.43 147.89,54.65 50.16,12.22 93.24,18.65 128.6,18.65 48.87,0 102.89,-7.07 162.04,-21.22 58.52,-14.15 114.46,-36.01 165.9,-65.59 52.09,-29.58 95.81,-68.16 131.18,-115.1 35.36,-46.94 52.72,-102.24 52.72,-166.54 0,-69.44 -16.72,-125.38 -50.15,-167.82 -33.44,-42.44 -76.52,-77.81 -129.89,-105.46 -53.37,-27.65 -113.17,-49.51 -179.4,-66.23 -66.23,-16.72 -131.82,-34.08 -197.41,-52.08 -115.1,-30.87 -218.62,-68.8 -308.64,-113.17 -90.67,-44.37 -167.83,-95.81 -231.49,-154.33 -63.66,-58.51 -111.88,-125.38 -145.32,-200.62 -33.44,-75.23 -50.15,-159.46 -50.15,-253.34 0,-102.89 19.93,-196.77 59.8,-281.64 39.86,-84.88 95.16,-157.54 166.54,-217.98 71.37,-60.45 156.89,-107.39 255.92,-140.82 99.66,-33.44 209.62,-50.16 330.5,-50.16 99.03,0 183.91,9 255.28,27.01 71.38,18 134.39,44.36 189.69,79.73 55.3,35.37 106.1,79.09 152.39,131.18 46.3,52.08 94.53,112.52 144.68,180.68 15.43,25.72 23.79,47.58 25.08,66.23 1.29,18.65 -10.29,37.3 -34.72,55.3l-150.47 113.81c-29.58,16.72 -52.08,21.22 -67.51,13.51 -15.44,-7.72 -32.16,-22.51 -50.16,-44.37 -29.58,-34.72 -58.51,-68.16 -86.81,-100.31 -28.29,-32.15 -59.8,-61.09 -95.81,-86.16 -36,-25.08 -77.16,-45.01 -122.81,-59.8 -45.01,-14.79 -99.67,-21.87 -162.04,-21.87 -56.59,0 -111.24,6.43 -163.97,19.29 -52.73,12.86 -99.67,33.44 -141.46,61.73 -41.8,28.3 -75.23,63.66 -100.31,106.74 -25.08,43.09 -37.3,94.53 -37.3,153.68 0,45.01 15.44,86.17 46.3,124.11 30.87,37.93 70.09,72.66 117.67,103.52 47.58,30.87 99.03,57.23 155.61,79.09 56.59,21.86 111.24,39.22 163.97,52.09 122.17,28.29 233.41,64.3 334.37,108.02 100.31,43.73 187.11,95.81 259.13,156.25 71.38,60.45 127.32,130.54 167.18,210.91 39.87,80.38 59.8,171.69 59.8,273.28 0,111.89 -21.86,212.2 -66.23,301.58 -44.36,89.37 -106.09,165.25 -185.18,227.62 -78.45,62.37 -172.33,110.6 -281.64,144.04 -109.32,33.43 -227.63,50.15 -356.23,50.15 -81.02,0 -163.97,-10.29 -248.85,-30.86 -85.52,-20.58 -165.9,-52.09 -241.77,-94.52 -75.88,-42.44 -144.68,-95.81 -205.77,-160.12 -61.73,-64.3 -108.67,-140.17 -140.82,-227.62z"/>
    <path class="fil0" d="M18423.86 4896.65c9,-29.58 18.65,-57.23 28.29,-82.31 9.65,-25.08 18.65,-47.58 27.65,-68.16l1084.12 -2596.49c6.43,-14.14 14.15,-27 23.15,-38.58 9,-11.57 23.79,-17.36 44.37,-17.36l7.71 0 63.66 0 7.72 0c21.86,0 37.29,5.79 46.29,17.36 9.01,11.58 17.37,23.15 25.08,34.72l1132.35 2729.6c1.28,2.57 2.57,8.36 3.86,18 1.28,9.65 1.93,16.72 1.93,20.58 0,30.86 -20.58,48.87 -61.73,54.01l-102.24 0c-2.57,0 -5.15,0.64 -7.72,1.93 -2.57,1.29 -5.14,1.93 -7.71,1.93 -32.16,0 -55.3,-18.01 -69.45,-54.02l-270.07 -659.73 -1462.21 0c-50.15,123.46 -97.74,241.78 -143.39,353.66 -45.65,112.53 -87.45,214.77 -124.74,308 -14.15,32.15 -36.66,48.23 -67.52,48.23 -7.72,0 -13.5,-1.29 -17.36,-3.86l-102.24 0c-41.15,-3.86 -61.73,-20.57 -61.73,-50.15 0,-2.58 0,-5.79 0,-9.01 0,-3.21 0.64,-5.78 1.93,-8.35zm615.36 -881.58l1263.52 0 -628.86 -1541.3 -634.66 1541.3zm4184.09 -1039.75c-2.57,2.57 -5.79,5.79 -9.65,9.65 -3.86,3.85 -9,5.78 -15.43,5.78 -10.29,0 -22.51,-7.07 -36.65,-21.22 -15.43,-15.43 -39.87,-37.93 -73.95,-67.51 -34.08,-29.58 -79.73,-59.8 -136.32,-90.02 -56.58,-30.23 -124.74,-56.59 -205.12,-79.09 -80.38,-22.51 -174.9,-33.44 -282.92,-33.44 -136.32,0 -266.86,27.65 -391.6,82.95 -124.74,55.3 -234.7,129.89 -329.87,225.05 -95.16,95.17 -171.04,206.41 -227.62,333.08 -56.59,127.32 -84.88,261.71 -84.88,404.46 0,142.75 27.65,277.14 82.31,404.45 54.65,126.68 128.6,238.56 222.48,335.01 93.88,96.46 203.19,172.33 327.29,228.92 124.1,56.58 255.28,84.87 394.17,84.87 68.16,0 131.17,-5.14 189.05,-15.43 57.87,-10.29 112.52,-25.08 163.96,-43.72 51.44,-18.65 99.67,-40.51 144.68,-66.23 45.01,-25.72 89.38,-54.02 133.11,-84.88 9,-6.43 20.57,-15.43 34.08,-26.36 13.5,-10.94 27,-21.22 40.5,-30.87 13.51,-9.64 25.73,-18 37.3,-25.08 11.57,-7.07 21.22,-10.28 28.94,-10.28 11.57,0 24.43,7.71 38.58,23.14 21.86,29.58 37.93,52.73 47.58,70.09 9.64,17.36 14.15,30.87 14.15,39.87 0,5.14 -2.58,10.29 -7.72,15.43 5.14,7.72 7.72,14.15 7.72,19.29 -28.3,38.58 -69.45,76.52 -123.46,113.82 -104.17,74.58 -216.06,133.1 -336.3,176.18 -120.24,43.08 -252.7,64.95 -396.74,64.95 -114.45,0 -225.05,-15.44 -332.44,-45.66 -107.38,-30.22 -208.33,-72.66 -302.21,-127.96 -93.88,-55.3 -179.4,-121.53 -257.21,-198.69 -77.8,-77.8 -144.68,-163.33 -199.98,-257.21 -55.29,-93.87 -97.73,-194.83 -127.95,-302.21 -30.23,-107.38 -45.66,-218.63 -45.66,-335.01 0,-115.74 15.43,-227.63 45.66,-335.65 30.22,-108.03 72.66,-208.98 127.95,-302.86 55.3,-93.88 122.18,-179.4 199.98,-257.21 77.81,-77.16 163.33,-143.39 257.21,-198.69 93.88,-55.3 194.83,-97.74 302.21,-127.96 107.39,-30.22 217.99,-45.65 332.44,-45.65 77.16,0 153.04,7.71 226.99,22.5 73.94,14.79 144.67,35.37 212.83,61.09 68.16,26.36 132.46,56.58 192.91,92.59 60.44,35.37 115.74,73.95 165.89,115.1l0 -1.93 3.86 5.79c11.58,10.29 22.51,19.93 32.15,28.94 9.65,9 14.15,20.57 14.15,34.72 0,12.86 -8.36,28.93 -25.08,48.22l-71.37 84.88zm2789.39 1606.89l-5.78 -146.61c-51.45,88.74 -113.18,168.47 -185.84,239.85 -72.66,71.37 -153.03,132.46 -241.13,182.61 -88.09,50.16 -182.61,88.74 -282.92,115.75 -100.31,27 -204.48,40.51 -312.51,40.51 -115.74,0 -226.98,-15.44 -334.36,-45.66 -107.39,-30.22 -208.34,-73.3 -302.22,-129.24 -93.88,-55.94 -179.4,-122.18 -257.2,-199.34 -77.81,-77.16 -144.68,-162.68 -199.98,-256.56 -55.3,-93.88 -97.74,-194.83 -127.96,-302.22 -30.22,-107.38 -45.66,-218.62 -45.66,-334.36 0,-115.74 15.44,-227.63 45.66,-335.01 30.22,-107.39 73.3,-207.7 129.24,-301.58 55.95,-93.88 122.18,-179.4 199.34,-256.56 77.16,-77.16 162.68,-144.03 256.56,-199.98 93.88,-55.94 194.83,-99.02 302.22,-129.24 107.38,-30.22 218.62,-45.01 334.36,-45.01 105.46,0 208.98,13.5 309.94,40.51 100.95,27 195.47,65.59 284.21,116.38 88.73,50.8 170.4,112.53 244.34,184.55 73.95,72.02 136.97,152.39 189.69,241.13l0 -142.75 0 -331.8c0,-41.15 19.94,-61.72 60.45,-61.72l100.95 0c44.37,0 66.23,20.57 66.23,61.72l0 2318.71c0,21.86 -7.07,37.3 -21.22,46.94 -14.15,9.65 -31.51,14.79 -50.8,14.79l-79.73 0c-50.8,0 -75.88,-23.15 -75.88,-69.45l0 -316.36zm11.58 -835.27c0,-140.18 -28.3,-273.28 -84.88,-399.31 -56.59,-126.68 -132.46,-237.92 -227.63,-333.08 -94.52,-95.81 -205.12,-171.69 -331.15,-228.27 -126.03,-56.59 -258.49,-85.53 -396.74,-86.81l-5.79 0c-137.6,0 -268.78,28.29 -392.23,84.88 -124.11,56.58 -233.42,132.46 -326.65,228.27 -93.88,95.16 -168.47,206.4 -223.77,331.79 -55.3,126.03 -82.95,258.49 -82.95,398.67 0,140.18 26.36,273.92 79.73,401.24 53.37,127.96 126.67,240.49 219.27,336.94 91.95,97.09 200.62,174.26 324.72,231.48 123.46,57.23 256.56,85.52 398.03,85.52 142.1,0 277.78,-27.65 405.09,-83.59 127.96,-55.94 239.85,-131.81 334.37,-227.62 95.17,-95.17 171.04,-207.05 226.98,-333.73 55.95,-127.31 83.6,-262.35 83.6,-406.38zm3235 1159.35c0,41.15 -20.58,61.73 -61.73,61.73l-100.31 0c-41.15,0 -61.73,-20.58 -61.73,-61.73l0 -322.79 -7.71 -142.75c-25.72,42.44 -53.37,86.16 -82.95,129.89 -29.58,43.72 -61.09,81.02 -94.53,111.88 -114.45,108.03 -243.05,190.98 -386.45,248.85 -143.39,57.87 -295.14,86.81 -455.89,86.81 -115.1,0 -226.99,-15.44 -334.37,-45.66 -107.38,-30.22 -207.69,-72.66 -301.57,-127.96 -93.88,-55.3 -179.4,-121.53 -256.57,-198.69 -76.51,-77.8 -142.74,-162.68 -198.04,-255.92 -55.3,-93.24 -98.38,-194.19 -128.61,-302.22 -30.22,-108.02 -45.01,-219.91 -45.01,-336.29 0,-115.74 14.79,-227.63 45.01,-335.65 30.23,-108.03 73.31,-208.98 128.61,-302.86 55.3,-93.88 121.53,-179.4 198.04,-257.21 77.17,-77.16 162.69,-143.39 256.57,-198.69 93.88,-55.3 194.19,-97.74 301.57,-127.96 107.38,-30.22 219.27,-45.65 334.37,-45.65 81.02,0 160.11,8.36 237.27,25.07 77.16,16.72 151.75,40.51 223.77,70.74 72.02,30.22 140.17,66.23 205.12,108.66 64.94,43.09 124.74,90.03 180.04,141.47 34.73,36.01 64.95,72.02 90.67,108.67 25.72,36.65 55.94,79.09 90.66,126.67l0 -1241.02c0,-9 3.22,-16.71 9.65,-23.14 6.43,-6.43 14.79,-9.65 25.08,-9.65l136.96 -1.93c34.72,0 52.08,17.36 52.08,52.09l0 3065.24zm-2276.27 -1155.49c0,141.46 26.37,275.21 79.74,401.24 53.37,126.67 126.03,237.91 218.62,333.08 92.6,95.81 200.62,171.68 324.72,228.27 123.46,56.58 255.92,84.87 397.39,84.87 142.75,0 277.13,-27 404.45,-81.66 127.32,-54.65 238.56,-129.24 333.73,-223.77 95.8,-93.88 171.04,-205.12 226.34,-331.79 55.3,-127.32 82.94,-262.35 82.94,-406.39 0,-141.46 -27,-275.85 -81.01,-403.17 -54.02,-127.96 -127.32,-239.84 -221.2,-336.29 -93.88,-96.45 -203.84,-172.97 -329.22,-230.2 -126.03,-57.23 -259.78,-85.52 -402.53,-85.52 -142.75,0 -276.5,27.65 -402.53,83.59 -125.38,55.94 -235.34,131.82 -327.93,228.27 -93.24,96.45 -167.19,207.69 -221.84,335.01 -54.66,127.32 -81.67,261.71 -81.67,404.46zm2966.87 79.09c3.86,21.86 7.07,50.79 9,87.45 1.93,36.65 7.08,71.37 16.08,103.52 32.15,114.46 79.73,219.27 142.11,314.43 62.37,95.17 136.31,176.83 222.48,244.99 86.16,68.16 182.61,121.53 288.71,160.11 106.1,38.58 217.98,57.87 336.3,57.87 68.16,0 131.81,-5.14 190.97,-15.43 59.16,-10.29 114.46,-25.08 165.26,-43.72 50.79,-18.65 99.02,-40.51 144.67,-66.23 45.66,-25.72 88.74,-54.02 129.89,-84.88 12.86,-7.72 26.37,-17.36 39.87,-28.29 13.5,-10.93 26.36,-21.22 39.22,-30.87 12.86,-9.64 25.08,-18 36.01,-25.08 10.93,-7.07 20.58,-10.28 29.58,-10.28 10.29,0 21.86,8.36 34.72,25.07 21.87,30.87 37.94,54.66 47.59,71.38 9.64,16.72 14.14,29.58 14.14,38.58 0,5.14 -2.57,10.29 -7.71,15.43 6.43,6.43 9.64,12.86 9.64,19.29 -14.14,18.01 -31.51,36.65 -52.08,55.94 -20.58,19.29 -45.01,38.58 -73.31,57.88 -104.16,74.58 -216.69,133.1 -337.58,176.18 -120.88,43.08 -252.7,64.95 -395.45,64.95 -173.61,0 -336.94,-33.44 -490.62,-99.67 -153.68,-66.23 -288.07,-156.9 -403.17,-272 -115.1,-115.1 -206.41,-249.49 -273.92,-402.52 -67.52,-153.04 -101.6,-316.37 -101.6,-490.62 0,-117.03 14.79,-229.56 44.37,-337.58 29.58,-108.03 71.37,-208.98 125.39,-302.86 54.01,-93.88 119.6,-179.4 196.12,-257.21 76.51,-77.16 162.03,-143.39 256.56,-198.69 94.52,-55.3 196.12,-97.74 304.79,-127.96 108.67,-30.22 222.48,-45.65 342.08,-45.65 111.88,0 220.55,13.5 325.36,40.51 104.82,27 203.2,66.23 295.79,117.67 92.59,50.8 177.47,113.81 253.99,188.4 76.52,74.59 142.11,158.82 197.41,252.7 55.29,93.24 99.02,196.77 131.17,309.94 32.15,113.17 50.16,233.41 54.01,362.01l0 -1.93c0,1.29 0.65,3.22 1.29,5.15 0.64,1.93 0.64,3.86 0.64,6.43 0,43.72 -20.57,65.59 -61.73,65.59l-2228.04 0zm756.19 -1087.98c-97.74,25.72 -189.05,66.23 -273.93,120.88 -84.88,55.3 -160.11,120.89 -225.7,196.77 -65.58,75.87 -120.24,159.46 -164.61,252.06 -44.37,92.59 -75.23,189.04 -91.95,290.64l2064.07 0c-15.43,-128.6 -53.37,-247.56 -114.45,-356.87 -61.09,-109.96 -138.25,-205.12 -230.84,-284.86 -92.6,-80.37 -197.41,-143.39 -315.08,-189.04 -117.67,-45.66 -241.13,-68.16 -369.73,-68.16 -43.73,0 -86.17,1.93 -127.32,6.43 -41.15,4.5 -91.31,15.43 -150.46,32.15zm2991.29 -23.15c-89.37,0 -174.89,15.43 -257.2,46.3 -82.31,30.86 -155.61,74.59 -220.55,131.17 -64.31,56.59 -117.03,124.1 -158.19,203.19 -41.15,79.09 -64.3,167.19 -69.44,263.64l0 983.81c0,3.86 0,7.72 0,11.57 0,3.86 0,7.08 0,9.65l0 538.2c0,41.15 -19.93,61.73 -59.8,61.73l-100.31 0c-42.44,0 -63.66,-20.58 -63.66,-61.73l0 -2314.85c0,-21.86 7.07,-38.58 21.86,-49.51 14.79,-10.93 32.15,-16.07 52.73,-16.07l78.45 0c23.15,0 40.51,6.43 52.72,19.93 12.22,13.5 18.01,30.86 18.01,51.44l1.93 291.28c45.01,-61.72 92.59,-117.02 142.75,-165.89 50.15,-48.87 104.17,-90.67 162.68,-125.39 58.51,-34.72 121.53,-61.09 189.05,-79.09 67.51,-18.01 141.46,-27.01 222.48,-27.01 192.9,0 357.51,45.66 493.83,136.96 135.68,91.31 241.78,216.7 317.65,376.81 36.01,-86.16 82.31,-162.04 138.89,-226.34 56.59,-64.3 120.89,-117.67 191.62,-160.11 70.73,-42.44 147.25,-73.95 229.56,-95.17 82.3,-21.22 167.18,-32.15 254.63,-32.15 123.46,0 237.27,21.22 340.8,63.02 103.52,41.79 194.19,98.38 271.99,170.4 77.81,72.01 141.46,156.89 190.33,255.27 48.87,97.74 81.02,203.19 96.45,316.37 5.79,43.72 9.01,88.09 9.65,133.1 1.29,45.01 1.93,90.02 1.93,135.03l0 1316.89c0,29.58 -7.07,51.44 -21.22,65.59 -14.15,14.15 -32.79,21.22 -55.94,21.22l-73.31 0c-29.57,0 -48.87,-6.43 -58.51,-19.29 -9.65,-12.86 -14.79,-34.08 -14.79,-63.66l0 -1448.71c-3.86,-90.02 -21.86,-178.76 -54.01,-265.56 -32.15,-86.81 -77.81,-163.33 -136.96,-230.2 -59.16,-66.87 -131.18,-120.89 -216.7,-162.04 -85.52,-41.15 -183.26,-61.73 -292.57,-61.73 -88.74,0 -171.04,14.15 -247.56,42.44 -76.52,28.29 -144.68,67.52 -204.48,117.67 -59.8,50.16 -109.95,109.31 -149.82,178.12 -39.87,68.8 -66.23,144.03 -79.09,225.05 -15.43,88.74 -23.15,181.97 -23.15,279.71l0 1323.32c0,28.29 -7.07,49.51 -21.22,63.66 -14.15,14.15 -32.15,21.22 -55.3,21.22l-72.66 0c-29.58,0 -48.87,-6.43 -59.16,-19.29 -10.29,-12.86 -15.43,-34.08 -15.43,-63.66l0 -1325.25c0,-41.15 -0.64,-83.59 -2.57,-126.67 -1.93,-43.08 -6.43,-85.52 -12.86,-127.96 -11.58,-79.74 -36.01,-154.97 -73.31,-225.7 -37.29,-70.73 -85.52,-133.1 -144.67,-186.47 -59.8,-53.37 -128.61,-95.81 -207.05,-127.32 -78.45,-31.51 -164.62,-46.94 -258.5,-46.94zm3754.56 2941.79c-10.28,25.72 -27.65,41.15 -52.72,46.94 -25.08,5.78 -51.44,9 -78.45,9 -39.87,0 -68.8,-3.86 -86.81,-11.58 -18,-7.71 -27,-25.07 -27,-52.08 0,-6.43 0.64,-12.86 1.92,-19.29 1.29,-6.43 2.58,-10.93 3.86,-13.5l297.08 -747.83 -933.66 -2251.83c-5.14,-5.15 -7.72,-18.65 -7.72,-40.51 0,-27.01 10.93,-43.73 32.8,-49.51 21.86,-5.79 53.37,-8.36 94.52,-8.36 25.72,0 50.16,2.57 73.3,7.71 23.15,5.15 39.23,18.65 48.23,40.51l46.3 111.89c36.01,87.45 75.23,184.54 117.67,290 42.44,105.45 86.8,214.76 132.46,327.93 45.65,113.82 91.95,228.27 139.53,345.3 47.59,116.39 94.53,230.2 140.18,341.44 45.65,111.24 88.74,217.98 129.89,318.94 41.15,100.95 79.09,192.9 113.81,275.21 36.01,-87.45 75.88,-185.19 119.6,-291.93 43.73,-106.74 89.38,-218.63 136.96,-335.66 47.59,-117.67 96.46,-237.27 145.97,-359.44 49.51,-122.17 97.74,-243.06 145.32,-362.02 47.58,-118.95 93.88,-234.7 138.89,-345.94 45.01,-111.24 86.81,-214.12 125.39,-308 14.14,-37.3 39.22,-55.94 75.23,-55.94l106.1 0c47.58,0 71.37,20.57 71.37,61.73 0,6.43 -1.28,13.5 -3.86,21.22 -2.57,7.71 -3.85,12.86 -3.85,15.43l-1242.31 3040.17z"/>
   </g>
  </g>
  <path class="fil1" d="M45390.24 3843.68l-84.59 59.3c-8.17,13.82 -17.12,39.6 -17.23,52.35l0 714.9 84.59 -59.3c8.17,-13.83 17.12,-39.61 17.23,-52.36l0 -714.89zm-4787.07 24.88l0 719.55c0.19,12.06 8.58,36.14 16.32,49.42l2189.05 1511.15c137.4,96.99 249.46,80.4 387.61,-5.92 354.38,-242.39 708.76,-484.79 1063.14,-727.17 7.62,-13.15 15.84,-36.76 16.04,-48.55l0 -721.77 -743.52 512.19c-338.95,233.49 -709.89,223.08 -1057.91,8.22l-6.81 -4.21 -1863.92 -1292.91zm-492.56 -1233.12l2795.02 1956.54c45.51,31.86 154.81,19.55 199.67,-11.86l1167.45 -817.25 -1704.66 -1193.42 622.73 -435.82 1704.59 1193.35 988 -691.53 -2795.02 -1956.52c-45.53,-31.87 -154.79,-19.57 -199.67,11.85l-2778.11 1944.66zm5579.63 827.88l0 1095.25c0,107.99 -59.24,237.87 -131.64,288.63l-438.53 307.43c-72.41,50.76 -131.65,3.94 -131.65,-104.04l0 -1095.26c0,-107.99 59.24,-237.87 131.65,-288.62l438.53 -307.44c72.4,-50.75 131.64,-3.94 131.64,104.05zm-3058.74 1447.09c270.97,167.29 511.57,150.58 730.12,0l1081.33 -744.9c72.81,-50.15 132.38,-3.31 132.38,104.01l0 1097.52c0,107.35 -59.43,236.5 -132.38,286.39 -360.73,246.73 -721.46,493.47 -1082.19,740.2 -268.23,169.69 -507.49,153.84 -725.23,0.14l-2200.51 -1519.04c-72.5,-50.05 -131.85,-179.17 -131.85,-286.55l0 -1097.48c0,-107.38 59.45,-154.09 131.85,-103.89l2196.48 1523.6zm628.93 -4477.25l2882.71 2017.9c144.89,101.41 137.23,272.73 -16.94,380.64l-1230.81 861.48 -1704.6 -1193.36 -99.55 69.67 1698.1 1188.83 0 2403.97c94.98,33.29 165.78,162.13 165.78,315.93l0 342.55c0,179.07 -95.99,324.3 -214.35,324.3 -118.37,0 -214.36,-145.23 -214.36,-324.3l0 -342.55c0,-153.47 70.5,-282.08 165.16,-315.72l-2.96 -2324.54 -1411.27 987.93c-154.16,107.92 -398.89,113.27 -543.75,11.86l-2882.71 -2017.92c-144.88,-101.41 -137.25,-272.71 16.94,-380.63l2848.86 -1994.19c154.18,-107.94 398.88,-113.27 543.75,-11.85z"/>
 </g>
</svg>
