<?xml version="1.0" encoding="UTF-8"?>
<!DOCTYPE svg PUBLIC "-//W3C//DTD SVG 1.1//EN" "http://www.w3.org/Graphics/SVG/1.1/DTD/svg11.dtd">
<!-- Creator: CorelDRAW 2020 (64-Bit) -->
<svg xmlns="http://www.w3.org/2000/svg" xml:space="preserve" width="295mm" height="90mm" version="1.1" style="shape-rendering:geometricPrecision; text-rendering:geometricPrecision; image-rendering:optimizeQuality; fill-rule:evenodd; clip-rule:evenodd"
viewBox="0 0 29500 9000"
 xmlns:xlink="http://www.w3.org/1999/xlink"
 xmlns:xodm="http://www.corel.com/coreldraw/odm/2003">
 <defs>
  <style type="text/css">
   <![CDATA[
    .fil1 {fill:none;fill-rule:nonzero}
    .fil2 {fill:white}
    .fil0 {fill:white;fill-rule:nonzero}
   ]]>
  </style>
 </defs>
 <g id="Layer_x0020_1">
  <metadata id="CorelCorpID_0Corel-Layer"/>
  <path class="fil0" d="M3701.58 2830.12c15.74,-38.49 40.24,-57.73 73.48,-57.73l341.17 0c43.74,0 73.48,7.87 88.35,24.49 14.87,16.62 21.87,37.62 21.87,62.11l0 34.12 -600.98 1448.65 640.35 1558.88 1225.58 -3031.15c24.49,-64.74 70.86,-97.1 139.09,-97.1l270.31 0c43.74,0 74.36,7.87 90.98,24.49 16.62,16.62 24.49,37.62 24.49,62.11l0 23.62 -1530.01 3676.74c0,1.75 -1.75,7.88 -6.12,19.25 -4.37,11.37 -12.25,23.62 -22.74,36.74 -10.5,13.12 -24.5,25.37 -41.99,36.74 -17.5,11.37 -38.49,17.5 -62.99,17.5l-178.46 0c-43.74,0 -76.1,-11.38 -97.97,-34.12 -21.87,-22.75 -33.24,-43.74 -33.24,-62.99l-677.09 -1616.61 -669.22 1603.49c-8.74,29.74 -23.62,55.11 -45.49,76.98 -21.86,21.87 -47.23,33.25 -75.23,33.25l-186.33 0c-36.74,0 -65.61,-12.25 -86.6,-35.87 -21,-23.62 -35.87,-44.62 -44.62,-63.86l-1524.75 -3676.74c-1.75,-3.5 -3.5,-8.75 -6.13,-15.75 -2.62,-7 -4.37,-14.87 -4.37,-23.62 0,-54.24 34.11,-81.35 102.35,-81.35l293.93 0c26.24,0 50.74,8.74 73.48,26.24 22.74,17.5 41.12,45.49 55.11,83.98l1228.21 3018.03 1225.58 -3070.52z"/>
  <path id="1" class="fil0" d="M7094.89 6556.73c0,76.98 -38.5,115.47 -115.48,115.47l-270.31 0c-82.23,0 -123.34,-38.49 -123.34,-115.47l0 -3102.01c0,-34.99 11.37,-62.98 34.11,-83.98 22.75,-20.99 49.87,-31.49 81.36,-31.49l272.93 0c36.75,0 66.49,11.37 88.36,34.12 21.87,22.74 32.37,49.86 32.37,81.35l0 3102.01zm0 -3821.96c0,77.86 -38.5,116.35 -115.48,116.35l-270.31 0c-82.23,0 -123.34,-38.49 -123.34,-116.35l0 -271.18c0,-35.87 11.37,-63.86 34.11,-84.86 22.75,-20.99 49.87,-31.49 81.36,-31.49l272.93 0c36.75,0 66.49,11.37 88.36,33.24 21.87,21.87 32.37,48.99 32.37,83.11l0 271.18z"/>
  <path id="2" class="fil0" d="M8451.69 3780.14c48.98,-61.23 104.1,-121.59 165.33,-180.2 61.24,-58.61 130.34,-111.1 206.45,-157.46 76.11,-46.37 160.09,-83.98 252.82,-112.85 92.72,-28.87 196.82,-42.87 312.3,-42.87 215.19,0 405.02,36.74 569.48,111.1 164.46,74.36 302.68,175.83 413.78,304.43 111.1,128.59 195.08,279.93 251.94,453.14 56.86,173.21 84.85,358.66 84.85,556.37l0 1781.94c0,59.49 -14.87,104.1 -45.49,133.85 -30.61,29.74 -69.98,44.61 -117.22,44.61l-194.2 0c-64.73,0 -105.85,-13.12 -124.22,-39.37 -18.37,-26.24 -27.99,-69.98 -27.99,-131.21l0 -1789.82c0,-104.98 -14,-212.58 -42.87,-321.93 -28.87,-109.35 -76.11,-208.2 -141.71,-297.43 -65.61,-89.22 -153.09,-161.83 -261.57,-217.82 -108.47,-55.98 -241.44,-83.98 -398.9,-83.98 -99.73,0 -202.95,17.5 -309.68,53.36 -106.72,35.87 -203.82,89.23 -291.3,159.22 -87.48,69.98 -159.21,156.58 -216.07,259.81 -56.87,103.22 -85.73,221.32 -85.73,354.29l0 1939.41c0,76.98 -38.5,115.47 -115.48,115.47l-270.31 0c-82.23,0 -123.34,-38.49 -123.34,-115.47l0 -3102.01c0,-34.99 11.37,-62.98 34.11,-83.98 22.75,-20.99 49.87,-31.49 81.36,-31.49l272.93 0c36.75,0 66.49,11.37 88.36,34.12 21.87,22.74 32.37,49.86 32.37,81.35l0 325.42z"/>
  <path id="3" class="fil0" d="M11902.74 3780.14c48.98,-61.23 104.1,-121.59 165.33,-180.2 61.24,-58.61 130.34,-111.1 206.45,-157.46 76.11,-46.37 160.09,-83.98 252.82,-112.85 92.72,-28.87 196.82,-42.87 312.3,-42.87 215.19,0 405.02,36.74 569.48,111.1 164.46,74.36 302.68,175.83 413.78,304.43 111.1,128.59 195.08,279.93 251.94,453.14 56.86,173.21 84.85,358.66 84.85,556.37l0 1781.94c0,59.49 -14.87,104.1 -45.49,133.85 -30.61,29.74 -69.98,44.61 -117.22,44.61l-194.2 0c-64.73,0 -105.85,-13.12 -124.22,-39.37 -18.37,-26.24 -27.99,-69.98 -27.99,-131.21l0 -1789.82c0,-104.98 -14,-212.58 -42.87,-321.93 -28.87,-109.35 -76.11,-208.2 -141.71,-297.43 -65.61,-89.22 -153.09,-161.83 -261.57,-217.82 -108.47,-55.98 -241.44,-83.98 -398.9,-83.98 -99.73,0 -202.95,17.5 -309.68,53.36 -106.72,35.87 -203.82,89.23 -291.3,159.22 -87.48,69.98 -159.21,156.58 -216.07,259.81 -56.87,103.22 -85.73,221.32 -85.73,354.29l0 1939.41c0,76.98 -38.5,115.47 -115.48,115.47l-270.31 0c-82.23,0 -123.34,-38.49 -123.34,-115.47l0 -3102.01c0,-34.99 11.37,-62.98 34.11,-83.98 22.75,-20.99 49.87,-31.49 81.36,-31.49l272.93 0c36.75,0 66.49,11.37 88.36,34.12 21.87,22.74 32.37,49.86 32.37,81.35l0 325.42z"/>
  <path id="4" class="fil0" d="M17214.46 5908.51c15.75,-14 33.25,-27.12 51.62,-39.37 18.37,-12.24 36.74,-18.37 55.98,-18.37 26.25,0 51.62,15.75 76.11,47.24 34.99,47.24 63.86,85.73 85.73,115.47 21.87,29.75 39.36,53.37 53.36,70.86 14,19.25 24.5,33.24 31.49,41.99 8.75,10.5 15.75,21 21,32.37 5.25,11.37 7.87,24.49 7.87,38.49 0,19.24 -7,40.24 -21.87,62.11 -14.87,21.87 -41.11,47.24 -77.85,77.86 -75.24,59.48 -153.09,113.72 -234.45,161.83 -81.35,48.12 -167.08,90.1 -256.31,125.1 -89.23,35.86 -182.83,62.98 -281.68,82.23 -98.85,19.24 -203.83,28.86 -314.05,28.86 -155.72,0 -306.18,-20.99 -451.39,-62.11 -145.22,-41.11 -281.69,-99.72 -410.28,-175.83 -128.6,-76.1 -245.82,-167.08 -351.67,-272.06 -105.85,-104.97 -197.7,-221.32 -274.68,-349.04 -76.98,-128.59 -136.47,-265.06 -178.46,-412.02 -41.99,-146.09 -62.98,-298.31 -62.98,-455.77 0,-157.46 20.12,-310.55 59.48,-457.52 39.37,-146.96 95.35,-284.3 167.96,-412.9 72.61,-127.72 160.09,-244.06 263.31,-349.04 103.23,-104.97 219.58,-195.95 348.17,-271.18 128.59,-75.23 267.69,-132.97 417.28,-174.09 149.58,-41.11 307.05,-62.11 473.26,-62.11 131.22,0 261.56,14.88 391.03,44.62 129.47,29.74 253.69,73.48 372.66,130.34 118.97,56.86 230.94,126.85 335.04,211.7 104.1,83.98 196.83,180.21 279.06,288.68 111.97,150.47 195.08,322.8 249.32,515.25 54.23,192.46 79.6,413.78 76.1,664.84 0,82.23 -38.49,123.35 -115.47,123.35l-2766.09 0c29.75,139.97 82.23,269.43 156.59,388.41 74.36,118.97 163.59,222.19 267.69,310.55 104.1,88.35 219.57,157.46 347.29,207.32 127.72,49.86 259.81,75.23 396.28,75.23 96.23,0 183.71,-9.62 261.56,-27.99 77.86,-18.37 148.72,-42.86 212.58,-73.48 63.86,-30.62 122.47,-65.61 176.7,-104.98 54.24,-39.36 106.73,-79.6 157.47,-121.59l5.24 -5.25zm-1438.15 -1942.04c-132.97,89.23 -247.57,201.21 -343.79,336.8 -96.23,135.59 -161.84,285.18 -196.83,447.89l2372.43 0c-19.25,-145.21 -63.86,-277.31 -134.72,-396.28 -70.86,-118.97 -160.08,-220.45 -266.81,-304.43 -106.72,-83.98 -226.57,-149.58 -360.41,-195.95 -133.85,-46.36 -272.94,-69.11 -416.4,-69.11 -113.73,0 -225.7,14.87 -336.8,44.62 -111.1,29.74 -216.94,75.23 -316.67,136.46z"/>
  <path id="5" class="fil0" d="M19313.96 3690.92c20.99,-40.24 51.61,-83.98 90.98,-131.22 39.36,-47.24 86.6,-90.98 142.59,-131.22 55.98,-40.24 119.84,-74.36 191.58,-101.48 71.73,-27.12 150.46,-40.24 236.19,-40.24 94.48,0 180.21,3.5 256.31,11.37 76.11,7.88 147.84,21.87 216.08,41.99 68.23,20.13 134.71,47.24 198.57,81.36 63.86,34.12 130.35,77.86 200.33,130.34 21,15.75 44.62,35.87 69.98,60.36 25.37,24.5 37.62,53.37 37.62,86.61 0,19.24 -4.37,36.74 -13.12,52.49l-154.84 238.81c-24.49,29.75 -48.99,44.62 -73.48,44.62 -14,0 -27.12,-5.25 -39.37,-14.87 -12.24,-9.63 -27.12,-20.12 -44.61,-32.37 -108.48,-73.48 -213.45,-127.72 -315.8,-161.84 -102.35,-34.11 -211.7,-50.73 -327.17,-50.73 -87.48,0 -171.46,16.62 -251.94,49.86 -80.48,33.24 -151.34,80.48 -213.45,142.59 -62.11,62.11 -111.97,138.22 -149.59,228.32 -37.62,90.1 -56.86,192.45 -56.86,306.18l0 2054.88c0,76.98 -38.49,115.47 -115.47,115.47l-272.94 0c-80.48,0 -120.72,-38.49 -120.72,-115.47l0 -3102.01c0,-34.99 11.37,-62.98 34.12,-83.98 22.74,-20.99 49.86,-31.49 81.35,-31.49l272.94 0c36.74,0 66.48,11.37 88.35,34.12 21.87,22.74 32.37,49.86 32.37,81.35l0 236.2z"/>
  <path id="6" class="fil0" d="M21290.11 6021.36c-8.75,-26.25 -14.87,-48.12 -18.37,-64.74 -3.5,-16.62 -2.62,-30.62 1.75,-41.99 4.37,-11.37 11.37,-20.99 21,-29.74 9.62,-8.75 22.74,-17.5 40.24,-26.24l248.44 -115.48c43.74,-17.49 77.85,-15.74 102.35,6.13 24.49,21.87 43.74,48.98 57.73,80.48 26.25,68.23 67.36,127.72 124.22,179.33 56.86,51.61 118.1,94.48 184.58,127.72 65.61,33.24 132.97,57.73 201.21,74.36 68.23,16.62 126.84,25.36 174.95,25.36 66.49,0 139.97,-9.62 220.45,-28.86 79.61,-19.25 155.71,-48.99 225.7,-89.23 70.85,-40.24 130.34,-92.73 178.45,-156.59 48.12,-63.86 71.74,-139.09 71.74,-226.57 0,-94.48 -22.75,-170.58 -68.24,-228.32 -45.49,-57.74 -104.1,-105.85 -176.71,-143.47 -72.6,-37.61 -153.96,-67.35 -244.06,-90.1 -90.1,-22.74 -179.33,-46.36 -268.56,-70.86 -156.59,-41.99 -297.43,-93.6 -419.9,-153.96 -123.35,-60.36 -228.32,-130.34 -314.93,-209.95 -86.6,-79.61 -152.21,-170.58 -197.7,-272.93 -45.49,-102.35 -68.23,-216.95 -68.23,-344.67 0,-139.97 27.12,-267.69 81.35,-383.16 54.24,-115.47 129.47,-214.32 226.57,-296.55 97.11,-82.23 213.45,-146.09 348.17,-191.58 135.59,-45.49 285.18,-68.24 449.64,-68.24 134.72,0 250.19,12.25 347.29,36.75 97.11,24.49 182.84,60.36 258.07,108.47 75.23,48.11 144.34,107.6 207.32,178.46 62.99,70.85 128.6,153.08 196.83,245.81 21,34.99 32.37,64.74 34.12,90.11 1.75,25.36 -14,50.73 -47.24,75.23l-204.7 154.84c-40.24,22.74 -70.86,28.86 -91.86,18.37 -20.99,-10.5 -43.73,-30.62 -68.23,-60.36 -40.24,-47.24 -79.6,-92.73 -118.1,-136.47 -38.49,-43.74 -81.35,-83.11 -130.34,-117.22 -48.99,-34.12 -104.97,-61.24 -167.08,-81.36 -61.24,-20.12 -135.6,-29.74 -220.45,-29.74 -76.98,0 -151.34,8.75 -223.07,26.24 -71.74,17.5 -135.6,45.49 -192.46,83.98 -56.86,38.49 -102.35,86.61 -136.46,145.22 -34.12,58.61 -50.74,128.59 -50.74,209.07 0,61.24 20.99,117.22 62.98,168.84 41.99,51.61 95.36,98.85 160.09,140.84 64.73,41.99 134.72,77.85 211.7,107.6 76.98,29.74 151.34,53.36 223.07,70.85 166.21,38.5 317.55,87.48 454.89,146.97 136.47,59.48 254.57,130.34 352.54,212.57 97.1,82.23 173.21,177.59 227.45,286.93 54.23,109.35 81.35,233.57 81.35,371.79 0,152.21 -29.74,288.68 -90.1,410.28 -60.36,121.59 -144.34,224.82 -251.94,309.67 -106.72,84.86 -234.44,150.47 -383.16,195.96 -148.71,45.48 -309.67,68.23 -484.63,68.23 -110.23,0 -223.07,-14 -338.55,-41.99 -116.34,-27.99 -225.69,-70.86 -328.92,-128.6 -103.22,-57.73 -196.82,-130.34 -279.93,-217.82 -83.98,-87.48 -147.84,-190.7 -191.58,-309.67z"/>
  <path id="7" class="fil1" d="M24287.51 2602.56c0,-33.87 11.29,-63.03 32.92,-87.49 21.64,-24.46 51.74,-36.69 91.26,-36.69l293.51 0c33.86,0 63.97,11.29 90.31,33.87 26.34,22.58 39.51,52.68 39.51,90.31l0 3942.64c0,82.79 -43.28,124.18 -129.82,124.18l-293.51 0c-82.79,0 -124.18,-41.39 -124.18,-124.18l0 -3942.64z"/>
  <path id="8" class="fil1" d="M25746.6 2613.85c0,-90.31 43.27,-135.47 129.82,-135.47l1317.98 0c201.31,0 393.23,24.46 575.73,73.38 182.5,48.92 351.84,118.53 508,208.84 156.16,90.31 297.27,199.44 423.33,327.38 126.06,128.88 234.25,269.99 323.62,425.22 89.37,155.22 158.04,322.67 206.96,503.29 48.92,179.68 73.38,366.89 73.38,562.56 0,194.74 -24.46,380.06 -74.32,557.86 -49.86,177.8 -120.42,345.25 -211.67,500.48 -91.25,155.22 -201.32,296.33 -329.26,423.33 -127.94,127 -269.99,236.12 -426.15,326.44 -156.17,90.31 -324.56,159.92 -505.18,209.78 -180.62,49.86 -368.77,75.26 -564.44,75.26l-1317.98 0c-33.87,0 -63.97,-8.47 -90.31,-24.46 -26.34,-15.99 -39.51,-47.04 -39.51,-94.07l0 -3939.82zm1433.69 3516.48c229.54,0 441.2,-42.33 634.99,-127 193.8,-84.66 361.25,-198.49 501.42,-342.43 140.17,-143.93 249.3,-311.38 328.32,-503.29 79.02,-191.91 118.53,-395.11 118.53,-609.6 0,-228.6 -41.39,-437.45 -124.18,-625.59 -82.78,-188.15 -194.73,-349.02 -336.78,-481.66 -142.05,-133.59 -308.56,-237.07 -498.59,-310.45 -190.03,-73.37 -393.23,-110.06 -609.6,-110.06l-905.94 0 0 3110.08 891.83 0z"/>
  <path id="9" class="fil1" d="M3701.58 2830.12c15.74,-38.49 40.24,-57.73 73.48,-57.73l341.17 0c43.74,0 73.48,7.87 88.35,24.49 14.87,16.62 21.87,37.62 21.87,62.11l0 34.12 -600.98 1448.65 640.35 1558.88 1225.58 -3031.15c24.49,-64.74 70.86,-97.1 139.09,-97.1l270.31 0c43.74,0 74.36,7.87 90.98,24.49 16.62,16.62 24.49,37.62 24.49,62.11l0 23.62 -1530.01 3676.74c0,1.75 -1.75,7.88 -6.12,19.25 -4.37,11.37 -12.25,23.62 -22.74,36.74 -10.5,13.12 -24.5,25.37 -41.99,36.74 -17.5,11.37 -38.49,17.5 -62.99,17.5l-178.46 0c-43.74,0 -76.1,-11.38 -97.97,-34.12 -21.87,-22.75 -33.24,-43.74 -33.24,-62.99l-677.09 -1616.61 -669.22 1603.49c-8.74,29.74 -23.62,55.11 -45.49,76.98 -21.86,21.87 -47.23,33.25 -75.23,33.25l-186.33 0c-36.74,0 -65.61,-12.25 -86.6,-35.87 -21,-23.62 -35.87,-44.62 -44.62,-63.86l-1524.75 -3676.74c-1.75,-3.5 -3.5,-8.75 -6.13,-15.75 -2.62,-7 -4.37,-14.87 -4.37,-23.62 0,-54.24 34.11,-81.35 102.35,-81.35l293.93 0c26.24,0 50.74,8.74 73.48,26.24 22.74,17.5 41.12,45.49 55.11,83.98l1228.21 3018.03 1225.58 -3070.52z"/>
  <path id="10" class="fil1" d="M7094.89 6556.73c0,76.98 -38.5,115.47 -115.48,115.47l-270.31 0c-82.23,0 -123.34,-38.49 -123.34,-115.47l0 -3102.01c0,-34.99 11.37,-62.98 34.11,-83.98 22.75,-20.99 49.87,-31.49 81.36,-31.49l272.93 0c36.75,0 66.49,11.37 88.36,34.12 21.87,22.74 32.37,49.86 32.37,81.35l0 3102.01zm0 -3821.96c0,77.86 -38.5,116.35 -115.48,116.35l-270.31 0c-82.23,0 -123.34,-38.49 -123.34,-116.35l0 -271.18c0,-35.87 11.37,-63.86 34.11,-84.86 22.75,-20.99 49.87,-31.49 81.36,-31.49l272.93 0c36.75,0 66.49,11.37 88.36,33.24 21.87,21.87 32.37,48.99 32.37,83.11l0 271.18z"/>
  <path id="11" class="fil1" d="M8451.69 3780.14c48.98,-61.23 104.1,-121.59 165.33,-180.2 61.24,-58.61 130.34,-111.1 206.45,-157.46 76.11,-46.37 160.09,-83.98 252.82,-112.85 92.72,-28.87 196.82,-42.87 312.3,-42.87 215.19,0 405.02,36.74 569.48,111.1 164.46,74.36 302.68,175.83 413.78,304.43 111.1,128.59 195.08,279.93 251.94,453.14 56.86,173.21 84.85,358.66 84.85,556.37l0 1781.94c0,59.49 -14.87,104.1 -45.49,133.85 -30.61,29.74 -69.98,44.61 -117.22,44.61l-194.2 0c-64.73,0 -105.85,-13.12 -124.22,-39.37 -18.37,-26.24 -27.99,-69.98 -27.99,-131.21l0 -1789.82c0,-104.98 -14,-212.58 -42.87,-321.93 -28.87,-109.35 -76.11,-208.2 -141.71,-297.43 -65.61,-89.22 -153.09,-161.83 -261.57,-217.82 -108.47,-55.98 -241.44,-83.98 -398.9,-83.98 -99.73,0 -202.95,17.5 -309.68,53.36 -106.72,35.87 -203.82,89.23 -291.3,159.22 -87.48,69.98 -159.21,156.58 -216.07,259.81 -56.87,103.22 -85.73,221.32 -85.73,354.29l0 1939.41c0,76.98 -38.5,115.47 -115.48,115.47l-270.31 0c-82.23,0 -123.34,-38.49 -123.34,-115.47l0 -3102.01c0,-34.99 11.37,-62.98 34.11,-83.98 22.75,-20.99 49.87,-31.49 81.36,-31.49l272.93 0c36.75,0 66.49,11.37 88.36,34.12 21.87,22.74 32.37,49.86 32.37,81.35l0 325.42z"/>
  <path id="12" class="fil1" d="M11902.74 3780.14c48.98,-61.23 104.1,-121.59 165.33,-180.2 61.24,-58.61 130.34,-111.1 206.45,-157.46 76.11,-46.37 160.09,-83.98 252.82,-112.85 92.72,-28.87 196.82,-42.87 312.3,-42.87 215.19,0 405.02,36.74 569.48,111.1 164.46,74.36 302.68,175.83 413.78,304.43 111.1,128.59 195.08,279.93 251.94,453.14 56.86,173.21 84.85,358.66 84.85,556.37l0 1781.94c0,59.49 -14.87,104.1 -45.49,133.85 -30.61,29.74 -69.98,44.61 -117.22,44.61l-194.2 0c-64.73,0 -105.85,-13.12 -124.22,-39.37 -18.37,-26.24 -27.99,-69.98 -27.99,-131.21l0 -1789.82c0,-104.98 -14,-212.58 -42.87,-321.93 -28.87,-109.35 -76.11,-208.2 -141.71,-297.43 -65.61,-89.22 -153.09,-161.83 -261.57,-217.82 -108.47,-55.98 -241.44,-83.98 -398.9,-83.98 -99.73,0 -202.95,17.5 -309.68,53.36 -106.72,35.87 -203.82,89.23 -291.3,159.22 -87.48,69.98 -159.21,156.58 -216.07,259.81 -56.87,103.22 -85.73,221.32 -85.73,354.29l0 1939.41c0,76.98 -38.5,115.47 -115.48,115.47l-270.31 0c-82.23,0 -123.34,-38.49 -123.34,-115.47l0 -3102.01c0,-34.99 11.37,-62.98 34.11,-83.98 22.75,-20.99 49.87,-31.49 81.36,-31.49l272.93 0c36.75,0 66.49,11.37 88.36,34.12 21.87,22.74 32.37,49.86 32.37,81.35l0 325.42z"/>
  <path id="13" class="fil1" d="M17214.46 5908.51c15.75,-14 33.25,-27.12 51.62,-39.37 18.37,-12.24 36.74,-18.37 55.98,-18.37 26.25,0 51.62,15.75 76.11,47.24 34.99,47.24 63.86,85.73 85.73,115.47 21.87,29.75 39.36,53.37 53.36,70.86 14,19.25 24.5,33.24 31.49,41.99 8.75,10.5 15.75,21 21,32.37 5.25,11.37 7.87,24.49 7.87,38.49 0,19.24 -7,40.24 -21.87,62.11 -14.87,21.87 -41.11,47.24 -77.85,77.86 -75.24,59.48 -153.09,113.72 -234.45,161.83 -81.35,48.12 -167.08,90.1 -256.31,125.1 -89.23,35.86 -182.83,62.98 -281.68,82.23 -98.85,19.24 -203.83,28.86 -314.05,28.86 -155.72,0 -306.18,-20.99 -451.39,-62.11 -145.22,-41.11 -281.69,-99.72 -410.28,-175.83 -128.6,-76.1 -245.82,-167.08 -351.67,-272.06 -105.85,-104.97 -197.7,-221.32 -274.68,-349.04 -76.98,-128.59 -136.47,-265.06 -178.46,-412.02 -41.99,-146.09 -62.98,-298.31 -62.98,-455.77 0,-157.46 20.12,-310.55 59.48,-457.52 39.37,-146.96 95.35,-284.3 167.96,-412.9 72.61,-127.72 160.09,-244.06 263.31,-349.04 103.23,-104.97 219.58,-195.95 348.17,-271.18 128.59,-75.23 267.69,-132.97 417.28,-174.09 149.58,-41.11 307.05,-62.11 473.26,-62.11 131.22,0 261.56,14.88 391.03,44.62 129.47,29.74 253.69,73.48 372.66,130.34 118.97,56.86 230.94,126.85 335.04,211.7 104.1,83.98 196.83,180.21 279.06,288.68 111.97,150.47 195.08,322.8 249.32,515.25 54.23,192.46 79.6,413.78 76.1,664.84 0,82.23 -38.49,123.35 -115.47,123.35l-2766.09 0c29.75,139.97 82.23,269.43 156.59,388.41 74.36,118.97 163.59,222.19 267.69,310.55 104.1,88.35 219.57,157.46 347.29,207.32 127.72,49.86 259.81,75.23 396.28,75.23 96.23,0 183.71,-9.62 261.56,-27.99 77.86,-18.37 148.72,-42.86 212.58,-73.48 63.86,-30.62 122.47,-65.61 176.7,-104.98 54.24,-39.36 106.73,-79.6 157.47,-121.59l5.24 -5.25zm-1438.15 -1942.04c-132.97,89.23 -247.57,201.21 -343.79,336.8 -96.23,135.59 -161.84,285.18 -196.83,447.89l2372.43 0c-19.25,-145.21 -63.86,-277.31 -134.72,-396.28 -70.86,-118.97 -160.08,-220.45 -266.81,-304.43 -106.72,-83.98 -226.57,-149.58 -360.41,-195.95 -133.85,-46.36 -272.94,-69.11 -416.4,-69.11 -113.73,0 -225.7,14.87 -336.8,44.62 -111.1,29.74 -216.94,75.23 -316.67,136.46z"/>
  <path id="14" class="fil1" d="M19313.96 3690.92c20.99,-40.24 51.61,-83.98 90.98,-131.22 39.36,-47.24 86.6,-90.98 142.59,-131.22 55.98,-40.24 119.84,-74.36 191.58,-101.48 71.73,-27.12 150.46,-40.24 236.19,-40.24 94.48,0 180.21,3.5 256.31,11.37 76.11,7.88 147.84,21.87 216.08,41.99 68.23,20.13 134.71,47.24 198.57,81.36 63.86,34.12 130.35,77.86 200.33,130.34 21,15.75 44.62,35.87 69.98,60.36 25.37,24.5 37.62,53.37 37.62,86.61 0,19.24 -4.37,36.74 -13.12,52.49l-154.84 238.81c-24.49,29.75 -48.99,44.62 -73.48,44.62 -14,0 -27.12,-5.25 -39.37,-14.87 -12.24,-9.63 -27.12,-20.12 -44.61,-32.37 -108.48,-73.48 -213.45,-127.72 -315.8,-161.84 -102.35,-34.11 -211.7,-50.73 -327.17,-50.73 -87.48,0 -171.46,16.62 -251.94,49.86 -80.48,33.24 -151.34,80.48 -213.45,142.59 -62.11,62.11 -111.97,138.22 -149.59,228.32 -37.62,90.1 -56.86,192.45 -56.86,306.18l0 2054.88c0,76.98 -38.49,115.47 -115.47,115.47l-272.94 0c-80.48,0 -120.72,-38.49 -120.72,-115.47l0 -3102.01c0,-34.99 11.37,-62.98 34.12,-83.98 22.74,-20.99 49.86,-31.49 81.35,-31.49l272.94 0c36.74,0 66.48,11.37 88.35,34.12 21.87,22.74 32.37,49.86 32.37,81.35l0 236.2z"/>
  <path id="15" class="fil1" d="M21290.11 6021.36c-8.75,-26.25 -14.87,-48.12 -18.37,-64.74 -3.5,-16.62 -2.62,-30.62 1.75,-41.99 4.37,-11.37 11.37,-20.99 21,-29.74 9.62,-8.75 22.74,-17.5 40.24,-26.24l248.44 -115.48c43.74,-17.49 77.85,-15.74 102.35,6.13 24.49,21.87 43.74,48.98 57.73,80.48 26.25,68.23 67.36,127.72 124.22,179.33 56.86,51.61 118.1,94.48 184.58,127.72 65.61,33.24 132.97,57.73 201.21,74.36 68.23,16.62 126.84,25.36 174.95,25.36 66.49,0 139.97,-9.62 220.45,-28.86 79.61,-19.25 155.71,-48.99 225.7,-89.23 70.85,-40.24 130.34,-92.73 178.45,-156.59 48.12,-63.86 71.74,-139.09 71.74,-226.57 0,-94.48 -22.75,-170.58 -68.24,-228.32 -45.49,-57.74 -104.1,-105.85 -176.71,-143.47 -72.6,-37.61 -153.96,-67.35 -244.06,-90.1 -90.1,-22.74 -179.33,-46.36 -268.56,-70.86 -156.59,-41.99 -297.43,-93.6 -419.9,-153.96 -123.35,-60.36 -228.32,-130.34 -314.93,-209.95 -86.6,-79.61 -152.21,-170.58 -197.7,-272.93 -45.49,-102.35 -68.23,-216.95 -68.23,-344.67 0,-139.97 27.12,-267.69 81.35,-383.16 54.24,-115.47 129.47,-214.32 226.57,-296.55 97.11,-82.23 213.45,-146.09 348.17,-191.58 135.59,-45.49 285.18,-68.24 449.64,-68.24 134.72,0 250.19,12.25 347.29,36.75 97.11,24.49 182.84,60.36 258.07,108.47 75.23,48.11 144.34,107.6 207.32,178.46 62.99,70.85 128.6,153.08 196.83,245.81 21,34.99 32.37,64.74 34.12,90.11 1.75,25.36 -14,50.73 -47.24,75.23l-204.7 154.84c-40.24,22.74 -70.86,28.86 -91.86,18.37 -20.99,-10.5 -43.73,-30.62 -68.23,-60.36 -40.24,-47.24 -79.6,-92.73 -118.1,-136.47 -38.49,-43.74 -81.35,-83.11 -130.34,-117.22 -48.99,-34.12 -104.97,-61.24 -167.08,-81.36 -61.24,-20.12 -135.6,-29.74 -220.45,-29.74 -76.98,0 -151.34,8.75 -223.07,26.24 -71.74,17.5 -135.6,45.49 -192.46,83.98 -56.86,38.49 -102.35,86.61 -136.46,145.22 -34.12,58.61 -50.74,128.59 -50.74,209.07 0,61.24 20.99,117.22 62.98,168.84 41.99,51.61 95.36,98.85 160.09,140.84 64.73,41.99 134.72,77.85 211.7,107.6 76.98,29.74 151.34,53.36 223.07,70.85 166.21,38.5 317.55,87.48 454.89,146.97 136.47,59.48 254.57,130.34 352.54,212.57 97.1,82.23 173.21,177.59 227.45,286.93 54.23,109.35 81.35,233.57 81.35,371.79 0,152.21 -29.74,288.68 -90.1,410.28 -60.36,121.59 -144.34,224.82 -251.94,309.67 -106.72,84.86 -234.44,150.47 -383.16,195.96 -148.71,45.48 -309.67,68.23 -484.63,68.23 -110.23,0 -223.07,-14 -338.55,-41.99 -116.34,-27.99 -225.69,-70.86 -328.92,-128.6 -103.22,-57.73 -196.82,-130.34 -279.93,-217.82 -83.98,-87.48 -147.84,-190.7 -191.58,-309.67z"/>
  <g>
   <path id="16" class="fil2" d="M24146.4 2602.56c0,-33.39 5.97,-65.61 17.61,-96.61 11.51,-30.59 28.66,-58.6 51.14,-84.03 25.6,-28.93 56.14,-50.61 91.84,-65.01 32.49,-13.08 67.32,-19.64 104.7,-19.64l293.51 0c68.25,0 128.9,22.69 181.81,68.05 29.48,25.27 51.87,55.35 67.11,90.22 14.67,33.51 22.01,69.19 22.01,107.02l0 3942.64c0,81.26 -25.54,146.32 -76.56,195.1l-0.28 -0.29c-49.23,46.98 -113.95,70.48 -194.09,70.48l-293.51 0c-79.96,0 -144.1,-24.14 -192.36,-72.38l-0.55 -0.55c-48.24,-48.26 -72.38,-112.38 -72.38,-192.36l0 -3942.64zm141.11 0c0,-33.87 11.29,-63.03 32.92,-87.49 21.64,-24.46 51.74,-36.69 91.26,-36.69l293.51 0c33.86,0 63.97,11.29 90.31,33.87 26.34,22.58 39.51,52.68 39.51,90.31l0 3942.64c0,82.79 -43.28,124.18 -129.82,124.18l-293.51 0c-82.79,0 -124.18,-41.39 -124.18,-124.18l0 -3942.64z"/>
  </g>
  <g>
   <path id="17" class="fil2" d="M25605.49 2613.85c0,-82.59 24.07,-148.98 72.14,-199.16 49.45,-51.6 115.73,-77.42 198.79,-77.42l1317.98 0c213.22,0 417.28,26.12 612.11,78.34 95.75,25.66 189.43,57.33 280.98,94.96 91.09,37.45 178.17,80.2 261.2,128.21 83.03,48.01 162.5,101.38 238.38,160.05 75.72,58.57 147.31,122.07 214.71,190.48l0.55 0c65.85,67.32 128.09,139.22 186.6,215.96 56.76,74.44 109.46,153.66 157.97,237.93 48.13,83.59 90.4,169.78 126.92,258.65 37.18,90.5 68.57,183.05 94.23,277.75l0.14 -0.04c25.56,93.89 45.02,191.87 58.35,294.02 13.32,102.14 19.99,203.93 19.99,305.47 0,101.21 -6.66,202.29 -20.11,303.47 -13.37,100.58 -33.24,197.99 -59.72,292.42 -26.19,93.43 -58.43,185.49 -96.65,275.88 -37.71,89.16 -80.84,175.15 -129.35,257.68 -49.78,84.69 -103.28,163.72 -160.36,237.11 -57.76,74.26 -121.48,145.92 -190.95,214.88 -68.75,68.25 -141.04,131.48 -216.83,189.53 -75.51,57.84 -154.85,110.88 -237.98,158.96 -83.84,48.49 -170.5,91.23 -259.96,128.33 -88.75,36.8 -181.53,68.52 -278.3,95.23 -96.56,26.66 -195.49,46.81 -296.72,60.3 -102.01,13.6 -203.77,20.47 -305.2,20.47l-1317.98 0c-29.31,0 -57.5,-3.77 -84.51,-11.09l0.04 -0.14c-27.18,-7.39 -53.4,-18.89 -78.6,-34.18 -39.22,-23.79 -68.05,-57.37 -86.4,-100.98 -14.31,-33.96 -21.46,-71.66 -21.46,-113.25l0 -3939.82zm141.11 0c0,-90.31 43.27,-135.47 129.82,-135.47l1317.98 0c201.31,0 393.23,24.46 575.73,73.38 182.5,48.92 351.84,118.53 508,208.84 156.16,90.31 297.27,199.44 423.33,327.38 126.06,128.88 234.25,269.99 323.62,425.22 89.37,155.22 158.04,322.67 206.96,503.29 48.92,179.68 73.38,366.89 73.38,562.56 0,194.74 -24.46,380.06 -74.32,557.86 -49.86,177.8 -120.42,345.25 -211.67,500.48 -91.25,155.22 -201.32,296.33 -329.26,423.33 -127.94,127 -269.99,236.12 -426.15,326.44 -156.17,90.31 -324.56,159.92 -505.18,209.78 -180.62,49.86 -368.77,75.26 -564.44,75.26l-1317.98 0c-33.87,0 -63.97,-8.47 -90.31,-24.46 -26.34,-15.99 -39.51,-47.04 -39.51,-94.07l0 -3939.82zm1433.69 3516.48c229.54,0 441.2,-42.33 634.99,-127 193.8,-84.66 361.25,-198.49 501.42,-342.43 140.17,-143.93 249.3,-311.38 328.32,-503.29 79.02,-191.91 118.53,-395.11 118.53,-609.6 0,-228.6 -41.39,-437.45 -124.18,-625.59 -82.78,-188.15 -194.73,-349.02 -336.78,-481.66 -142.05,-133.59 -308.56,-237.07 -498.59,-310.45 -190.03,-73.37 -393.23,-110.06 -609.6,-110.06l-905.94 0 0 3110.08 891.83 0zm0 -141.11c105.59,0 206.72,-9.67 303.34,-28.99 96.95,-19.38 188.79,-48.02 275.43,-85.88 88.68,-38.74 171.52,-84.3 248.36,-136.78 75.81,-51.78 145.34,-110.02 208.41,-174.79 63.89,-65.59 120.53,-136.29 170,-212.15 49.97,-76.62 92.98,-158.76 129.1,-246.49 71.67,-174.06 107.51,-359.45 107.51,-556.13 0,-105.6 -9.45,-206.01 -28.31,-301.07 -18.64,-93.98 -46.57,-183.28 -83.74,-267.75 -38.34,-87.14 -82.61,-166.74 -132.84,-238.59 -49.83,-71.26 -106.77,-136.9 -170.87,-196.76l-0.55 -0.55c-63.91,-60.1 -133.62,-113.63 -208.98,-160.55 -76.35,-47.55 -157.7,-87.97 -243.86,-121.24 -86.96,-33.58 -176.65,-58.71 -269.01,-75.38 -91.41,-16.5 -188.04,-24.76 -289.88,-24.76l-764.83 0 0 2827.86 750.72 0z"/>
  </g>
 </g>
</svg>
