<?xml version="1.0" encoding="UTF-8"?>
<!DOCTYPE svg PUBLIC "-//W3C//DTD SVG 1.1//EN" "http://www.w3.org/Graphics/SVG/1.1/DTD/svg11.dtd">
<!-- Creator: CorelDRAW 2020 (64 Bit) -->
<svg xmlns="http://www.w3.org/2000/svg" xml:space="preserve" width="300mm" height="300mm" version="1.1" style="shape-rendering:geometricPrecision; text-rendering:geometricPrecision; image-rendering:optimizeQuality; fill-rule:evenodd; clip-rule:evenodd"
viewBox="0 0 30000 30000"
 xmlns:xlink="http://www.w3.org/1999/xlink"
 xmlns:xodm="http://www.corel.com/coreldraw/odm/2003">
 <defs>
  <style type="text/css">
   <![CDATA[
    .fil0 {fill:url(#id0)}
   ]]>
  </style>
  <linearGradient id="id0" gradientUnits="userSpaceOnUse" x1="1368.73" y1="14825.48" x2="28872.98" y2="14825.48">
   <stop offset="0" style="stop-opacity:1; stop-color:#000066"/>
   <stop offset="1" style="stop-opacity:1; stop-color:#C80000"/>
  </linearGradient>
 </defs>
 <g id="Layer_x0020_1">
  <metadata id="CorelCorpID_0Corel-Layer"/>
  <path class="fil0" d="M16235.5 778.83l12197.98 8538.62c613.06,429.11 580.68,1154.02 -71.7,1610.62l-5208.06 3645.29 -7212.92 -5049.61 -421.22 294.83 7185.38 5030.43 0 10172.2c401.89,140.89 701.5,686.04 701.5,1336.84l0 1449.49c0,757.74 -406.17,1372.25 -907.03,1372.27 -500.86,-0.02 -907.03,-614.53 -907.03,-1372.28l0 -1449.46c0,-649.39 298.3,-1193.59 698.87,-1335.95l-12.52 -9836.11 -5971.69 4180.35c-652.33,456.64 -1687.88,479.29 -2300.86,50.17l-12197.97 -8538.68c-613.03,-429.11 -580.73,-1153.92 71.7,-1610.6l12054.71 -8438.25c652.43,-456.75 1687.84,-479.29 2300.86,-50.17zm7868.91 13682.53l1855.61 -1300.88c306.37,-214.77 557.05,-16.68 557.05,440.26l0 4634.49c0,456.94 -250.68,1006.51 -557.05,1221.29l-1855.61 1300.88c-306.37,214.77 -557.05,16.68 -557.05,-440.26l0 -4634.49c0,-456.94 250.68,-1006.52 557.05,-1221.29zm-2305.02 7194.84c0,454.24 -251.48,1000.73 -560.14,1211.84 -1526.4,1044.02 -3052.83,2088.06 -4579.21,3132.1 -1135.01,718.01 -2147.43,650.97 -3068.75,0.59l-9311.32 -6427.7c-306.76,-211.79 -557.91,-758.14 -557.91,-1212.52l0 -4643.93c0,-454.37 251.56,-652.02 557.91,-439.59l9294.26 6447.02c1146.58,707.84 2164.68,637.14 3089.44,0l4575.58 -3152.02c308.07,-212.19 560.14,-14.01 560.14,440.13l0 4644.08zm235.69 -6787.88l-7213.01 -5049.77 1118.75 -783.06 7212.92 5049.61 4978.67 -3484.73c384.1,-268.84 489.56,-662.72 71.68,-955.23l-12197.98 -8538.62c-497.73,-348.42 -1352.5,-292.53 -1842.09,50.17l-12054.71 8438.25c-384.1,268.88 -489.6,662.68 -71.69,955.22l12197.97 8538.68c497.66,348.37 1352.57,292.5 1842.08,-50.17l5957.41 -4170.35zm463.82 10504.52l-73.68 26.19c-122.4,43.5 -221.96,178.49 -280.22,288.35 -106.92,201.58 -152.6,444 -152.6,670.69l0 1449.46c0,237.75 50.66,496.24 170.91,703.71 60.53,104.44 166.67,237.39 292.22,263.95 14.46,3.05 29.12,4.62 43.9,4.62 14.78,0 29.44,-1.57 43.9,-4.62 125.55,-26.56 231.69,-159.51 292.22,-263.95 120.25,-207.47 170.91,-465.95 170.91,-703.7l0 -1449.49c0,-227.06 -45.84,-469.99 -153.19,-671.78 -58.33,-109.67 -158.12,-244.63 -280.64,-287.58l-73.73 -25.85zm1451.15 -4995.73l1780.35 -1248.12c228.1,-159.91 386.67,-620.69 386.67,-893.76l0 -4634.49c0,-14.34 -0.73,-36.18 -2.69,-59.97l-1780.35 1248.12c-228.09,159.9 -386.67,620.7 -386.67,893.76l0 4634.49c0,14.34 0.73,36.18 2.69,59.97zm-2553.65 -3427.65l-4505.81 3103.95c-1149.37,791.78 -2348.52,738.18 -3526.48,10.96l-9.09 -5.6 -9230.18 -6402.57c-2.03,23.93 -2.78,45.99 -2.78,60.38l0 4643.93c0,270.04 158.3,726.74 385.15,883.34l9313.05 6428.89 1.71 1.21c879.26,620.69 1727.37,553.43 2618.3,-8.11 1524.38,-1042.67 3048.77,-2085.32 4573.16,-3127.96 227.5,-155.61 385.96,-611.87 385.96,-881.68l0 -4644.08c0,-14.84 -0.8,-37.85 -2.99,-62.66z"/>
 </g>
</svg>
